M48
; DRILL file {KiCad 8.0.8-8.0.8-0~ubuntu24.04.1} date 2025-08-02T22:37:24-0400
; FORMAT={-:-/ absolute / inch / decimal}
; #@! TF.CreationDate,2025-08-02T22:37:24-04:00
; #@! TF.GenerationSoftware,Kicad,Pcbnew,8.0.8-8.0.8-0~ubuntu24.04.1
; #@! TF.FileFunction,Plated,1,2,PTH
FMAT,2
INCH
; #@! TA.AperFunction,Plated,PTH,ComponentDrill
T1C0.0079
; #@! TA.AperFunction,Plated,PTH,ViaDrill
T2C0.0118
; #@! TA.AperFunction,Plated,PTH,ComponentDrill
T3C0.0598
%
G90
G05
T1
X6.826Y-3.9638
X6.826Y-4.0189
X6.8535Y-3.9362
X6.8535Y-3.9913
X6.8535Y-4.0465
X6.8811Y-3.9638
X6.8811Y-4.0189
X6.9087Y-3.9362
X6.9087Y-3.9913
X6.9087Y-4.0465
X6.9362Y-3.9638
X6.9362Y-4.0189
T2
X6.2961Y-4.1725
X6.3138Y-4.5354
X6.3217Y-4.1437
X6.3343Y-4.2122
X6.3457Y-3.8697
X6.361Y-4.3283
X6.361Y-4.5343
X6.422Y-4.1673
X6.5047Y-3.8311
X6.5307Y-3.6921
X6.8138Y-4.4465
X6.939Y-4.5138
T3
X5.7281Y-3.9673
X5.7281Y-4.774
M30
