%TF.GenerationSoftware,KiCad,Pcbnew,8.0.8-8.0.8-0~ubuntu24.04.1*%
%TF.CreationDate,2025-08-02T22:37:24-04:00*%
%TF.ProjectId,electronics,656c6563-7472-46f6-9e69-63732e6b6963,rev?*%
%TF.SameCoordinates,Original*%
%TF.FileFunction,Soldermask,Top*%
%TF.FilePolarity,Negative*%
%FSLAX46Y46*%
G04 Gerber Fmt 4.6, Leading zero omitted, Abs format (unit mm)*
G04 Created by KiCad (PCBNEW 8.0.8-8.0.8-0~ubuntu24.04.1) date 2025-08-02 22:37:24*
%MOMM*%
%LPD*%
G01*
G04 APERTURE LIST*
G04 Aperture macros list*
%AMRoundRect*
0 Rectangle with rounded corners*
0 $1 Rounding radius*
0 $2 $3 $4 $5 $6 $7 $8 $9 X,Y pos of 4 corners*
0 Add a 4 corners polygon primitive as box body*
4,1,4,$2,$3,$4,$5,$6,$7,$8,$9,$2,$3,0*
0 Add four circle primitives for the rounded corners*
1,1,$1+$1,$2,$3*
1,1,$1+$1,$4,$5*
1,1,$1+$1,$6,$7*
1,1,$1+$1,$8,$9*
0 Add four rect primitives between the rounded corners*
20,1,$1+$1,$2,$3,$4,$5,0*
20,1,$1+$1,$4,$5,$6,$7,0*
20,1,$1+$1,$6,$7,$8,$9,0*
20,1,$1+$1,$8,$9,$2,$3,0*%
G04 Aperture macros list end*
%ADD10C,2.100000*%
%ADD11RoundRect,0.102000X-0.650000X-1.700000X0.650000X-1.700000X0.650000X1.700000X-0.650000X1.700000X0*%
%ADD12C,0.650000*%
%ADD13RoundRect,0.150000X-0.150000X-0.425000X0.150000X-0.425000X0.150000X0.425000X-0.150000X0.425000X0*%
%ADD14RoundRect,0.075000X-0.075000X-0.500000X0.075000X-0.500000X0.075000X0.500000X-0.075000X0.500000X0*%
%ADD15RoundRect,0.250000X-0.840000X-0.750000X0.840000X-0.750000X0.840000X0.750000X-0.840000X0.750000X0*%
%ADD16RoundRect,0.375000X0.625000X0.375000X-0.625000X0.375000X-0.625000X-0.375000X0.625000X-0.375000X0*%
%ADD17RoundRect,0.500000X0.500000X1.400000X-0.500000X1.400000X-0.500000X-1.400000X0.500000X-1.400000X0*%
%ADD18RoundRect,0.375000X0.375000X-0.625000X0.375000X0.625000X-0.375000X0.625000X-0.375000X-0.625000X0*%
%ADD19RoundRect,0.500000X1.400000X-0.500000X1.400000X0.500000X-1.400000X0.500000X-1.400000X-0.500000X0*%
%ADD20R,0.250000X0.675000*%
%ADD21R,0.675000X0.250000*%
%ADD22C,0.600000*%
%ADD23R,3.900000X3.900000*%
%ADD24R,1.500000X0.900000*%
%ADD25R,0.900000X1.500000*%
%ADD26RoundRect,0.135000X0.185000X-0.135000X0.185000X0.135000X-0.185000X0.135000X-0.185000X-0.135000X0*%
%ADD27RoundRect,0.250000X-0.475000X0.250000X-0.475000X-0.250000X0.475000X-0.250000X0.475000X0.250000X0*%
%ADD28RoundRect,0.250000X0.250000X0.475000X-0.250000X0.475000X-0.250000X-0.475000X0.250000X-0.475000X0*%
%ADD29RoundRect,0.225000X-0.250000X0.225000X-0.250000X-0.225000X0.250000X-0.225000X0.250000X0.225000X0*%
%ADD30RoundRect,0.225000X-0.225000X-0.250000X0.225000X-0.250000X0.225000X0.250000X-0.225000X0.250000X0*%
%ADD31RoundRect,0.250000X0.475000X-0.250000X0.475000X0.250000X-0.475000X0.250000X-0.475000X-0.250000X0*%
%ADD32C,2.484000*%
G04 APERTURE END LIST*
D10*
%TO.C,REF\u002A\u002A*%
X189910000Y-106060000D03*
%TD*%
%TO.C,REF\u002A\u002A*%
X133850000Y-121260000D03*
%TD*%
%TO.C,REF\u002A\u002A*%
X133810000Y-89690000D03*
%TD*%
D11*
%TO.C,BZ1*%
X183642500Y-119190000D03*
X192342500Y-119190000D03*
%TD*%
D12*
%TO.C,J1*%
X172630000Y-117705000D03*
X178410000Y-117705000D03*
D13*
X172320000Y-116630000D03*
X173120000Y-116630000D03*
D14*
X174270000Y-116630000D03*
X175270000Y-116630000D03*
X175770000Y-116630000D03*
X176770000Y-116630000D03*
D13*
X177920000Y-116630000D03*
X178720000Y-116630000D03*
X178720000Y-116630000D03*
X177920000Y-116630000D03*
D14*
X177270000Y-116630000D03*
X176270000Y-116630000D03*
X174770000Y-116630000D03*
X173770000Y-116630000D03*
D13*
X173120000Y-116630000D03*
X172320000Y-116630000D03*
D15*
X170410000Y-117205000D03*
X170410000Y-121135000D03*
X180630000Y-117205000D03*
X180630000Y-121135000D03*
%TD*%
D16*
%TO.C,U5*%
X167270000Y-121590000D03*
X167270000Y-119290000D03*
D17*
X160970000Y-119290000D03*
D16*
X167270000Y-116990000D03*
%TD*%
D18*
%TO.C,U3*%
X164840000Y-100300000D03*
D19*
X162540000Y-94000000D03*
D18*
X162540000Y-100300000D03*
X160240000Y-100300000D03*
%TD*%
D20*
%TO.C,U2*%
X164192500Y-108527500D03*
X163692500Y-108527500D03*
X163192500Y-108527500D03*
X162692500Y-108527500D03*
D21*
X162430000Y-109290000D03*
X162430000Y-109790000D03*
X162430000Y-110290000D03*
D20*
X162692500Y-111052500D03*
X163192500Y-111052500D03*
X163692500Y-111052500D03*
X164192500Y-111052500D03*
D21*
X164455000Y-110290000D03*
X164455000Y-109790000D03*
X164455000Y-109290000D03*
%TD*%
D22*
%TO.C,U1*%
X176180000Y-102080000D03*
X176180000Y-100680000D03*
X175480000Y-102780000D03*
X175480000Y-101380000D03*
X175480000Y-99980000D03*
X174780000Y-102080000D03*
D23*
X174780000Y-101380000D03*
D22*
X174780000Y-100680000D03*
X174080000Y-102780000D03*
X174080000Y-101380000D03*
X174080000Y-99980000D03*
X173380000Y-102080000D03*
X173380000Y-100680000D03*
D24*
X185030000Y-93660000D03*
X185030000Y-94930000D03*
X185030000Y-96200000D03*
X185030000Y-97470000D03*
X185030000Y-98740000D03*
X185030000Y-100010000D03*
X185030000Y-101280000D03*
X185030000Y-102550000D03*
X185030000Y-103820000D03*
X185030000Y-105090000D03*
X185030000Y-106360000D03*
X185030000Y-107630000D03*
X185030000Y-108900000D03*
X185030000Y-110170000D03*
D25*
X183265000Y-111420000D03*
X181995000Y-111420000D03*
X180725000Y-111420000D03*
X179455000Y-111420000D03*
X178185000Y-111420000D03*
X176915000Y-111420000D03*
X175645000Y-111420000D03*
X174375000Y-111420000D03*
X173105000Y-111420000D03*
X171835000Y-111420000D03*
X170565000Y-111420000D03*
X169295000Y-111420000D03*
D24*
X167530000Y-110170000D03*
X167530000Y-108900000D03*
X167530000Y-107630000D03*
X167530000Y-106360000D03*
X167530000Y-105090000D03*
X167530000Y-103820000D03*
X167530000Y-102550000D03*
X167530000Y-101280000D03*
X167530000Y-100010000D03*
X167530000Y-98740000D03*
X167530000Y-97470000D03*
X167530000Y-96200000D03*
X167530000Y-94930000D03*
X167530000Y-93660000D03*
%TD*%
D26*
%TO.C,R1*%
X158250000Y-94200000D03*
X158250000Y-93180000D03*
%TD*%
D27*
%TO.C,C7*%
X161610000Y-102610000D03*
X161610000Y-104510000D03*
%TD*%
D28*
%TO.C,C6*%
X167760000Y-114590000D03*
X165860000Y-114590000D03*
%TD*%
D29*
%TO.C,C4*%
X163410000Y-112695000D03*
X163410000Y-114245000D03*
%TD*%
D30*
%TO.C,C3*%
X162725000Y-106990000D03*
X164275000Y-106990000D03*
%TD*%
D31*
%TO.C,C2*%
X158370000Y-118360000D03*
X158370000Y-116460000D03*
%TD*%
D27*
%TO.C,C1*%
X164290000Y-102590000D03*
X164290000Y-104490000D03*
%TD*%
D32*
%TO.C,BT1*%
X145494234Y-100768505D03*
X145494234Y-121258505D03*
%TD*%
M02*
