%TF.GenerationSoftware,KiCad,Pcbnew,8.0.8-8.0.8-0~ubuntu24.04.1*%
%TF.CreationDate,2025-08-02T22:37:24-04:00*%
%TF.ProjectId,electronics,656c6563-7472-46f6-9e69-63732e6b6963,rev?*%
%TF.SameCoordinates,Original*%
%TF.FileFunction,Copper,L1,Top*%
%TF.FilePolarity,Positive*%
%FSLAX46Y46*%
G04 Gerber Fmt 4.6, Leading zero omitted, Abs format (unit mm)*
G04 Created by KiCad (PCBNEW 8.0.8-8.0.8-0~ubuntu24.04.1) date 2025-08-02 22:37:24*
%MOMM*%
%LPD*%
G01*
G04 APERTURE LIST*
G04 Aperture macros list*
%AMRoundRect*
0 Rectangle with rounded corners*
0 $1 Rounding radius*
0 $2 $3 $4 $5 $6 $7 $8 $9 X,Y pos of 4 corners*
0 Add a 4 corners polygon primitive as box body*
4,1,4,$2,$3,$4,$5,$6,$7,$8,$9,$2,$3,0*
0 Add four circle primitives for the rounded corners*
1,1,$1+$1,$2,$3*
1,1,$1+$1,$4,$5*
1,1,$1+$1,$6,$7*
1,1,$1+$1,$8,$9*
0 Add four rect primitives between the rounded corners*
20,1,$1+$1,$2,$3,$4,$5,0*
20,1,$1+$1,$4,$5,$6,$7,0*
20,1,$1+$1,$6,$7,$8,$9,0*
20,1,$1+$1,$8,$9,$2,$3,0*%
G04 Aperture macros list end*
%TA.AperFunction,SMDPad,CuDef*%
%ADD10R,1.300000X3.400000*%
%TD*%
%TA.AperFunction,SMDPad,CuDef*%
%ADD11RoundRect,0.150000X-0.150000X-0.425000X0.150000X-0.425000X0.150000X0.425000X-0.150000X0.425000X0*%
%TD*%
%TA.AperFunction,SMDPad,CuDef*%
%ADD12RoundRect,0.075000X-0.075000X-0.500000X0.075000X-0.500000X0.075000X0.500000X-0.075000X0.500000X0*%
%TD*%
%TA.AperFunction,SMDPad,CuDef*%
%ADD13RoundRect,0.250000X-0.840000X-0.750000X0.840000X-0.750000X0.840000X0.750000X-0.840000X0.750000X0*%
%TD*%
%TA.AperFunction,SMDPad,CuDef*%
%ADD14RoundRect,0.375000X0.625000X0.375000X-0.625000X0.375000X-0.625000X-0.375000X0.625000X-0.375000X0*%
%TD*%
%TA.AperFunction,SMDPad,CuDef*%
%ADD15RoundRect,0.500000X0.500000X1.400000X-0.500000X1.400000X-0.500000X-1.400000X0.500000X-1.400000X0*%
%TD*%
%TA.AperFunction,SMDPad,CuDef*%
%ADD16RoundRect,0.375000X0.375000X-0.625000X0.375000X0.625000X-0.375000X0.625000X-0.375000X-0.625000X0*%
%TD*%
%TA.AperFunction,SMDPad,CuDef*%
%ADD17RoundRect,0.500000X1.400000X-0.500000X1.400000X0.500000X-1.400000X0.500000X-1.400000X-0.500000X0*%
%TD*%
%TA.AperFunction,SMDPad,CuDef*%
%ADD18R,0.250000X0.675000*%
%TD*%
%TA.AperFunction,SMDPad,CuDef*%
%ADD19R,0.675000X0.250000*%
%TD*%
%TA.AperFunction,HeatsinkPad*%
%ADD20C,0.600000*%
%TD*%
%TA.AperFunction,SMDPad,CuDef*%
%ADD21R,3.900000X3.900000*%
%TD*%
%TA.AperFunction,SMDPad,CuDef*%
%ADD22R,1.500000X0.900000*%
%TD*%
%TA.AperFunction,SMDPad,CuDef*%
%ADD23R,0.900000X1.500000*%
%TD*%
%TA.AperFunction,SMDPad,CuDef*%
%ADD24RoundRect,0.135000X0.185000X-0.135000X0.185000X0.135000X-0.185000X0.135000X-0.185000X-0.135000X0*%
%TD*%
%TA.AperFunction,SMDPad,CuDef*%
%ADD25RoundRect,0.250000X-0.475000X0.250000X-0.475000X-0.250000X0.475000X-0.250000X0.475000X0.250000X0*%
%TD*%
%TA.AperFunction,SMDPad,CuDef*%
%ADD26RoundRect,0.250000X0.250000X0.475000X-0.250000X0.475000X-0.250000X-0.475000X0.250000X-0.475000X0*%
%TD*%
%TA.AperFunction,SMDPad,CuDef*%
%ADD27RoundRect,0.225000X-0.250000X0.225000X-0.250000X-0.225000X0.250000X-0.225000X0.250000X0.225000X0*%
%TD*%
%TA.AperFunction,SMDPad,CuDef*%
%ADD28RoundRect,0.225000X-0.225000X-0.250000X0.225000X-0.250000X0.225000X0.250000X-0.225000X0.250000X0*%
%TD*%
%TA.AperFunction,SMDPad,CuDef*%
%ADD29RoundRect,0.250000X0.475000X-0.250000X0.475000X0.250000X-0.475000X0.250000X-0.475000X-0.250000X0*%
%TD*%
%TA.AperFunction,ComponentPad*%
%ADD30C,2.280000*%
%TD*%
%TA.AperFunction,ViaPad*%
%ADD31C,0.600000*%
%TD*%
%TA.AperFunction,Conductor*%
%ADD32C,0.200000*%
%TD*%
G04 APERTURE END LIST*
D10*
%TO.P,BZ1,1,+*%
%TO.N,/BZR*%
X183642500Y-119190000D03*
%TO.P,BZ1,2,-*%
%TO.N,GND*%
X192342500Y-119190000D03*
%TD*%
D11*
%TO.P,J1,A1,GND*%
%TO.N,GND*%
X172320000Y-116630000D03*
%TO.P,J1,A4,VBUS*%
%TO.N,Net-(U5-VI)*%
X173120000Y-116630000D03*
D12*
%TO.P,J1,A5,CC1*%
%TO.N,unconnected-(J1-CC1-PadA5)*%
X174270000Y-116630000D03*
%TO.P,J1,A6,D+*%
%TO.N,/D+*%
X175270000Y-116630000D03*
%TO.P,J1,A7,D-*%
%TO.N,/D-*%
X175770000Y-116630000D03*
%TO.P,J1,A8*%
%TO.N,N/C*%
X176770000Y-116630000D03*
D11*
%TO.P,J1,A9,VBUS*%
%TO.N,Net-(U5-VI)*%
X177920000Y-116630000D03*
%TO.P,J1,A12,GND*%
%TO.N,GND*%
X178720000Y-116630000D03*
%TO.P,J1,B1,GND*%
X178720000Y-116630000D03*
%TO.P,J1,B4,VBUS*%
%TO.N,Net-(U5-VI)*%
X177920000Y-116630000D03*
D12*
%TO.P,J1,B5,CC2*%
%TO.N,unconnected-(J1-CC2-PadB5)*%
X177270000Y-116630000D03*
%TO.P,J1,B6,D+*%
%TO.N,/D+*%
X176270000Y-116630000D03*
%TO.P,J1,B7,D-*%
%TO.N,/D-*%
X174770000Y-116630000D03*
%TO.P,J1,B8*%
%TO.N,N/C*%
X173770000Y-116630000D03*
D11*
%TO.P,J1,B9,VBUS*%
%TO.N,Net-(U5-VI)*%
X173120000Y-116630000D03*
%TO.P,J1,B12,GND*%
%TO.N,GND*%
X172320000Y-116630000D03*
D13*
%TO.P,J1,S1,SHIELD*%
X170410000Y-117205000D03*
X170410000Y-121135000D03*
X180630000Y-117205000D03*
X180630000Y-121135000D03*
%TD*%
D14*
%TO.P,U5,1,GND*%
%TO.N,GND*%
X167270000Y-121590000D03*
%TO.P,U5,2,VO*%
%TO.N,+3V3*%
X167270000Y-119290000D03*
D15*
X160970000Y-119290000D03*
D14*
%TO.P,U5,3,VI*%
%TO.N,Net-(U5-VI)*%
X167270000Y-116990000D03*
%TD*%
D16*
%TO.P,U3,3,VI*%
%TO.N,Net-(BT1-+)*%
X164840000Y-100300000D03*
D17*
%TO.P,U3,2,VO*%
%TO.N,+3V3*%
X162540000Y-94000000D03*
D16*
X162540000Y-100300000D03*
%TO.P,U3,1,GND*%
%TO.N,GND*%
X160240000Y-100300000D03*
%TD*%
D18*
%TO.P,U2,1,SDO*%
%TO.N,GND*%
X164192500Y-108527500D03*
%TO.P,U2,2,ASDx*%
%TO.N,unconnected-(U2-ASDx-Pad2)*%
X163692500Y-108527500D03*
%TO.P,U2,3,ASCx*%
%TO.N,unconnected-(U2-ASCx-Pad3)*%
X163192500Y-108527500D03*
%TO.P,U2,4,INT1*%
%TO.N,unconnected-(U2-INT1-Pad4)*%
X162692500Y-108527500D03*
D19*
%TO.P,U2,5,VDDI0*%
%TO.N,+3V3*%
X162430000Y-109290000D03*
%TO.P,U2,6,GNDI0*%
%TO.N,GND*%
X162430000Y-109790000D03*
%TO.P,U2,7,GND*%
X162430000Y-110290000D03*
D18*
%TO.P,U2,8,VDD*%
%TO.N,+3V3*%
X162692500Y-111052500D03*
%TO.P,U2,9,INT2*%
%TO.N,unconnected-(U2-INT2-Pad9)*%
X163192500Y-111052500D03*
%TO.P,U2,10,OCSB*%
%TO.N,unconnected-(U2-OCSB-Pad10)*%
X163692500Y-111052500D03*
%TO.P,U2,11,OSDO*%
%TO.N,unconnected-(U2-OSDO-Pad11)*%
X164192500Y-111052500D03*
D19*
%TO.P,U2,12,CSB*%
%TO.N,+3V3*%
X164455000Y-110290000D03*
%TO.P,U2,13,SCx*%
%TO.N,/SCL*%
X164455000Y-109790000D03*
%TO.P,U2,14,SDx*%
%TO.N,/SDA*%
X164455000Y-109290000D03*
%TD*%
D20*
%TO.P,U1,41,GND*%
%TO.N,GND*%
X176180000Y-102080000D03*
X176180000Y-100680000D03*
X175480000Y-102780000D03*
X175480000Y-101380000D03*
X175480000Y-99980000D03*
X174780000Y-102080000D03*
D21*
X174780000Y-101380000D03*
D20*
X174780000Y-100680000D03*
X174080000Y-102780000D03*
X174080000Y-101380000D03*
X174080000Y-99980000D03*
X173380000Y-102080000D03*
X173380000Y-100680000D03*
D22*
%TO.P,U1,40,GND*%
X185030000Y-93660000D03*
%TO.P,U1,39,IO1*%
%TO.N,unconnected-(U1-IO1-Pad39)*%
X185030000Y-94930000D03*
%TO.P,U1,38,IO2*%
%TO.N,unconnected-(U1-IO2-Pad38)*%
X185030000Y-96200000D03*
%TO.P,U1,37,TXD0*%
%TO.N,unconnected-(U1-TXD0-Pad37)*%
X185030000Y-97470000D03*
%TO.P,U1,36,RXD0*%
%TO.N,unconnected-(U1-RXD0-Pad36)*%
X185030000Y-98740000D03*
%TO.P,U1,35,IO42*%
%TO.N,unconnected-(U1-IO42-Pad35)*%
X185030000Y-100010000D03*
%TO.P,U1,34,IO41*%
%TO.N,unconnected-(U1-IO41-Pad34)*%
X185030000Y-101280000D03*
%TO.P,U1,33,IO40*%
%TO.N,unconnected-(U1-IO40-Pad33)*%
X185030000Y-102550000D03*
%TO.P,U1,32,IO39*%
%TO.N,unconnected-(U1-IO39-Pad32)*%
X185030000Y-103820000D03*
%TO.P,U1,31,IO38*%
%TO.N,unconnected-(U1-IO38-Pad31)*%
X185030000Y-105090000D03*
%TO.P,U1,30,IO37*%
%TO.N,unconnected-(U1-IO37-Pad30)*%
X185030000Y-106360000D03*
%TO.P,U1,29,IO36*%
%TO.N,unconnected-(U1-IO36-Pad29)*%
X185030000Y-107630000D03*
%TO.P,U1,28,IO35*%
%TO.N,unconnected-(U1-IO35-Pad28)*%
X185030000Y-108900000D03*
%TO.P,U1,27,IO0*%
%TO.N,unconnected-(U1-IO0-Pad27)*%
X185030000Y-110170000D03*
D23*
%TO.P,U1,26,IO45*%
%TO.N,unconnected-(U1-IO45-Pad26)*%
X183265000Y-111420000D03*
%TO.P,U1,25,IO48*%
%TO.N,unconnected-(U1-IO48-Pad25)*%
X181995000Y-111420000D03*
%TO.P,U1,24,IO47*%
%TO.N,unconnected-(U1-IO47-Pad24)*%
X180725000Y-111420000D03*
%TO.P,U1,23,IO21*%
%TO.N,unconnected-(U1-IO21-Pad23)*%
X179455000Y-111420000D03*
%TO.P,U1,22,IO14*%
%TO.N,unconnected-(U1-IO14-Pad22)*%
X178185000Y-111420000D03*
%TO.P,U1,21,IO13*%
%TO.N,unconnected-(U1-IO13-Pad21)*%
X176915000Y-111420000D03*
%TO.P,U1,20,IO12*%
%TO.N,/D+*%
X175645000Y-111420000D03*
%TO.P,U1,19,IO11*%
%TO.N,/D-*%
X174375000Y-111420000D03*
%TO.P,U1,18,IO10*%
%TO.N,/BZR*%
X173105000Y-111420000D03*
%TO.P,U1,17,IO9*%
%TO.N,unconnected-(U1-IO9-Pad17)*%
X171835000Y-111420000D03*
%TO.P,U1,16,IO46*%
%TO.N,unconnected-(U1-IO46-Pad16)*%
X170565000Y-111420000D03*
%TO.P,U1,15,IO3*%
%TO.N,unconnected-(U1-IO3-Pad15)*%
X169295000Y-111420000D03*
D22*
%TO.P,U1,14,IO20*%
%TO.N,/SCL*%
X167530000Y-110170000D03*
%TO.P,U1,13,IO19*%
%TO.N,/SDA*%
X167530000Y-108900000D03*
%TO.P,U1,12,IO8*%
%TO.N,unconnected-(U1-IO8-Pad12)*%
X167530000Y-107630000D03*
%TO.P,U1,11,IO18*%
%TO.N,unconnected-(U1-IO18-Pad11)*%
X167530000Y-106360000D03*
%TO.P,U1,10,IO17*%
%TO.N,unconnected-(U1-IO17-Pad10)*%
X167530000Y-105090000D03*
%TO.P,U1,9,IO16*%
%TO.N,unconnected-(U1-IO16-Pad9)*%
X167530000Y-103820000D03*
%TO.P,U1,8,IO15*%
%TO.N,unconnected-(U1-IO15-Pad8)*%
X167530000Y-102550000D03*
%TO.P,U1,7,IO7*%
%TO.N,unconnected-(U1-IO7-Pad7)*%
X167530000Y-101280000D03*
%TO.P,U1,6,IO6*%
%TO.N,unconnected-(U1-IO6-Pad6)*%
X167530000Y-100010000D03*
%TO.P,U1,5,IO5*%
%TO.N,unconnected-(U1-IO5-Pad5)*%
X167530000Y-98740000D03*
%TO.P,U1,4,IO4*%
%TO.N,unconnected-(U1-IO4-Pad4)*%
X167530000Y-97470000D03*
%TO.P,U1,3,EN*%
%TO.N,Net-(U1-EN)*%
X167530000Y-96200000D03*
%TO.P,U1,2,3V3*%
%TO.N,+3V3*%
X167530000Y-94930000D03*
%TO.P,U1,1,GND*%
%TO.N,GND*%
X167530000Y-93660000D03*
%TD*%
D24*
%TO.P,R1,1*%
%TO.N,+3V3*%
X158250000Y-94200000D03*
%TO.P,R1,2*%
%TO.N,Net-(U1-EN)*%
X158250000Y-93180000D03*
%TD*%
D25*
%TO.P,C7,1*%
%TO.N,+3V3*%
X161610000Y-102610000D03*
%TO.P,C7,2*%
%TO.N,GND*%
X161610000Y-104510000D03*
%TD*%
D26*
%TO.P,C6,1*%
%TO.N,Net-(U5-VI)*%
X167760000Y-114590000D03*
%TO.P,C6,2*%
%TO.N,GND*%
X165860000Y-114590000D03*
%TD*%
D27*
%TO.P,C4,1*%
%TO.N,+3V3*%
X163410000Y-112695000D03*
%TO.P,C4,2*%
%TO.N,GND*%
X163410000Y-114245000D03*
%TD*%
D28*
%TO.P,C3,1*%
%TO.N,+3V3*%
X162725000Y-106990000D03*
%TO.P,C3,2*%
%TO.N,GND*%
X164275000Y-106990000D03*
%TD*%
D29*
%TO.P,C2,1*%
%TO.N,+3V3*%
X158370000Y-118360000D03*
%TO.P,C2,2*%
%TO.N,GND*%
X158370000Y-116460000D03*
%TD*%
D25*
%TO.P,C1,1*%
%TO.N,Net-(BT1-+)*%
X164290000Y-102590000D03*
%TO.P,C1,2*%
%TO.N,GND*%
X164290000Y-104490000D03*
%TD*%
D30*
%TO.P,BT1,2,-*%
%TO.N,GND*%
X145494234Y-100768505D03*
%TO.P,BT1,1,+*%
%TO.N,Net-(BT1-+)*%
X145494234Y-121258505D03*
%TD*%
D31*
%TO.N,GND*%
X160370000Y-115200000D03*
X161570000Y-115170000D03*
X165220000Y-97310000D03*
X161180000Y-98290000D03*
X165880000Y-93780000D03*
X161570000Y-109940000D03*
X163120000Y-105850000D03*
X160570000Y-105250000D03*
%TO.N,/BZR*%
X173070000Y-112940000D03*
X176250000Y-114650000D03*
%TO.N,+3V3*%
X160889995Y-106990000D03*
X159922105Y-105982105D03*
%TD*%
D32*
%TO.N,GND*%
X161570000Y-115170000D02*
X162495000Y-114245000D01*
X162495000Y-114245000D02*
X163410000Y-114245000D01*
X166000000Y-93660000D02*
X165880000Y-93780000D01*
X167530000Y-93660000D02*
X166000000Y-93660000D01*
X160570000Y-105250000D02*
X160580000Y-105250000D01*
X160870000Y-105250000D02*
X160570000Y-105250000D01*
X161610000Y-104510000D02*
X160870000Y-105250000D01*
%TO.N,/BZR*%
X173070000Y-112940000D02*
X173070000Y-111455000D01*
X173070000Y-111455000D02*
X173105000Y-111420000D01*
X176290000Y-114620000D02*
X176320000Y-114620000D01*
X176250000Y-114650000D02*
X176290000Y-114620000D01*
X176350000Y-114620000D02*
X176250000Y-114650000D01*
X181990000Y-114620000D02*
X176350000Y-114620000D01*
X183642500Y-119190000D02*
X183642500Y-116272500D01*
X183642500Y-116272500D02*
X181990000Y-114620000D01*
%TO.N,+3V3*%
X163410000Y-112695000D02*
X161580000Y-112695000D01*
X161580000Y-112695000D02*
X161045000Y-112695000D01*
X162692500Y-111052500D02*
X161580000Y-112165000D01*
X161580000Y-112165000D02*
X161580000Y-112695000D01*
X161045000Y-112695000D02*
X160970000Y-112770000D01*
X164455000Y-110290000D02*
X164617500Y-110452500D01*
X164617500Y-110452500D02*
X164617500Y-111690000D01*
X164617500Y-111690000D02*
X163612500Y-112695000D01*
X163612500Y-112695000D02*
X163410000Y-112695000D01*
X160970000Y-108330000D02*
X160970000Y-112770000D01*
X160970000Y-112770000D02*
X160970000Y-119290000D01*
X160975000Y-112770000D02*
X160970000Y-112770000D01*
X162430000Y-109290000D02*
X161930000Y-109290000D01*
X161930000Y-109290000D02*
X160970000Y-108330000D01*
%TO.N,/SCL*%
X164455000Y-109790000D02*
X167150000Y-109790000D01*
X167150000Y-109790000D02*
X167530000Y-110170000D01*
%TO.N,/SDA*%
X164455000Y-109290000D02*
X167140000Y-109290000D01*
X167140000Y-109290000D02*
X167530000Y-108900000D01*
%TO.N,+3V3*%
X159922105Y-105982105D02*
X159922105Y-104297895D01*
X159922105Y-104297895D02*
X161610000Y-102610000D01*
%TO.N,Net-(U5-VI)*%
X167760000Y-114590000D02*
X167760000Y-116500000D01*
X167760000Y-116500000D02*
X167270000Y-116990000D01*
%TO.N,+3V3*%
X160970000Y-119290000D02*
X159300000Y-119290000D01*
X159300000Y-119290000D02*
X158370000Y-118360000D01*
X167270000Y-119290000D02*
X160970000Y-119290000D01*
%TO.N,Net-(U5-VI)*%
X167270000Y-116990000D02*
X168785000Y-118505000D01*
X168785000Y-118505000D02*
X176619999Y-118505000D01*
X176619999Y-118505000D02*
X177920000Y-117204999D01*
X177920000Y-117204999D02*
X177920000Y-116630000D01*
%TO.N,+3V3*%
X162540000Y-100300000D02*
X162540000Y-101680000D01*
X162540000Y-101680000D02*
X161610000Y-102610000D01*
%TO.N,Net-(BT1-+)*%
X164840000Y-100300000D02*
X164840000Y-102040000D01*
X164840000Y-102040000D02*
X164290000Y-102590000D01*
%TO.N,+3V3*%
X162540000Y-100300000D02*
X162540000Y-94000000D01*
X162540000Y-94000000D02*
X158450000Y-94000000D01*
X158450000Y-94000000D02*
X158250000Y-94200000D01*
X162540000Y-94000000D02*
X163470000Y-94930000D01*
X163470000Y-94930000D02*
X167530000Y-94930000D01*
%TO.N,Net-(U1-EN)*%
X158250000Y-93180000D02*
X158250000Y-92720000D01*
X158250000Y-92720000D02*
X158510000Y-92460000D01*
X158510000Y-92460000D02*
X168420000Y-92460000D01*
X168420000Y-92460000D02*
X169180000Y-93220000D01*
X169180000Y-93220000D02*
X169180000Y-95500000D01*
X169180000Y-95500000D02*
X168480000Y-96200000D01*
X168480000Y-96200000D02*
X167530000Y-96200000D01*
%TO.N,Net-(U5-VI)*%
X173120000Y-116630000D02*
X173120000Y-117120000D01*
X173120000Y-117120000D02*
X173905000Y-117905000D01*
X173905000Y-117905000D02*
X177255406Y-117905000D01*
X177255406Y-117905000D02*
X177920000Y-117240406D01*
X177920000Y-117240406D02*
X177920000Y-116630000D01*
%TO.N,/D+*%
X175645000Y-111420000D02*
X175645000Y-112545001D01*
X175645000Y-112545001D02*
X175235000Y-112955001D01*
%TO.N,/D-*%
X174375000Y-111420000D02*
X174375000Y-112545001D01*
%TO.N,/D+*%
X175235000Y-112955001D02*
X175235000Y-116413657D01*
%TO.N,/D-*%
X174375000Y-112545001D02*
X174785000Y-112955001D01*
X174785000Y-112955001D02*
X174785000Y-116413657D01*
%TO.N,/D+*%
X175270000Y-116630000D02*
X175270000Y-116022590D01*
X175270000Y-116022590D02*
X175537590Y-115755000D01*
X175537590Y-115755000D02*
X176002410Y-115755000D01*
X176002410Y-115755000D02*
X176270000Y-116022590D01*
X176270000Y-116022590D02*
X176270000Y-116630000D01*
%TO.N,/D-*%
X174770000Y-116630000D02*
X174770000Y-117237410D01*
X174770000Y-117237410D02*
X175037590Y-117505000D01*
X175037590Y-117505000D02*
X175502410Y-117505000D01*
X175502410Y-117505000D02*
X175770000Y-117237410D01*
X175770000Y-117237410D02*
X175770000Y-116630000D01*
%TO.N,+3V3*%
X160889995Y-106990000D02*
X162725000Y-106990000D01*
X160889995Y-106990000D02*
X160970000Y-107070005D01*
X160970000Y-107070005D02*
X160970000Y-108330000D01*
%TO.N,Net-(BT1-+)*%
X162940000Y-103910000D02*
X162970000Y-103910000D01*
X162970000Y-103910000D02*
X164290000Y-102590000D01*
X162940000Y-104960000D02*
X162940000Y-103910000D01*
X162070000Y-105830000D02*
X162940000Y-104960000D01*
X160922739Y-105830000D02*
X162070000Y-105830000D01*
X145494234Y-121258505D02*
X160922739Y-105830000D01*
%TD*%
%TA.AperFunction,Conductor*%
%TO.N,GND*%
G36*
X173997506Y-101876886D02*
G01*
X174008109Y-101879999D01*
X174008112Y-101880000D01*
X174151888Y-101880000D01*
X174151892Y-101879999D01*
X174162491Y-101876887D01*
X174223651Y-101878633D01*
X174272105Y-101915994D01*
X174289345Y-101974701D01*
X174288377Y-101985964D01*
X174274858Y-102079995D01*
X174274858Y-102080003D01*
X174288377Y-102174034D01*
X174277944Y-102234324D01*
X174234065Y-102276966D01*
X174173503Y-102285673D01*
X174162496Y-102283114D01*
X174151891Y-102280000D01*
X174008112Y-102280000D01*
X174008104Y-102280001D01*
X173997501Y-102283114D01*
X173936341Y-102281364D01*
X173887890Y-102243999D01*
X173870654Y-102185292D01*
X173871622Y-102174033D01*
X173885142Y-102080001D01*
X173885142Y-102079997D01*
X173871622Y-101985965D01*
X173882055Y-101925676D01*
X173925933Y-101883034D01*
X173986495Y-101874326D01*
X173997506Y-101876886D01*
G37*
%TD.AperFunction*%
%TA.AperFunction,Conductor*%
G36*
X175397506Y-101876886D02*
G01*
X175408109Y-101879999D01*
X175408112Y-101880000D01*
X175551888Y-101880000D01*
X175551892Y-101879999D01*
X175562491Y-101876887D01*
X175623651Y-101878633D01*
X175672105Y-101915994D01*
X175689345Y-101974701D01*
X175688377Y-101985964D01*
X175674858Y-102079995D01*
X175674858Y-102080003D01*
X175688377Y-102174034D01*
X175677944Y-102234324D01*
X175634065Y-102276966D01*
X175573503Y-102285673D01*
X175562496Y-102283114D01*
X175551891Y-102280000D01*
X175408112Y-102280000D01*
X175408104Y-102280001D01*
X175397501Y-102283114D01*
X175336341Y-102281364D01*
X175287890Y-102243999D01*
X175270654Y-102185292D01*
X175271622Y-102174033D01*
X175285142Y-102080001D01*
X175285142Y-102079997D01*
X175271622Y-101985965D01*
X175282055Y-101925676D01*
X175325933Y-101883034D01*
X175386495Y-101874326D01*
X175397506Y-101876886D01*
G37*
%TD.AperFunction*%
%TA.AperFunction,Conductor*%
G36*
X174697506Y-101176886D02*
G01*
X174708109Y-101179999D01*
X174708112Y-101180000D01*
X174851888Y-101180000D01*
X174851892Y-101179999D01*
X174862491Y-101176887D01*
X174923651Y-101178633D01*
X174972105Y-101215994D01*
X174989345Y-101274701D01*
X174988377Y-101285964D01*
X174974858Y-101379995D01*
X174974858Y-101380003D01*
X174988377Y-101474034D01*
X174977944Y-101534324D01*
X174934065Y-101576966D01*
X174873503Y-101585673D01*
X174862496Y-101583114D01*
X174851891Y-101580000D01*
X174708112Y-101580000D01*
X174708104Y-101580001D01*
X174697501Y-101583114D01*
X174636341Y-101581364D01*
X174587890Y-101543999D01*
X174570654Y-101485292D01*
X174571622Y-101474033D01*
X174585142Y-101380001D01*
X174585142Y-101379997D01*
X174571622Y-101285965D01*
X174582055Y-101225676D01*
X174625933Y-101183034D01*
X174686495Y-101174326D01*
X174697506Y-101176886D01*
G37*
%TD.AperFunction*%
%TA.AperFunction,Conductor*%
G36*
X173997506Y-100476886D02*
G01*
X174008109Y-100479999D01*
X174008112Y-100480000D01*
X174151888Y-100480000D01*
X174151892Y-100479999D01*
X174162491Y-100476887D01*
X174223651Y-100478633D01*
X174272105Y-100515994D01*
X174289345Y-100574701D01*
X174288377Y-100585964D01*
X174274858Y-100679995D01*
X174274858Y-100680003D01*
X174288377Y-100774034D01*
X174277944Y-100834324D01*
X174234065Y-100876966D01*
X174173503Y-100885673D01*
X174162496Y-100883114D01*
X174151891Y-100880000D01*
X174008112Y-100880000D01*
X174008104Y-100880001D01*
X173997501Y-100883114D01*
X173936341Y-100881364D01*
X173887890Y-100843999D01*
X173870654Y-100785292D01*
X173871622Y-100774033D01*
X173885142Y-100680001D01*
X173885142Y-100679997D01*
X173871622Y-100585965D01*
X173882055Y-100525676D01*
X173925933Y-100483034D01*
X173986495Y-100474326D01*
X173997506Y-100476886D01*
G37*
%TD.AperFunction*%
%TA.AperFunction,Conductor*%
G36*
X175397506Y-100476886D02*
G01*
X175408109Y-100479999D01*
X175408112Y-100480000D01*
X175551888Y-100480000D01*
X175551892Y-100479999D01*
X175562491Y-100476887D01*
X175623651Y-100478633D01*
X175672105Y-100515994D01*
X175689345Y-100574701D01*
X175688377Y-100585964D01*
X175674858Y-100679995D01*
X175674858Y-100680003D01*
X175688377Y-100774034D01*
X175677944Y-100834324D01*
X175634065Y-100876966D01*
X175573503Y-100885673D01*
X175562496Y-100883114D01*
X175551891Y-100880000D01*
X175408112Y-100880000D01*
X175408104Y-100880001D01*
X175397501Y-100883114D01*
X175336341Y-100881364D01*
X175287890Y-100843999D01*
X175270654Y-100785292D01*
X175271622Y-100774033D01*
X175285142Y-100680001D01*
X175285142Y-100679997D01*
X175271622Y-100585965D01*
X175282055Y-100525676D01*
X175325933Y-100483034D01*
X175386495Y-100474326D01*
X175397506Y-100476886D01*
G37*
%TD.AperFunction*%
%TA.AperFunction,Conductor*%
G36*
X152239191Y-86249407D02*
G01*
X152275155Y-86298907D01*
X152280000Y-86329500D01*
X152280000Y-92170000D01*
X158136022Y-92170000D01*
X158194213Y-92188907D01*
X158230177Y-92238407D01*
X158230177Y-92299593D01*
X158206025Y-92339004D01*
X158065488Y-92479540D01*
X158009539Y-92535489D01*
X157969980Y-92604007D01*
X157969978Y-92604011D01*
X157947820Y-92686706D01*
X157945908Y-92686193D01*
X157923473Y-92733215D01*
X157893512Y-92754781D01*
X157869599Y-92765932D01*
X157785933Y-92849598D01*
X157735932Y-92956824D01*
X157735932Y-92956825D01*
X157729500Y-93005685D01*
X157729500Y-93354314D01*
X157735932Y-93403174D01*
X157735932Y-93403175D01*
X157785933Y-93510401D01*
X157785934Y-93510402D01*
X157785935Y-93510404D01*
X157869596Y-93594065D01*
X157869597Y-93594065D01*
X157869598Y-93594066D01*
X157882915Y-93600276D01*
X157927663Y-93642005D01*
X157939337Y-93702066D01*
X157913478Y-93757518D01*
X157882915Y-93779724D01*
X157869598Y-93785933D01*
X157785933Y-93869598D01*
X157735932Y-93976824D01*
X157735932Y-93976825D01*
X157735932Y-93976827D01*
X157729500Y-94025684D01*
X157729500Y-94374316D01*
X157733114Y-94401766D01*
X157735932Y-94423174D01*
X157735932Y-94423175D01*
X157785933Y-94530401D01*
X157785934Y-94530402D01*
X157785935Y-94530404D01*
X157869596Y-94614065D01*
X157869597Y-94614065D01*
X157869598Y-94614066D01*
X157976824Y-94664067D01*
X157976825Y-94664067D01*
X157976827Y-94664068D01*
X158025684Y-94670500D01*
X158025685Y-94670500D01*
X158474314Y-94670500D01*
X158474316Y-94670500D01*
X158523173Y-94664068D01*
X158630404Y-94614065D01*
X158714065Y-94530404D01*
X158764068Y-94423173D01*
X158768886Y-94386577D01*
X158795228Y-94331352D01*
X158848999Y-94302158D01*
X158867039Y-94300500D01*
X160340500Y-94300500D01*
X160398691Y-94319407D01*
X160434655Y-94368907D01*
X160439500Y-94399500D01*
X160439500Y-94556620D01*
X160445913Y-94627194D01*
X160496521Y-94789605D01*
X160496522Y-94789607D01*
X160561914Y-94897777D01*
X160584528Y-94935185D01*
X160704815Y-95055472D01*
X160850394Y-95143478D01*
X161012804Y-95194086D01*
X161083384Y-95200500D01*
X162140500Y-95200500D01*
X162198691Y-95219407D01*
X162234655Y-95268907D01*
X162239500Y-95299500D01*
X162239500Y-99000500D01*
X162220593Y-99058691D01*
X162171093Y-99094655D01*
X162140500Y-99099500D01*
X162127279Y-99099500D01*
X162014767Y-99114312D01*
X162014761Y-99114314D01*
X161874768Y-99172301D01*
X161754551Y-99264547D01*
X161754547Y-99264551D01*
X161662301Y-99384768D01*
X161604314Y-99524761D01*
X161604312Y-99524767D01*
X161589500Y-99637279D01*
X161589500Y-100962720D01*
X161604312Y-101075232D01*
X161604314Y-101075238D01*
X161647707Y-101179999D01*
X161662302Y-101215233D01*
X161754549Y-101335451D01*
X161874767Y-101427698D01*
X162014764Y-101485687D01*
X162076036Y-101493753D01*
X162131261Y-101520093D01*
X162160456Y-101573864D01*
X162152470Y-101634526D01*
X162133118Y-101661909D01*
X161914525Y-101880503D01*
X161860008Y-101908281D01*
X161844521Y-101909500D01*
X161080725Y-101909500D01*
X161050305Y-101912353D01*
X161050296Y-101912355D01*
X160922116Y-101957207D01*
X160812855Y-102037845D01*
X160812845Y-102037855D01*
X160732207Y-102147116D01*
X160687355Y-102275296D01*
X160687353Y-102275305D01*
X160684500Y-102305725D01*
X160684500Y-102914274D01*
X160687353Y-102944694D01*
X160687354Y-102944701D01*
X160709053Y-103006715D01*
X160710425Y-103067885D01*
X160685612Y-103109414D01*
X159737594Y-104057434D01*
X159681644Y-104113384D01*
X159642085Y-104181902D01*
X159642083Y-104181906D01*
X159621605Y-104258330D01*
X159621605Y-105528210D01*
X159602698Y-105586401D01*
X159595363Y-105594394D01*
X159595614Y-105594611D01*
X159590977Y-105599961D01*
X159590977Y-105599962D01*
X159575148Y-105618230D01*
X159496727Y-105708733D01*
X159436939Y-105839648D01*
X159416458Y-105982102D01*
X159416458Y-105982107D01*
X159436939Y-106124561D01*
X159452894Y-106159496D01*
X159496728Y-106255478D01*
X159587216Y-106359907D01*
X159590978Y-106364249D01*
X159714418Y-106443579D01*
X159753150Y-106490945D01*
X159756643Y-106552031D01*
X159730899Y-106596867D01*
X146262135Y-120065631D01*
X146207618Y-120093408D01*
X146150292Y-120085352D01*
X146056823Y-120041767D01*
X145954463Y-119994036D01*
X145727898Y-119933328D01*
X145727897Y-119933327D01*
X145727890Y-119933326D01*
X145494237Y-119912885D01*
X145494231Y-119912885D01*
X145260577Y-119933326D01*
X145034005Y-119994036D01*
X144821425Y-120093163D01*
X144629290Y-120227696D01*
X144463425Y-120393561D01*
X144328892Y-120585696D01*
X144229765Y-120798276D01*
X144169055Y-121024848D01*
X144148614Y-121258501D01*
X144148614Y-121258508D01*
X144169055Y-121492161D01*
X144169056Y-121492168D01*
X144169057Y-121492169D01*
X144229765Y-121718734D01*
X144328893Y-121931315D01*
X144463429Y-122123453D01*
X144629286Y-122289310D01*
X144821424Y-122423846D01*
X145034005Y-122522974D01*
X145260570Y-122583682D01*
X145260574Y-122583682D01*
X145260577Y-122583683D01*
X145494231Y-122604125D01*
X145494234Y-122604125D01*
X145494237Y-122604125D01*
X145727890Y-122583683D01*
X145727891Y-122583682D01*
X145727898Y-122583682D01*
X145954463Y-122522974D01*
X146167044Y-122423846D01*
X146359182Y-122289310D01*
X146525039Y-122123453D01*
X146659575Y-121931315D01*
X146758703Y-121718734D01*
X146819411Y-121492169D01*
X146839854Y-121258505D01*
X146828190Y-121125183D01*
X146819412Y-121024848D01*
X146819411Y-121024845D01*
X146819411Y-121024841D01*
X146758703Y-120798276D01*
X146667386Y-120602445D01*
X146659929Y-120541716D01*
X146687104Y-120490604D01*
X160219783Y-106957925D01*
X160274296Y-106930151D01*
X160334728Y-106939722D01*
X160377993Y-106982987D01*
X160387775Y-107013843D01*
X160404829Y-107132456D01*
X160417524Y-107160253D01*
X160464618Y-107263373D01*
X160547398Y-107358907D01*
X160558868Y-107372144D01*
X160624023Y-107414016D01*
X160662754Y-107461382D01*
X160669500Y-107497300D01*
X160669500Y-117090500D01*
X160650593Y-117148691D01*
X160601093Y-117184655D01*
X160570500Y-117189500D01*
X160413379Y-117189500D01*
X160342805Y-117195913D01*
X160180394Y-117246521D01*
X160180392Y-117246522D01*
X160034816Y-117334527D01*
X159914527Y-117454816D01*
X159826522Y-117600392D01*
X159826521Y-117600394D01*
X159775913Y-117762805D01*
X159769500Y-117833379D01*
X159769500Y-118890500D01*
X159750593Y-118948691D01*
X159701093Y-118984655D01*
X159670500Y-118989500D01*
X159465479Y-118989500D01*
X159407288Y-118970593D01*
X159395475Y-118960504D01*
X159294386Y-118859415D01*
X159266609Y-118804898D01*
X159270946Y-118756712D01*
X159292646Y-118694699D01*
X159295499Y-118664273D01*
X159295500Y-118664273D01*
X159295500Y-118055727D01*
X159295499Y-118055725D01*
X159292646Y-118025305D01*
X159292646Y-118025301D01*
X159247793Y-117897118D01*
X159226080Y-117867698D01*
X159167154Y-117787855D01*
X159167152Y-117787853D01*
X159167150Y-117787850D01*
X159167146Y-117787847D01*
X159167144Y-117787845D01*
X159057883Y-117707207D01*
X158929703Y-117662355D01*
X158929694Y-117662353D01*
X158899274Y-117659500D01*
X158899266Y-117659500D01*
X157840734Y-117659500D01*
X157840725Y-117659500D01*
X157810305Y-117662353D01*
X157810296Y-117662355D01*
X157682116Y-117707207D01*
X157572855Y-117787845D01*
X157572845Y-117787855D01*
X157492207Y-117897116D01*
X157447355Y-118025296D01*
X157447353Y-118025305D01*
X157444500Y-118055725D01*
X157444500Y-118664274D01*
X157447353Y-118694694D01*
X157447355Y-118694703D01*
X157492207Y-118822883D01*
X157572845Y-118932144D01*
X157572847Y-118932146D01*
X157572850Y-118932150D01*
X157572853Y-118932152D01*
X157572855Y-118932154D01*
X157682116Y-119012792D01*
X157682117Y-119012792D01*
X157682118Y-119012793D01*
X157810301Y-119057646D01*
X157840725Y-119060499D01*
X157840727Y-119060500D01*
X157840734Y-119060500D01*
X158604521Y-119060500D01*
X158662712Y-119079407D01*
X158674524Y-119089496D01*
X159115488Y-119530459D01*
X159115493Y-119530463D01*
X159184008Y-119570020D01*
X159184006Y-119570020D01*
X159184010Y-119570021D01*
X159184012Y-119570022D01*
X159260438Y-119590500D01*
X159339562Y-119590500D01*
X159670500Y-119590500D01*
X159728691Y-119609407D01*
X159764655Y-119658907D01*
X159769500Y-119689500D01*
X159769500Y-120746620D01*
X159775913Y-120817194D01*
X159826521Y-120979605D01*
X159826522Y-120979607D01*
X159859738Y-121034552D01*
X159914528Y-121125185D01*
X160034815Y-121245472D01*
X160180394Y-121333478D01*
X160342804Y-121384086D01*
X160413384Y-121390500D01*
X160413389Y-121390500D01*
X161526611Y-121390500D01*
X161526616Y-121390500D01*
X161597196Y-121384086D01*
X161759606Y-121333478D01*
X161905185Y-121245472D01*
X162025472Y-121125185D01*
X162113478Y-120979606D01*
X162164086Y-120817196D01*
X162170500Y-120746616D01*
X162170500Y-119689500D01*
X162189407Y-119631309D01*
X162238907Y-119595345D01*
X162269500Y-119590500D01*
X165970500Y-119590500D01*
X166028691Y-119609407D01*
X166064655Y-119658907D01*
X166069500Y-119689500D01*
X166069500Y-119702720D01*
X166084312Y-119815232D01*
X166084314Y-119815238D01*
X166133228Y-119933328D01*
X166142302Y-119955233D01*
X166234549Y-120075451D01*
X166354767Y-120167698D01*
X166494764Y-120225687D01*
X166607280Y-120240500D01*
X166607281Y-120240500D01*
X167932719Y-120240500D01*
X167932720Y-120240500D01*
X168045236Y-120225687D01*
X168185233Y-120167698D01*
X168305451Y-120075451D01*
X168397698Y-119955233D01*
X168455687Y-119815236D01*
X168470500Y-119702720D01*
X168470500Y-118877280D01*
X168467228Y-118852428D01*
X168478378Y-118792268D01*
X168522760Y-118750150D01*
X168583422Y-118742164D01*
X168614881Y-118753770D01*
X168669008Y-118785020D01*
X168669006Y-118785020D01*
X168669010Y-118785021D01*
X168669012Y-118785022D01*
X168745438Y-118805500D01*
X168745440Y-118805500D01*
X176659562Y-118805500D01*
X176659562Y-118805499D01*
X176735988Y-118785021D01*
X176804510Y-118745460D01*
X176832484Y-118717485D01*
X176860460Y-118689511D01*
X177346926Y-118203043D01*
X177367430Y-118187309D01*
X177371391Y-118185022D01*
X177371395Y-118185021D01*
X177439917Y-118145460D01*
X177469529Y-118115848D01*
X177495867Y-118089511D01*
X177706933Y-117878444D01*
X177761450Y-117850666D01*
X177821882Y-117860237D01*
X177865147Y-117903502D01*
X177872563Y-117922821D01*
X177873719Y-117927137D01*
X177873720Y-117927138D01*
X177949481Y-118058360D01*
X177949483Y-118058362D01*
X177949485Y-118058365D01*
X178056635Y-118165515D01*
X178056637Y-118165516D01*
X178056639Y-118165518D01*
X178187861Y-118241279D01*
X178187859Y-118241279D01*
X178187863Y-118241280D01*
X178187865Y-118241281D01*
X178334234Y-118280500D01*
X178334236Y-118280500D01*
X178485764Y-118280500D01*
X178485766Y-118280500D01*
X178632135Y-118241281D01*
X178632137Y-118241279D01*
X178632139Y-118241279D01*
X178763360Y-118165518D01*
X178763360Y-118165517D01*
X178763365Y-118165515D01*
X178870515Y-118058365D01*
X178870518Y-118058360D01*
X178946279Y-117927139D01*
X178946279Y-117927137D01*
X178946281Y-117927135D01*
X178985500Y-117780766D01*
X178985500Y-117629234D01*
X178946281Y-117482865D01*
X178946279Y-117482862D01*
X178946279Y-117482860D01*
X178870518Y-117351639D01*
X178870516Y-117351637D01*
X178870515Y-117351635D01*
X178763365Y-117244485D01*
X178763362Y-117244483D01*
X178763360Y-117244481D01*
X178632138Y-117168720D01*
X178632139Y-117168720D01*
X178493877Y-117131673D01*
X178442562Y-117098349D01*
X178420636Y-117041227D01*
X178420500Y-117036046D01*
X178420500Y-116171743D01*
X178418281Y-116156511D01*
X178410573Y-116103607D01*
X178359198Y-115998517D01*
X178276483Y-115915802D01*
X178250284Y-115902994D01*
X178171395Y-115864427D01*
X178143576Y-115860374D01*
X178103260Y-115854500D01*
X177736740Y-115854500D01*
X177702673Y-115859463D01*
X177668604Y-115864427D01*
X177589714Y-115902994D01*
X177529131Y-115911565D01*
X177491232Y-115896368D01*
X177452498Y-115870487D01*
X177452496Y-115870486D01*
X177452495Y-115870485D01*
X177372133Y-115854500D01*
X177372132Y-115854500D01*
X177167870Y-115854500D01*
X177167862Y-115854501D01*
X177087505Y-115870484D01*
X177087501Y-115870486D01*
X177074999Y-115878840D01*
X177016111Y-115895447D01*
X176965001Y-115878840D01*
X176952496Y-115870485D01*
X176952495Y-115870484D01*
X176872134Y-115854500D01*
X176667870Y-115854500D01*
X176667858Y-115854502D01*
X176602168Y-115867567D01*
X176541407Y-115860374D01*
X176512853Y-115840472D01*
X176454512Y-115782130D01*
X176186923Y-115514542D01*
X176186921Y-115514540D01*
X176183640Y-115512646D01*
X176183638Y-115512644D01*
X176183638Y-115512643D01*
X176183633Y-115512642D01*
X176144871Y-115490262D01*
X176118398Y-115474978D01*
X176041974Y-115454500D01*
X176041972Y-115454500D01*
X175634500Y-115454500D01*
X175576309Y-115435593D01*
X175540345Y-115386093D01*
X175535500Y-115355500D01*
X175535500Y-114649997D01*
X175744353Y-114649997D01*
X175744353Y-114650002D01*
X175764834Y-114792456D01*
X175823311Y-114920500D01*
X175824623Y-114923373D01*
X175847259Y-114949496D01*
X175918873Y-115032144D01*
X176039942Y-115109950D01*
X176039947Y-115109953D01*
X176146403Y-115141211D01*
X176178035Y-115150499D01*
X176178036Y-115150499D01*
X176178039Y-115150500D01*
X176178041Y-115150500D01*
X176321959Y-115150500D01*
X176321961Y-115150500D01*
X176460053Y-115109953D01*
X176581128Y-115032143D01*
X176610807Y-114997891D01*
X176648260Y-114954669D01*
X176700656Y-114923073D01*
X176723079Y-114920500D01*
X181824521Y-114920500D01*
X181882712Y-114939407D01*
X181894525Y-114949496D01*
X183313004Y-116367975D01*
X183340781Y-116422492D01*
X183342000Y-116437979D01*
X183342000Y-117190500D01*
X183323093Y-117248691D01*
X183273593Y-117284655D01*
X183243000Y-117289500D01*
X182972752Y-117289500D01*
X182972751Y-117289500D01*
X182972741Y-117289501D01*
X182914272Y-117301132D01*
X182914266Y-117301134D01*
X182847951Y-117345445D01*
X182847945Y-117345451D01*
X182803634Y-117411766D01*
X182803632Y-117411772D01*
X182792001Y-117470241D01*
X182792000Y-117470253D01*
X182792000Y-120909746D01*
X182792001Y-120909758D01*
X182803632Y-120968227D01*
X182803634Y-120968233D01*
X182811234Y-120979607D01*
X182847948Y-121034552D01*
X182914269Y-121078867D01*
X182958731Y-121087711D01*
X182972741Y-121090498D01*
X182972746Y-121090498D01*
X182972752Y-121090500D01*
X182972753Y-121090500D01*
X184312247Y-121090500D01*
X184312248Y-121090500D01*
X184370731Y-121078867D01*
X184437052Y-121034552D01*
X184481367Y-120968231D01*
X184493000Y-120909748D01*
X184493000Y-117470252D01*
X184481367Y-117411769D01*
X184437052Y-117345448D01*
X184437048Y-117345445D01*
X184370733Y-117301134D01*
X184370731Y-117301133D01*
X184370728Y-117301132D01*
X184370727Y-117301132D01*
X184312258Y-117289501D01*
X184312248Y-117289500D01*
X184312247Y-117289500D01*
X184042000Y-117289500D01*
X183983809Y-117270593D01*
X183947845Y-117221093D01*
X183943000Y-117190500D01*
X183943000Y-116232937D01*
X183942999Y-116232935D01*
X183935393Y-116204551D01*
X183922521Y-116156511D01*
X183896996Y-116112301D01*
X183882960Y-116087989D01*
X183827011Y-116032039D01*
X183827011Y-116032040D01*
X182174511Y-114379540D01*
X182174508Y-114379538D01*
X182105992Y-114339980D01*
X182105988Y-114339978D01*
X182029564Y-114319500D01*
X182029562Y-114319500D01*
X176671088Y-114319500D01*
X176612897Y-114300593D01*
X176596269Y-114285331D01*
X176581128Y-114267857D01*
X176548182Y-114246684D01*
X176460057Y-114190049D01*
X176460054Y-114190047D01*
X176460053Y-114190047D01*
X176460050Y-114190046D01*
X176321964Y-114149500D01*
X176321961Y-114149500D01*
X176178039Y-114149500D01*
X176178035Y-114149500D01*
X176039949Y-114190046D01*
X176039942Y-114190049D01*
X175918873Y-114267855D01*
X175824622Y-114376628D01*
X175764834Y-114507543D01*
X175744353Y-114649997D01*
X175535500Y-114649997D01*
X175535500Y-113120479D01*
X175554407Y-113062288D01*
X175564490Y-113050481D01*
X175885460Y-112729512D01*
X175911145Y-112685025D01*
X175925020Y-112660993D01*
X175925021Y-112660990D01*
X175925022Y-112660989D01*
X175945500Y-112584563D01*
X175945500Y-112505439D01*
X175945500Y-112469500D01*
X175964407Y-112411309D01*
X176013907Y-112375345D01*
X176044500Y-112370500D01*
X176114747Y-112370500D01*
X176114748Y-112370500D01*
X176173231Y-112358867D01*
X176225000Y-112324274D01*
X176283885Y-112307667D01*
X176334998Y-112324274D01*
X176386769Y-112358867D01*
X176431231Y-112367711D01*
X176445241Y-112370498D01*
X176445246Y-112370498D01*
X176445252Y-112370500D01*
X176445253Y-112370500D01*
X177384747Y-112370500D01*
X177384748Y-112370500D01*
X177443231Y-112358867D01*
X177495000Y-112324274D01*
X177553885Y-112307667D01*
X177604998Y-112324274D01*
X177656769Y-112358867D01*
X177701231Y-112367711D01*
X177715241Y-112370498D01*
X177715246Y-112370498D01*
X177715252Y-112370500D01*
X177715253Y-112370500D01*
X178654747Y-112370500D01*
X178654748Y-112370500D01*
X178713231Y-112358867D01*
X178765000Y-112324274D01*
X178823885Y-112307667D01*
X178874998Y-112324274D01*
X178926769Y-112358867D01*
X178971231Y-112367711D01*
X178985241Y-112370498D01*
X178985246Y-112370498D01*
X178985252Y-112370500D01*
X178985253Y-112370500D01*
X179924747Y-112370500D01*
X179924748Y-112370500D01*
X179983231Y-112358867D01*
X180035000Y-112324274D01*
X180093885Y-112307667D01*
X180144998Y-112324274D01*
X180196769Y-112358867D01*
X180241231Y-112367711D01*
X180255241Y-112370498D01*
X180255246Y-112370498D01*
X180255252Y-112370500D01*
X180255253Y-112370500D01*
X181194747Y-112370500D01*
X181194748Y-112370500D01*
X181253231Y-112358867D01*
X181305000Y-112324274D01*
X181363885Y-112307667D01*
X181414998Y-112324274D01*
X181466769Y-112358867D01*
X181511231Y-112367711D01*
X181525241Y-112370498D01*
X181525246Y-112370498D01*
X181525252Y-112370500D01*
X181525253Y-112370500D01*
X182464747Y-112370500D01*
X182464748Y-112370500D01*
X182523231Y-112358867D01*
X182575000Y-112324274D01*
X182633885Y-112307667D01*
X182684998Y-112324274D01*
X182736769Y-112358867D01*
X182781231Y-112367711D01*
X182795241Y-112370498D01*
X182795246Y-112370498D01*
X182795252Y-112370500D01*
X182795253Y-112370500D01*
X183734747Y-112370500D01*
X183734748Y-112370500D01*
X183793231Y-112358867D01*
X183859552Y-112314552D01*
X183903867Y-112248231D01*
X183915500Y-112189748D01*
X183915500Y-110761736D01*
X183934407Y-110703545D01*
X183983907Y-110667581D01*
X184045093Y-110667581D01*
X184094593Y-110703545D01*
X184096805Y-110706720D01*
X184135448Y-110764552D01*
X184201769Y-110808867D01*
X184246231Y-110817711D01*
X184260241Y-110820498D01*
X184260246Y-110820498D01*
X184260252Y-110820500D01*
X184260253Y-110820500D01*
X185799747Y-110820500D01*
X185799748Y-110820500D01*
X185858231Y-110808867D01*
X185924552Y-110764552D01*
X185968867Y-110698231D01*
X185980500Y-110639748D01*
X185980500Y-109700252D01*
X185968867Y-109641769D01*
X185934274Y-109589999D01*
X185917667Y-109531115D01*
X185934274Y-109480001D01*
X185968867Y-109428231D01*
X185980500Y-109369748D01*
X185980500Y-108430252D01*
X185968867Y-108371769D01*
X185934274Y-108319999D01*
X185917667Y-108261115D01*
X185934274Y-108210001D01*
X185968867Y-108158231D01*
X185980500Y-108099748D01*
X185980500Y-107160252D01*
X185968867Y-107101769D01*
X185934274Y-107049999D01*
X185917667Y-106991115D01*
X185934274Y-106940001D01*
X185968867Y-106888231D01*
X185980500Y-106829748D01*
X185980500Y-105890252D01*
X185968867Y-105831769D01*
X185934274Y-105779999D01*
X185917667Y-105721115D01*
X185934274Y-105670001D01*
X185968867Y-105618231D01*
X185980500Y-105559748D01*
X185980500Y-104620252D01*
X185968867Y-104561769D01*
X185934274Y-104509999D01*
X185917667Y-104451115D01*
X185934274Y-104400001D01*
X185968867Y-104348231D01*
X185980500Y-104289748D01*
X185980500Y-103350252D01*
X185978360Y-103339496D01*
X185972835Y-103311719D01*
X185968867Y-103291769D01*
X185934274Y-103239999D01*
X185917667Y-103181115D01*
X185934274Y-103130001D01*
X185968867Y-103078231D01*
X185980500Y-103019748D01*
X185980500Y-102080252D01*
X185980450Y-102080003D01*
X185975986Y-102057560D01*
X185968867Y-102021769D01*
X185934274Y-101969999D01*
X185917667Y-101911115D01*
X185934274Y-101860001D01*
X185968867Y-101808231D01*
X185980500Y-101749748D01*
X185980500Y-100810252D01*
X185968867Y-100751769D01*
X185934274Y-100699999D01*
X185917667Y-100641115D01*
X185934274Y-100590001D01*
X185968867Y-100538231D01*
X185980500Y-100479748D01*
X185980500Y-99540252D01*
X185968867Y-99481769D01*
X185934274Y-99429999D01*
X185917667Y-99371115D01*
X185934274Y-99320001D01*
X185968867Y-99268231D01*
X185980500Y-99209748D01*
X185980500Y-98270252D01*
X185968867Y-98211769D01*
X185934274Y-98159999D01*
X185917667Y-98101115D01*
X185934274Y-98050001D01*
X185968867Y-97998231D01*
X185980500Y-97939748D01*
X185980500Y-97000252D01*
X185968867Y-96941769D01*
X185934274Y-96889999D01*
X185917667Y-96831115D01*
X185934274Y-96780001D01*
X185968867Y-96728231D01*
X185980500Y-96669748D01*
X185980500Y-95730252D01*
X185968867Y-95671769D01*
X185934274Y-95619999D01*
X185917667Y-95561115D01*
X185934274Y-95510001D01*
X185968867Y-95458231D01*
X185980500Y-95399748D01*
X185980500Y-94460252D01*
X185968867Y-94401769D01*
X185924552Y-94335448D01*
X185918422Y-94331352D01*
X185858233Y-94291134D01*
X185858231Y-94291133D01*
X185858228Y-94291132D01*
X185858227Y-94291132D01*
X185799758Y-94279501D01*
X185799748Y-94279500D01*
X184260252Y-94279500D01*
X184260251Y-94279500D01*
X184260241Y-94279501D01*
X184201772Y-94291132D01*
X184201766Y-94291134D01*
X184135451Y-94335445D01*
X184135445Y-94335451D01*
X184091134Y-94401766D01*
X184091132Y-94401772D01*
X184079501Y-94460241D01*
X184079500Y-94460253D01*
X184079500Y-95399746D01*
X184079501Y-95399758D01*
X184091132Y-95458227D01*
X184091134Y-95458233D01*
X184125723Y-95509998D01*
X184142332Y-95568886D01*
X184125723Y-95620002D01*
X184091134Y-95671766D01*
X184091132Y-95671772D01*
X184079501Y-95730241D01*
X184079500Y-95730253D01*
X184079500Y-96669746D01*
X184079501Y-96669758D01*
X184091132Y-96728227D01*
X184091134Y-96728233D01*
X184125723Y-96779998D01*
X184142332Y-96838886D01*
X184125723Y-96890002D01*
X184091134Y-96941766D01*
X184091132Y-96941772D01*
X184079501Y-97000241D01*
X184079500Y-97000253D01*
X184079500Y-97939746D01*
X184079501Y-97939758D01*
X184091132Y-97998227D01*
X184091134Y-97998233D01*
X184125723Y-98049998D01*
X184142332Y-98108886D01*
X184125723Y-98160002D01*
X184091134Y-98211766D01*
X184091132Y-98211772D01*
X184079501Y-98270241D01*
X184079500Y-98270253D01*
X184079500Y-99209746D01*
X184079501Y-99209758D01*
X184091132Y-99268227D01*
X184091134Y-99268233D01*
X184125723Y-99319998D01*
X184142332Y-99378886D01*
X184125723Y-99430002D01*
X184091134Y-99481766D01*
X184091132Y-99481772D01*
X184079501Y-99540241D01*
X184079500Y-99540253D01*
X184079500Y-100479746D01*
X184079501Y-100479758D01*
X184091132Y-100538227D01*
X184091134Y-100538233D01*
X184125723Y-100589998D01*
X184142332Y-100648886D01*
X184125723Y-100700002D01*
X184091134Y-100751766D01*
X184091132Y-100751772D01*
X184079501Y-100810241D01*
X184079500Y-100810253D01*
X184079500Y-101749746D01*
X184079501Y-101749758D01*
X184091132Y-101808227D01*
X184091134Y-101808233D01*
X184125723Y-101859998D01*
X184142332Y-101918886D01*
X184125723Y-101970002D01*
X184091134Y-102021766D01*
X184091132Y-102021772D01*
X184079501Y-102080241D01*
X184079500Y-102080253D01*
X184079500Y-103019746D01*
X184079501Y-103019758D01*
X184091132Y-103078227D01*
X184091134Y-103078233D01*
X184125723Y-103129998D01*
X184142332Y-103188886D01*
X184125723Y-103240002D01*
X184091134Y-103291766D01*
X184091132Y-103291772D01*
X184079501Y-103350241D01*
X184079500Y-103350253D01*
X184079500Y-104289746D01*
X184079501Y-104289758D01*
X184091132Y-104348227D01*
X184091134Y-104348233D01*
X184125723Y-104399998D01*
X184142332Y-104458886D01*
X184125723Y-104510002D01*
X184091134Y-104561766D01*
X184091132Y-104561772D01*
X184079501Y-104620241D01*
X184079500Y-104620253D01*
X184079500Y-105559746D01*
X184079501Y-105559758D01*
X184091132Y-105618227D01*
X184091134Y-105618233D01*
X184125723Y-105669998D01*
X184142332Y-105728886D01*
X184125723Y-105780002D01*
X184091134Y-105831766D01*
X184091132Y-105831772D01*
X184079501Y-105890241D01*
X184079500Y-105890253D01*
X184079500Y-106829746D01*
X184079501Y-106829758D01*
X184091132Y-106888227D01*
X184091134Y-106888233D01*
X184125723Y-106939998D01*
X184142332Y-106998886D01*
X184125723Y-107050002D01*
X184091134Y-107101766D01*
X184091132Y-107101772D01*
X184079501Y-107160241D01*
X184079500Y-107160253D01*
X184079500Y-108099746D01*
X184079501Y-108099758D01*
X184091132Y-108158227D01*
X184091134Y-108158233D01*
X184125723Y-108209998D01*
X184142332Y-108268886D01*
X184125723Y-108320002D01*
X184091134Y-108371766D01*
X184091132Y-108371772D01*
X184079501Y-108430241D01*
X184079500Y-108430253D01*
X184079500Y-109369746D01*
X184079501Y-109369758D01*
X184091132Y-109428227D01*
X184091134Y-109428233D01*
X184125723Y-109479998D01*
X184142332Y-109538886D01*
X184125723Y-109590002D01*
X184091134Y-109641766D01*
X184091132Y-109641772D01*
X184079501Y-109700241D01*
X184079500Y-109700253D01*
X184079500Y-110528263D01*
X184060593Y-110586454D01*
X184011093Y-110622418D01*
X183949907Y-110622418D01*
X183900407Y-110586454D01*
X183898185Y-110583265D01*
X183859554Y-110525451D01*
X183859552Y-110525448D01*
X183843169Y-110514501D01*
X183793233Y-110481134D01*
X183793231Y-110481133D01*
X183793228Y-110481132D01*
X183793227Y-110481132D01*
X183734758Y-110469501D01*
X183734748Y-110469500D01*
X182795252Y-110469500D01*
X182795251Y-110469500D01*
X182795241Y-110469501D01*
X182736772Y-110481132D01*
X182736766Y-110481134D01*
X182685002Y-110515723D01*
X182626114Y-110532332D01*
X182574998Y-110515723D01*
X182523233Y-110481134D01*
X182523231Y-110481133D01*
X182523228Y-110481132D01*
X182523227Y-110481132D01*
X182464758Y-110469501D01*
X182464748Y-110469500D01*
X181525252Y-110469500D01*
X181525251Y-110469500D01*
X181525241Y-110469501D01*
X181466772Y-110481132D01*
X181466766Y-110481134D01*
X181415002Y-110515723D01*
X181356114Y-110532332D01*
X181304998Y-110515723D01*
X181253233Y-110481134D01*
X181253231Y-110481133D01*
X181253228Y-110481132D01*
X181253227Y-110481132D01*
X181194758Y-110469501D01*
X181194748Y-110469500D01*
X180255252Y-110469500D01*
X180255251Y-110469500D01*
X180255241Y-110469501D01*
X180196772Y-110481132D01*
X180196766Y-110481134D01*
X180145002Y-110515723D01*
X180086114Y-110532332D01*
X180034998Y-110515723D01*
X179983233Y-110481134D01*
X179983231Y-110481133D01*
X179983228Y-110481132D01*
X179983227Y-110481132D01*
X179924758Y-110469501D01*
X179924748Y-110469500D01*
X178985252Y-110469500D01*
X178985251Y-110469500D01*
X178985241Y-110469501D01*
X178926772Y-110481132D01*
X178926766Y-110481134D01*
X178875002Y-110515723D01*
X178816114Y-110532332D01*
X178764998Y-110515723D01*
X178713233Y-110481134D01*
X178713231Y-110481133D01*
X178713228Y-110481132D01*
X178713227Y-110481132D01*
X178654758Y-110469501D01*
X178654748Y-110469500D01*
X177715252Y-110469500D01*
X177715251Y-110469500D01*
X177715241Y-110469501D01*
X177656772Y-110481132D01*
X177656766Y-110481134D01*
X177605002Y-110515723D01*
X177546114Y-110532332D01*
X177494998Y-110515723D01*
X177443233Y-110481134D01*
X177443231Y-110481133D01*
X177443228Y-110481132D01*
X177443227Y-110481132D01*
X177384758Y-110469501D01*
X177384748Y-110469500D01*
X176445252Y-110469500D01*
X176445251Y-110469500D01*
X176445241Y-110469501D01*
X176386772Y-110481132D01*
X176386766Y-110481134D01*
X176335002Y-110515723D01*
X176276114Y-110532332D01*
X176224998Y-110515723D01*
X176173233Y-110481134D01*
X176173231Y-110481133D01*
X176173228Y-110481132D01*
X176173227Y-110481132D01*
X176114758Y-110469501D01*
X176114748Y-110469500D01*
X175175252Y-110469500D01*
X175175251Y-110469500D01*
X175175241Y-110469501D01*
X175116772Y-110481132D01*
X175116766Y-110481134D01*
X175065002Y-110515723D01*
X175006114Y-110532332D01*
X174954998Y-110515723D01*
X174903233Y-110481134D01*
X174903231Y-110481133D01*
X174903228Y-110481132D01*
X174903227Y-110481132D01*
X174844758Y-110469501D01*
X174844748Y-110469500D01*
X173905252Y-110469500D01*
X173905251Y-110469500D01*
X173905241Y-110469501D01*
X173846772Y-110481132D01*
X173846766Y-110481134D01*
X173795002Y-110515723D01*
X173736114Y-110532332D01*
X173684998Y-110515723D01*
X173633233Y-110481134D01*
X173633231Y-110481133D01*
X173633228Y-110481132D01*
X173633227Y-110481132D01*
X173574758Y-110469501D01*
X173574748Y-110469500D01*
X172635252Y-110469500D01*
X172635251Y-110469500D01*
X172635241Y-110469501D01*
X172576772Y-110481132D01*
X172576766Y-110481134D01*
X172525002Y-110515723D01*
X172466114Y-110532332D01*
X172414998Y-110515723D01*
X172363233Y-110481134D01*
X172363231Y-110481133D01*
X172363228Y-110481132D01*
X172363227Y-110481132D01*
X172304758Y-110469501D01*
X172304748Y-110469500D01*
X171365252Y-110469500D01*
X171365251Y-110469500D01*
X171365241Y-110469501D01*
X171306772Y-110481132D01*
X171306766Y-110481134D01*
X171255002Y-110515723D01*
X171196114Y-110532332D01*
X171144998Y-110515723D01*
X171093233Y-110481134D01*
X171093231Y-110481133D01*
X171093228Y-110481132D01*
X171093227Y-110481132D01*
X171034758Y-110469501D01*
X171034748Y-110469500D01*
X170095252Y-110469500D01*
X170095251Y-110469500D01*
X170095241Y-110469501D01*
X170036772Y-110481132D01*
X170036766Y-110481134D01*
X169985002Y-110515723D01*
X169926114Y-110532332D01*
X169874998Y-110515723D01*
X169823233Y-110481134D01*
X169823231Y-110481133D01*
X169823228Y-110481132D01*
X169823227Y-110481132D01*
X169764758Y-110469501D01*
X169764748Y-110469500D01*
X168825252Y-110469500D01*
X168825251Y-110469500D01*
X168825241Y-110469501D01*
X168766772Y-110481132D01*
X168766766Y-110481134D01*
X168700451Y-110525445D01*
X168700445Y-110525451D01*
X168661815Y-110583265D01*
X168613765Y-110621144D01*
X168552626Y-110623546D01*
X168501753Y-110589552D01*
X168480576Y-110532149D01*
X168480500Y-110528263D01*
X168480500Y-109700253D01*
X168480498Y-109700241D01*
X168477711Y-109686231D01*
X168468867Y-109641769D01*
X168434274Y-109589999D01*
X168417667Y-109531115D01*
X168434274Y-109480001D01*
X168468867Y-109428231D01*
X168480500Y-109369748D01*
X168480500Y-108430252D01*
X168468867Y-108371769D01*
X168434274Y-108319999D01*
X168417667Y-108261115D01*
X168434274Y-108210001D01*
X168468867Y-108158231D01*
X168480500Y-108099748D01*
X168480500Y-107160252D01*
X168468867Y-107101769D01*
X168434274Y-107049999D01*
X168417667Y-106991115D01*
X168434274Y-106940001D01*
X168468867Y-106888231D01*
X168480500Y-106829748D01*
X168480500Y-105890252D01*
X168468867Y-105831769D01*
X168434274Y-105779999D01*
X168417667Y-105721115D01*
X168434274Y-105670001D01*
X168468867Y-105618231D01*
X168480500Y-105559748D01*
X168480500Y-104620252D01*
X168468867Y-104561769D01*
X168434274Y-104509999D01*
X168417667Y-104451115D01*
X168434274Y-104400001D01*
X168468867Y-104348231D01*
X168480500Y-104289748D01*
X168480500Y-103350252D01*
X168478360Y-103339496D01*
X168472835Y-103311719D01*
X168468867Y-103291769D01*
X168434274Y-103239999D01*
X168422189Y-103197149D01*
X173804269Y-103197149D01*
X173870155Y-103239492D01*
X174008109Y-103279999D01*
X174008112Y-103280000D01*
X174151888Y-103280000D01*
X174151890Y-103279999D01*
X174289844Y-103239492D01*
X174289846Y-103239491D01*
X174355728Y-103197149D01*
X174355729Y-103197149D01*
X175204269Y-103197149D01*
X175270155Y-103239492D01*
X175408109Y-103279999D01*
X175408112Y-103280000D01*
X175551888Y-103280000D01*
X175551890Y-103279999D01*
X175689844Y-103239492D01*
X175689846Y-103239491D01*
X175755728Y-103197149D01*
X175755729Y-103197149D01*
X175480000Y-102921421D01*
X175204269Y-103197149D01*
X174355729Y-103197149D01*
X174080000Y-102921421D01*
X173804269Y-103197149D01*
X168422189Y-103197149D01*
X168417667Y-103181115D01*
X168434274Y-103130001D01*
X168468867Y-103078231D01*
X168480500Y-103019748D01*
X168480500Y-102497149D01*
X173104269Y-102497149D01*
X173170155Y-102539492D01*
X173308109Y-102579999D01*
X173308112Y-102580000D01*
X173451888Y-102580000D01*
X173451892Y-102579999D01*
X173462491Y-102576887D01*
X173523651Y-102578633D01*
X173572105Y-102615994D01*
X173589345Y-102674701D01*
X173588377Y-102685964D01*
X173574858Y-102779995D01*
X173574858Y-102780002D01*
X173595319Y-102922314D01*
X173655048Y-103053100D01*
X173659889Y-103058687D01*
X173938578Y-102779999D01*
X173918688Y-102760109D01*
X173980000Y-102760109D01*
X173980000Y-102799891D01*
X173995224Y-102836645D01*
X174023355Y-102864776D01*
X174060109Y-102880000D01*
X174099891Y-102880000D01*
X174136645Y-102864776D01*
X174164776Y-102836645D01*
X174180000Y-102799891D01*
X174180000Y-102779999D01*
X174221421Y-102779999D01*
X174500109Y-103058687D01*
X174504950Y-103053102D01*
X174504951Y-103053100D01*
X174564680Y-102922314D01*
X174585142Y-102780002D01*
X174585142Y-102779997D01*
X174571622Y-102685965D01*
X174582055Y-102625676D01*
X174625933Y-102583034D01*
X174686495Y-102574326D01*
X174697506Y-102576886D01*
X174708109Y-102579999D01*
X174708112Y-102580000D01*
X174851888Y-102580000D01*
X174851892Y-102579999D01*
X174862491Y-102576887D01*
X174923651Y-102578633D01*
X174972105Y-102615994D01*
X174989345Y-102674701D01*
X174988377Y-102685964D01*
X174974858Y-102779995D01*
X174974858Y-102780002D01*
X174995319Y-102922314D01*
X175055048Y-103053100D01*
X175059889Y-103058687D01*
X175338577Y-102779999D01*
X175318687Y-102760109D01*
X175380000Y-102760109D01*
X175380000Y-102799891D01*
X175395224Y-102836645D01*
X175423355Y-102864776D01*
X175460109Y-102880000D01*
X175499891Y-102880000D01*
X175536645Y-102864776D01*
X175564776Y-102836645D01*
X175580000Y-102799891D01*
X175580000Y-102779999D01*
X175621421Y-102779999D01*
X175900109Y-103058687D01*
X175904950Y-103053102D01*
X175904951Y-103053100D01*
X175964680Y-102922314D01*
X175985142Y-102780002D01*
X175985142Y-102779997D01*
X175971622Y-102685965D01*
X175982055Y-102625676D01*
X176025933Y-102583034D01*
X176086495Y-102574326D01*
X176097506Y-102576886D01*
X176108109Y-102579999D01*
X176108112Y-102580000D01*
X176251888Y-102580000D01*
X176251890Y-102579999D01*
X176389844Y-102539492D01*
X176389846Y-102539491D01*
X176455728Y-102497149D01*
X176455729Y-102497149D01*
X176180000Y-102221421D01*
X175930580Y-102470840D01*
X175930577Y-102470841D01*
X175822911Y-102578509D01*
X175621421Y-102779999D01*
X175580000Y-102779999D01*
X175580000Y-102760109D01*
X175564776Y-102723355D01*
X175536645Y-102695224D01*
X175499891Y-102680000D01*
X175460109Y-102680000D01*
X175423355Y-102695224D01*
X175395224Y-102723355D01*
X175380000Y-102760109D01*
X175318687Y-102760109D01*
X175137089Y-102578510D01*
X175137089Y-102578511D01*
X175089220Y-102530642D01*
X175089217Y-102530637D01*
X174780000Y-102221421D01*
X174530580Y-102470840D01*
X174530577Y-102470841D01*
X174422911Y-102578509D01*
X174221421Y-102779999D01*
X174180000Y-102779999D01*
X174180000Y-102760109D01*
X174164776Y-102723355D01*
X174136645Y-102695224D01*
X174099891Y-102680000D01*
X174060109Y-102680000D01*
X174023355Y-102695224D01*
X173995224Y-102723355D01*
X173980000Y-102760109D01*
X173918688Y-102760109D01*
X173737089Y-102578510D01*
X173737089Y-102578511D01*
X173689220Y-102530642D01*
X173689217Y-102530637D01*
X173380000Y-102221421D01*
X173104269Y-102497149D01*
X168480500Y-102497149D01*
X168480500Y-102080252D01*
X168480450Y-102080003D01*
X168480449Y-102079997D01*
X172874858Y-102079997D01*
X172874858Y-102080002D01*
X172895319Y-102222314D01*
X172955048Y-102353100D01*
X172959889Y-102358687D01*
X173238578Y-102079999D01*
X173218688Y-102060109D01*
X173280000Y-102060109D01*
X173280000Y-102099891D01*
X173295224Y-102136645D01*
X173323355Y-102164776D01*
X173360109Y-102180000D01*
X173399891Y-102180000D01*
X173436645Y-102164776D01*
X173464776Y-102136645D01*
X173480000Y-102099891D01*
X173480000Y-102079999D01*
X173521421Y-102079999D01*
X173521421Y-102080000D01*
X173722910Y-102281490D01*
X173830578Y-102389157D01*
X174079999Y-102638577D01*
X174329418Y-102389159D01*
X174329419Y-102389159D01*
X174437089Y-102281490D01*
X174638578Y-102080000D01*
X174638578Y-102079999D01*
X174618688Y-102060109D01*
X174680000Y-102060109D01*
X174680000Y-102099891D01*
X174695224Y-102136645D01*
X174723355Y-102164776D01*
X174760109Y-102180000D01*
X174799891Y-102180000D01*
X174836645Y-102164776D01*
X174864776Y-102136645D01*
X174880000Y-102099891D01*
X174880000Y-102079999D01*
X174921421Y-102079999D01*
X174921421Y-102080000D01*
X175122910Y-102281490D01*
X175230578Y-102389157D01*
X175479999Y-102638577D01*
X175729418Y-102389159D01*
X175729419Y-102389159D01*
X175837089Y-102281490D01*
X176038578Y-102080000D01*
X176038578Y-102079999D01*
X176018688Y-102060109D01*
X176080000Y-102060109D01*
X176080000Y-102099891D01*
X176095224Y-102136645D01*
X176123355Y-102164776D01*
X176160109Y-102180000D01*
X176199891Y-102180000D01*
X176236645Y-102164776D01*
X176264776Y-102136645D01*
X176280000Y-102099891D01*
X176280000Y-102079999D01*
X176321421Y-102079999D01*
X176600109Y-102358687D01*
X176604950Y-102353102D01*
X176604951Y-102353100D01*
X176664680Y-102222314D01*
X176685142Y-102080002D01*
X176685142Y-102079997D01*
X176664680Y-101937685D01*
X176604951Y-101806899D01*
X176600109Y-101801311D01*
X176321421Y-102079999D01*
X176280000Y-102079999D01*
X176280000Y-102060109D01*
X176264776Y-102023355D01*
X176236645Y-101995224D01*
X176199891Y-101980000D01*
X176160109Y-101980000D01*
X176123355Y-101995224D01*
X176095224Y-102023355D01*
X176080000Y-102060109D01*
X176018688Y-102060109D01*
X175837089Y-101878510D01*
X175837089Y-101878511D01*
X175789220Y-101830642D01*
X175789217Y-101830637D01*
X175480000Y-101521421D01*
X175230580Y-101770840D01*
X175230577Y-101770841D01*
X175122911Y-101878509D01*
X174921421Y-102079999D01*
X174880000Y-102079999D01*
X174880000Y-102060109D01*
X174864776Y-102023355D01*
X174836645Y-101995224D01*
X174799891Y-101980000D01*
X174760109Y-101980000D01*
X174723355Y-101995224D01*
X174695224Y-102023355D01*
X174680000Y-102060109D01*
X174618688Y-102060109D01*
X174437089Y-101878510D01*
X174437089Y-101878511D01*
X174389220Y-101830642D01*
X174389217Y-101830637D01*
X174080000Y-101521421D01*
X173830580Y-101770840D01*
X173830577Y-101770841D01*
X173722911Y-101878509D01*
X173521421Y-102079999D01*
X173480000Y-102079999D01*
X173480000Y-102060109D01*
X173464776Y-102023355D01*
X173436645Y-101995224D01*
X173399891Y-101980000D01*
X173360109Y-101980000D01*
X173323355Y-101995224D01*
X173295224Y-102023355D01*
X173280000Y-102060109D01*
X173218688Y-102060109D01*
X172959889Y-101801311D01*
X172955048Y-101806899D01*
X172955046Y-101806902D01*
X172895319Y-101937685D01*
X172874858Y-102079997D01*
X168480449Y-102079997D01*
X168475986Y-102057560D01*
X168468867Y-102021769D01*
X168434274Y-101969999D01*
X168417667Y-101911115D01*
X168434274Y-101860001D01*
X168468867Y-101808231D01*
X168480500Y-101749748D01*
X168480500Y-101097149D01*
X173104269Y-101097149D01*
X173170155Y-101139492D01*
X173308109Y-101179999D01*
X173308112Y-101180000D01*
X173451888Y-101180000D01*
X173451892Y-101179999D01*
X173462491Y-101176887D01*
X173523651Y-101178633D01*
X173572105Y-101215994D01*
X173589345Y-101274701D01*
X173588377Y-101285964D01*
X173574858Y-101379995D01*
X173574858Y-101380003D01*
X173588377Y-101474034D01*
X173577944Y-101534324D01*
X173534065Y-101576966D01*
X173473503Y-101585673D01*
X173462496Y-101583114D01*
X173451891Y-101580000D01*
X173308109Y-101580000D01*
X173170156Y-101620507D01*
X173170151Y-101620509D01*
X173104269Y-101662848D01*
X173379999Y-101938577D01*
X173629418Y-101689159D01*
X173629419Y-101689159D01*
X173737089Y-101581490D01*
X173938578Y-101380000D01*
X173938578Y-101379999D01*
X173918688Y-101360109D01*
X173980000Y-101360109D01*
X173980000Y-101399891D01*
X173995224Y-101436645D01*
X174023355Y-101464776D01*
X174060109Y-101480000D01*
X174099891Y-101480000D01*
X174136645Y-101464776D01*
X174164776Y-101436645D01*
X174180000Y-101399891D01*
X174180000Y-101379999D01*
X174221421Y-101379999D01*
X174221421Y-101380000D01*
X174422910Y-101581490D01*
X174530578Y-101689157D01*
X174779999Y-101938577D01*
X175029418Y-101689159D01*
X175029419Y-101689159D01*
X175137089Y-101581490D01*
X175338578Y-101380000D01*
X175338578Y-101379999D01*
X175318688Y-101360109D01*
X175380000Y-101360109D01*
X175380000Y-101399891D01*
X175395224Y-101436645D01*
X175423355Y-101464776D01*
X175460109Y-101480000D01*
X175499891Y-101480000D01*
X175536645Y-101464776D01*
X175564776Y-101436645D01*
X175580000Y-101399891D01*
X175580000Y-101379999D01*
X175621421Y-101379999D01*
X175621421Y-101380000D01*
X175822910Y-101581490D01*
X175930578Y-101689157D01*
X176179999Y-101938577D01*
X176455728Y-101662848D01*
X176389844Y-101620507D01*
X176251890Y-101580000D01*
X176108112Y-101580000D01*
X176108104Y-101580001D01*
X176097501Y-101583114D01*
X176036341Y-101581364D01*
X175987890Y-101543999D01*
X175970654Y-101485292D01*
X175971622Y-101474033D01*
X175985142Y-101380001D01*
X175985142Y-101379997D01*
X175971622Y-101285965D01*
X175982055Y-101225676D01*
X176025933Y-101183034D01*
X176086495Y-101174326D01*
X176097506Y-101176886D01*
X176108109Y-101179999D01*
X176108112Y-101180000D01*
X176251888Y-101180000D01*
X176251890Y-101179999D01*
X176389844Y-101139492D01*
X176389846Y-101139491D01*
X176455728Y-101097149D01*
X176455729Y-101097149D01*
X176180000Y-100821421D01*
X175930580Y-101070840D01*
X175930577Y-101070841D01*
X175822911Y-101178509D01*
X175621421Y-101379999D01*
X175580000Y-101379999D01*
X175580000Y-101360109D01*
X175564776Y-101323355D01*
X175536645Y-101295224D01*
X175499891Y-101280000D01*
X175460109Y-101280000D01*
X175423355Y-101295224D01*
X175395224Y-101323355D01*
X175380000Y-101360109D01*
X175318688Y-101360109D01*
X175137089Y-101178510D01*
X175137089Y-101178511D01*
X175089220Y-101130642D01*
X175089217Y-101130637D01*
X174780000Y-100821421D01*
X174530580Y-101070840D01*
X174530577Y-101070841D01*
X174422911Y-101178509D01*
X174221421Y-101379999D01*
X174180000Y-101379999D01*
X174180000Y-101360109D01*
X174164776Y-101323355D01*
X174136645Y-101295224D01*
X174099891Y-101280000D01*
X174060109Y-101280000D01*
X174023355Y-101295224D01*
X173995224Y-101323355D01*
X173980000Y-101360109D01*
X173918688Y-101360109D01*
X173737089Y-101178510D01*
X173737089Y-101178511D01*
X173689220Y-101130642D01*
X173689217Y-101130637D01*
X173380000Y-100821421D01*
X173104269Y-101097149D01*
X168480500Y-101097149D01*
X168480500Y-100810252D01*
X168468867Y-100751769D01*
X168434274Y-100699999D01*
X168428633Y-100679997D01*
X172874858Y-100679997D01*
X172874858Y-100680002D01*
X172895319Y-100822314D01*
X172955048Y-100953100D01*
X172959889Y-100958687D01*
X173238578Y-100679999D01*
X173218688Y-100660109D01*
X173280000Y-100660109D01*
X173280000Y-100699891D01*
X173295224Y-100736645D01*
X173323355Y-100764776D01*
X173360109Y-100780000D01*
X173399891Y-100780000D01*
X173436645Y-100764776D01*
X173464776Y-100736645D01*
X173480000Y-100699891D01*
X173480000Y-100679999D01*
X173521421Y-100679999D01*
X173521421Y-100680000D01*
X173722910Y-100881490D01*
X173830578Y-100989157D01*
X174079999Y-101238577D01*
X174329418Y-100989159D01*
X174329419Y-100989159D01*
X174437089Y-100881490D01*
X174638578Y-100680000D01*
X174638578Y-100679999D01*
X174618688Y-100660109D01*
X174680000Y-100660109D01*
X174680000Y-100699891D01*
X174695224Y-100736645D01*
X174723355Y-100764776D01*
X174760109Y-100780000D01*
X174799891Y-100780000D01*
X174836645Y-100764776D01*
X174864776Y-100736645D01*
X174880000Y-100699891D01*
X174880000Y-100679999D01*
X174921421Y-100679999D01*
X174921421Y-100680000D01*
X175122910Y-100881490D01*
X175230578Y-100989157D01*
X175479999Y-101238577D01*
X175729418Y-100989159D01*
X175729419Y-100989159D01*
X175837089Y-100881490D01*
X176038578Y-100680000D01*
X176038578Y-100679999D01*
X176018688Y-100660109D01*
X176080000Y-100660109D01*
X176080000Y-100699891D01*
X176095224Y-100736645D01*
X176123355Y-100764776D01*
X176160109Y-100780000D01*
X176199891Y-100780000D01*
X176236645Y-100764776D01*
X176264776Y-100736645D01*
X176280000Y-100699891D01*
X176280000Y-100679999D01*
X176321421Y-100679999D01*
X176600109Y-100958687D01*
X176604950Y-100953102D01*
X176604951Y-100953100D01*
X176664680Y-100822314D01*
X176685142Y-100680002D01*
X176685142Y-100679997D01*
X176664680Y-100537685D01*
X176604951Y-100406899D01*
X176600109Y-100401311D01*
X176321421Y-100679999D01*
X176280000Y-100679999D01*
X176280000Y-100660109D01*
X176264776Y-100623355D01*
X176236645Y-100595224D01*
X176199891Y-100580000D01*
X176160109Y-100580000D01*
X176123355Y-100595224D01*
X176095224Y-100623355D01*
X176080000Y-100660109D01*
X176018688Y-100660109D01*
X175837089Y-100478510D01*
X175837089Y-100478511D01*
X175789220Y-100430642D01*
X175789217Y-100430637D01*
X175480000Y-100121421D01*
X175230580Y-100370840D01*
X175230577Y-100370841D01*
X175122911Y-100478509D01*
X174921421Y-100679999D01*
X174880000Y-100679999D01*
X174880000Y-100660109D01*
X174864776Y-100623355D01*
X174836645Y-100595224D01*
X174799891Y-100580000D01*
X174760109Y-100580000D01*
X174723355Y-100595224D01*
X174695224Y-100623355D01*
X174680000Y-100660109D01*
X174618688Y-100660109D01*
X174437089Y-100478510D01*
X174437089Y-100478511D01*
X174389220Y-100430642D01*
X174389217Y-100430637D01*
X174080000Y-100121421D01*
X173830580Y-100370840D01*
X173830577Y-100370841D01*
X173722911Y-100478509D01*
X173521421Y-100679999D01*
X173480000Y-100679999D01*
X173480000Y-100660109D01*
X173464776Y-100623355D01*
X173436645Y-100595224D01*
X173399891Y-100580000D01*
X173360109Y-100580000D01*
X173323355Y-100595224D01*
X173295224Y-100623355D01*
X173280000Y-100660109D01*
X173218688Y-100660109D01*
X172959889Y-100401311D01*
X172955048Y-100406899D01*
X172955046Y-100406902D01*
X172895319Y-100537685D01*
X172874858Y-100679997D01*
X168428633Y-100679997D01*
X168417667Y-100641115D01*
X168434274Y-100590001D01*
X168468867Y-100538231D01*
X168480500Y-100479748D01*
X168480500Y-100262848D01*
X173104269Y-100262848D01*
X173379999Y-100538577D01*
X173629418Y-100289159D01*
X173629419Y-100289159D01*
X173737089Y-100181490D01*
X173938578Y-99980000D01*
X173938578Y-99979999D01*
X173918688Y-99960109D01*
X173980000Y-99960109D01*
X173980000Y-99999891D01*
X173995224Y-100036645D01*
X174023355Y-100064776D01*
X174060109Y-100080000D01*
X174099891Y-100080000D01*
X174136645Y-100064776D01*
X174164776Y-100036645D01*
X174180000Y-99999891D01*
X174180000Y-99979999D01*
X174221421Y-99979999D01*
X174221421Y-99980000D01*
X174422910Y-100181490D01*
X174530578Y-100289157D01*
X174779999Y-100538577D01*
X175029418Y-100289159D01*
X175029419Y-100289159D01*
X175137089Y-100181490D01*
X175338578Y-99980000D01*
X175338578Y-99979999D01*
X175318688Y-99960109D01*
X175380000Y-99960109D01*
X175380000Y-99999891D01*
X175395224Y-100036645D01*
X175423355Y-100064776D01*
X175460109Y-100080000D01*
X175499891Y-100080000D01*
X175536645Y-100064776D01*
X175564776Y-100036645D01*
X175580000Y-99999891D01*
X175580000Y-99979999D01*
X175621421Y-99979999D01*
X175621421Y-99980000D01*
X175822910Y-100181490D01*
X175930578Y-100289157D01*
X176179999Y-100538577D01*
X176455728Y-100262848D01*
X176389844Y-100220507D01*
X176251890Y-100180000D01*
X176108112Y-100180000D01*
X176108104Y-100180001D01*
X176097501Y-100183114D01*
X176036341Y-100181364D01*
X175987890Y-100143999D01*
X175970654Y-100085292D01*
X175971622Y-100074033D01*
X175985142Y-99980001D01*
X175985142Y-99979997D01*
X175964680Y-99837685D01*
X175904951Y-99706899D01*
X175900109Y-99701311D01*
X175621421Y-99979999D01*
X175580000Y-99979999D01*
X175580000Y-99960109D01*
X175564776Y-99923355D01*
X175536645Y-99895224D01*
X175499891Y-99880000D01*
X175460109Y-99880000D01*
X175423355Y-99895224D01*
X175395224Y-99923355D01*
X175380000Y-99960109D01*
X175318688Y-99960109D01*
X175059889Y-99701311D01*
X175055048Y-99706899D01*
X175055046Y-99706902D01*
X174995319Y-99837685D01*
X174974858Y-99979997D01*
X174974858Y-99980003D01*
X174988377Y-100074034D01*
X174977944Y-100134324D01*
X174934065Y-100176966D01*
X174873503Y-100185673D01*
X174862496Y-100183114D01*
X174851891Y-100180000D01*
X174708112Y-100180000D01*
X174708104Y-100180001D01*
X174697501Y-100183114D01*
X174636341Y-100181364D01*
X174587890Y-100143999D01*
X174570654Y-100085292D01*
X174571622Y-100074033D01*
X174585142Y-99980001D01*
X174585142Y-99979997D01*
X174564680Y-99837685D01*
X174504951Y-99706899D01*
X174500109Y-99701311D01*
X174221421Y-99979999D01*
X174180000Y-99979999D01*
X174180000Y-99960109D01*
X174164776Y-99923355D01*
X174136645Y-99895224D01*
X174099891Y-99880000D01*
X174060109Y-99880000D01*
X174023355Y-99895224D01*
X173995224Y-99923355D01*
X173980000Y-99960109D01*
X173918688Y-99960109D01*
X173659889Y-99701311D01*
X173655048Y-99706899D01*
X173655046Y-99706902D01*
X173595319Y-99837685D01*
X173574858Y-99979997D01*
X173574858Y-99980003D01*
X173588377Y-100074034D01*
X173577944Y-100134324D01*
X173534065Y-100176966D01*
X173473503Y-100185673D01*
X173462496Y-100183114D01*
X173451891Y-100180000D01*
X173308109Y-100180000D01*
X173170156Y-100220507D01*
X173170151Y-100220509D01*
X173104269Y-100262848D01*
X168480500Y-100262848D01*
X168480500Y-99562848D01*
X173804269Y-99562848D01*
X174079999Y-99838577D01*
X174355728Y-99562848D01*
X175204269Y-99562848D01*
X175479999Y-99838577D01*
X175755728Y-99562848D01*
X175689844Y-99520507D01*
X175551890Y-99480000D01*
X175408109Y-99480000D01*
X175270156Y-99520507D01*
X175270151Y-99520509D01*
X175204269Y-99562848D01*
X174355728Y-99562848D01*
X174289844Y-99520507D01*
X174151890Y-99480000D01*
X174008109Y-99480000D01*
X173870156Y-99520507D01*
X173870151Y-99520509D01*
X173804269Y-99562848D01*
X168480500Y-99562848D01*
X168480500Y-99540252D01*
X168468867Y-99481769D01*
X168434274Y-99429999D01*
X168417667Y-99371115D01*
X168434274Y-99320001D01*
X168468867Y-99268231D01*
X168480500Y-99209748D01*
X168480500Y-98270252D01*
X168468867Y-98211769D01*
X168434274Y-98159999D01*
X168417667Y-98101115D01*
X168434274Y-98050001D01*
X168468867Y-97998231D01*
X168480500Y-97939748D01*
X168480500Y-97000252D01*
X168468867Y-96941769D01*
X168434274Y-96889999D01*
X168417667Y-96831115D01*
X168434274Y-96780001D01*
X168468867Y-96728231D01*
X168480500Y-96669748D01*
X168480500Y-96586931D01*
X168499407Y-96528740D01*
X168548907Y-96492776D01*
X168553847Y-96491312D01*
X168595989Y-96480021D01*
X168664511Y-96440460D01*
X168720460Y-96384511D01*
X169420460Y-95684511D01*
X169460021Y-95615989D01*
X169480500Y-95539562D01*
X169480500Y-93180438D01*
X169460021Y-93104011D01*
X169420460Y-93035489D01*
X169364511Y-92979539D01*
X169364511Y-92979540D01*
X168723972Y-92339001D01*
X168696197Y-92284487D01*
X168705768Y-92224055D01*
X168749033Y-92180790D01*
X168793978Y-92170000D01*
X192940500Y-92170000D01*
X192998691Y-92188907D01*
X193034655Y-92238407D01*
X193039500Y-92269000D01*
X193039500Y-123960500D01*
X193020593Y-124018691D01*
X192971093Y-124054655D01*
X192940500Y-124059500D01*
X131219500Y-124059500D01*
X131161309Y-124040593D01*
X131125345Y-123991093D01*
X131120500Y-123960500D01*
X131120500Y-100768501D01*
X144149115Y-100768501D01*
X144149115Y-100768508D01*
X144169548Y-101002074D01*
X144230236Y-101228561D01*
X144329326Y-101441063D01*
X144463809Y-101633126D01*
X144475999Y-101645316D01*
X144889658Y-101231656D01*
X144903904Y-101252977D01*
X145009762Y-101358835D01*
X145031080Y-101373079D01*
X144617422Y-101786739D01*
X144629612Y-101798929D01*
X144821675Y-101933412D01*
X145034177Y-102032502D01*
X145260664Y-102093190D01*
X145494231Y-102113624D01*
X145494237Y-102113624D01*
X145727803Y-102093190D01*
X145954290Y-102032502D01*
X146166792Y-101933412D01*
X146358858Y-101798927D01*
X146358859Y-101798926D01*
X146371045Y-101786739D01*
X145957386Y-101373080D01*
X145978706Y-101358835D01*
X146084564Y-101252977D01*
X146098809Y-101231657D01*
X146512468Y-101645316D01*
X146524655Y-101633130D01*
X146524656Y-101633129D01*
X146659141Y-101441063D01*
X146758231Y-101228561D01*
X146818919Y-101002074D01*
X146839353Y-100768508D01*
X146839353Y-100768501D01*
X146818919Y-100534935D01*
X146758231Y-100308448D01*
X146659141Y-100095947D01*
X146524658Y-99903883D01*
X146512468Y-99891693D01*
X146098808Y-100305351D01*
X146084564Y-100284033D01*
X145978706Y-100178175D01*
X145957385Y-100163929D01*
X146371045Y-99750270D01*
X146358855Y-99738080D01*
X146166792Y-99603597D01*
X145954290Y-99504507D01*
X145727803Y-99443819D01*
X145494237Y-99423386D01*
X145494231Y-99423386D01*
X145260664Y-99443819D01*
X145034177Y-99504507D01*
X144821676Y-99603597D01*
X144629612Y-99738080D01*
X144629607Y-99738084D01*
X144617421Y-99750269D01*
X145031081Y-100163929D01*
X145009762Y-100178175D01*
X144903904Y-100284033D01*
X144889658Y-100305352D01*
X144475998Y-99891692D01*
X144463813Y-99903878D01*
X144463809Y-99903883D01*
X144329326Y-100095947D01*
X144230236Y-100308448D01*
X144169548Y-100534935D01*
X144149115Y-100768501D01*
X131120500Y-100768501D01*
X131120500Y-86329500D01*
X131139407Y-86271309D01*
X131188907Y-86235345D01*
X131219500Y-86230500D01*
X152181000Y-86230500D01*
X152239191Y-86249407D01*
G37*
%TD.AperFunction*%
%TA.AperFunction,Conductor*%
G36*
X166538691Y-110109407D02*
G01*
X166574655Y-110158907D01*
X166579500Y-110189500D01*
X166579500Y-110639746D01*
X166579501Y-110639758D01*
X166591132Y-110698227D01*
X166591134Y-110698233D01*
X166633566Y-110761736D01*
X166635448Y-110764552D01*
X166701769Y-110808867D01*
X166746231Y-110817711D01*
X166760241Y-110820498D01*
X166760246Y-110820498D01*
X166760252Y-110820500D01*
X166760253Y-110820500D01*
X168299747Y-110820500D01*
X168299748Y-110820500D01*
X168358231Y-110808867D01*
X168424552Y-110764552D01*
X168463185Y-110706733D01*
X168511235Y-110668855D01*
X168572373Y-110666453D01*
X168623247Y-110700446D01*
X168644424Y-110757850D01*
X168644500Y-110761736D01*
X168644500Y-112189746D01*
X168644501Y-112189758D01*
X168656132Y-112248227D01*
X168656134Y-112248233D01*
X168700445Y-112314548D01*
X168700448Y-112314552D01*
X168766769Y-112358867D01*
X168811231Y-112367711D01*
X168825241Y-112370498D01*
X168825246Y-112370498D01*
X168825252Y-112370500D01*
X168825253Y-112370500D01*
X169764747Y-112370500D01*
X169764748Y-112370500D01*
X169823231Y-112358867D01*
X169875000Y-112324274D01*
X169933885Y-112307667D01*
X169984998Y-112324274D01*
X170036769Y-112358867D01*
X170081231Y-112367711D01*
X170095241Y-112370498D01*
X170095246Y-112370498D01*
X170095252Y-112370500D01*
X170095253Y-112370500D01*
X171034747Y-112370500D01*
X171034748Y-112370500D01*
X171093231Y-112358867D01*
X171145000Y-112324274D01*
X171203885Y-112307667D01*
X171254998Y-112324274D01*
X171306769Y-112358867D01*
X171351231Y-112367711D01*
X171365241Y-112370498D01*
X171365246Y-112370498D01*
X171365252Y-112370500D01*
X171365253Y-112370500D01*
X172304747Y-112370500D01*
X172304748Y-112370500D01*
X172363231Y-112358867D01*
X172415000Y-112324274D01*
X172473885Y-112307667D01*
X172524998Y-112324274D01*
X172576769Y-112358867D01*
X172621231Y-112367711D01*
X172635241Y-112370498D01*
X172635246Y-112370498D01*
X172635252Y-112370500D01*
X172670500Y-112370500D01*
X172728691Y-112389407D01*
X172764655Y-112438907D01*
X172769500Y-112469500D01*
X172769500Y-112486105D01*
X172750593Y-112544296D01*
X172743258Y-112552289D01*
X172743509Y-112552506D01*
X172738872Y-112557856D01*
X172738872Y-112557857D01*
X172715730Y-112584565D01*
X172644622Y-112666628D01*
X172584834Y-112797543D01*
X172564353Y-112939997D01*
X172564353Y-112940002D01*
X172584834Y-113082456D01*
X172644622Y-113213371D01*
X172644623Y-113213373D01*
X172692415Y-113268528D01*
X172738873Y-113322144D01*
X172775216Y-113345500D01*
X172859947Y-113399953D01*
X172966403Y-113431211D01*
X172998035Y-113440499D01*
X172998036Y-113440499D01*
X172998039Y-113440500D01*
X172998041Y-113440500D01*
X173141959Y-113440500D01*
X173141961Y-113440500D01*
X173280053Y-113399953D01*
X173401128Y-113322143D01*
X173495377Y-113213373D01*
X173555165Y-113082457D01*
X173566971Y-113000345D01*
X173575647Y-112940002D01*
X173575647Y-112939997D01*
X173555165Y-112797543D01*
X173524096Y-112729512D01*
X173495377Y-112666627D01*
X173401128Y-112557857D01*
X173401127Y-112557856D01*
X173396491Y-112552506D01*
X173398524Y-112550743D01*
X173373067Y-112508505D01*
X173370500Y-112486105D01*
X173370500Y-112469500D01*
X173389407Y-112411309D01*
X173438907Y-112375345D01*
X173469500Y-112370500D01*
X173574747Y-112370500D01*
X173574748Y-112370500D01*
X173633231Y-112358867D01*
X173685000Y-112324274D01*
X173743885Y-112307667D01*
X173794998Y-112324274D01*
X173846769Y-112358867D01*
X173891231Y-112367711D01*
X173905241Y-112370498D01*
X173905246Y-112370498D01*
X173905252Y-112370500D01*
X173975500Y-112370500D01*
X174033691Y-112389407D01*
X174069655Y-112438907D01*
X174074500Y-112469500D01*
X174074500Y-112584565D01*
X174094978Y-112660989D01*
X174118459Y-112701658D01*
X174118461Y-112701661D01*
X174134537Y-112729508D01*
X174134540Y-112729512D01*
X174455505Y-113050477D01*
X174483281Y-113104992D01*
X174484500Y-113120479D01*
X174484500Y-115756337D01*
X174465593Y-115814528D01*
X174416093Y-115850492D01*
X174375803Y-115854861D01*
X174372135Y-115854500D01*
X174167870Y-115854500D01*
X174167862Y-115854501D01*
X174087505Y-115870484D01*
X174087501Y-115870486D01*
X174074999Y-115878840D01*
X174016111Y-115895447D01*
X173965001Y-115878840D01*
X173952496Y-115870485D01*
X173952495Y-115870484D01*
X173872134Y-115854500D01*
X173667870Y-115854500D01*
X173667862Y-115854501D01*
X173587505Y-115870484D01*
X173587504Y-115870485D01*
X173548766Y-115896369D01*
X173489878Y-115912977D01*
X173450285Y-115902994D01*
X173371395Y-115864427D01*
X173343576Y-115860374D01*
X173303260Y-115854500D01*
X172936740Y-115854500D01*
X172902673Y-115859463D01*
X172868604Y-115864427D01*
X172763518Y-115915801D01*
X172680801Y-115998518D01*
X172629427Y-116103604D01*
X172629427Y-116103607D01*
X172621720Y-116156507D01*
X172619500Y-116171743D01*
X172619500Y-117036046D01*
X172600593Y-117094237D01*
X172551093Y-117130201D01*
X172546123Y-117131673D01*
X172407860Y-117168720D01*
X172276639Y-117244481D01*
X172169481Y-117351639D01*
X172093720Y-117482860D01*
X172085046Y-117515232D01*
X172054500Y-117629234D01*
X172054500Y-117780766D01*
X172085676Y-117897116D01*
X172093720Y-117927139D01*
X172168119Y-118056000D01*
X172180841Y-118115848D01*
X172155955Y-118171744D01*
X172102967Y-118202337D01*
X172082383Y-118204500D01*
X168950479Y-118204500D01*
X168892288Y-118185593D01*
X168880475Y-118175504D01*
X168433491Y-117728520D01*
X168405714Y-117674003D01*
X168412031Y-117620630D01*
X168418712Y-117604500D01*
X168455687Y-117515236D01*
X168470500Y-117402720D01*
X168470500Y-116577280D01*
X168455687Y-116464764D01*
X168397698Y-116324767D01*
X168305451Y-116204549D01*
X168185233Y-116112302D01*
X168185232Y-116112301D01*
X168121613Y-116085949D01*
X168075088Y-116046211D01*
X168060500Y-115994485D01*
X168060500Y-115594857D01*
X168079407Y-115536666D01*
X168126802Y-115501413D01*
X168155911Y-115491226D01*
X168222882Y-115467793D01*
X168332150Y-115387150D01*
X168412793Y-115277882D01*
X168457646Y-115149699D01*
X168460499Y-115119273D01*
X168460500Y-115119273D01*
X168460500Y-114060727D01*
X168460499Y-114060725D01*
X168457646Y-114030305D01*
X168457646Y-114030301D01*
X168412793Y-113902118D01*
X168332150Y-113792850D01*
X168332146Y-113792847D01*
X168332144Y-113792845D01*
X168222883Y-113712207D01*
X168094703Y-113667355D01*
X168094694Y-113667353D01*
X168064274Y-113664500D01*
X168064266Y-113664500D01*
X167455734Y-113664500D01*
X167455725Y-113664500D01*
X167425305Y-113667353D01*
X167425296Y-113667355D01*
X167297116Y-113712207D01*
X167187855Y-113792845D01*
X167187845Y-113792855D01*
X167107207Y-113902116D01*
X167062355Y-114030296D01*
X167062353Y-114030305D01*
X167059500Y-114060725D01*
X167059500Y-115119274D01*
X167062353Y-115149694D01*
X167062355Y-115149703D01*
X167107207Y-115277883D01*
X167187845Y-115387144D01*
X167187847Y-115387146D01*
X167187850Y-115387150D01*
X167187853Y-115387152D01*
X167187855Y-115387154D01*
X167297116Y-115467792D01*
X167297117Y-115467792D01*
X167297118Y-115467793D01*
X167346608Y-115485110D01*
X167393198Y-115501413D01*
X167441878Y-115538478D01*
X167459500Y-115594857D01*
X167459500Y-115940500D01*
X167440593Y-115998691D01*
X167391093Y-116034655D01*
X167360500Y-116039500D01*
X166607279Y-116039500D01*
X166494767Y-116054312D01*
X166494761Y-116054314D01*
X166354768Y-116112301D01*
X166234551Y-116204547D01*
X166234547Y-116204551D01*
X166142301Y-116324768D01*
X166084314Y-116464761D01*
X166084312Y-116464767D01*
X166069500Y-116577279D01*
X166069500Y-117402720D01*
X166080050Y-117482860D01*
X166084313Y-117515236D01*
X166142302Y-117655233D01*
X166234549Y-117775451D01*
X166354767Y-117867698D01*
X166494764Y-117925687D01*
X166607280Y-117940500D01*
X167754521Y-117940500D01*
X167812712Y-117959407D01*
X167824525Y-117969496D01*
X168027998Y-118172969D01*
X168055775Y-118227486D01*
X168046204Y-118287918D01*
X168002939Y-118331183D01*
X167945073Y-118341126D01*
X167932723Y-118339500D01*
X167932720Y-118339500D01*
X166607280Y-118339500D01*
X166607279Y-118339500D01*
X166494767Y-118354312D01*
X166494761Y-118354314D01*
X166354768Y-118412301D01*
X166234551Y-118504547D01*
X166234547Y-118504551D01*
X166142301Y-118624768D01*
X166084314Y-118764761D01*
X166084312Y-118764767D01*
X166069500Y-118877279D01*
X166069500Y-118890500D01*
X166050593Y-118948691D01*
X166001093Y-118984655D01*
X165970500Y-118989500D01*
X162269500Y-118989500D01*
X162211309Y-118970593D01*
X162175345Y-118921093D01*
X162170500Y-118890500D01*
X162170500Y-117833388D01*
X162170500Y-117833384D01*
X162164086Y-117762804D01*
X162113478Y-117600394D01*
X162109437Y-117593710D01*
X162082042Y-117548393D01*
X162025472Y-117454815D01*
X161905185Y-117334528D01*
X161830700Y-117289500D01*
X161759607Y-117246522D01*
X161759605Y-117246521D01*
X161597194Y-117195913D01*
X161526620Y-117189500D01*
X161526616Y-117189500D01*
X161369500Y-117189500D01*
X161311309Y-117170593D01*
X161275345Y-117121093D01*
X161270500Y-117090500D01*
X161270500Y-113094500D01*
X161289407Y-113036309D01*
X161338907Y-113000345D01*
X161369500Y-112995500D01*
X161540438Y-112995500D01*
X161619562Y-112995500D01*
X162660252Y-112995500D01*
X162718443Y-113014407D01*
X162748462Y-113049555D01*
X162750280Y-113053124D01*
X162750281Y-113053126D01*
X162811472Y-113173220D01*
X162906780Y-113268528D01*
X162906782Y-113268529D01*
X163026867Y-113329716D01*
X163026869Y-113329716D01*
X163026874Y-113329719D01*
X163102541Y-113341703D01*
X163126510Y-113345500D01*
X163126512Y-113345500D01*
X163693490Y-113345500D01*
X163714885Y-113342111D01*
X163793126Y-113329719D01*
X163913220Y-113268528D01*
X164008528Y-113173220D01*
X164069719Y-113053126D01*
X164085500Y-112953488D01*
X164085500Y-112687978D01*
X164104407Y-112629787D01*
X164114490Y-112617980D01*
X164857960Y-111874511D01*
X164897522Y-111805988D01*
X164918000Y-111729562D01*
X164918000Y-111650438D01*
X164918000Y-110618096D01*
X164934685Y-110563094D01*
X164955362Y-110532149D01*
X164981367Y-110493231D01*
X164993000Y-110434748D01*
X164993000Y-110189500D01*
X165011907Y-110131309D01*
X165061407Y-110095345D01*
X165092000Y-110090500D01*
X166480500Y-110090500D01*
X166538691Y-110109407D01*
G37*
%TD.AperFunction*%
%TA.AperFunction,Conductor*%
G36*
X163480387Y-109050187D02*
G01*
X163489265Y-109053864D01*
X163489269Y-109053867D01*
X163547752Y-109065500D01*
X163547753Y-109065500D01*
X163818000Y-109065500D01*
X163876191Y-109084407D01*
X163912155Y-109133907D01*
X163917000Y-109164500D01*
X163917000Y-109434746D01*
X163917001Y-109434758D01*
X163928632Y-109493230D01*
X163932314Y-109502119D01*
X163937111Y-109563116D01*
X163932314Y-109577881D01*
X163928632Y-109586769D01*
X163917001Y-109645241D01*
X163917000Y-109645253D01*
X163917000Y-109934746D01*
X163917001Y-109934758D01*
X163928632Y-109993230D01*
X163932314Y-110002119D01*
X163937111Y-110063116D01*
X163932314Y-110077881D01*
X163928632Y-110086769D01*
X163917001Y-110145241D01*
X163917000Y-110145253D01*
X163917000Y-110415500D01*
X163898093Y-110473691D01*
X163848593Y-110509655D01*
X163818000Y-110514500D01*
X163547752Y-110514500D01*
X163547751Y-110514500D01*
X163547741Y-110514501D01*
X163489269Y-110526132D01*
X163480381Y-110529814D01*
X163419384Y-110534611D01*
X163404619Y-110529814D01*
X163395730Y-110526132D01*
X163337258Y-110514501D01*
X163337248Y-110514500D01*
X163047752Y-110514500D01*
X163047751Y-110514500D01*
X163047741Y-110514501D01*
X162989269Y-110526132D01*
X162980381Y-110529814D01*
X162919384Y-110534611D01*
X162904619Y-110529814D01*
X162895730Y-110526132D01*
X162837258Y-110514501D01*
X162837248Y-110514500D01*
X162547752Y-110514500D01*
X162547751Y-110514500D01*
X162547741Y-110514501D01*
X162489272Y-110526132D01*
X162489266Y-110526134D01*
X162422951Y-110570445D01*
X162422945Y-110570451D01*
X162378634Y-110636766D01*
X162378632Y-110636772D01*
X162367001Y-110695241D01*
X162367000Y-110695253D01*
X162367000Y-110912021D01*
X162348093Y-110970212D01*
X162338004Y-110982025D01*
X161439504Y-111880525D01*
X161384987Y-111908302D01*
X161324555Y-111898731D01*
X161281290Y-111855466D01*
X161270500Y-111810521D01*
X161270500Y-109294479D01*
X161289407Y-109236288D01*
X161338907Y-109200324D01*
X161400093Y-109200324D01*
X161439504Y-109224475D01*
X161689540Y-109474511D01*
X161689539Y-109474511D01*
X161745489Y-109530460D01*
X161814007Y-109570019D01*
X161814011Y-109570021D01*
X161890435Y-109590499D01*
X161890437Y-109590500D01*
X161890438Y-109590500D01*
X161964232Y-109590500D01*
X162004223Y-109602630D01*
X162005257Y-109600134D01*
X162014264Y-109603863D01*
X162014269Y-109603867D01*
X162058731Y-109612711D01*
X162072741Y-109615498D01*
X162072746Y-109615498D01*
X162072752Y-109615500D01*
X162072753Y-109615500D01*
X162787247Y-109615500D01*
X162787248Y-109615500D01*
X162845731Y-109603867D01*
X162912052Y-109559552D01*
X162956367Y-109493231D01*
X162968000Y-109434748D01*
X162968000Y-109164500D01*
X162986907Y-109106309D01*
X163036407Y-109070345D01*
X163067000Y-109065500D01*
X163337247Y-109065500D01*
X163337248Y-109065500D01*
X163395731Y-109053867D01*
X163395736Y-109053863D01*
X163404613Y-109050187D01*
X163465610Y-109045386D01*
X163480387Y-109050187D01*
G37*
%TD.AperFunction*%
%TA.AperFunction,Conductor*%
G36*
X163349222Y-95208037D02*
G01*
X163354003Y-95210016D01*
X163354012Y-95210022D01*
X163430438Y-95230500D01*
X166480500Y-95230500D01*
X166538691Y-95249407D01*
X166574655Y-95298907D01*
X166579500Y-95329500D01*
X166579500Y-95399746D01*
X166579501Y-95399758D01*
X166591132Y-95458227D01*
X166591134Y-95458233D01*
X166625723Y-95509998D01*
X166642332Y-95568886D01*
X166625723Y-95620002D01*
X166591134Y-95671766D01*
X166591132Y-95671772D01*
X166579501Y-95730241D01*
X166579500Y-95730253D01*
X166579500Y-96669746D01*
X166579501Y-96669758D01*
X166591132Y-96728227D01*
X166591134Y-96728233D01*
X166625723Y-96779998D01*
X166642332Y-96838886D01*
X166625723Y-96890002D01*
X166591134Y-96941766D01*
X166591132Y-96941772D01*
X166579501Y-97000241D01*
X166579500Y-97000253D01*
X166579500Y-97939746D01*
X166579501Y-97939758D01*
X166591132Y-97998227D01*
X166591134Y-97998233D01*
X166625723Y-98049998D01*
X166642332Y-98108886D01*
X166625723Y-98160002D01*
X166591134Y-98211766D01*
X166591132Y-98211772D01*
X166579501Y-98270241D01*
X166579500Y-98270253D01*
X166579500Y-99209746D01*
X166579501Y-99209758D01*
X166591132Y-99268227D01*
X166591134Y-99268233D01*
X166625723Y-99319998D01*
X166642332Y-99378886D01*
X166625723Y-99430002D01*
X166591134Y-99481766D01*
X166591132Y-99481772D01*
X166579501Y-99540241D01*
X166579500Y-99540253D01*
X166579500Y-100479746D01*
X166579501Y-100479758D01*
X166591132Y-100538227D01*
X166591134Y-100538233D01*
X166625723Y-100589998D01*
X166642332Y-100648886D01*
X166625723Y-100700002D01*
X166591134Y-100751766D01*
X166591132Y-100751772D01*
X166579501Y-100810241D01*
X166579500Y-100810253D01*
X166579500Y-101749746D01*
X166579501Y-101749758D01*
X166591132Y-101808227D01*
X166591134Y-101808233D01*
X166625723Y-101859998D01*
X166642332Y-101918886D01*
X166625723Y-101970002D01*
X166591134Y-102021766D01*
X166591132Y-102021772D01*
X166579501Y-102080241D01*
X166579500Y-102080253D01*
X166579500Y-103019746D01*
X166579501Y-103019758D01*
X166591132Y-103078227D01*
X166591134Y-103078233D01*
X166625723Y-103129998D01*
X166642332Y-103188886D01*
X166625723Y-103240002D01*
X166591134Y-103291766D01*
X166591132Y-103291772D01*
X166579501Y-103350241D01*
X166579500Y-103350253D01*
X166579500Y-104289746D01*
X166579501Y-104289758D01*
X166591132Y-104348227D01*
X166591134Y-104348233D01*
X166625723Y-104399998D01*
X166642332Y-104458886D01*
X166625723Y-104510002D01*
X166591134Y-104561766D01*
X166591132Y-104561772D01*
X166579501Y-104620241D01*
X166579500Y-104620253D01*
X166579500Y-105559746D01*
X166579501Y-105559758D01*
X166591132Y-105618227D01*
X166591134Y-105618233D01*
X166625723Y-105669998D01*
X166642332Y-105728886D01*
X166625723Y-105780002D01*
X166591134Y-105831766D01*
X166591132Y-105831772D01*
X166579501Y-105890241D01*
X166579500Y-105890253D01*
X166579500Y-106829746D01*
X166579501Y-106829758D01*
X166591132Y-106888227D01*
X166591134Y-106888233D01*
X166625723Y-106939998D01*
X166642332Y-106998886D01*
X166625723Y-107050002D01*
X166591134Y-107101766D01*
X166591132Y-107101772D01*
X166579501Y-107160241D01*
X166579500Y-107160253D01*
X166579500Y-108099746D01*
X166579501Y-108099758D01*
X166591132Y-108158227D01*
X166591134Y-108158233D01*
X166625723Y-108209998D01*
X166642332Y-108268886D01*
X166625723Y-108320002D01*
X166591134Y-108371766D01*
X166591132Y-108371772D01*
X166579501Y-108430241D01*
X166579500Y-108430253D01*
X166579500Y-108890500D01*
X166560593Y-108948691D01*
X166511093Y-108984655D01*
X166480500Y-108989500D01*
X164920768Y-108989500D01*
X164880776Y-108977369D01*
X164879743Y-108979866D01*
X164870733Y-108976134D01*
X164870731Y-108976133D01*
X164870727Y-108976132D01*
X164812258Y-108964501D01*
X164812248Y-108964500D01*
X164117000Y-108964500D01*
X164058809Y-108945593D01*
X164022845Y-108896093D01*
X164018000Y-108865500D01*
X164018000Y-108170253D01*
X164017998Y-108170241D01*
X164015211Y-108156231D01*
X164006367Y-108111769D01*
X163962052Y-108045448D01*
X163962048Y-108045445D01*
X163895733Y-108001134D01*
X163895731Y-108001133D01*
X163895728Y-108001132D01*
X163895727Y-108001132D01*
X163837258Y-107989501D01*
X163837248Y-107989500D01*
X163547752Y-107989500D01*
X163547751Y-107989500D01*
X163547741Y-107989501D01*
X163489269Y-108001132D01*
X163480381Y-108004814D01*
X163419384Y-108009611D01*
X163404619Y-108004814D01*
X163395730Y-108001132D01*
X163337258Y-107989501D01*
X163337248Y-107989500D01*
X163047752Y-107989500D01*
X163047751Y-107989500D01*
X163047741Y-107989501D01*
X162989269Y-108001132D01*
X162980381Y-108004814D01*
X162919384Y-108009611D01*
X162904619Y-108004814D01*
X162895730Y-108001132D01*
X162837258Y-107989501D01*
X162837248Y-107989500D01*
X162547752Y-107989500D01*
X162547751Y-107989500D01*
X162547741Y-107989501D01*
X162489272Y-108001132D01*
X162489266Y-108001134D01*
X162422951Y-108045445D01*
X162422945Y-108045451D01*
X162378634Y-108111766D01*
X162378632Y-108111772D01*
X162367001Y-108170241D01*
X162367000Y-108170253D01*
X162367000Y-108865500D01*
X162348093Y-108923691D01*
X162298593Y-108959655D01*
X162268000Y-108964500D01*
X162070479Y-108964500D01*
X162012288Y-108945593D01*
X162000475Y-108935504D01*
X161299496Y-108234525D01*
X161271719Y-108180008D01*
X161270500Y-108164521D01*
X161270500Y-107389500D01*
X161289407Y-107331309D01*
X161338907Y-107295345D01*
X161369500Y-107290500D01*
X161992641Y-107290500D01*
X162050832Y-107309407D01*
X162086796Y-107358907D01*
X162090004Y-107372275D01*
X162090282Y-107373129D01*
X162151470Y-107493217D01*
X162151472Y-107493220D01*
X162246780Y-107588528D01*
X162246782Y-107588529D01*
X162366867Y-107649716D01*
X162366869Y-107649716D01*
X162366874Y-107649719D01*
X162442541Y-107661703D01*
X162466510Y-107665500D01*
X162466512Y-107665500D01*
X162983490Y-107665500D01*
X163004885Y-107662111D01*
X163083126Y-107649719D01*
X163203220Y-107588528D01*
X163298528Y-107493220D01*
X163359719Y-107373126D01*
X163375500Y-107273488D01*
X163375500Y-106706512D01*
X163359719Y-106606874D01*
X163359716Y-106606869D01*
X163359716Y-106606867D01*
X163298529Y-106486782D01*
X163298528Y-106486780D01*
X163203220Y-106391472D01*
X163203217Y-106391470D01*
X163083132Y-106330283D01*
X163083127Y-106330281D01*
X163083126Y-106330281D01*
X163021346Y-106320496D01*
X162983490Y-106314500D01*
X162983488Y-106314500D01*
X162466512Y-106314500D01*
X162466510Y-106314500D01*
X162366874Y-106330281D01*
X162366867Y-106330283D01*
X162246782Y-106391470D01*
X162151470Y-106486782D01*
X162090282Y-106606870D01*
X162087874Y-106614282D01*
X162086432Y-106613813D01*
X162062649Y-106660499D01*
X162008134Y-106688280D01*
X161992641Y-106689500D01*
X161337078Y-106689500D01*
X161278887Y-106670593D01*
X161262259Y-106655331D01*
X161221123Y-106607857D01*
X161134256Y-106552031D01*
X161100052Y-106530049D01*
X161100049Y-106530047D01*
X161100048Y-106530047D01*
X161100045Y-106530046D01*
X160961959Y-106489500D01*
X160961956Y-106489500D01*
X160927217Y-106489500D01*
X160869026Y-106470593D01*
X160833062Y-106421093D01*
X160833062Y-106359907D01*
X160857212Y-106320497D01*
X161018214Y-106159495D01*
X161072730Y-106131719D01*
X161088217Y-106130500D01*
X162109563Y-106130500D01*
X162109563Y-106130499D01*
X162185989Y-106110021D01*
X162254511Y-106070460D01*
X162310460Y-106014511D01*
X163180460Y-105144511D01*
X163220021Y-105075989D01*
X163240500Y-104999562D01*
X163240500Y-104105479D01*
X163259407Y-104047288D01*
X163269496Y-104035475D01*
X163985475Y-103319496D01*
X164039992Y-103291719D01*
X164055479Y-103290500D01*
X164819273Y-103290500D01*
X164819273Y-103290499D01*
X164849699Y-103287646D01*
X164977882Y-103242793D01*
X165087150Y-103162150D01*
X165167793Y-103052882D01*
X165212646Y-102924699D01*
X165215499Y-102894273D01*
X165215500Y-102894273D01*
X165215500Y-102285727D01*
X165215499Y-102285725D01*
X165214522Y-102275305D01*
X165212646Y-102255301D01*
X165167793Y-102127118D01*
X165167792Y-102127116D01*
X165159845Y-102116348D01*
X165140503Y-102058301D01*
X165140500Y-102057560D01*
X165140500Y-101599500D01*
X165159407Y-101541309D01*
X165208907Y-101505345D01*
X165239500Y-101500500D01*
X165252719Y-101500500D01*
X165252720Y-101500500D01*
X165365236Y-101485687D01*
X165505233Y-101427698D01*
X165625451Y-101335451D01*
X165717698Y-101215233D01*
X165775687Y-101075236D01*
X165790500Y-100962720D01*
X165790500Y-99637280D01*
X165775687Y-99524764D01*
X165717698Y-99384767D01*
X165625451Y-99264549D01*
X165505233Y-99172302D01*
X165365236Y-99114313D01*
X165365234Y-99114312D01*
X165365232Y-99114312D01*
X165252720Y-99099500D01*
X164427280Y-99099500D01*
X164427279Y-99099500D01*
X164314767Y-99114312D01*
X164314761Y-99114314D01*
X164174768Y-99172301D01*
X164054551Y-99264547D01*
X164054547Y-99264551D01*
X163962301Y-99384768D01*
X163904314Y-99524761D01*
X163904312Y-99524767D01*
X163889500Y-99637279D01*
X163889500Y-100962720D01*
X163904312Y-101075232D01*
X163904314Y-101075238D01*
X163947707Y-101179999D01*
X163962302Y-101215233D01*
X164054549Y-101335451D01*
X164174767Y-101427698D01*
X164314764Y-101485687D01*
X164427280Y-101500500D01*
X164440500Y-101500500D01*
X164498691Y-101519407D01*
X164534655Y-101568907D01*
X164539500Y-101599500D01*
X164539500Y-101790500D01*
X164520593Y-101848691D01*
X164471093Y-101884655D01*
X164440500Y-101889500D01*
X163760725Y-101889500D01*
X163730305Y-101892353D01*
X163730296Y-101892355D01*
X163602116Y-101937207D01*
X163492855Y-102017845D01*
X163492845Y-102017855D01*
X163412207Y-102127116D01*
X163367355Y-102255296D01*
X163367353Y-102255305D01*
X163364500Y-102285725D01*
X163364500Y-102894274D01*
X163367353Y-102924694D01*
X163367354Y-102924701D01*
X163389053Y-102986715D01*
X163390425Y-103047885D01*
X163365612Y-103089415D01*
X162835681Y-103619346D01*
X162815178Y-103635078D01*
X162755490Y-103669539D01*
X162699538Y-103725491D01*
X162659980Y-103794007D01*
X162659978Y-103794011D01*
X162639500Y-103870435D01*
X162639500Y-104794521D01*
X162620593Y-104852712D01*
X162610504Y-104864525D01*
X161974525Y-105500504D01*
X161920008Y-105528281D01*
X161904521Y-105529500D01*
X160883174Y-105529500D01*
X160806750Y-105549978D01*
X160806746Y-105549980D01*
X160738228Y-105589539D01*
X160533440Y-105794326D01*
X160478924Y-105822103D01*
X160418492Y-105812531D01*
X160375227Y-105769267D01*
X160373384Y-105765448D01*
X160347483Y-105708734D01*
X160347482Y-105708733D01*
X160347482Y-105708732D01*
X160253233Y-105599962D01*
X160253232Y-105599961D01*
X160248596Y-105594611D01*
X160250629Y-105592848D01*
X160225172Y-105550610D01*
X160222605Y-105528210D01*
X160222605Y-104463374D01*
X160241512Y-104405183D01*
X160251601Y-104393370D01*
X161305475Y-103339496D01*
X161359992Y-103311719D01*
X161375479Y-103310500D01*
X162139273Y-103310500D01*
X162139273Y-103310499D01*
X162169699Y-103307646D01*
X162297882Y-103262793D01*
X162407150Y-103182150D01*
X162487793Y-103072882D01*
X162532646Y-102944699D01*
X162535499Y-102914273D01*
X162535500Y-102914273D01*
X162535500Y-102305727D01*
X162535499Y-102305725D01*
X162533624Y-102285734D01*
X162532646Y-102275301D01*
X162510944Y-102213283D01*
X162509571Y-102152116D01*
X162534384Y-102110585D01*
X162780460Y-101864511D01*
X162789594Y-101848691D01*
X162820020Y-101795992D01*
X162820020Y-101795990D01*
X162820022Y-101795988D01*
X162840500Y-101719562D01*
X162840500Y-101640438D01*
X162840500Y-101599500D01*
X162859407Y-101541309D01*
X162908907Y-101505345D01*
X162939500Y-101500500D01*
X162952719Y-101500500D01*
X162952720Y-101500500D01*
X163065236Y-101485687D01*
X163205233Y-101427698D01*
X163325451Y-101335451D01*
X163417698Y-101215233D01*
X163475687Y-101075236D01*
X163490500Y-100962720D01*
X163490500Y-99637280D01*
X163475687Y-99524764D01*
X163417698Y-99384767D01*
X163325451Y-99264549D01*
X163205233Y-99172302D01*
X163065236Y-99114313D01*
X163065234Y-99114312D01*
X163065232Y-99114312D01*
X162952720Y-99099500D01*
X162939500Y-99099500D01*
X162881309Y-99080593D01*
X162845345Y-99031093D01*
X162840500Y-99000500D01*
X162840500Y-95299500D01*
X162859407Y-95241309D01*
X162908907Y-95205345D01*
X162939500Y-95200500D01*
X163311333Y-95200500D01*
X163349222Y-95208037D01*
G37*
%TD.AperFunction*%
%TA.AperFunction,Conductor*%
G36*
X168312712Y-92779407D02*
G01*
X168324525Y-92789496D01*
X168850504Y-93315475D01*
X168878281Y-93369992D01*
X168879500Y-93385479D01*
X168879500Y-95334521D01*
X168860593Y-95392712D01*
X168850503Y-95404525D01*
X168599984Y-95655043D01*
X168545468Y-95682820D01*
X168485036Y-95673249D01*
X168447667Y-95640042D01*
X168434275Y-95619999D01*
X168417667Y-95561115D01*
X168434274Y-95510001D01*
X168468867Y-95458231D01*
X168480500Y-95399748D01*
X168480500Y-94460252D01*
X168468867Y-94401769D01*
X168424552Y-94335448D01*
X168418422Y-94331352D01*
X168358233Y-94291134D01*
X168358231Y-94291133D01*
X168358228Y-94291132D01*
X168358227Y-94291132D01*
X168299758Y-94279501D01*
X168299748Y-94279500D01*
X166760252Y-94279500D01*
X166760251Y-94279500D01*
X166760241Y-94279501D01*
X166701772Y-94291132D01*
X166701766Y-94291134D01*
X166635451Y-94335445D01*
X166635445Y-94335451D01*
X166591134Y-94401766D01*
X166591132Y-94401772D01*
X166579501Y-94460241D01*
X166579500Y-94460253D01*
X166579500Y-94530500D01*
X166560593Y-94588691D01*
X166511093Y-94624655D01*
X166480500Y-94629500D01*
X164739500Y-94629500D01*
X164681309Y-94610593D01*
X164645345Y-94561093D01*
X164640500Y-94530500D01*
X164640500Y-93443388D01*
X164640500Y-93443384D01*
X164634086Y-93372804D01*
X164583478Y-93210394D01*
X164495472Y-93064815D01*
X164375185Y-92944528D01*
X164374677Y-92944221D01*
X164374435Y-92943941D01*
X164370473Y-92940837D01*
X164371080Y-92940061D01*
X164334662Y-92897938D01*
X164329492Y-92836972D01*
X164361145Y-92784610D01*
X164417531Y-92760854D01*
X164425895Y-92760500D01*
X168254521Y-92760500D01*
X168312712Y-92779407D01*
G37*
%TD.AperFunction*%
%TD*%
M02*
