%TF.GenerationSoftware,KiCad,Pcbnew,8.0.8-8.0.8-0~ubuntu24.04.1*%
%TF.CreationDate,2025-08-02T17:46:37-04:00*%
%TF.ProjectId,electronics,656c6563-7472-46f6-9e69-63732e6b6963,rev?*%
%TF.SameCoordinates,Original*%
%TF.FileFunction,Soldermask,Top*%
%TF.FilePolarity,Negative*%
%FSLAX46Y46*%
G04 Gerber Fmt 4.6, Leading zero omitted, Abs format (unit mm)*
G04 Created by KiCad (PCBNEW 8.0.8-8.0.8-0~ubuntu24.04.1) date 2025-08-02 17:46:37*
%MOMM*%
%LPD*%
G01*
G04 APERTURE LIST*
G04 Aperture macros list*
%AMRoundRect*
0 Rectangle with rounded corners*
0 $1 Rounding radius*
0 $2 $3 $4 $5 $6 $7 $8 $9 X,Y pos of 4 corners*
0 Add a 4 corners polygon primitive as box body*
4,1,4,$2,$3,$4,$5,$6,$7,$8,$9,$2,$3,0*
0 Add four circle primitives for the rounded corners*
1,1,$1+$1,$2,$3*
1,1,$1+$1,$4,$5*
1,1,$1+$1,$6,$7*
1,1,$1+$1,$8,$9*
0 Add four rect primitives between the rounded corners*
20,1,$1+$1,$2,$3,$4,$5,0*
20,1,$1+$1,$4,$5,$6,$7,0*
20,1,$1+$1,$6,$7,$8,$9,0*
20,1,$1+$1,$8,$9,$2,$3,0*%
G04 Aperture macros list end*
%ADD10C,2.100000*%
%ADD11R,0.675000X0.250000*%
%ADD12R,0.250000X0.675000*%
%ADD13RoundRect,0.225000X0.225000X0.250000X-0.225000X0.250000X-0.225000X-0.250000X0.225000X-0.250000X0*%
%ADD14RoundRect,0.135000X-0.135000X-0.185000X0.135000X-0.185000X0.135000X0.185000X-0.135000X0.185000X0*%
%ADD15C,0.650000*%
%ADD16RoundRect,0.150000X-0.150000X-0.425000X0.150000X-0.425000X0.150000X0.425000X-0.150000X0.425000X0*%
%ADD17RoundRect,0.075000X-0.075000X-0.500000X0.075000X-0.500000X0.075000X0.500000X-0.075000X0.500000X0*%
%ADD18RoundRect,0.250000X-0.840000X-0.750000X0.840000X-0.750000X0.840000X0.750000X-0.840000X0.750000X0*%
%ADD19R,1.500000X0.900000*%
%ADD20R,0.900000X1.500000*%
%ADD21C,0.600000*%
%ADD22R,3.900000X3.900000*%
%ADD23RoundRect,0.225000X-0.225000X-0.250000X0.225000X-0.250000X0.225000X0.250000X-0.225000X0.250000X0*%
%ADD24RoundRect,0.375000X-0.375000X0.625000X-0.375000X-0.625000X0.375000X-0.625000X0.375000X0.625000X0*%
%ADD25RoundRect,0.500000X-1.400000X0.500000X-1.400000X-0.500000X1.400000X-0.500000X1.400000X0.500000X0*%
%ADD26RoundRect,0.250000X-0.250000X-0.475000X0.250000X-0.475000X0.250000X0.475000X-0.250000X0.475000X0*%
%ADD27RoundRect,0.102000X-0.650000X-1.700000X0.650000X-1.700000X0.650000X1.700000X-0.650000X1.700000X0*%
%ADD28RoundRect,0.250000X0.250000X0.475000X-0.250000X0.475000X-0.250000X-0.475000X0.250000X-0.475000X0*%
%ADD29RoundRect,0.250000X0.625000X-0.350000X0.625000X0.350000X-0.625000X0.350000X-0.625000X-0.350000X0*%
%ADD30O,1.750000X1.200000*%
G04 APERTURE END LIST*
D10*
%TO.C,REF\u002A\u002A*%
X130680000Y-116550000D03*
%TD*%
%TO.C,REF\u002A\u002A*%
X156100000Y-75340000D03*
%TD*%
%TO.C,REF\u002A\u002A*%
X130480000Y-75520000D03*
%TD*%
D11*
%TO.C,U2*%
X131792500Y-90472500D03*
X131792500Y-89972500D03*
X131792500Y-89472500D03*
X131792500Y-88972500D03*
D12*
X131030000Y-88710000D03*
X130530000Y-88710000D03*
X130030000Y-88710000D03*
D11*
X129267500Y-88972500D03*
X129267500Y-89472500D03*
X129267500Y-89972500D03*
X129267500Y-90472500D03*
D12*
X130030000Y-90735000D03*
X130530000Y-90735000D03*
X131030000Y-90735000D03*
%TD*%
D13*
%TO.C,C4*%
X130650000Y-86730000D03*
X129100000Y-86730000D03*
%TD*%
D14*
%TO.C,R1*%
X131610000Y-82630000D03*
X132630000Y-82630000D03*
%TD*%
D15*
%TO.C,J1*%
X139260000Y-112820000D03*
X145040000Y-112820000D03*
D16*
X138950000Y-111745000D03*
X139750000Y-111745000D03*
D17*
X140900000Y-111745000D03*
X141900000Y-111745000D03*
X142400000Y-111745000D03*
X143400000Y-111745000D03*
D16*
X144550000Y-111745000D03*
X145350000Y-111745000D03*
X145350000Y-111745000D03*
X144550000Y-111745000D03*
D17*
X143900000Y-111745000D03*
X142900000Y-111745000D03*
X141400000Y-111745000D03*
X140400000Y-111745000D03*
D16*
X139750000Y-111745000D03*
X138950000Y-111745000D03*
D18*
X137040000Y-112320000D03*
X137040000Y-116250000D03*
X147260000Y-112320000D03*
X147260000Y-116250000D03*
%TD*%
D19*
%TO.C,U1*%
X134270000Y-79310000D03*
X134270000Y-80580000D03*
X134270000Y-81850000D03*
X134270000Y-83120000D03*
X134270000Y-84390000D03*
X134270000Y-85660000D03*
X134270000Y-86930000D03*
X134270000Y-88200000D03*
X134270000Y-89470000D03*
X134270000Y-90740000D03*
X134270000Y-92010000D03*
X134270000Y-93280000D03*
X134270000Y-94550000D03*
X134270000Y-95820000D03*
D20*
X136035000Y-97070000D03*
X137305000Y-97070000D03*
X138575000Y-97070000D03*
X139845000Y-97070000D03*
X141115000Y-97070000D03*
X142385000Y-97070000D03*
X143655000Y-97070000D03*
X144925000Y-97070000D03*
X146195000Y-97070000D03*
X147465000Y-97070000D03*
X148735000Y-97070000D03*
X150005000Y-97070000D03*
D19*
X151770000Y-95820000D03*
X151770000Y-94550000D03*
X151770000Y-93280000D03*
X151770000Y-92010000D03*
X151770000Y-90740000D03*
X151770000Y-89470000D03*
X151770000Y-88200000D03*
X151770000Y-86930000D03*
X151770000Y-85660000D03*
X151770000Y-84390000D03*
X151770000Y-83120000D03*
X151770000Y-81850000D03*
X151770000Y-80580000D03*
X151770000Y-79310000D03*
D21*
X140120000Y-86330000D03*
X140120000Y-87730000D03*
X140820000Y-85630000D03*
X140820000Y-87030000D03*
X140820000Y-88430000D03*
X141520000Y-86330000D03*
D22*
X141520000Y-87030000D03*
D21*
X141520000Y-87730000D03*
X142220000Y-85630000D03*
X142220000Y-87030000D03*
X142220000Y-88430000D03*
X142920000Y-86330000D03*
X142920000Y-87730000D03*
%TD*%
D23*
%TO.C,C3*%
X129100000Y-85220000D03*
X130650000Y-85220000D03*
%TD*%
D24*
%TO.C,U3*%
X156880000Y-101670000D03*
X154580000Y-101670000D03*
D25*
X154580000Y-107970000D03*
D24*
X152280000Y-101670000D03*
%TD*%
D26*
%TO.C,C7*%
X133010000Y-99520000D03*
X134910000Y-99520000D03*
%TD*%
D27*
%TO.C,BZ1*%
X149850000Y-114760000D03*
X158550000Y-114760000D03*
%TD*%
D26*
%TO.C,C2*%
X155610000Y-99290000D03*
X157510000Y-99290000D03*
%TD*%
D24*
%TO.C,U5*%
X134350000Y-101860000D03*
X132050000Y-101860000D03*
D25*
X132050000Y-108160000D03*
D24*
X129750000Y-101860000D03*
%TD*%
D28*
%TO.C,C6*%
X131250000Y-99560000D03*
X129350000Y-99560000D03*
%TD*%
D26*
%TO.C,C1*%
X151950000Y-99270000D03*
X153850000Y-99270000D03*
%TD*%
D29*
%TO.C,BT1*%
X156060000Y-94220000D03*
D30*
X156060000Y-92220000D03*
%TD*%
M02*
