%TF.GenerationSoftware,KiCad,Pcbnew,8.0.8-8.0.8-0~ubuntu24.04.1*%
%TF.CreationDate,2025-08-02T17:23:44-04:00*%
%TF.ProjectId,electronics,656c6563-7472-46f6-9e69-63732e6b6963,rev?*%
%TF.SameCoordinates,Original*%
%TF.FileFunction,Legend,Top*%
%TF.FilePolarity,Positive*%
%FSLAX46Y46*%
G04 Gerber Fmt 4.6, Leading zero omitted, Abs format (unit mm)*
G04 Created by KiCad (PCBNEW 8.0.8-8.0.8-0~ubuntu24.04.1) date 2025-08-02 17:23:44*
%MOMM*%
%LPD*%
G01*
G04 APERTURE LIST*
G04 Aperture macros list*
%AMRoundRect*
0 Rectangle with rounded corners*
0 $1 Rounding radius*
0 $2 $3 $4 $5 $6 $7 $8 $9 X,Y pos of 4 corners*
0 Add a 4 corners polygon primitive as box body*
4,1,4,$2,$3,$4,$5,$6,$7,$8,$9,$2,$3,0*
0 Add four circle primitives for the rounded corners*
1,1,$1+$1,$2,$3*
1,1,$1+$1,$4,$5*
1,1,$1+$1,$6,$7*
1,1,$1+$1,$8,$9*
0 Add four rect primitives between the rounded corners*
20,1,$1+$1,$2,$3,$4,$5,0*
20,1,$1+$1,$4,$5,$6,$7,0*
20,1,$1+$1,$6,$7,$8,$9,0*
20,1,$1+$1,$8,$9,$2,$3,0*%
G04 Aperture macros list end*
%ADD10C,0.150000*%
%ADD11C,0.100000*%
%ADD12C,0.120000*%
%ADD13C,0.127000*%
%ADD14C,0.200000*%
%ADD15R,0.675000X0.250000*%
%ADD16R,0.250000X0.675000*%
%ADD17RoundRect,0.225000X0.225000X0.250000X-0.225000X0.250000X-0.225000X-0.250000X0.225000X-0.250000X0*%
%ADD18RoundRect,0.135000X-0.135000X-0.185000X0.135000X-0.185000X0.135000X0.185000X-0.135000X0.185000X0*%
%ADD19C,0.650000*%
%ADD20RoundRect,0.150000X-0.150000X-0.425000X0.150000X-0.425000X0.150000X0.425000X-0.150000X0.425000X0*%
%ADD21RoundRect,0.075000X-0.075000X-0.500000X0.075000X-0.500000X0.075000X0.500000X-0.075000X0.500000X0*%
%ADD22RoundRect,0.250000X-0.840000X-0.750000X0.840000X-0.750000X0.840000X0.750000X-0.840000X0.750000X0*%
%ADD23R,1.500000X0.900000*%
%ADD24R,0.900000X1.500000*%
%ADD25C,0.600000*%
%ADD26R,3.900000X3.900000*%
%ADD27RoundRect,0.225000X-0.225000X-0.250000X0.225000X-0.250000X0.225000X0.250000X-0.225000X0.250000X0*%
%ADD28RoundRect,0.375000X-0.375000X0.625000X-0.375000X-0.625000X0.375000X-0.625000X0.375000X0.625000X0*%
%ADD29RoundRect,0.500000X-1.400000X0.500000X-1.400000X-0.500000X1.400000X-0.500000X1.400000X0.500000X0*%
%ADD30RoundRect,0.250000X-0.250000X-0.475000X0.250000X-0.475000X0.250000X0.475000X-0.250000X0.475000X0*%
%ADD31RoundRect,0.102000X-0.650000X-1.700000X0.650000X-1.700000X0.650000X1.700000X-0.650000X1.700000X0*%
%ADD32RoundRect,0.250000X0.250000X0.475000X-0.250000X0.475000X-0.250000X-0.475000X0.250000X-0.475000X0*%
%ADD33RoundRect,0.250000X0.625000X-0.350000X0.625000X0.350000X-0.625000X0.350000X-0.625000X-0.350000X0*%
%ADD34O,1.750000X1.200000*%
G04 APERTURE END LIST*
D10*
X129768095Y-91677319D02*
X129768095Y-92486842D01*
X129768095Y-92486842D02*
X129815714Y-92582080D01*
X129815714Y-92582080D02*
X129863333Y-92629700D01*
X129863333Y-92629700D02*
X129958571Y-92677319D01*
X129958571Y-92677319D02*
X130149047Y-92677319D01*
X130149047Y-92677319D02*
X130244285Y-92629700D01*
X130244285Y-92629700D02*
X130291904Y-92582080D01*
X130291904Y-92582080D02*
X130339523Y-92486842D01*
X130339523Y-92486842D02*
X130339523Y-91677319D01*
X130768095Y-91772557D02*
X130815714Y-91724938D01*
X130815714Y-91724938D02*
X130910952Y-91677319D01*
X130910952Y-91677319D02*
X131149047Y-91677319D01*
X131149047Y-91677319D02*
X131244285Y-91724938D01*
X131244285Y-91724938D02*
X131291904Y-91772557D01*
X131291904Y-91772557D02*
X131339523Y-91867795D01*
X131339523Y-91867795D02*
X131339523Y-91963033D01*
X131339523Y-91963033D02*
X131291904Y-92105890D01*
X131291904Y-92105890D02*
X130720476Y-92677319D01*
X130720476Y-92677319D02*
X131339523Y-92677319D01*
X132133333Y-87019580D02*
X132085714Y-87067200D01*
X132085714Y-87067200D02*
X131942857Y-87114819D01*
X131942857Y-87114819D02*
X131847619Y-87114819D01*
X131847619Y-87114819D02*
X131704762Y-87067200D01*
X131704762Y-87067200D02*
X131609524Y-86971961D01*
X131609524Y-86971961D02*
X131561905Y-86876723D01*
X131561905Y-86876723D02*
X131514286Y-86686247D01*
X131514286Y-86686247D02*
X131514286Y-86543390D01*
X131514286Y-86543390D02*
X131561905Y-86352914D01*
X131561905Y-86352914D02*
X131609524Y-86257676D01*
X131609524Y-86257676D02*
X131704762Y-86162438D01*
X131704762Y-86162438D02*
X131847619Y-86114819D01*
X131847619Y-86114819D02*
X131942857Y-86114819D01*
X131942857Y-86114819D02*
X132085714Y-86162438D01*
X132085714Y-86162438D02*
X132133333Y-86210057D01*
X132990476Y-86448152D02*
X132990476Y-87114819D01*
X132752381Y-86067200D02*
X132514286Y-86781485D01*
X132514286Y-86781485D02*
X133133333Y-86781485D01*
X131983333Y-84254819D02*
X131650000Y-83778628D01*
X131411905Y-84254819D02*
X131411905Y-83254819D01*
X131411905Y-83254819D02*
X131792857Y-83254819D01*
X131792857Y-83254819D02*
X131888095Y-83302438D01*
X131888095Y-83302438D02*
X131935714Y-83350057D01*
X131935714Y-83350057D02*
X131983333Y-83445295D01*
X131983333Y-83445295D02*
X131983333Y-83588152D01*
X131983333Y-83588152D02*
X131935714Y-83683390D01*
X131935714Y-83683390D02*
X131888095Y-83731009D01*
X131888095Y-83731009D02*
X131792857Y-83778628D01*
X131792857Y-83778628D02*
X131411905Y-83778628D01*
X132935714Y-84254819D02*
X132364286Y-84254819D01*
X132650000Y-84254819D02*
X132650000Y-83254819D01*
X132650000Y-83254819D02*
X132554762Y-83397676D01*
X132554762Y-83397676D02*
X132459524Y-83492914D01*
X132459524Y-83492914D02*
X132364286Y-83540533D01*
X141816666Y-114879819D02*
X141816666Y-115594104D01*
X141816666Y-115594104D02*
X141769047Y-115736961D01*
X141769047Y-115736961D02*
X141673809Y-115832200D01*
X141673809Y-115832200D02*
X141530952Y-115879819D01*
X141530952Y-115879819D02*
X141435714Y-115879819D01*
X142816666Y-115879819D02*
X142245238Y-115879819D01*
X142530952Y-115879819D02*
X142530952Y-114879819D01*
X142530952Y-114879819D02*
X142435714Y-115022676D01*
X142435714Y-115022676D02*
X142340476Y-115117914D01*
X142340476Y-115117914D02*
X142245238Y-115165533D01*
X131974819Y-96731904D02*
X132784342Y-96731904D01*
X132784342Y-96731904D02*
X132879580Y-96684285D01*
X132879580Y-96684285D02*
X132927200Y-96636666D01*
X132927200Y-96636666D02*
X132974819Y-96541428D01*
X132974819Y-96541428D02*
X132974819Y-96350952D01*
X132974819Y-96350952D02*
X132927200Y-96255714D01*
X132927200Y-96255714D02*
X132879580Y-96208095D01*
X132879580Y-96208095D02*
X132784342Y-96160476D01*
X132784342Y-96160476D02*
X131974819Y-96160476D01*
X132974819Y-95160476D02*
X132974819Y-95731904D01*
X132974819Y-95446190D02*
X131974819Y-95446190D01*
X131974819Y-95446190D02*
X132117676Y-95541428D01*
X132117676Y-95541428D02*
X132212914Y-95636666D01*
X132212914Y-95636666D02*
X132260533Y-95731904D01*
X132128333Y-85589580D02*
X132080714Y-85637200D01*
X132080714Y-85637200D02*
X131937857Y-85684819D01*
X131937857Y-85684819D02*
X131842619Y-85684819D01*
X131842619Y-85684819D02*
X131699762Y-85637200D01*
X131699762Y-85637200D02*
X131604524Y-85541961D01*
X131604524Y-85541961D02*
X131556905Y-85446723D01*
X131556905Y-85446723D02*
X131509286Y-85256247D01*
X131509286Y-85256247D02*
X131509286Y-85113390D01*
X131509286Y-85113390D02*
X131556905Y-84922914D01*
X131556905Y-84922914D02*
X131604524Y-84827676D01*
X131604524Y-84827676D02*
X131699762Y-84732438D01*
X131699762Y-84732438D02*
X131842619Y-84684819D01*
X131842619Y-84684819D02*
X131937857Y-84684819D01*
X131937857Y-84684819D02*
X132080714Y-84732438D01*
X132080714Y-84732438D02*
X132128333Y-84780057D01*
X132461667Y-84684819D02*
X133080714Y-84684819D01*
X133080714Y-84684819D02*
X132747381Y-85065771D01*
X132747381Y-85065771D02*
X132890238Y-85065771D01*
X132890238Y-85065771D02*
X132985476Y-85113390D01*
X132985476Y-85113390D02*
X133033095Y-85161009D01*
X133033095Y-85161009D02*
X133080714Y-85256247D01*
X133080714Y-85256247D02*
X133080714Y-85494342D01*
X133080714Y-85494342D02*
X133033095Y-85589580D01*
X133033095Y-85589580D02*
X132985476Y-85637200D01*
X132985476Y-85637200D02*
X132890238Y-85684819D01*
X132890238Y-85684819D02*
X132604524Y-85684819D01*
X132604524Y-85684819D02*
X132509286Y-85637200D01*
X132509286Y-85637200D02*
X132461667Y-85589580D01*
X154034819Y-105581904D02*
X154844342Y-105581904D01*
X154844342Y-105581904D02*
X154939580Y-105534285D01*
X154939580Y-105534285D02*
X154987200Y-105486666D01*
X154987200Y-105486666D02*
X155034819Y-105391428D01*
X155034819Y-105391428D02*
X155034819Y-105200952D01*
X155034819Y-105200952D02*
X154987200Y-105105714D01*
X154987200Y-105105714D02*
X154939580Y-105058095D01*
X154939580Y-105058095D02*
X154844342Y-105010476D01*
X154844342Y-105010476D02*
X154034819Y-105010476D01*
X154034819Y-104629523D02*
X154034819Y-104010476D01*
X154034819Y-104010476D02*
X154415771Y-104343809D01*
X154415771Y-104343809D02*
X154415771Y-104200952D01*
X154415771Y-104200952D02*
X154463390Y-104105714D01*
X154463390Y-104105714D02*
X154511009Y-104058095D01*
X154511009Y-104058095D02*
X154606247Y-104010476D01*
X154606247Y-104010476D02*
X154844342Y-104010476D01*
X154844342Y-104010476D02*
X154939580Y-104058095D01*
X154939580Y-104058095D02*
X154987200Y-104105714D01*
X154987200Y-104105714D02*
X155034819Y-104200952D01*
X155034819Y-104200952D02*
X155034819Y-104486666D01*
X155034819Y-104486666D02*
X154987200Y-104581904D01*
X154987200Y-104581904D02*
X154939580Y-104629523D01*
X136703333Y-99779580D02*
X136655714Y-99827200D01*
X136655714Y-99827200D02*
X136512857Y-99874819D01*
X136512857Y-99874819D02*
X136417619Y-99874819D01*
X136417619Y-99874819D02*
X136274762Y-99827200D01*
X136274762Y-99827200D02*
X136179524Y-99731961D01*
X136179524Y-99731961D02*
X136131905Y-99636723D01*
X136131905Y-99636723D02*
X136084286Y-99446247D01*
X136084286Y-99446247D02*
X136084286Y-99303390D01*
X136084286Y-99303390D02*
X136131905Y-99112914D01*
X136131905Y-99112914D02*
X136179524Y-99017676D01*
X136179524Y-99017676D02*
X136274762Y-98922438D01*
X136274762Y-98922438D02*
X136417619Y-98874819D01*
X136417619Y-98874819D02*
X136512857Y-98874819D01*
X136512857Y-98874819D02*
X136655714Y-98922438D01*
X136655714Y-98922438D02*
X136703333Y-98970057D01*
X137036667Y-98874819D02*
X137703333Y-98874819D01*
X137703333Y-98874819D02*
X137274762Y-99874819D01*
X154131009Y-115640952D02*
X154178628Y-115498095D01*
X154178628Y-115498095D02*
X154226247Y-115450476D01*
X154226247Y-115450476D02*
X154321485Y-115402857D01*
X154321485Y-115402857D02*
X154464342Y-115402857D01*
X154464342Y-115402857D02*
X154559580Y-115450476D01*
X154559580Y-115450476D02*
X154607200Y-115498095D01*
X154607200Y-115498095D02*
X154654819Y-115593333D01*
X154654819Y-115593333D02*
X154654819Y-115974285D01*
X154654819Y-115974285D02*
X153654819Y-115974285D01*
X153654819Y-115974285D02*
X153654819Y-115640952D01*
X153654819Y-115640952D02*
X153702438Y-115545714D01*
X153702438Y-115545714D02*
X153750057Y-115498095D01*
X153750057Y-115498095D02*
X153845295Y-115450476D01*
X153845295Y-115450476D02*
X153940533Y-115450476D01*
X153940533Y-115450476D02*
X154035771Y-115498095D01*
X154035771Y-115498095D02*
X154083390Y-115545714D01*
X154083390Y-115545714D02*
X154131009Y-115640952D01*
X154131009Y-115640952D02*
X154131009Y-115974285D01*
X153654819Y-115069523D02*
X153654819Y-114402857D01*
X153654819Y-114402857D02*
X154654819Y-115069523D01*
X154654819Y-115069523D02*
X154654819Y-114402857D01*
X154654819Y-113498095D02*
X154654819Y-114069523D01*
X154654819Y-113783809D02*
X153654819Y-113783809D01*
X153654819Y-113783809D02*
X153797676Y-113879047D01*
X153797676Y-113879047D02*
X153892914Y-113974285D01*
X153892914Y-113974285D02*
X153940533Y-114069523D01*
X156393333Y-97969580D02*
X156345714Y-98017200D01*
X156345714Y-98017200D02*
X156202857Y-98064819D01*
X156202857Y-98064819D02*
X156107619Y-98064819D01*
X156107619Y-98064819D02*
X155964762Y-98017200D01*
X155964762Y-98017200D02*
X155869524Y-97921961D01*
X155869524Y-97921961D02*
X155821905Y-97826723D01*
X155821905Y-97826723D02*
X155774286Y-97636247D01*
X155774286Y-97636247D02*
X155774286Y-97493390D01*
X155774286Y-97493390D02*
X155821905Y-97302914D01*
X155821905Y-97302914D02*
X155869524Y-97207676D01*
X155869524Y-97207676D02*
X155964762Y-97112438D01*
X155964762Y-97112438D02*
X156107619Y-97064819D01*
X156107619Y-97064819D02*
X156202857Y-97064819D01*
X156202857Y-97064819D02*
X156345714Y-97112438D01*
X156345714Y-97112438D02*
X156393333Y-97160057D01*
X156774286Y-97160057D02*
X156821905Y-97112438D01*
X156821905Y-97112438D02*
X156917143Y-97064819D01*
X156917143Y-97064819D02*
X157155238Y-97064819D01*
X157155238Y-97064819D02*
X157250476Y-97112438D01*
X157250476Y-97112438D02*
X157298095Y-97160057D01*
X157298095Y-97160057D02*
X157345714Y-97255295D01*
X157345714Y-97255295D02*
X157345714Y-97350533D01*
X157345714Y-97350533D02*
X157298095Y-97493390D01*
X157298095Y-97493390D02*
X156726667Y-98064819D01*
X156726667Y-98064819D02*
X157345714Y-98064819D01*
X131544819Y-105671904D02*
X132354342Y-105671904D01*
X132354342Y-105671904D02*
X132449580Y-105624285D01*
X132449580Y-105624285D02*
X132497200Y-105576666D01*
X132497200Y-105576666D02*
X132544819Y-105481428D01*
X132544819Y-105481428D02*
X132544819Y-105290952D01*
X132544819Y-105290952D02*
X132497200Y-105195714D01*
X132497200Y-105195714D02*
X132449580Y-105148095D01*
X132449580Y-105148095D02*
X132354342Y-105100476D01*
X132354342Y-105100476D02*
X131544819Y-105100476D01*
X131544819Y-104148095D02*
X131544819Y-104624285D01*
X131544819Y-104624285D02*
X132021009Y-104671904D01*
X132021009Y-104671904D02*
X131973390Y-104624285D01*
X131973390Y-104624285D02*
X131925771Y-104529047D01*
X131925771Y-104529047D02*
X131925771Y-104290952D01*
X131925771Y-104290952D02*
X131973390Y-104195714D01*
X131973390Y-104195714D02*
X132021009Y-104148095D01*
X132021009Y-104148095D02*
X132116247Y-104100476D01*
X132116247Y-104100476D02*
X132354342Y-104100476D01*
X132354342Y-104100476D02*
X132449580Y-104148095D01*
X132449580Y-104148095D02*
X132497200Y-104195714D01*
X132497200Y-104195714D02*
X132544819Y-104290952D01*
X132544819Y-104290952D02*
X132544819Y-104529047D01*
X132544819Y-104529047D02*
X132497200Y-104624285D01*
X132497200Y-104624285D02*
X132449580Y-104671904D01*
X130013333Y-98289580D02*
X129965714Y-98337200D01*
X129965714Y-98337200D02*
X129822857Y-98384819D01*
X129822857Y-98384819D02*
X129727619Y-98384819D01*
X129727619Y-98384819D02*
X129584762Y-98337200D01*
X129584762Y-98337200D02*
X129489524Y-98241961D01*
X129489524Y-98241961D02*
X129441905Y-98146723D01*
X129441905Y-98146723D02*
X129394286Y-97956247D01*
X129394286Y-97956247D02*
X129394286Y-97813390D01*
X129394286Y-97813390D02*
X129441905Y-97622914D01*
X129441905Y-97622914D02*
X129489524Y-97527676D01*
X129489524Y-97527676D02*
X129584762Y-97432438D01*
X129584762Y-97432438D02*
X129727619Y-97384819D01*
X129727619Y-97384819D02*
X129822857Y-97384819D01*
X129822857Y-97384819D02*
X129965714Y-97432438D01*
X129965714Y-97432438D02*
X130013333Y-97480057D01*
X130870476Y-97384819D02*
X130680000Y-97384819D01*
X130680000Y-97384819D02*
X130584762Y-97432438D01*
X130584762Y-97432438D02*
X130537143Y-97480057D01*
X130537143Y-97480057D02*
X130441905Y-97622914D01*
X130441905Y-97622914D02*
X130394286Y-97813390D01*
X130394286Y-97813390D02*
X130394286Y-98194342D01*
X130394286Y-98194342D02*
X130441905Y-98289580D01*
X130441905Y-98289580D02*
X130489524Y-98337200D01*
X130489524Y-98337200D02*
X130584762Y-98384819D01*
X130584762Y-98384819D02*
X130775238Y-98384819D01*
X130775238Y-98384819D02*
X130870476Y-98337200D01*
X130870476Y-98337200D02*
X130918095Y-98289580D01*
X130918095Y-98289580D02*
X130965714Y-98194342D01*
X130965714Y-98194342D02*
X130965714Y-97956247D01*
X130965714Y-97956247D02*
X130918095Y-97861009D01*
X130918095Y-97861009D02*
X130870476Y-97813390D01*
X130870476Y-97813390D02*
X130775238Y-97765771D01*
X130775238Y-97765771D02*
X130584762Y-97765771D01*
X130584762Y-97765771D02*
X130489524Y-97813390D01*
X130489524Y-97813390D02*
X130441905Y-97861009D01*
X130441905Y-97861009D02*
X130394286Y-97956247D01*
X149943333Y-99599580D02*
X149895714Y-99647200D01*
X149895714Y-99647200D02*
X149752857Y-99694819D01*
X149752857Y-99694819D02*
X149657619Y-99694819D01*
X149657619Y-99694819D02*
X149514762Y-99647200D01*
X149514762Y-99647200D02*
X149419524Y-99551961D01*
X149419524Y-99551961D02*
X149371905Y-99456723D01*
X149371905Y-99456723D02*
X149324286Y-99266247D01*
X149324286Y-99266247D02*
X149324286Y-99123390D01*
X149324286Y-99123390D02*
X149371905Y-98932914D01*
X149371905Y-98932914D02*
X149419524Y-98837676D01*
X149419524Y-98837676D02*
X149514762Y-98742438D01*
X149514762Y-98742438D02*
X149657619Y-98694819D01*
X149657619Y-98694819D02*
X149752857Y-98694819D01*
X149752857Y-98694819D02*
X149895714Y-98742438D01*
X149895714Y-98742438D02*
X149943333Y-98790057D01*
X150895714Y-99694819D02*
X150324286Y-99694819D01*
X150610000Y-99694819D02*
X150610000Y-98694819D01*
X150610000Y-98694819D02*
X150514762Y-98837676D01*
X150514762Y-98837676D02*
X150419524Y-98932914D01*
X150419524Y-98932914D02*
X150324286Y-98980533D01*
X155891009Y-88995714D02*
X155938628Y-88852857D01*
X155938628Y-88852857D02*
X155986247Y-88805238D01*
X155986247Y-88805238D02*
X156081485Y-88757619D01*
X156081485Y-88757619D02*
X156224342Y-88757619D01*
X156224342Y-88757619D02*
X156319580Y-88805238D01*
X156319580Y-88805238D02*
X156367200Y-88852857D01*
X156367200Y-88852857D02*
X156414819Y-88948095D01*
X156414819Y-88948095D02*
X156414819Y-89329047D01*
X156414819Y-89329047D02*
X155414819Y-89329047D01*
X155414819Y-89329047D02*
X155414819Y-88995714D01*
X155414819Y-88995714D02*
X155462438Y-88900476D01*
X155462438Y-88900476D02*
X155510057Y-88852857D01*
X155510057Y-88852857D02*
X155605295Y-88805238D01*
X155605295Y-88805238D02*
X155700533Y-88805238D01*
X155700533Y-88805238D02*
X155795771Y-88852857D01*
X155795771Y-88852857D02*
X155843390Y-88900476D01*
X155843390Y-88900476D02*
X155891009Y-88995714D01*
X155891009Y-88995714D02*
X155891009Y-89329047D01*
X155414819Y-88471904D02*
X155414819Y-87900476D01*
X156414819Y-88186190D02*
X155414819Y-88186190D01*
X156414819Y-87043333D02*
X156414819Y-87614761D01*
X156414819Y-87329047D02*
X155414819Y-87329047D01*
X155414819Y-87329047D02*
X155557676Y-87424285D01*
X155557676Y-87424285D02*
X155652914Y-87519523D01*
X155652914Y-87519523D02*
X155700533Y-87614761D01*
D11*
%TO.C,U2*%
X128930000Y-88372500D02*
X129650000Y-88372500D01*
X128930000Y-88592500D02*
X128930000Y-88372500D01*
X128930000Y-91072500D02*
X128930000Y-90852500D01*
X129650000Y-91072500D02*
X128930000Y-91072500D01*
X131930000Y-91072500D02*
X131410000Y-91072500D01*
X132130000Y-88372500D02*
X131410000Y-88372500D01*
X132130000Y-88372500D02*
X132130000Y-88592500D01*
X132130000Y-91432500D02*
X132130000Y-91072500D01*
X132490000Y-91072500D01*
X132130000Y-91432500D01*
G36*
X132130000Y-91432500D02*
G01*
X132130000Y-91072500D01*
X132490000Y-91072500D01*
X132130000Y-91432500D01*
G37*
D12*
%TO.C,C4*%
X130015580Y-86220000D02*
X129734420Y-86220000D01*
X130015580Y-87240000D02*
X129734420Y-87240000D01*
%TO.C,R1*%
X131966359Y-82250000D02*
X132273641Y-82250000D01*
X131966359Y-83010000D02*
X132273641Y-83010000D01*
%TO.C,J1*%
X137570000Y-114990000D02*
X137570000Y-113580000D01*
X138390000Y-110910000D02*
X138390000Y-111060000D01*
X139190000Y-110910000D02*
X138390000Y-110910000D01*
X146730000Y-114990000D02*
X146730000Y-113580000D01*
%TO.C,U1*%
X133820000Y-71670000D02*
X133820000Y-77870000D01*
X133820000Y-71670000D02*
X152220000Y-71670000D01*
X133820000Y-96520000D02*
X133820000Y-97520000D01*
X133820000Y-97520000D02*
X135320000Y-97520000D01*
X152220000Y-71670000D02*
X152220000Y-77870000D01*
X152220000Y-97520000D02*
X150720000Y-97520000D01*
X152220000Y-97520000D02*
X152220000Y-96520000D01*
X133820000Y-78545000D02*
X133320000Y-78545000D01*
X133820000Y-78045000D01*
X133820000Y-78545000D01*
G36*
X133820000Y-78545000D02*
G01*
X133320000Y-78545000D01*
X133820000Y-78045000D01*
X133820000Y-78545000D01*
G37*
%TO.C,C3*%
X129734420Y-84710000D02*
X130015580Y-84710000D01*
X129734420Y-85730000D02*
X130015580Y-85730000D01*
%TO.C,U3*%
X157990000Y-102970000D02*
X157990000Y-106730000D01*
X157990000Y-106730000D02*
X156730000Y-106730000D01*
X151170000Y-106730000D02*
X152430000Y-106730000D01*
X151170000Y-102970000D02*
X151170000Y-106730000D01*
X158220000Y-101930000D02*
X157890000Y-101690000D01*
X158220000Y-101450000D01*
X158220000Y-101930000D01*
G36*
X158220000Y-101930000D02*
G01*
X157890000Y-101690000D01*
X158220000Y-101450000D01*
X158220000Y-101930000D01*
G37*
%TO.C,C7*%
X133698748Y-98785000D02*
X134221252Y-98785000D01*
X133698748Y-100255000D02*
X134221252Y-100255000D01*
D13*
%TO.C,BZ1*%
X158700000Y-119260000D02*
X149700000Y-119260000D01*
X149700000Y-119260000D02*
X149700000Y-116780000D01*
X149700000Y-112740000D02*
X149700000Y-110260000D01*
X158700000Y-116780000D02*
X158700000Y-119260000D01*
X158700000Y-110260000D02*
X158700000Y-112740000D01*
X149700000Y-110260000D02*
X158700000Y-110260000D01*
D14*
X148600000Y-114760000D02*
G75*
G02*
X148400000Y-114760000I-100000J0D01*
G01*
X148400000Y-114760000D02*
G75*
G02*
X148600000Y-114760000I100000J0D01*
G01*
D12*
%TO.C,C2*%
X156298748Y-100025000D02*
X156821252Y-100025000D01*
X156298748Y-98555000D02*
X156821252Y-98555000D01*
%TO.C,U5*%
X135460000Y-103160000D02*
X135460000Y-106920000D01*
X135460000Y-106920000D02*
X134200000Y-106920000D01*
X128640000Y-106920000D02*
X129900000Y-106920000D01*
X128640000Y-103160000D02*
X128640000Y-106920000D01*
X135690000Y-102120000D02*
X135360000Y-101880000D01*
X135690000Y-101640000D01*
X135690000Y-102120000D01*
G36*
X135690000Y-102120000D02*
G01*
X135360000Y-101880000D01*
X135690000Y-101640000D01*
X135690000Y-102120000D01*
G37*
%TO.C,C6*%
X130561252Y-100295000D02*
X130038748Y-100295000D01*
X130561252Y-98825000D02*
X130038748Y-98825000D01*
%TO.C,C1*%
X152638748Y-98535000D02*
X153161252Y-98535000D01*
X152638748Y-100005000D02*
X153161252Y-100005000D01*
%TO.C,BT1*%
X158970000Y-96280000D02*
X158970000Y-90160000D01*
X154250000Y-96280000D02*
X158970000Y-96280000D01*
X158360000Y-95670000D02*
X158360000Y-90770000D01*
X157860000Y-93120000D02*
X158360000Y-93120000D01*
X154860000Y-95670000D02*
X158360000Y-95670000D01*
X157860000Y-93320000D02*
X157860000Y-93120000D01*
X158360000Y-93220000D02*
X157860000Y-93220000D01*
X158360000Y-93320000D02*
X157860000Y-93320000D01*
X156860000Y-90160000D02*
X156860000Y-90770000D01*
X156860000Y-96280000D02*
X156860000Y-95670000D01*
X155560000Y-90160000D02*
X155560000Y-90770000D01*
X155560000Y-96280000D02*
X155560000Y-95670000D01*
X153950000Y-96580000D02*
X155200000Y-96580000D01*
X158360000Y-90770000D02*
X154860000Y-90770000D01*
X154860000Y-90770000D02*
X154860000Y-92720000D01*
X154250000Y-93720000D02*
X154860000Y-93720000D01*
X154860000Y-93720000D02*
X154860000Y-95670000D01*
X158970000Y-90160000D02*
X154250000Y-90160000D01*
X154860000Y-92720000D02*
X154250000Y-92720000D01*
X154050000Y-94820000D02*
X154250000Y-94820000D01*
X154250000Y-90160000D02*
X154250000Y-96280000D01*
X154150000Y-94520000D02*
X154150000Y-94820000D01*
X154250000Y-94520000D02*
X154050000Y-94520000D01*
X154050000Y-94520000D02*
X154050000Y-94820000D01*
X153950000Y-95330000D02*
X153950000Y-96580000D01*
%TD*%
%LPC*%
D15*
%TO.C,U2*%
X131792500Y-90472500D03*
X131792500Y-89972500D03*
X131792500Y-89472500D03*
X131792500Y-88972500D03*
D16*
X131030000Y-88710000D03*
X130530000Y-88710000D03*
X130030000Y-88710000D03*
D15*
X129267500Y-88972500D03*
X129267500Y-89472500D03*
X129267500Y-89972500D03*
X129267500Y-90472500D03*
D16*
X130030000Y-90735000D03*
X130530000Y-90735000D03*
X131030000Y-90735000D03*
%TD*%
D17*
%TO.C,C4*%
X130650000Y-86730000D03*
X129100000Y-86730000D03*
%TD*%
D18*
%TO.C,R1*%
X131610000Y-82630000D03*
X132630000Y-82630000D03*
%TD*%
D19*
%TO.C,J1*%
X139260000Y-112820000D03*
X145040000Y-112820000D03*
D20*
X138950000Y-111745000D03*
X139750000Y-111745000D03*
D21*
X140900000Y-111745000D03*
X141900000Y-111745000D03*
X142400000Y-111745000D03*
X143400000Y-111745000D03*
D20*
X144550000Y-111745000D03*
X145350000Y-111745000D03*
X145350000Y-111745000D03*
X144550000Y-111745000D03*
D21*
X143900000Y-111745000D03*
X142900000Y-111745000D03*
X141400000Y-111745000D03*
X140400000Y-111745000D03*
D20*
X139750000Y-111745000D03*
X138950000Y-111745000D03*
D22*
X137040000Y-112320000D03*
X137040000Y-116250000D03*
X147260000Y-112320000D03*
X147260000Y-116250000D03*
%TD*%
D23*
%TO.C,U1*%
X134270000Y-79310000D03*
X134270000Y-80580000D03*
X134270000Y-81850000D03*
X134270000Y-83120000D03*
X134270000Y-84390000D03*
X134270000Y-85660000D03*
X134270000Y-86930000D03*
X134270000Y-88200000D03*
X134270000Y-89470000D03*
X134270000Y-90740000D03*
X134270000Y-92010000D03*
X134270000Y-93280000D03*
X134270000Y-94550000D03*
X134270000Y-95820000D03*
D24*
X136035000Y-97070000D03*
X137305000Y-97070000D03*
X138575000Y-97070000D03*
X139845000Y-97070000D03*
X141115000Y-97070000D03*
X142385000Y-97070000D03*
X143655000Y-97070000D03*
X144925000Y-97070000D03*
X146195000Y-97070000D03*
X147465000Y-97070000D03*
X148735000Y-97070000D03*
X150005000Y-97070000D03*
D23*
X151770000Y-95820000D03*
X151770000Y-94550000D03*
X151770000Y-93280000D03*
X151770000Y-92010000D03*
X151770000Y-90740000D03*
X151770000Y-89470000D03*
X151770000Y-88200000D03*
X151770000Y-86930000D03*
X151770000Y-85660000D03*
X151770000Y-84390000D03*
X151770000Y-83120000D03*
X151770000Y-81850000D03*
X151770000Y-80580000D03*
X151770000Y-79310000D03*
D25*
X140120000Y-86330000D03*
X140120000Y-87730000D03*
X140820000Y-85630000D03*
X140820000Y-87030000D03*
X140820000Y-88430000D03*
X141520000Y-86330000D03*
D26*
X141520000Y-87030000D03*
D25*
X141520000Y-87730000D03*
X142220000Y-85630000D03*
X142220000Y-87030000D03*
X142220000Y-88430000D03*
X142920000Y-86330000D03*
X142920000Y-87730000D03*
%TD*%
D27*
%TO.C,C3*%
X129100000Y-85220000D03*
X130650000Y-85220000D03*
%TD*%
D28*
%TO.C,U3*%
X156880000Y-101670000D03*
X154580000Y-101670000D03*
D29*
X154580000Y-107970000D03*
D28*
X152280000Y-101670000D03*
%TD*%
D30*
%TO.C,C7*%
X133010000Y-99520000D03*
X134910000Y-99520000D03*
%TD*%
D31*
%TO.C,BZ1*%
X149850000Y-114760000D03*
X158550000Y-114760000D03*
%TD*%
D30*
%TO.C,C2*%
X155610000Y-99290000D03*
X157510000Y-99290000D03*
%TD*%
D28*
%TO.C,U5*%
X134350000Y-101860000D03*
X132050000Y-101860000D03*
D29*
X132050000Y-108160000D03*
D28*
X129750000Y-101860000D03*
%TD*%
D32*
%TO.C,C6*%
X131250000Y-99560000D03*
X129350000Y-99560000D03*
%TD*%
D30*
%TO.C,C1*%
X151950000Y-99270000D03*
X153850000Y-99270000D03*
%TD*%
D33*
%TO.C,BT1*%
X156060000Y-94220000D03*
D34*
X156060000Y-92220000D03*
%TD*%
%LPD*%
M02*
