%TF.GenerationSoftware,KiCad,Pcbnew,8.0.8-8.0.8-0~ubuntu24.04.1*%
%TF.CreationDate,2025-08-02T22:37:24-04:00*%
%TF.ProjectId,electronics,656c6563-7472-46f6-9e69-63732e6b6963,rev?*%
%TF.SameCoordinates,Original*%
%TF.FileFunction,Copper,L2,Bot*%
%TF.FilePolarity,Positive*%
%FSLAX46Y46*%
G04 Gerber Fmt 4.6, Leading zero omitted, Abs format (unit mm)*
G04 Created by KiCad (PCBNEW 8.0.8-8.0.8-0~ubuntu24.04.1) date 2025-08-02 22:37:24*
%MOMM*%
%LPD*%
G01*
G04 APERTURE LIST*
%TA.AperFunction,HeatsinkPad*%
%ADD10C,0.600000*%
%TD*%
%TA.AperFunction,ComponentPad*%
%ADD11C,2.280000*%
%TD*%
%TA.AperFunction,ViaPad*%
%ADD12C,0.600000*%
%TD*%
%TA.AperFunction,Conductor*%
%ADD13C,0.200000*%
%TD*%
G04 APERTURE END LIST*
D10*
%TO.P,U1,41,GND*%
%TO.N,GND*%
X176180000Y-102080000D03*
X176180000Y-100680000D03*
X175480000Y-102780000D03*
X175480000Y-101380000D03*
X175480000Y-99980000D03*
X174780000Y-102080000D03*
X174780000Y-100680000D03*
X174080000Y-102780000D03*
X174080000Y-101380000D03*
X174080000Y-99980000D03*
X173380000Y-102080000D03*
X173380000Y-100680000D03*
%TD*%
D11*
%TO.P,BT1,2,-*%
%TO.N,GND*%
X145494234Y-100768505D03*
%TO.P,BT1,1,+*%
%TO.N,Net-(BT1-+)*%
X145494234Y-121258505D03*
%TD*%
D12*
%TO.N,GND*%
X160370000Y-115200000D03*
X161570000Y-115170000D03*
X165220000Y-97310000D03*
X161180000Y-98290000D03*
X165880000Y-93780000D03*
X161570000Y-109940000D03*
X163120000Y-105850000D03*
X160570000Y-105250000D03*
%TO.N,/BZR*%
X173070000Y-112940000D03*
X176250000Y-114650000D03*
%TO.N,+3V3*%
X160889995Y-106990000D03*
X159922105Y-105982105D03*
%TD*%
D13*
%TO.N,GND*%
X161540000Y-115200000D02*
X160370000Y-115200000D01*
X161570000Y-115170000D02*
X161540000Y-115200000D01*
X165190000Y-97310000D02*
X164210000Y-98290000D01*
X165220000Y-97310000D02*
X165190000Y-97310000D01*
X165220000Y-97280000D02*
X165220000Y-97310000D01*
X165880000Y-93780000D02*
X165880000Y-96620000D01*
X165880000Y-96620000D02*
X165220000Y-97280000D01*
X164210000Y-98290000D02*
X161180000Y-98290000D01*
X161570000Y-109940000D02*
X161660000Y-109850000D01*
X161660000Y-109850000D02*
X161660000Y-106340000D01*
X161660000Y-106340000D02*
X161170000Y-105850000D01*
X163120000Y-105850000D02*
X161170000Y-105850000D01*
X161170000Y-105850000D02*
X160570000Y-105250000D01*
%TO.N,/BZR*%
X173070000Y-113340000D02*
X173070000Y-112940000D01*
X173920000Y-114190000D02*
X173070000Y-113340000D01*
X176250000Y-114650000D02*
X174380000Y-114650000D01*
X174380000Y-114650000D02*
X173920000Y-114190000D01*
%TO.N,+3V3*%
X159922105Y-106022110D02*
X159922105Y-105982105D01*
X160889995Y-106990000D02*
X159922105Y-106022110D01*
%TD*%
M02*
