%TF.GenerationSoftware,KiCad,Pcbnew,8.0.8-8.0.8-0~ubuntu24.04.1*%
%TF.CreationDate,2025-08-02T17:23:44-04:00*%
%TF.ProjectId,electronics,656c6563-7472-46f6-9e69-63732e6b6963,rev?*%
%TF.SameCoordinates,Original*%
%TF.FileFunction,Copper,L2,Bot*%
%TF.FilePolarity,Positive*%
%FSLAX46Y46*%
G04 Gerber Fmt 4.6, Leading zero omitted, Abs format (unit mm)*
G04 Created by KiCad (PCBNEW 8.0.8-8.0.8-0~ubuntu24.04.1) date 2025-08-02 17:23:44*
%MOMM*%
%LPD*%
G01*
G04 APERTURE LIST*
G04 Aperture macros list*
%AMRoundRect*
0 Rectangle with rounded corners*
0 $1 Rounding radius*
0 $2 $3 $4 $5 $6 $7 $8 $9 X,Y pos of 4 corners*
0 Add a 4 corners polygon primitive as box body*
4,1,4,$2,$3,$4,$5,$6,$7,$8,$9,$2,$3,0*
0 Add four circle primitives for the rounded corners*
1,1,$1+$1,$2,$3*
1,1,$1+$1,$4,$5*
1,1,$1+$1,$6,$7*
1,1,$1+$1,$8,$9*
0 Add four rect primitives between the rounded corners*
20,1,$1+$1,$2,$3,$4,$5,0*
20,1,$1+$1,$4,$5,$6,$7,0*
20,1,$1+$1,$6,$7,$8,$9,0*
20,1,$1+$1,$8,$9,$2,$3,0*%
G04 Aperture macros list end*
%TA.AperFunction,HeatsinkPad*%
%ADD10C,0.600000*%
%TD*%
%TA.AperFunction,ComponentPad*%
%ADD11RoundRect,0.250000X0.625000X-0.350000X0.625000X0.350000X-0.625000X0.350000X-0.625000X-0.350000X0*%
%TD*%
%TA.AperFunction,ComponentPad*%
%ADD12O,1.750000X1.200000*%
%TD*%
%TA.AperFunction,ViaPad*%
%ADD13C,0.600000*%
%TD*%
%TA.AperFunction,Conductor*%
%ADD14C,0.200000*%
%TD*%
G04 APERTURE END LIST*
D10*
%TO.P,U1,41,GND*%
%TO.N,GND*%
X140120000Y-86330000D03*
X140120000Y-87730000D03*
X140820000Y-85630000D03*
X140820000Y-87030000D03*
X140820000Y-88430000D03*
X141520000Y-86330000D03*
X141520000Y-87730000D03*
X142220000Y-85630000D03*
X142220000Y-87030000D03*
X142220000Y-88430000D03*
X142920000Y-86330000D03*
X142920000Y-87730000D03*
%TD*%
D11*
%TO.P,BT1,1,+*%
%TO.N,Net-(BT1-+)*%
X156060000Y-94220000D03*
D12*
%TO.P,BT1,2,-*%
%TO.N,GND*%
X156060000Y-92220000D03*
%TD*%
D13*
%TO.N,GND*%
X128600000Y-87760000D03*
X130410000Y-87830000D03*
%TO.N,Net-(U5-VI)*%
X139470000Y-110120000D03*
X131190000Y-105080000D03*
%TO.N,/BZR*%
X150320000Y-111550000D03*
X141100000Y-99630000D03*
%TO.N,GND*%
X130380000Y-83970000D03*
%TD*%
D14*
%TO.N,GND*%
X129460000Y-86640000D02*
X129460000Y-84890000D01*
X129460000Y-86790000D02*
X129460000Y-86640000D01*
X129460000Y-86640000D02*
X129460000Y-86900000D01*
X129460000Y-86900000D02*
X128600000Y-87760000D01*
X129460000Y-86790000D02*
X129460000Y-86880000D01*
X129460000Y-86880000D02*
X130410000Y-87830000D01*
X129460000Y-84890000D02*
X130380000Y-83970000D01*
%TO.N,Net-(U5-VI)*%
X134430000Y-105080000D02*
X139470000Y-110120000D01*
X131190000Y-105080000D02*
X134430000Y-105080000D01*
%TO.N,/BZR*%
X141100000Y-102330000D02*
X150320000Y-111550000D01*
X141100000Y-99630000D02*
X141100000Y-102330000D01*
%TO.N,Net-(BT1-+)*%
X156750000Y-94160000D02*
X156920000Y-94330000D01*
%TD*%
M02*
