%TF.GenerationSoftware,KiCad,Pcbnew,8.0.8-8.0.8-0~ubuntu24.04.1*%
%TF.CreationDate,2025-08-02T17:23:44-04:00*%
%TF.ProjectId,electronics,656c6563-7472-46f6-9e69-63732e6b6963,rev?*%
%TF.SameCoordinates,Original*%
%TF.FileFunction,Copper,L1,Top*%
%TF.FilePolarity,Positive*%
%FSLAX46Y46*%
G04 Gerber Fmt 4.6, Leading zero omitted, Abs format (unit mm)*
G04 Created by KiCad (PCBNEW 8.0.8-8.0.8-0~ubuntu24.04.1) date 2025-08-02 17:23:44*
%MOMM*%
%LPD*%
G01*
G04 APERTURE LIST*
G04 Aperture macros list*
%AMRoundRect*
0 Rectangle with rounded corners*
0 $1 Rounding radius*
0 $2 $3 $4 $5 $6 $7 $8 $9 X,Y pos of 4 corners*
0 Add a 4 corners polygon primitive as box body*
4,1,4,$2,$3,$4,$5,$6,$7,$8,$9,$2,$3,0*
0 Add four circle primitives for the rounded corners*
1,1,$1+$1,$2,$3*
1,1,$1+$1,$4,$5*
1,1,$1+$1,$6,$7*
1,1,$1+$1,$8,$9*
0 Add four rect primitives between the rounded corners*
20,1,$1+$1,$2,$3,$4,$5,0*
20,1,$1+$1,$4,$5,$6,$7,0*
20,1,$1+$1,$6,$7,$8,$9,0*
20,1,$1+$1,$8,$9,$2,$3,0*%
G04 Aperture macros list end*
%TA.AperFunction,SMDPad,CuDef*%
%ADD10R,0.675000X0.250000*%
%TD*%
%TA.AperFunction,SMDPad,CuDef*%
%ADD11R,0.250000X0.675000*%
%TD*%
%TA.AperFunction,SMDPad,CuDef*%
%ADD12RoundRect,0.225000X0.225000X0.250000X-0.225000X0.250000X-0.225000X-0.250000X0.225000X-0.250000X0*%
%TD*%
%TA.AperFunction,SMDPad,CuDef*%
%ADD13RoundRect,0.135000X-0.135000X-0.185000X0.135000X-0.185000X0.135000X0.185000X-0.135000X0.185000X0*%
%TD*%
%TA.AperFunction,SMDPad,CuDef*%
%ADD14RoundRect,0.150000X-0.150000X-0.425000X0.150000X-0.425000X0.150000X0.425000X-0.150000X0.425000X0*%
%TD*%
%TA.AperFunction,SMDPad,CuDef*%
%ADD15RoundRect,0.075000X-0.075000X-0.500000X0.075000X-0.500000X0.075000X0.500000X-0.075000X0.500000X0*%
%TD*%
%TA.AperFunction,SMDPad,CuDef*%
%ADD16RoundRect,0.250000X-0.840000X-0.750000X0.840000X-0.750000X0.840000X0.750000X-0.840000X0.750000X0*%
%TD*%
%TA.AperFunction,SMDPad,CuDef*%
%ADD17R,1.500000X0.900000*%
%TD*%
%TA.AperFunction,SMDPad,CuDef*%
%ADD18R,0.900000X1.500000*%
%TD*%
%TA.AperFunction,HeatsinkPad*%
%ADD19C,0.600000*%
%TD*%
%TA.AperFunction,SMDPad,CuDef*%
%ADD20R,3.900000X3.900000*%
%TD*%
%TA.AperFunction,SMDPad,CuDef*%
%ADD21RoundRect,0.225000X-0.225000X-0.250000X0.225000X-0.250000X0.225000X0.250000X-0.225000X0.250000X0*%
%TD*%
%TA.AperFunction,SMDPad,CuDef*%
%ADD22RoundRect,0.375000X-0.375000X0.625000X-0.375000X-0.625000X0.375000X-0.625000X0.375000X0.625000X0*%
%TD*%
%TA.AperFunction,SMDPad,CuDef*%
%ADD23RoundRect,0.500000X-1.400000X0.500000X-1.400000X-0.500000X1.400000X-0.500000X1.400000X0.500000X0*%
%TD*%
%TA.AperFunction,SMDPad,CuDef*%
%ADD24RoundRect,0.250000X-0.250000X-0.475000X0.250000X-0.475000X0.250000X0.475000X-0.250000X0.475000X0*%
%TD*%
%TA.AperFunction,SMDPad,CuDef*%
%ADD25R,1.300000X3.400000*%
%TD*%
%TA.AperFunction,SMDPad,CuDef*%
%ADD26RoundRect,0.250000X0.250000X0.475000X-0.250000X0.475000X-0.250000X-0.475000X0.250000X-0.475000X0*%
%TD*%
%TA.AperFunction,ComponentPad*%
%ADD27RoundRect,0.250000X0.625000X-0.350000X0.625000X0.350000X-0.625000X0.350000X-0.625000X-0.350000X0*%
%TD*%
%TA.AperFunction,ComponentPad*%
%ADD28O,1.750000X1.200000*%
%TD*%
%TA.AperFunction,ViaPad*%
%ADD29C,0.600000*%
%TD*%
%TA.AperFunction,Conductor*%
%ADD30C,0.200000*%
%TD*%
G04 APERTURE END LIST*
D10*
%TO.P,U2,1,SDO*%
%TO.N,GND*%
X131792500Y-90472500D03*
%TO.P,U2,2,ASDx*%
%TO.N,unconnected-(U2-ASDx-Pad2)*%
X131792500Y-89972500D03*
%TO.P,U2,3,ASCx*%
%TO.N,unconnected-(U2-ASCx-Pad3)*%
X131792500Y-89472500D03*
%TO.P,U2,4,INT1*%
%TO.N,unconnected-(U2-INT1-Pad4)*%
X131792500Y-88972500D03*
D11*
%TO.P,U2,5,VDDI0*%
%TO.N,+3V3*%
X131030000Y-88710000D03*
%TO.P,U2,6,GNDI0*%
%TO.N,GND*%
X130530000Y-88710000D03*
%TO.P,U2,7,GND*%
X130030000Y-88710000D03*
D10*
%TO.P,U2,8,VDD*%
%TO.N,+3V3*%
X129267500Y-88972500D03*
%TO.P,U2,9,INT2*%
%TO.N,unconnected-(U2-INT2-Pad9)*%
X129267500Y-89472500D03*
%TO.P,U2,10,OCSB*%
%TO.N,unconnected-(U2-OCSB-Pad10)*%
X129267500Y-89972500D03*
%TO.P,U2,11,OSDO*%
%TO.N,unconnected-(U2-OSDO-Pad11)*%
X129267500Y-90472500D03*
D11*
%TO.P,U2,12,CSB*%
%TO.N,+3V3*%
X130030000Y-90735000D03*
%TO.P,U2,13,SCx*%
%TO.N,/SCL*%
X130530000Y-90735000D03*
%TO.P,U2,14,SDx*%
%TO.N,/SDA*%
X131030000Y-90735000D03*
%TD*%
D12*
%TO.P,C4,1*%
%TO.N,+3V3*%
X130650000Y-86730000D03*
%TO.P,C4,2*%
%TO.N,GND*%
X129100000Y-86730000D03*
%TD*%
D13*
%TO.P,R1,1*%
%TO.N,+3V3*%
X131610000Y-82630000D03*
%TO.P,R1,2*%
%TO.N,Net-(U1-EN)*%
X132630000Y-82630000D03*
%TD*%
D14*
%TO.P,J1,A1,GND*%
%TO.N,GND*%
X138950000Y-111745000D03*
%TO.P,J1,A4,VBUS*%
%TO.N,Net-(U5-VI)*%
X139750000Y-111745000D03*
D15*
%TO.P,J1,A5,CC1*%
%TO.N,unconnected-(J1-CC1-PadA5)*%
X140900000Y-111745000D03*
%TO.P,J1,A6,D+*%
%TO.N,/D+*%
X141900000Y-111745000D03*
%TO.P,J1,A7,D-*%
%TO.N,/D-*%
X142400000Y-111745000D03*
%TO.P,J1,A8*%
%TO.N,N/C*%
X143400000Y-111745000D03*
D14*
%TO.P,J1,A9,VBUS*%
%TO.N,Net-(U5-VI)*%
X144550000Y-111745000D03*
%TO.P,J1,A12,GND*%
%TO.N,GND*%
X145350000Y-111745000D03*
%TO.P,J1,B1,GND*%
X145350000Y-111745000D03*
%TO.P,J1,B4,VBUS*%
%TO.N,Net-(U5-VI)*%
X144550000Y-111745000D03*
D15*
%TO.P,J1,B5,CC2*%
%TO.N,unconnected-(J1-CC2-PadB5)*%
X143900000Y-111745000D03*
%TO.P,J1,B6,D+*%
%TO.N,/D+*%
X142900000Y-111745000D03*
%TO.P,J1,B7,D-*%
%TO.N,/D-*%
X141400000Y-111745000D03*
%TO.P,J1,B8*%
%TO.N,N/C*%
X140400000Y-111745000D03*
D14*
%TO.P,J1,B9,VBUS*%
%TO.N,Net-(U5-VI)*%
X139750000Y-111745000D03*
%TO.P,J1,B12,GND*%
%TO.N,GND*%
X138950000Y-111745000D03*
D16*
%TO.P,J1,S1,SHIELD*%
X137040000Y-112320000D03*
X137040000Y-116250000D03*
X147260000Y-112320000D03*
X147260000Y-116250000D03*
%TD*%
D17*
%TO.P,U1,1,GND*%
%TO.N,GND*%
X134270000Y-79310000D03*
%TO.P,U1,2,3V3*%
%TO.N,+3V3*%
X134270000Y-80580000D03*
%TO.P,U1,3,EN*%
%TO.N,Net-(U1-EN)*%
X134270000Y-81850000D03*
%TO.P,U1,4,IO4*%
%TO.N,unconnected-(U1-IO4-Pad4)*%
X134270000Y-83120000D03*
%TO.P,U1,5,IO5*%
%TO.N,unconnected-(U1-IO5-Pad5)*%
X134270000Y-84390000D03*
%TO.P,U1,6,IO6*%
%TO.N,unconnected-(U1-IO6-Pad6)*%
X134270000Y-85660000D03*
%TO.P,U1,7,IO7*%
%TO.N,unconnected-(U1-IO7-Pad7)*%
X134270000Y-86930000D03*
%TO.P,U1,8,IO15*%
%TO.N,unconnected-(U1-IO15-Pad8)*%
X134270000Y-88200000D03*
%TO.P,U1,9,IO16*%
%TO.N,unconnected-(U1-IO16-Pad9)*%
X134270000Y-89470000D03*
%TO.P,U1,10,IO17*%
%TO.N,unconnected-(U1-IO17-Pad10)*%
X134270000Y-90740000D03*
%TO.P,U1,11,IO18*%
%TO.N,unconnected-(U1-IO18-Pad11)*%
X134270000Y-92010000D03*
%TO.P,U1,12,IO8*%
%TO.N,unconnected-(U1-IO8-Pad12)*%
X134270000Y-93280000D03*
%TO.P,U1,13,IO19*%
%TO.N,/SDA*%
X134270000Y-94550000D03*
%TO.P,U1,14,IO20*%
%TO.N,/SCL*%
X134270000Y-95820000D03*
D18*
%TO.P,U1,15,IO3*%
%TO.N,unconnected-(U1-IO3-Pad15)*%
X136035000Y-97070000D03*
%TO.P,U1,16,IO46*%
%TO.N,unconnected-(U1-IO46-Pad16)*%
X137305000Y-97070000D03*
%TO.P,U1,17,IO9*%
%TO.N,unconnected-(U1-IO9-Pad17)*%
X138575000Y-97070000D03*
%TO.P,U1,18,IO10*%
%TO.N,/BZR*%
X139845000Y-97070000D03*
%TO.P,U1,19,IO11*%
%TO.N,/D-*%
X141115000Y-97070000D03*
%TO.P,U1,20,IO12*%
%TO.N,/D+*%
X142385000Y-97070000D03*
%TO.P,U1,21,IO13*%
%TO.N,unconnected-(U1-IO13-Pad21)*%
X143655000Y-97070000D03*
%TO.P,U1,22,IO14*%
%TO.N,unconnected-(U1-IO14-Pad22)*%
X144925000Y-97070000D03*
%TO.P,U1,23,IO21*%
%TO.N,unconnected-(U1-IO21-Pad23)*%
X146195000Y-97070000D03*
%TO.P,U1,24,IO47*%
%TO.N,unconnected-(U1-IO47-Pad24)*%
X147465000Y-97070000D03*
%TO.P,U1,25,IO48*%
%TO.N,unconnected-(U1-IO48-Pad25)*%
X148735000Y-97070000D03*
%TO.P,U1,26,IO45*%
%TO.N,unconnected-(U1-IO45-Pad26)*%
X150005000Y-97070000D03*
D17*
%TO.P,U1,27,IO0*%
%TO.N,unconnected-(U1-IO0-Pad27)*%
X151770000Y-95820000D03*
%TO.P,U1,28,IO35*%
%TO.N,unconnected-(U1-IO35-Pad28)*%
X151770000Y-94550000D03*
%TO.P,U1,29,IO36*%
%TO.N,unconnected-(U1-IO36-Pad29)*%
X151770000Y-93280000D03*
%TO.P,U1,30,IO37*%
%TO.N,unconnected-(U1-IO37-Pad30)*%
X151770000Y-92010000D03*
%TO.P,U1,31,IO38*%
%TO.N,unconnected-(U1-IO38-Pad31)*%
X151770000Y-90740000D03*
%TO.P,U1,32,IO39*%
%TO.N,unconnected-(U1-IO39-Pad32)*%
X151770000Y-89470000D03*
%TO.P,U1,33,IO40*%
%TO.N,unconnected-(U1-IO40-Pad33)*%
X151770000Y-88200000D03*
%TO.P,U1,34,IO41*%
%TO.N,unconnected-(U1-IO41-Pad34)*%
X151770000Y-86930000D03*
%TO.P,U1,35,IO42*%
%TO.N,unconnected-(U1-IO42-Pad35)*%
X151770000Y-85660000D03*
%TO.P,U1,36,RXD0*%
%TO.N,unconnected-(U1-RXD0-Pad36)*%
X151770000Y-84390000D03*
%TO.P,U1,37,TXD0*%
%TO.N,unconnected-(U1-TXD0-Pad37)*%
X151770000Y-83120000D03*
%TO.P,U1,38,IO2*%
%TO.N,unconnected-(U1-IO2-Pad38)*%
X151770000Y-81850000D03*
%TO.P,U1,39,IO1*%
%TO.N,unconnected-(U1-IO1-Pad39)*%
X151770000Y-80580000D03*
%TO.P,U1,40,GND*%
%TO.N,GND*%
X151770000Y-79310000D03*
D19*
%TO.P,U1,41,GND*%
X140120000Y-86330000D03*
X140120000Y-87730000D03*
X140820000Y-85630000D03*
X140820000Y-87030000D03*
X140820000Y-88430000D03*
X141520000Y-86330000D03*
D20*
X141520000Y-87030000D03*
D19*
X141520000Y-87730000D03*
X142220000Y-85630000D03*
X142220000Y-87030000D03*
X142220000Y-88430000D03*
X142920000Y-86330000D03*
X142920000Y-87730000D03*
%TD*%
D21*
%TO.P,C3,1*%
%TO.N,+3V3*%
X129100000Y-85220000D03*
%TO.P,C3,2*%
%TO.N,GND*%
X130650000Y-85220000D03*
%TD*%
D22*
%TO.P,U3,1,GND*%
%TO.N,GND*%
X156880000Y-101670000D03*
%TO.P,U3,2,VO*%
%TO.N,+3V3*%
X154580000Y-101670000D03*
D23*
X154580000Y-107970000D03*
D22*
%TO.P,U3,3,VI*%
%TO.N,Net-(BT1-+)*%
X152280000Y-101670000D03*
%TD*%
D24*
%TO.P,C7,1*%
%TO.N,+3V3*%
X133010000Y-99520000D03*
%TO.P,C7,2*%
%TO.N,GND*%
X134910000Y-99520000D03*
%TD*%
D25*
%TO.P,BZ1,1,+*%
%TO.N,/BZR*%
X149850000Y-114760000D03*
%TO.P,BZ1,2,-*%
%TO.N,GND*%
X158550000Y-114760000D03*
%TD*%
D24*
%TO.P,C2,1*%
%TO.N,+3V3*%
X155610000Y-99290000D03*
%TO.P,C2,2*%
%TO.N,GND*%
X157510000Y-99290000D03*
%TD*%
D22*
%TO.P,U5,1,GND*%
%TO.N,GND*%
X134350000Y-101860000D03*
%TO.P,U5,2,VO*%
%TO.N,+3V3*%
X132050000Y-101860000D03*
D23*
X132050000Y-108160000D03*
D22*
%TO.P,U5,3,VI*%
%TO.N,Net-(U5-VI)*%
X129750000Y-101860000D03*
%TD*%
D26*
%TO.P,C6,1*%
%TO.N,Net-(U5-VI)*%
X131250000Y-99560000D03*
%TO.P,C6,2*%
%TO.N,GND*%
X129350000Y-99560000D03*
%TD*%
D24*
%TO.P,C1,1*%
%TO.N,Net-(BT1-+)*%
X151950000Y-99270000D03*
%TO.P,C1,2*%
%TO.N,GND*%
X153850000Y-99270000D03*
%TD*%
D27*
%TO.P,BT1,1,+*%
%TO.N,Net-(BT1-+)*%
X156060000Y-94220000D03*
D28*
%TO.P,BT1,2,-*%
%TO.N,GND*%
X156060000Y-92220000D03*
%TD*%
D29*
%TO.N,GND*%
X128600000Y-87760000D03*
X130410000Y-87830000D03*
%TO.N,Net-(U5-VI)*%
X139470000Y-110120000D03*
X131190000Y-105080000D03*
%TO.N,/BZR*%
X150320000Y-111550000D03*
X141100000Y-99630000D03*
%TO.N,GND*%
X130380000Y-83970000D03*
%TD*%
D30*
%TO.N,GND*%
X129100000Y-87260000D02*
X128600000Y-87760000D01*
X129100000Y-86730000D02*
X129100000Y-87260000D01*
%TO.N,+3V3*%
X132050000Y-108160000D02*
X132050000Y-113640000D01*
X132050000Y-113640000D02*
X132770000Y-114360000D01*
X132770000Y-114360000D02*
X147940000Y-114360000D01*
X147940000Y-114360000D02*
X148730000Y-113570000D01*
X148730000Y-113570000D02*
X148730000Y-111920000D01*
X148730000Y-111920000D02*
X152680000Y-107970000D01*
X152680000Y-107970000D02*
X154580000Y-107970000D01*
%TO.N,/BZR*%
X150320000Y-111550000D02*
X149850000Y-112020000D01*
X149850000Y-112020000D02*
X149850000Y-114240000D01*
X149850000Y-114240000D02*
X150360000Y-114750000D01*
%TO.N,GND*%
X130410000Y-88210000D02*
X130410000Y-88330000D01*
X130410000Y-87830000D02*
X130410000Y-88210000D01*
X130410000Y-88210000D02*
X130410000Y-88590000D01*
X130410000Y-88590000D02*
X130530000Y-88710000D01*
X130410000Y-88330000D02*
X130030000Y-88710000D01*
%TO.N,+3V3*%
X129267500Y-88972500D02*
X129267500Y-88072500D01*
X129267500Y-88072500D02*
X130010000Y-87330000D01*
X130010000Y-87330000D02*
X130050000Y-87330000D01*
X130050000Y-87330000D02*
X130650000Y-86730000D01*
%TO.N,Net-(U5-VI)*%
X139470000Y-110120000D02*
X139750000Y-110400000D01*
X139750000Y-110400000D02*
X139750000Y-111745000D01*
X129750000Y-103640000D02*
X131190000Y-105080000D01*
X129750000Y-101860000D02*
X129750000Y-103640000D01*
X131250000Y-99560000D02*
X131250000Y-100360000D01*
X131250000Y-100360000D02*
X129750000Y-101860000D01*
%TO.N,+3V3*%
X132050000Y-101860000D02*
X132050000Y-100190000D01*
X132050000Y-100190000D02*
X132720000Y-99520000D01*
X132720000Y-99520000D02*
X133010000Y-99520000D01*
X133010000Y-99520000D02*
X130030000Y-96540000D01*
X130030000Y-96540000D02*
X130030000Y-92460000D01*
%TO.N,GND*%
X156060000Y-92220000D02*
X157510000Y-93670000D01*
X157510000Y-93670000D02*
X157510000Y-99290000D01*
X157510000Y-99290000D02*
X156485000Y-98265000D01*
X156485000Y-98265000D02*
X154855000Y-98265000D01*
X154855000Y-98265000D02*
X153850000Y-99270000D01*
X156880000Y-101670000D02*
X156880000Y-99920000D01*
X156880000Y-99920000D02*
X157510000Y-99290000D01*
%TO.N,+3V3*%
X155610000Y-99290000D02*
X155610000Y-100640000D01*
X155610000Y-100640000D02*
X154580000Y-101670000D01*
%TO.N,Net-(BT1-+)*%
X151950000Y-99270000D02*
X151950000Y-101340000D01*
X151950000Y-101340000D02*
X152280000Y-101670000D01*
%TO.N,+3V3*%
X154580000Y-107970000D02*
X154580000Y-101670000D01*
%TO.N,Net-(BT1-+)*%
X156750000Y-94160000D02*
X156120000Y-94160000D01*
X156120000Y-94160000D02*
X151950000Y-98330000D01*
X151950000Y-98330000D02*
X151950000Y-99270000D01*
%TO.N,GND*%
X156750000Y-92160000D02*
X155950000Y-92160000D01*
%TO.N,+3V3*%
X131610000Y-82630000D02*
X133660000Y-80580000D01*
X133660000Y-80580000D02*
X134270000Y-80580000D01*
X129100000Y-85220000D02*
X129100000Y-84401471D01*
X129100000Y-84401471D02*
X130871471Y-82630000D01*
X130871471Y-82630000D02*
X131610000Y-82630000D01*
X130650000Y-86730000D02*
X129140000Y-85220000D01*
X129140000Y-85220000D02*
X129100000Y-85220000D01*
X130650000Y-86730000D02*
X131030000Y-87110000D01*
X131030000Y-87110000D02*
X131030000Y-88710000D01*
X130030000Y-92460000D02*
X130030000Y-90735000D01*
X128470000Y-90900000D02*
X130030000Y-92460000D01*
X129267500Y-88972500D02*
X128730000Y-88972500D01*
X128470000Y-89232500D02*
X128470000Y-90900000D01*
X128730000Y-88972500D02*
X128470000Y-89232500D01*
X132050000Y-108160000D02*
X132050000Y-101860000D01*
%TO.N,/BZR*%
X139845000Y-98375000D02*
X141100000Y-99630000D01*
X139845000Y-97070000D02*
X139845000Y-98375000D01*
%TO.N,Net-(U5-VI)*%
X139750000Y-111745000D02*
X139750000Y-112202410D01*
X139750000Y-112202410D02*
X140577590Y-113030000D01*
X140577590Y-113030000D02*
X143830000Y-113030000D01*
X143830000Y-113030000D02*
X144550000Y-112310000D01*
X144550000Y-112310000D02*
X144550000Y-111745000D01*
%TO.N,/D+*%
X142385000Y-97070000D02*
X142385000Y-97703603D01*
%TO.N,/D-*%
X141635000Y-98120000D02*
X142165000Y-98120000D01*
%TO.N,/D+*%
X142385000Y-97703603D02*
X142875000Y-98193603D01*
X142875000Y-98193603D02*
X142875000Y-110857499D01*
X142875000Y-110857499D02*
X142900000Y-110882499D01*
%TO.N,/D-*%
X142400000Y-110882499D02*
X142400000Y-111745000D01*
%TO.N,/D+*%
X142900000Y-110882499D02*
X142900000Y-111745000D01*
%TO.N,/D-*%
X142165000Y-98120000D02*
X142425000Y-98380000D01*
X141115000Y-97070000D02*
X141635000Y-97590000D01*
X141635000Y-97590000D02*
X141635000Y-98120000D01*
X142425000Y-98380000D02*
X142425000Y-110857499D01*
X142425000Y-110857499D02*
X142400000Y-110882499D01*
X141400000Y-111745000D02*
X141400000Y-111137590D01*
X141400000Y-111137590D02*
X141667590Y-110870000D01*
X141667590Y-110870000D02*
X142132410Y-110870000D01*
X142132410Y-110870000D02*
X142400000Y-111137590D01*
X142400000Y-111137590D02*
X142400000Y-111745000D01*
%TO.N,/D+*%
X141900000Y-111745000D02*
X141900000Y-112352410D01*
X141900000Y-112352410D02*
X142167590Y-112620000D01*
X142167590Y-112620000D02*
X142632410Y-112620000D01*
X142632410Y-112620000D02*
X142900000Y-112352410D01*
X142900000Y-112352410D02*
X142900000Y-111745000D01*
%TO.N,GND*%
X130690000Y-85180000D02*
X130650000Y-85220000D01*
X130380000Y-83970000D02*
X130690000Y-84280000D01*
X130690000Y-84280000D02*
X130690000Y-85180000D01*
%TO.N,Net-(U1-EN)*%
X132630000Y-82630000D02*
X133410000Y-81850000D01*
X133410000Y-81850000D02*
X134270000Y-81850000D01*
%TO.N,/SCL*%
X130530000Y-92610000D02*
X133740000Y-95820000D01*
X133740000Y-95820000D02*
X134270000Y-95820000D01*
X130530000Y-90735000D02*
X130530000Y-92610000D01*
%TO.N,/SDA*%
X131030000Y-90735000D02*
X131030000Y-91840000D01*
X131030000Y-91840000D02*
X133740000Y-94550000D01*
X133740000Y-94550000D02*
X134270000Y-94550000D01*
%TD*%
%TA.AperFunction,Conductor*%
%TO.N,GND*%
G36*
X140737506Y-87526886D02*
G01*
X140748109Y-87529999D01*
X140748112Y-87530000D01*
X140891888Y-87530000D01*
X140891892Y-87529999D01*
X140902491Y-87526887D01*
X140963651Y-87528633D01*
X141012105Y-87565994D01*
X141029345Y-87624701D01*
X141028377Y-87635964D01*
X141014858Y-87729995D01*
X141014858Y-87730003D01*
X141028377Y-87824034D01*
X141017944Y-87884324D01*
X140974065Y-87926966D01*
X140913503Y-87935673D01*
X140902496Y-87933114D01*
X140891891Y-87930000D01*
X140748112Y-87930000D01*
X140748104Y-87930001D01*
X140737501Y-87933114D01*
X140676341Y-87931364D01*
X140627890Y-87893999D01*
X140610654Y-87835292D01*
X140611622Y-87824033D01*
X140625142Y-87730001D01*
X140625142Y-87729997D01*
X140611622Y-87635965D01*
X140622055Y-87575676D01*
X140665933Y-87533034D01*
X140726495Y-87524326D01*
X140737506Y-87526886D01*
G37*
%TD.AperFunction*%
%TA.AperFunction,Conductor*%
G36*
X142137506Y-87526886D02*
G01*
X142148109Y-87529999D01*
X142148112Y-87530000D01*
X142291888Y-87530000D01*
X142291892Y-87529999D01*
X142302491Y-87526887D01*
X142363651Y-87528633D01*
X142412105Y-87565994D01*
X142429345Y-87624701D01*
X142428377Y-87635964D01*
X142414858Y-87729995D01*
X142414858Y-87730003D01*
X142428377Y-87824034D01*
X142417944Y-87884324D01*
X142374065Y-87926966D01*
X142313503Y-87935673D01*
X142302496Y-87933114D01*
X142291891Y-87930000D01*
X142148112Y-87930000D01*
X142148104Y-87930001D01*
X142137501Y-87933114D01*
X142076341Y-87931364D01*
X142027890Y-87893999D01*
X142010654Y-87835292D01*
X142011622Y-87824033D01*
X142025142Y-87730001D01*
X142025142Y-87729997D01*
X142011622Y-87635965D01*
X142022055Y-87575676D01*
X142065933Y-87533034D01*
X142126495Y-87524326D01*
X142137506Y-87526886D01*
G37*
%TD.AperFunction*%
%TA.AperFunction,Conductor*%
G36*
X141437506Y-86826886D02*
G01*
X141448109Y-86829999D01*
X141448112Y-86830000D01*
X141591888Y-86830000D01*
X141591892Y-86829999D01*
X141602491Y-86826887D01*
X141663651Y-86828633D01*
X141712105Y-86865994D01*
X141729345Y-86924701D01*
X141728377Y-86935964D01*
X141714858Y-87029995D01*
X141714858Y-87030003D01*
X141728377Y-87124034D01*
X141717944Y-87184324D01*
X141674065Y-87226966D01*
X141613503Y-87235673D01*
X141602496Y-87233114D01*
X141591891Y-87230000D01*
X141448112Y-87230000D01*
X141448104Y-87230001D01*
X141437501Y-87233114D01*
X141376341Y-87231364D01*
X141327890Y-87193999D01*
X141310654Y-87135292D01*
X141311622Y-87124033D01*
X141325142Y-87030001D01*
X141325142Y-87029997D01*
X141311622Y-86935965D01*
X141322055Y-86875676D01*
X141365933Y-86833034D01*
X141426495Y-86824326D01*
X141437506Y-86826886D01*
G37*
%TD.AperFunction*%
%TA.AperFunction,Conductor*%
G36*
X140737506Y-86126886D02*
G01*
X140748109Y-86129999D01*
X140748112Y-86130000D01*
X140891888Y-86130000D01*
X140891892Y-86129999D01*
X140902491Y-86126887D01*
X140963651Y-86128633D01*
X141012105Y-86165994D01*
X141029345Y-86224701D01*
X141028377Y-86235964D01*
X141014858Y-86329995D01*
X141014858Y-86330003D01*
X141028377Y-86424034D01*
X141017944Y-86484324D01*
X140974065Y-86526966D01*
X140913503Y-86535673D01*
X140902496Y-86533114D01*
X140891891Y-86530000D01*
X140748112Y-86530000D01*
X140748104Y-86530001D01*
X140737501Y-86533114D01*
X140676341Y-86531364D01*
X140627890Y-86493999D01*
X140610654Y-86435292D01*
X140611622Y-86424033D01*
X140625142Y-86330001D01*
X140625142Y-86329997D01*
X140611622Y-86235965D01*
X140622055Y-86175676D01*
X140665933Y-86133034D01*
X140726495Y-86124326D01*
X140737506Y-86126886D01*
G37*
%TD.AperFunction*%
%TA.AperFunction,Conductor*%
G36*
X142137506Y-86126886D02*
G01*
X142148109Y-86129999D01*
X142148112Y-86130000D01*
X142291888Y-86130000D01*
X142291892Y-86129999D01*
X142302491Y-86126887D01*
X142363651Y-86128633D01*
X142412105Y-86165994D01*
X142429345Y-86224701D01*
X142428377Y-86235964D01*
X142414858Y-86329995D01*
X142414858Y-86330003D01*
X142428377Y-86424034D01*
X142417944Y-86484324D01*
X142374065Y-86526966D01*
X142313503Y-86535673D01*
X142302496Y-86533114D01*
X142291891Y-86530000D01*
X142148112Y-86530000D01*
X142148104Y-86530001D01*
X142137501Y-86533114D01*
X142076341Y-86531364D01*
X142027890Y-86493999D01*
X142010654Y-86435292D01*
X142011622Y-86424033D01*
X142025142Y-86330001D01*
X142025142Y-86329997D01*
X142011622Y-86235965D01*
X142022055Y-86175676D01*
X142065933Y-86133034D01*
X142126495Y-86124326D01*
X142137506Y-86126886D01*
G37*
%TD.AperFunction*%
%TA.AperFunction,Conductor*%
G36*
X159168691Y-77838907D02*
G01*
X159204655Y-77888407D01*
X159209500Y-77919000D01*
X159209500Y-119110500D01*
X159190593Y-119168691D01*
X159141093Y-119204655D01*
X159110500Y-119209500D01*
X128309500Y-119209500D01*
X128251309Y-119190593D01*
X128215345Y-119141093D01*
X128210500Y-119110500D01*
X128210500Y-91304478D01*
X128229407Y-91246287D01*
X128278907Y-91210323D01*
X128340093Y-91210323D01*
X128379501Y-91234472D01*
X129700505Y-92555476D01*
X129728281Y-92609991D01*
X129729500Y-92625478D01*
X129729500Y-96579564D01*
X129749978Y-96655988D01*
X129749980Y-96655992D01*
X129789538Y-96724508D01*
X129789540Y-96724511D01*
X130904775Y-97839746D01*
X131530525Y-98465496D01*
X131558302Y-98520013D01*
X131548731Y-98580445D01*
X131505466Y-98623710D01*
X131460521Y-98634500D01*
X130945725Y-98634500D01*
X130915305Y-98637353D01*
X130915296Y-98637355D01*
X130787116Y-98682207D01*
X130677855Y-98762845D01*
X130677845Y-98762855D01*
X130597207Y-98872116D01*
X130552355Y-99000296D01*
X130552353Y-99000305D01*
X130549500Y-99030725D01*
X130549500Y-100089274D01*
X130552353Y-100119694D01*
X130552355Y-100119703D01*
X130597207Y-100247883D01*
X130677847Y-100357147D01*
X130682856Y-100362156D01*
X130710636Y-100416671D01*
X130701068Y-100477104D01*
X130682860Y-100502167D01*
X130488519Y-100696508D01*
X130434002Y-100724285D01*
X130380630Y-100717968D01*
X130275240Y-100674314D01*
X130275232Y-100674312D01*
X130162720Y-100659500D01*
X129337280Y-100659500D01*
X129337279Y-100659500D01*
X129224767Y-100674312D01*
X129224761Y-100674314D01*
X129084768Y-100732301D01*
X128964551Y-100824547D01*
X128964547Y-100824551D01*
X128872301Y-100944768D01*
X128814314Y-101084761D01*
X128814312Y-101084767D01*
X128799500Y-101197279D01*
X128799500Y-102522720D01*
X128807729Y-102585231D01*
X128814313Y-102635236D01*
X128872302Y-102775233D01*
X128964549Y-102895451D01*
X129084767Y-102987698D01*
X129224764Y-103045687D01*
X129337280Y-103060500D01*
X129350500Y-103060500D01*
X129408691Y-103079407D01*
X129444655Y-103128907D01*
X129449500Y-103159500D01*
X129449500Y-103679564D01*
X129469978Y-103755988D01*
X129469980Y-103755992D01*
X129509538Y-103824508D01*
X129509540Y-103824511D01*
X130235533Y-104550504D01*
X130659453Y-104974424D01*
X130687230Y-105028941D01*
X130687442Y-105058515D01*
X130684353Y-105080002D01*
X130704834Y-105222456D01*
X130764622Y-105353371D01*
X130764623Y-105353373D01*
X130858872Y-105462143D01*
X130858873Y-105462144D01*
X130861786Y-105464016D01*
X130979947Y-105539953D01*
X131086403Y-105571211D01*
X131118035Y-105580499D01*
X131118036Y-105580499D01*
X131118039Y-105580500D01*
X131118041Y-105580500D01*
X131261959Y-105580500D01*
X131261961Y-105580500D01*
X131400053Y-105539953D01*
X131521128Y-105462143D01*
X131575682Y-105399183D01*
X131628076Y-105367589D01*
X131689037Y-105372824D01*
X131735278Y-105412892D01*
X131749500Y-105464016D01*
X131749500Y-106860500D01*
X131730593Y-106918691D01*
X131681093Y-106954655D01*
X131650500Y-106959500D01*
X130593379Y-106959500D01*
X130522805Y-106965913D01*
X130360394Y-107016521D01*
X130360392Y-107016522D01*
X130214816Y-107104527D01*
X130094527Y-107224816D01*
X130006522Y-107370392D01*
X130006521Y-107370394D01*
X129955913Y-107532805D01*
X129949500Y-107603379D01*
X129949500Y-108716620D01*
X129955913Y-108787194D01*
X130006521Y-108949605D01*
X130006522Y-108949607D01*
X130052385Y-109025472D01*
X130094528Y-109095185D01*
X130214815Y-109215472D01*
X130360394Y-109303478D01*
X130522804Y-109354086D01*
X130593384Y-109360500D01*
X131650500Y-109360500D01*
X131708691Y-109379407D01*
X131744655Y-109428907D01*
X131749500Y-109459500D01*
X131749500Y-113679564D01*
X131769978Y-113755988D01*
X131769979Y-113755989D01*
X131801428Y-113810460D01*
X131809540Y-113824511D01*
X132585489Y-114600460D01*
X132585491Y-114600461D01*
X132585493Y-114600463D01*
X132654008Y-114640020D01*
X132654006Y-114640020D01*
X132654010Y-114640021D01*
X132654012Y-114640022D01*
X132730438Y-114660500D01*
X132730440Y-114660500D01*
X147979563Y-114660500D01*
X147979563Y-114660499D01*
X148055989Y-114640021D01*
X148124511Y-114600460D01*
X148180460Y-114544511D01*
X148830498Y-113894472D01*
X148885013Y-113866697D01*
X148945445Y-113876268D01*
X148988710Y-113919533D01*
X148999500Y-113964478D01*
X148999500Y-116479746D01*
X148999501Y-116479758D01*
X149011132Y-116538227D01*
X149011133Y-116538231D01*
X149055448Y-116604552D01*
X149121769Y-116648867D01*
X149166231Y-116657711D01*
X149180241Y-116660498D01*
X149180246Y-116660498D01*
X149180252Y-116660500D01*
X149180253Y-116660500D01*
X150519747Y-116660500D01*
X150519748Y-116660500D01*
X150578231Y-116648867D01*
X150644552Y-116604552D01*
X150688867Y-116538231D01*
X150700500Y-116479748D01*
X150700500Y-113040252D01*
X150688867Y-112981769D01*
X150644552Y-112915448D01*
X150644548Y-112915445D01*
X150578233Y-112871134D01*
X150578231Y-112871133D01*
X150578228Y-112871132D01*
X150578227Y-112871132D01*
X150519758Y-112859501D01*
X150519748Y-112859500D01*
X150519747Y-112859500D01*
X150249500Y-112859500D01*
X150191309Y-112840593D01*
X150155345Y-112791093D01*
X150150500Y-112760500D01*
X150150500Y-112185477D01*
X150169407Y-112127286D01*
X150179486Y-112115484D01*
X150215475Y-112079494D01*
X150269990Y-112051719D01*
X150285477Y-112050500D01*
X150391959Y-112050500D01*
X150391961Y-112050500D01*
X150530053Y-112009953D01*
X150651128Y-111932143D01*
X150745377Y-111823373D01*
X150805165Y-111692457D01*
X150825647Y-111550000D01*
X150805165Y-111407543D01*
X150745377Y-111276627D01*
X150651128Y-111167857D01*
X150651127Y-111167856D01*
X150651126Y-111167855D01*
X150530057Y-111090049D01*
X150530054Y-111090047D01*
X150530053Y-111090047D01*
X150530050Y-111090046D01*
X150391964Y-111049500D01*
X150391961Y-111049500D01*
X150264479Y-111049500D01*
X150206288Y-111030593D01*
X150170324Y-110981093D01*
X150170324Y-110919907D01*
X150194475Y-110880496D01*
X152368179Y-108706791D01*
X152422696Y-108679014D01*
X152483128Y-108688585D01*
X152526393Y-108731850D01*
X152532701Y-108747343D01*
X152536521Y-108759605D01*
X152536522Y-108759607D01*
X152601914Y-108867777D01*
X152624528Y-108905185D01*
X152744815Y-109025472D01*
X152852986Y-109090864D01*
X152860130Y-109095183D01*
X152890394Y-109113478D01*
X153052804Y-109164086D01*
X153123384Y-109170500D01*
X153123389Y-109170500D01*
X156036611Y-109170500D01*
X156036616Y-109170500D01*
X156107196Y-109164086D01*
X156269606Y-109113478D01*
X156415185Y-109025472D01*
X156535472Y-108905185D01*
X156623478Y-108759606D01*
X156674086Y-108597196D01*
X156680500Y-108526616D01*
X156680500Y-107413384D01*
X156674086Y-107342804D01*
X156623478Y-107180394D01*
X156535472Y-107034815D01*
X156415185Y-106914528D01*
X156376419Y-106891093D01*
X156269607Y-106826522D01*
X156269605Y-106826521D01*
X156107194Y-106775913D01*
X156036620Y-106769500D01*
X156036616Y-106769500D01*
X154979500Y-106769500D01*
X154921309Y-106750593D01*
X154885345Y-106701093D01*
X154880500Y-106670500D01*
X154880500Y-102969500D01*
X154899407Y-102911309D01*
X154948907Y-102875345D01*
X154979500Y-102870500D01*
X154992719Y-102870500D01*
X154992720Y-102870500D01*
X155105236Y-102855687D01*
X155245233Y-102797698D01*
X155365451Y-102705451D01*
X155457698Y-102585233D01*
X155515687Y-102445236D01*
X155530500Y-102332720D01*
X155530500Y-101185478D01*
X155549407Y-101127287D01*
X155559490Y-101115480D01*
X155850460Y-100824511D01*
X155890021Y-100755989D01*
X155910500Y-100679562D01*
X155910500Y-100294857D01*
X155929407Y-100236666D01*
X155976802Y-100201413D01*
X156005911Y-100191226D01*
X156072882Y-100167793D01*
X156182150Y-100087150D01*
X156262793Y-99977882D01*
X156307646Y-99849699D01*
X156310499Y-99819273D01*
X156310500Y-99819273D01*
X156310500Y-98760727D01*
X156310499Y-98760725D01*
X156308624Y-98740734D01*
X156307646Y-98730301D01*
X156262793Y-98602118D01*
X156259276Y-98597353D01*
X156182154Y-98492855D01*
X156182152Y-98492853D01*
X156182150Y-98492850D01*
X156182146Y-98492847D01*
X156182144Y-98492845D01*
X156072883Y-98412207D01*
X155944703Y-98367355D01*
X155944694Y-98367353D01*
X155914274Y-98364500D01*
X155914266Y-98364500D01*
X155305734Y-98364500D01*
X155305725Y-98364500D01*
X155275305Y-98367353D01*
X155275296Y-98367355D01*
X155147116Y-98412207D01*
X155037855Y-98492845D01*
X155037845Y-98492855D01*
X154957207Y-98602116D01*
X154912355Y-98730296D01*
X154912353Y-98730305D01*
X154909500Y-98760725D01*
X154909500Y-99819274D01*
X154912353Y-99849694D01*
X154912355Y-99849703D01*
X154957207Y-99977883D01*
X155037845Y-100087144D01*
X155037847Y-100087146D01*
X155037850Y-100087150D01*
X155037853Y-100087152D01*
X155037855Y-100087154D01*
X155147116Y-100167792D01*
X155147117Y-100167792D01*
X155147118Y-100167793D01*
X155186042Y-100181413D01*
X155243198Y-100201413D01*
X155291878Y-100238478D01*
X155309500Y-100294857D01*
X155309500Y-100420758D01*
X155290593Y-100478949D01*
X155241093Y-100514913D01*
X155179907Y-100514913D01*
X155172614Y-100512222D01*
X155148339Y-100502167D01*
X155105236Y-100484313D01*
X155105234Y-100484312D01*
X155105232Y-100484312D01*
X154992720Y-100469500D01*
X154167280Y-100469500D01*
X154167279Y-100469500D01*
X154054767Y-100484312D01*
X154054761Y-100484314D01*
X153914768Y-100542301D01*
X153794551Y-100634547D01*
X153794547Y-100634551D01*
X153702301Y-100754768D01*
X153644314Y-100894761D01*
X153644312Y-100894767D01*
X153629500Y-101007279D01*
X153629500Y-101007280D01*
X153629500Y-102332720D01*
X153644313Y-102445236D01*
X153702302Y-102585233D01*
X153794549Y-102705451D01*
X153914767Y-102797698D01*
X154054764Y-102855687D01*
X154167280Y-102870500D01*
X154180500Y-102870500D01*
X154238691Y-102889407D01*
X154274655Y-102938907D01*
X154279500Y-102969500D01*
X154279500Y-106670500D01*
X154260593Y-106728691D01*
X154211093Y-106764655D01*
X154180500Y-106769500D01*
X153123379Y-106769500D01*
X153052805Y-106775913D01*
X152890394Y-106826521D01*
X152890392Y-106826522D01*
X152744816Y-106914527D01*
X152624527Y-107034816D01*
X152536522Y-107180392D01*
X152536521Y-107180394D01*
X152485913Y-107342805D01*
X152479500Y-107413379D01*
X152479500Y-107704521D01*
X152460593Y-107762712D01*
X152450504Y-107774525D01*
X148545489Y-111679540D01*
X148545488Y-111679539D01*
X148489539Y-111735489D01*
X148449980Y-111804007D01*
X148449978Y-111804011D01*
X148429500Y-111880435D01*
X148429500Y-113404521D01*
X148410593Y-113462712D01*
X148400504Y-113474525D01*
X147844525Y-114030504D01*
X147790008Y-114058281D01*
X147774521Y-114059500D01*
X132935479Y-114059500D01*
X132877288Y-114040593D01*
X132865475Y-114030504D01*
X132379496Y-113544525D01*
X132351719Y-113490008D01*
X132350500Y-113474521D01*
X132350500Y-109459500D01*
X132369407Y-109401309D01*
X132418907Y-109365345D01*
X132449500Y-109360500D01*
X133506611Y-109360500D01*
X133506616Y-109360500D01*
X133577196Y-109354086D01*
X133739606Y-109303478D01*
X133885185Y-109215472D01*
X134005472Y-109095185D01*
X134093478Y-108949606D01*
X134144086Y-108787196D01*
X134150500Y-108716616D01*
X134150500Y-107603384D01*
X134144086Y-107532804D01*
X134093478Y-107370394D01*
X134005472Y-107224815D01*
X133885185Y-107104528D01*
X133847777Y-107081914D01*
X133739607Y-107016522D01*
X133739605Y-107016521D01*
X133577194Y-106965913D01*
X133506620Y-106959500D01*
X133506616Y-106959500D01*
X132449500Y-106959500D01*
X132391309Y-106940593D01*
X132355345Y-106891093D01*
X132350500Y-106860500D01*
X132350500Y-103159500D01*
X132369407Y-103101309D01*
X132418907Y-103065345D01*
X132449500Y-103060500D01*
X132462719Y-103060500D01*
X132462720Y-103060500D01*
X132575236Y-103045687D01*
X132715233Y-102987698D01*
X132835451Y-102895451D01*
X132927698Y-102775233D01*
X132985687Y-102635236D01*
X133000500Y-102522720D01*
X133000500Y-101197280D01*
X132985687Y-101084764D01*
X132927698Y-100944767D01*
X132835451Y-100824549D01*
X132715233Y-100732302D01*
X132695878Y-100724285D01*
X132575238Y-100674314D01*
X132575240Y-100674314D01*
X132575236Y-100674313D01*
X132575234Y-100674312D01*
X132575232Y-100674312D01*
X132462720Y-100659500D01*
X132449500Y-100659500D01*
X132391309Y-100640593D01*
X132355345Y-100591093D01*
X132350500Y-100560500D01*
X132350500Y-100448790D01*
X132369407Y-100390599D01*
X132418907Y-100354635D01*
X132480093Y-100354635D01*
X132508289Y-100369136D01*
X132547116Y-100397792D01*
X132547117Y-100397792D01*
X132547118Y-100397793D01*
X132675301Y-100442646D01*
X132705725Y-100445499D01*
X132705727Y-100445500D01*
X132705734Y-100445500D01*
X133314273Y-100445500D01*
X133314273Y-100445499D01*
X133344699Y-100442646D01*
X133472882Y-100397793D01*
X133582150Y-100317150D01*
X133662793Y-100207882D01*
X133707646Y-100079699D01*
X133710499Y-100049273D01*
X133710500Y-100049273D01*
X133710500Y-98990727D01*
X133710499Y-98990725D01*
X133707646Y-98960305D01*
X133707646Y-98960301D01*
X133662793Y-98832118D01*
X133611671Y-98762850D01*
X133582154Y-98722855D01*
X133582152Y-98722853D01*
X133582150Y-98722850D01*
X133582146Y-98722847D01*
X133582144Y-98722845D01*
X133472883Y-98642207D01*
X133344703Y-98597355D01*
X133344694Y-98597353D01*
X133314274Y-98594500D01*
X133314266Y-98594500D01*
X132705734Y-98594500D01*
X132705725Y-98594500D01*
X132675303Y-98597353D01*
X132613284Y-98619054D01*
X132552114Y-98620426D01*
X132510584Y-98595613D01*
X130359496Y-96444525D01*
X130331719Y-96390008D01*
X130330500Y-96374521D01*
X130330500Y-93074479D01*
X130349407Y-93016288D01*
X130398907Y-92980324D01*
X130460093Y-92980324D01*
X130499504Y-93004475D01*
X133290504Y-95795475D01*
X133318281Y-95849992D01*
X133319500Y-95865479D01*
X133319500Y-96289746D01*
X133319501Y-96289758D01*
X133331132Y-96348227D01*
X133331134Y-96348233D01*
X133373566Y-96411736D01*
X133375448Y-96414552D01*
X133441769Y-96458867D01*
X133486231Y-96467711D01*
X133500241Y-96470498D01*
X133500246Y-96470498D01*
X133500252Y-96470500D01*
X133500253Y-96470500D01*
X135039747Y-96470500D01*
X135039748Y-96470500D01*
X135098231Y-96458867D01*
X135164552Y-96414552D01*
X135203185Y-96356733D01*
X135251235Y-96318855D01*
X135312373Y-96316453D01*
X135363247Y-96350446D01*
X135384424Y-96407850D01*
X135384500Y-96411736D01*
X135384500Y-97839746D01*
X135384501Y-97839758D01*
X135396132Y-97898227D01*
X135396134Y-97898233D01*
X135440445Y-97964548D01*
X135440448Y-97964552D01*
X135506769Y-98008867D01*
X135551231Y-98017711D01*
X135565241Y-98020498D01*
X135565246Y-98020498D01*
X135565252Y-98020500D01*
X135565253Y-98020500D01*
X136504747Y-98020500D01*
X136504748Y-98020500D01*
X136563231Y-98008867D01*
X136615000Y-97974274D01*
X136673885Y-97957667D01*
X136724998Y-97974274D01*
X136776769Y-98008867D01*
X136821231Y-98017711D01*
X136835241Y-98020498D01*
X136835246Y-98020498D01*
X136835252Y-98020500D01*
X136835253Y-98020500D01*
X137774747Y-98020500D01*
X137774748Y-98020500D01*
X137833231Y-98008867D01*
X137885000Y-97974274D01*
X137943885Y-97957667D01*
X137994998Y-97974274D01*
X138046769Y-98008867D01*
X138091231Y-98017711D01*
X138105241Y-98020498D01*
X138105246Y-98020498D01*
X138105252Y-98020500D01*
X138105253Y-98020500D01*
X139044747Y-98020500D01*
X139044748Y-98020500D01*
X139103231Y-98008867D01*
X139155000Y-97974274D01*
X139213885Y-97957667D01*
X139264998Y-97974274D01*
X139316769Y-98008867D01*
X139361231Y-98017711D01*
X139375241Y-98020498D01*
X139375246Y-98020498D01*
X139375252Y-98020500D01*
X139445500Y-98020500D01*
X139503691Y-98039407D01*
X139539655Y-98088907D01*
X139544500Y-98119500D01*
X139544500Y-98414564D01*
X139564978Y-98490988D01*
X139564980Y-98490992D01*
X139604538Y-98559508D01*
X139604540Y-98559511D01*
X140099503Y-99054474D01*
X140569453Y-99524424D01*
X140597230Y-99578941D01*
X140597441Y-99608514D01*
X140594354Y-99629997D01*
X140594353Y-99630002D01*
X140614834Y-99772456D01*
X140650112Y-99849703D01*
X140674623Y-99903373D01*
X140721855Y-99957882D01*
X140768873Y-100012144D01*
X140888878Y-100089266D01*
X140889947Y-100089953D01*
X140991237Y-100119694D01*
X141028035Y-100130499D01*
X141028036Y-100130499D01*
X141028039Y-100130500D01*
X141028041Y-100130500D01*
X141171959Y-100130500D01*
X141171961Y-100130500D01*
X141310053Y-100089953D01*
X141431128Y-100012143D01*
X141525377Y-99903373D01*
X141585165Y-99772457D01*
X141605647Y-99630000D01*
X141590221Y-99522712D01*
X141585165Y-99487543D01*
X141525377Y-99356628D01*
X141525377Y-99356627D01*
X141431128Y-99247857D01*
X141431127Y-99247856D01*
X141431126Y-99247855D01*
X141310057Y-99170049D01*
X141310054Y-99170047D01*
X141310053Y-99170047D01*
X141310050Y-99170046D01*
X141171964Y-99129500D01*
X141171961Y-99129500D01*
X141065479Y-99129500D01*
X141007288Y-99110593D01*
X140995475Y-99100504D01*
X140174496Y-98279525D01*
X140146719Y-98225008D01*
X140145500Y-98209521D01*
X140145500Y-98119500D01*
X140164407Y-98061309D01*
X140213907Y-98025345D01*
X140244500Y-98020500D01*
X140314747Y-98020500D01*
X140314748Y-98020500D01*
X140373231Y-98008867D01*
X140425000Y-97974274D01*
X140483885Y-97957667D01*
X140534998Y-97974274D01*
X140586769Y-98008867D01*
X140631231Y-98017711D01*
X140645241Y-98020498D01*
X140645246Y-98020498D01*
X140645252Y-98020500D01*
X141235500Y-98020500D01*
X141293691Y-98039407D01*
X141329655Y-98088907D01*
X141334500Y-98119500D01*
X141334500Y-98159564D01*
X141354978Y-98235988D01*
X141354980Y-98235992D01*
X141373660Y-98268346D01*
X141394540Y-98304511D01*
X141450489Y-98360460D01*
X141450491Y-98360461D01*
X141519007Y-98400019D01*
X141519011Y-98400021D01*
X141595435Y-98420499D01*
X141595437Y-98420500D01*
X141595438Y-98420500D01*
X141674562Y-98420500D01*
X141999521Y-98420500D01*
X142057712Y-98439407D01*
X142069525Y-98449496D01*
X142095504Y-98475475D01*
X142123281Y-98529992D01*
X142124500Y-98545479D01*
X142124500Y-110470500D01*
X142105593Y-110528691D01*
X142056093Y-110564655D01*
X142025500Y-110569500D01*
X141628025Y-110569500D01*
X141551602Y-110589978D01*
X141498737Y-110620500D01*
X141498736Y-110620499D01*
X141483079Y-110629539D01*
X141215488Y-110897130D01*
X141157144Y-110955473D01*
X141102627Y-110983250D01*
X141067827Y-110982567D01*
X141002134Y-110969500D01*
X140797870Y-110969500D01*
X140797862Y-110969501D01*
X140717505Y-110985484D01*
X140717501Y-110985486D01*
X140704999Y-110993840D01*
X140646111Y-111010447D01*
X140595001Y-110993840D01*
X140582496Y-110985485D01*
X140582495Y-110985484D01*
X140502134Y-110969500D01*
X140297870Y-110969500D01*
X140297862Y-110969501D01*
X140217505Y-110985484D01*
X140217503Y-110985485D01*
X140204502Y-110994173D01*
X140145614Y-111010782D01*
X140088210Y-110989605D01*
X140054217Y-110938731D01*
X140050500Y-110911858D01*
X140050500Y-110360437D01*
X140050499Y-110360435D01*
X140030021Y-110284011D01*
X140030019Y-110284007D01*
X139987216Y-110209870D01*
X139988858Y-110208921D01*
X139971382Y-110159562D01*
X139972355Y-110142890D01*
X139975647Y-110120000D01*
X139955165Y-109977543D01*
X139895377Y-109846627D01*
X139801128Y-109737857D01*
X139801127Y-109737856D01*
X139801126Y-109737855D01*
X139680057Y-109660049D01*
X139680054Y-109660047D01*
X139680053Y-109660047D01*
X139680050Y-109660046D01*
X139541964Y-109619500D01*
X139541961Y-109619500D01*
X139398039Y-109619500D01*
X139398035Y-109619500D01*
X139259949Y-109660046D01*
X139259942Y-109660049D01*
X139138873Y-109737855D01*
X139044622Y-109846628D01*
X138984834Y-109977543D01*
X138964353Y-110119997D01*
X138964353Y-110120002D01*
X138984834Y-110262456D01*
X139029581Y-110360437D01*
X139044623Y-110393373D01*
X139138872Y-110502143D01*
X139138873Y-110502144D01*
X139259942Y-110579950D01*
X139259947Y-110579953D01*
X139378393Y-110614731D01*
X139428898Y-110649265D01*
X139449460Y-110706892D01*
X139449500Y-110709720D01*
X139449500Y-110941635D01*
X139430593Y-110999826D01*
X139399889Y-111025612D01*
X139400192Y-111026036D01*
X139394817Y-111029873D01*
X139393982Y-111030574D01*
X139393951Y-111030590D01*
X139393518Y-111030801D01*
X139310801Y-111113518D01*
X139259427Y-111218604D01*
X139259427Y-111218607D01*
X139250974Y-111276628D01*
X139249500Y-111286743D01*
X139249500Y-112151046D01*
X139230593Y-112209237D01*
X139181093Y-112245201D01*
X139176123Y-112246673D01*
X139037860Y-112283720D01*
X138906639Y-112359481D01*
X138799481Y-112466639D01*
X138723720Y-112597860D01*
X138709969Y-112649181D01*
X138684500Y-112744234D01*
X138684500Y-112895766D01*
X138719086Y-113024847D01*
X138723720Y-113042139D01*
X138799481Y-113173360D01*
X138799483Y-113173362D01*
X138799485Y-113173365D01*
X138906635Y-113280515D01*
X138906637Y-113280516D01*
X138906639Y-113280518D01*
X139037861Y-113356279D01*
X139037859Y-113356279D01*
X139037863Y-113356280D01*
X139037865Y-113356281D01*
X139184234Y-113395500D01*
X139184236Y-113395500D01*
X139335764Y-113395500D01*
X139335766Y-113395500D01*
X139482135Y-113356281D01*
X139482137Y-113356279D01*
X139482139Y-113356279D01*
X139613360Y-113280518D01*
X139613360Y-113280517D01*
X139613365Y-113280515D01*
X139720515Y-113173365D01*
X139796281Y-113042135D01*
X139829767Y-112917158D01*
X139863091Y-112865846D01*
X139920212Y-112843919D01*
X139979313Y-112859754D01*
X139995398Y-112872779D01*
X140337130Y-113214511D01*
X140337129Y-113214511D01*
X140393079Y-113270460D01*
X140461597Y-113310019D01*
X140461601Y-113310021D01*
X140538025Y-113330499D01*
X140538027Y-113330500D01*
X140538028Y-113330500D01*
X143869563Y-113330500D01*
X143869563Y-113330499D01*
X143945989Y-113310021D01*
X144014511Y-113270460D01*
X144042485Y-113242485D01*
X144070461Y-113214511D01*
X144327338Y-112957633D01*
X144381855Y-112929855D01*
X144442287Y-112939426D01*
X144485552Y-112982691D01*
X144492967Y-113002008D01*
X144502443Y-113037373D01*
X144503720Y-113042139D01*
X144579481Y-113173360D01*
X144579483Y-113173362D01*
X144579485Y-113173365D01*
X144686635Y-113280515D01*
X144686637Y-113280516D01*
X144686639Y-113280518D01*
X144817861Y-113356279D01*
X144817859Y-113356279D01*
X144817863Y-113356280D01*
X144817865Y-113356281D01*
X144964234Y-113395500D01*
X144964236Y-113395500D01*
X145115764Y-113395500D01*
X145115766Y-113395500D01*
X145262135Y-113356281D01*
X145262137Y-113356279D01*
X145262139Y-113356279D01*
X145393360Y-113280518D01*
X145393360Y-113280517D01*
X145393365Y-113280515D01*
X145500515Y-113173365D01*
X145576281Y-113042135D01*
X145615500Y-112895766D01*
X145615500Y-112744234D01*
X145576281Y-112597865D01*
X145576279Y-112597862D01*
X145576279Y-112597860D01*
X145500518Y-112466639D01*
X145500516Y-112466637D01*
X145500515Y-112466635D01*
X145393365Y-112359485D01*
X145393362Y-112359483D01*
X145393360Y-112359481D01*
X145262138Y-112283720D01*
X145262139Y-112283720D01*
X145123877Y-112246673D01*
X145072562Y-112213349D01*
X145050636Y-112156227D01*
X145050500Y-112151046D01*
X145050500Y-111286743D01*
X145050500Y-111286740D01*
X145040573Y-111218607D01*
X144989198Y-111113517D01*
X144906483Y-111030802D01*
X144906481Y-111030801D01*
X144801395Y-110979427D01*
X144774139Y-110975456D01*
X144733260Y-110969500D01*
X144366740Y-110969500D01*
X144332673Y-110974463D01*
X144298604Y-110979427D01*
X144219714Y-111017994D01*
X144159131Y-111026565D01*
X144121232Y-111011368D01*
X144082498Y-110985487D01*
X144082496Y-110985486D01*
X144082495Y-110985485D01*
X144002133Y-110969500D01*
X144002132Y-110969500D01*
X143797870Y-110969500D01*
X143797862Y-110969501D01*
X143717505Y-110985484D01*
X143717501Y-110985486D01*
X143704999Y-110993840D01*
X143646111Y-111010447D01*
X143595001Y-110993840D01*
X143582496Y-110985485D01*
X143582495Y-110985484D01*
X143502135Y-110969500D01*
X143299500Y-110969500D01*
X143241309Y-110950593D01*
X143205345Y-110901093D01*
X143200500Y-110870500D01*
X143200500Y-110842936D01*
X143200499Y-110842934D01*
X143178874Y-110762228D01*
X143175500Y-110736604D01*
X143175500Y-98740725D01*
X151249500Y-98740725D01*
X151249500Y-99799274D01*
X151252353Y-99829694D01*
X151252355Y-99829703D01*
X151297207Y-99957883D01*
X151377845Y-100067144D01*
X151377847Y-100067146D01*
X151377850Y-100067150D01*
X151377853Y-100067152D01*
X151377855Y-100067154D01*
X151487116Y-100147792D01*
X151487117Y-100147792D01*
X151487118Y-100147793D01*
X151536608Y-100165110D01*
X151583198Y-100181413D01*
X151631878Y-100218478D01*
X151649500Y-100274857D01*
X151649500Y-100466828D01*
X151630593Y-100525019D01*
X151610768Y-100545369D01*
X151494555Y-100634543D01*
X151494547Y-100634551D01*
X151402301Y-100754768D01*
X151344314Y-100894761D01*
X151344312Y-100894767D01*
X151329500Y-101007279D01*
X151329500Y-101007280D01*
X151329500Y-102332720D01*
X151344313Y-102445236D01*
X151402302Y-102585233D01*
X151494549Y-102705451D01*
X151614767Y-102797698D01*
X151754764Y-102855687D01*
X151867280Y-102870500D01*
X151867281Y-102870500D01*
X152692719Y-102870500D01*
X152692720Y-102870500D01*
X152805236Y-102855687D01*
X152945233Y-102797698D01*
X153065451Y-102705451D01*
X153157698Y-102585233D01*
X153215687Y-102445236D01*
X153230500Y-102332720D01*
X153230500Y-101007280D01*
X153215687Y-100894764D01*
X153157698Y-100754767D01*
X153065451Y-100634549D01*
X152945233Y-100542302D01*
X152903508Y-100525019D01*
X152848339Y-100502167D01*
X152805236Y-100484313D01*
X152805234Y-100484312D01*
X152805232Y-100484312D01*
X152692720Y-100469500D01*
X152349500Y-100469500D01*
X152291309Y-100450593D01*
X152255345Y-100401093D01*
X152250500Y-100370500D01*
X152250500Y-100274857D01*
X152269407Y-100216666D01*
X152316802Y-100181413D01*
X152355728Y-100167792D01*
X152412882Y-100147793D01*
X152522150Y-100067150D01*
X152602793Y-99957882D01*
X152647646Y-99829699D01*
X152650499Y-99799273D01*
X152650500Y-99799273D01*
X152650500Y-98740727D01*
X152650499Y-98740725D01*
X152649522Y-98730305D01*
X152647646Y-98710301D01*
X152602793Y-98582118D01*
X152601558Y-98580445D01*
X152522154Y-98472855D01*
X152522152Y-98472853D01*
X152522150Y-98472850D01*
X152476836Y-98439407D01*
X152447838Y-98418005D01*
X152412246Y-98368237D01*
X152412704Y-98307053D01*
X152436621Y-98268348D01*
X155655475Y-95049496D01*
X155709992Y-95021719D01*
X155725479Y-95020500D01*
X156739273Y-95020500D01*
X156739273Y-95020499D01*
X156769699Y-95017646D01*
X156897882Y-94972793D01*
X157007150Y-94892150D01*
X157087793Y-94782882D01*
X157132646Y-94654699D01*
X157135499Y-94624273D01*
X157135500Y-94624273D01*
X157135500Y-93815727D01*
X157135499Y-93815725D01*
X157132646Y-93785301D01*
X157087793Y-93657118D01*
X157007150Y-93547850D01*
X157007146Y-93547847D01*
X157007144Y-93547845D01*
X156897883Y-93467207D01*
X156769703Y-93422355D01*
X156769694Y-93422353D01*
X156739274Y-93419500D01*
X156739266Y-93419500D01*
X155380734Y-93419500D01*
X155380725Y-93419500D01*
X155350305Y-93422353D01*
X155350296Y-93422355D01*
X155222116Y-93467207D01*
X155112855Y-93547845D01*
X155112845Y-93547855D01*
X155032207Y-93657116D01*
X154987355Y-93785296D01*
X154987353Y-93785305D01*
X154984500Y-93815725D01*
X154984500Y-94624274D01*
X154987353Y-94654694D01*
X154987353Y-94654697D01*
X154987354Y-94654699D01*
X155004412Y-94703448D01*
X155022014Y-94753753D01*
X155023386Y-94814923D01*
X154998573Y-94856454D01*
X151765489Y-98089540D01*
X151765488Y-98089539D01*
X151709539Y-98145489D01*
X151669980Y-98214007D01*
X151669978Y-98214011D01*
X151649751Y-98289498D01*
X151616427Y-98340812D01*
X151586823Y-98357318D01*
X151487116Y-98392207D01*
X151377855Y-98472845D01*
X151377845Y-98472855D01*
X151297207Y-98582116D01*
X151252355Y-98710296D01*
X151252353Y-98710305D01*
X151249500Y-98740725D01*
X143175500Y-98740725D01*
X143175500Y-98154042D01*
X143175500Y-98154041D01*
X143173110Y-98145121D01*
X143176313Y-98084021D01*
X143214818Y-98036471D01*
X143268737Y-98020500D01*
X144124747Y-98020500D01*
X144124748Y-98020500D01*
X144183231Y-98008867D01*
X144235000Y-97974274D01*
X144293885Y-97957667D01*
X144344998Y-97974274D01*
X144396769Y-98008867D01*
X144441231Y-98017711D01*
X144455241Y-98020498D01*
X144455246Y-98020498D01*
X144455252Y-98020500D01*
X144455253Y-98020500D01*
X145394747Y-98020500D01*
X145394748Y-98020500D01*
X145453231Y-98008867D01*
X145505000Y-97974274D01*
X145563885Y-97957667D01*
X145614998Y-97974274D01*
X145666769Y-98008867D01*
X145711231Y-98017711D01*
X145725241Y-98020498D01*
X145725246Y-98020498D01*
X145725252Y-98020500D01*
X145725253Y-98020500D01*
X146664747Y-98020500D01*
X146664748Y-98020500D01*
X146723231Y-98008867D01*
X146775000Y-97974274D01*
X146833885Y-97957667D01*
X146884998Y-97974274D01*
X146936769Y-98008867D01*
X146981231Y-98017711D01*
X146995241Y-98020498D01*
X146995246Y-98020498D01*
X146995252Y-98020500D01*
X146995253Y-98020500D01*
X147934747Y-98020500D01*
X147934748Y-98020500D01*
X147993231Y-98008867D01*
X148045000Y-97974274D01*
X148103885Y-97957667D01*
X148154998Y-97974274D01*
X148206769Y-98008867D01*
X148251231Y-98017711D01*
X148265241Y-98020498D01*
X148265246Y-98020498D01*
X148265252Y-98020500D01*
X148265253Y-98020500D01*
X149204747Y-98020500D01*
X149204748Y-98020500D01*
X149263231Y-98008867D01*
X149315000Y-97974274D01*
X149373885Y-97957667D01*
X149424998Y-97974274D01*
X149476769Y-98008867D01*
X149521231Y-98017711D01*
X149535241Y-98020498D01*
X149535246Y-98020498D01*
X149535252Y-98020500D01*
X149535253Y-98020500D01*
X150474747Y-98020500D01*
X150474748Y-98020500D01*
X150533231Y-98008867D01*
X150599552Y-97964552D01*
X150643867Y-97898231D01*
X150655500Y-97839748D01*
X150655500Y-96411736D01*
X150674407Y-96353545D01*
X150723907Y-96317581D01*
X150785093Y-96317581D01*
X150834593Y-96353545D01*
X150836805Y-96356720D01*
X150875448Y-96414552D01*
X150941769Y-96458867D01*
X150986231Y-96467711D01*
X151000241Y-96470498D01*
X151000246Y-96470498D01*
X151000252Y-96470500D01*
X151000253Y-96470500D01*
X152539747Y-96470500D01*
X152539748Y-96470500D01*
X152598231Y-96458867D01*
X152664552Y-96414552D01*
X152708867Y-96348231D01*
X152720500Y-96289748D01*
X152720500Y-95350252D01*
X152708867Y-95291769D01*
X152674274Y-95239999D01*
X152657667Y-95181115D01*
X152674274Y-95130001D01*
X152708867Y-95078231D01*
X152720500Y-95019748D01*
X152720500Y-94080252D01*
X152708867Y-94021769D01*
X152674274Y-93969999D01*
X152657667Y-93911115D01*
X152674274Y-93860001D01*
X152708867Y-93808231D01*
X152720500Y-93749748D01*
X152720500Y-92810252D01*
X152708867Y-92751769D01*
X152674274Y-92699999D01*
X152657667Y-92641115D01*
X152674274Y-92590001D01*
X152708867Y-92538231D01*
X152720500Y-92479748D01*
X152720500Y-92120000D01*
X154989217Y-92120000D01*
X155698566Y-92120000D01*
X155685000Y-92170630D01*
X155685000Y-92269370D01*
X155698566Y-92320000D01*
X154989218Y-92320000D01*
X155015742Y-92453349D01*
X155076048Y-92598940D01*
X155076052Y-92598949D01*
X155163599Y-92729969D01*
X155163602Y-92729973D01*
X155275026Y-92841397D01*
X155275030Y-92841400D01*
X155406050Y-92928947D01*
X155406059Y-92928951D01*
X155551650Y-92989257D01*
X155706204Y-93019999D01*
X155706208Y-93020000D01*
X155959999Y-93020000D01*
X155960000Y-93019999D01*
X155960000Y-92581433D01*
X156010630Y-92595000D01*
X156109370Y-92595000D01*
X156160000Y-92581433D01*
X156160000Y-93019999D01*
X156160001Y-93020000D01*
X156413792Y-93020000D01*
X156413795Y-93019999D01*
X156568349Y-92989257D01*
X156713940Y-92928951D01*
X156713949Y-92928947D01*
X156844969Y-92841400D01*
X156844973Y-92841397D01*
X156956397Y-92729973D01*
X156956400Y-92729969D01*
X157043947Y-92598949D01*
X157043951Y-92598940D01*
X157104257Y-92453349D01*
X157130782Y-92320000D01*
X156421434Y-92320000D01*
X156435000Y-92269370D01*
X156435000Y-92170630D01*
X156421434Y-92120000D01*
X157130782Y-92120000D01*
X157104257Y-91986650D01*
X157043951Y-91841059D01*
X157043947Y-91841050D01*
X156956400Y-91710030D01*
X156956397Y-91710026D01*
X156844973Y-91598602D01*
X156844969Y-91598599D01*
X156713949Y-91511052D01*
X156713940Y-91511048D01*
X156568349Y-91450742D01*
X156413795Y-91420000D01*
X156160001Y-91420000D01*
X156160000Y-91420001D01*
X156160000Y-91858566D01*
X156109370Y-91845000D01*
X156010630Y-91845000D01*
X155960000Y-91858566D01*
X155960000Y-91420001D01*
X155959999Y-91420000D01*
X155706204Y-91420000D01*
X155551650Y-91450742D01*
X155406059Y-91511048D01*
X155406050Y-91511052D01*
X155275030Y-91598599D01*
X155275026Y-91598602D01*
X155163602Y-91710026D01*
X155163599Y-91710030D01*
X155076052Y-91841050D01*
X155076048Y-91841059D01*
X155015742Y-91986650D01*
X154989217Y-92120000D01*
X152720500Y-92120000D01*
X152720500Y-91540252D01*
X152708867Y-91481769D01*
X152674274Y-91429999D01*
X152657667Y-91371115D01*
X152674274Y-91320001D01*
X152708867Y-91268231D01*
X152720500Y-91209748D01*
X152720500Y-90270252D01*
X152708867Y-90211769D01*
X152674274Y-90159999D01*
X152657667Y-90101115D01*
X152674274Y-90050001D01*
X152708867Y-89998231D01*
X152720500Y-89939748D01*
X152720500Y-89000252D01*
X152708867Y-88941769D01*
X152674274Y-88889999D01*
X152657667Y-88831115D01*
X152674274Y-88780001D01*
X152708867Y-88728231D01*
X152720500Y-88669748D01*
X152720500Y-87730252D01*
X152720450Y-87730003D01*
X152709182Y-87673355D01*
X152708867Y-87671769D01*
X152674274Y-87619999D01*
X152657667Y-87561115D01*
X152674274Y-87510001D01*
X152708867Y-87458231D01*
X152720500Y-87399748D01*
X152720500Y-86460252D01*
X152708867Y-86401769D01*
X152674274Y-86349999D01*
X152657667Y-86291115D01*
X152674274Y-86240001D01*
X152708867Y-86188231D01*
X152720500Y-86129748D01*
X152720500Y-85190252D01*
X152708867Y-85131769D01*
X152674274Y-85079999D01*
X152657667Y-85021115D01*
X152674274Y-84970001D01*
X152708867Y-84918231D01*
X152720500Y-84859748D01*
X152720500Y-83920252D01*
X152708867Y-83861769D01*
X152674274Y-83809999D01*
X152657667Y-83751115D01*
X152674274Y-83700001D01*
X152708867Y-83648231D01*
X152720500Y-83589748D01*
X152720500Y-82650252D01*
X152708867Y-82591769D01*
X152674274Y-82539999D01*
X152657667Y-82481115D01*
X152674274Y-82430001D01*
X152708867Y-82378231D01*
X152720500Y-82319748D01*
X152720500Y-81380252D01*
X152708867Y-81321769D01*
X152674274Y-81269999D01*
X152657667Y-81211115D01*
X152674274Y-81160001D01*
X152708867Y-81108231D01*
X152720500Y-81049748D01*
X152720500Y-80110252D01*
X152708867Y-80051769D01*
X152664552Y-79985448D01*
X152664548Y-79985445D01*
X152598233Y-79941134D01*
X152598231Y-79941133D01*
X152598228Y-79941132D01*
X152598227Y-79941132D01*
X152539758Y-79929501D01*
X152539748Y-79929500D01*
X151000252Y-79929500D01*
X151000251Y-79929500D01*
X151000241Y-79929501D01*
X150941772Y-79941132D01*
X150941766Y-79941134D01*
X150875451Y-79985445D01*
X150875445Y-79985451D01*
X150831134Y-80051766D01*
X150831132Y-80051772D01*
X150819501Y-80110241D01*
X150819500Y-80110253D01*
X150819500Y-81049746D01*
X150819501Y-81049758D01*
X150831132Y-81108227D01*
X150831134Y-81108233D01*
X150865723Y-81159998D01*
X150882332Y-81218886D01*
X150865723Y-81270002D01*
X150831134Y-81321766D01*
X150831132Y-81321772D01*
X150819501Y-81380241D01*
X150819500Y-81380253D01*
X150819500Y-82319746D01*
X150819501Y-82319758D01*
X150831132Y-82378227D01*
X150831134Y-82378233D01*
X150865723Y-82429998D01*
X150882332Y-82488886D01*
X150865723Y-82540002D01*
X150831134Y-82591766D01*
X150831132Y-82591772D01*
X150819501Y-82650241D01*
X150819500Y-82650253D01*
X150819500Y-83589746D01*
X150819501Y-83589758D01*
X150831132Y-83648227D01*
X150831134Y-83648233D01*
X150865723Y-83699998D01*
X150882332Y-83758886D01*
X150865723Y-83810002D01*
X150831134Y-83861766D01*
X150831132Y-83861772D01*
X150819501Y-83920241D01*
X150819500Y-83920253D01*
X150819500Y-84859746D01*
X150819501Y-84859758D01*
X150831132Y-84918227D01*
X150831134Y-84918233D01*
X150865723Y-84969998D01*
X150882332Y-85028886D01*
X150865723Y-85080002D01*
X150831134Y-85131766D01*
X150831132Y-85131772D01*
X150819501Y-85190241D01*
X150819500Y-85190253D01*
X150819500Y-86129746D01*
X150819501Y-86129758D01*
X150831132Y-86188227D01*
X150831134Y-86188233D01*
X150865723Y-86239998D01*
X150882332Y-86298886D01*
X150865723Y-86350002D01*
X150831134Y-86401766D01*
X150831132Y-86401772D01*
X150819501Y-86460241D01*
X150819500Y-86460253D01*
X150819500Y-87399746D01*
X150819501Y-87399758D01*
X150831132Y-87458227D01*
X150831134Y-87458233D01*
X150865723Y-87509998D01*
X150882332Y-87568886D01*
X150865723Y-87620002D01*
X150831134Y-87671766D01*
X150831132Y-87671772D01*
X150819501Y-87730241D01*
X150819500Y-87730253D01*
X150819500Y-88669746D01*
X150819501Y-88669758D01*
X150831132Y-88728227D01*
X150831134Y-88728233D01*
X150865723Y-88779998D01*
X150882332Y-88838886D01*
X150865723Y-88890002D01*
X150831134Y-88941766D01*
X150831132Y-88941772D01*
X150819501Y-89000241D01*
X150819500Y-89000253D01*
X150819500Y-89939746D01*
X150819501Y-89939758D01*
X150831132Y-89998227D01*
X150831134Y-89998233D01*
X150865723Y-90049998D01*
X150882332Y-90108886D01*
X150865723Y-90160002D01*
X150831134Y-90211766D01*
X150831132Y-90211772D01*
X150819501Y-90270241D01*
X150819500Y-90270253D01*
X150819500Y-91209746D01*
X150819501Y-91209758D01*
X150831132Y-91268227D01*
X150831134Y-91268233D01*
X150865723Y-91319998D01*
X150882332Y-91378886D01*
X150865723Y-91430002D01*
X150831134Y-91481766D01*
X150831132Y-91481772D01*
X150819501Y-91540241D01*
X150819500Y-91540253D01*
X150819500Y-92479746D01*
X150819501Y-92479758D01*
X150831132Y-92538227D01*
X150831134Y-92538233D01*
X150865723Y-92589998D01*
X150882332Y-92648886D01*
X150865723Y-92700002D01*
X150831134Y-92751766D01*
X150831132Y-92751772D01*
X150819501Y-92810241D01*
X150819500Y-92810253D01*
X150819500Y-93749746D01*
X150819501Y-93749758D01*
X150831132Y-93808227D01*
X150831134Y-93808233D01*
X150865723Y-93859998D01*
X150882332Y-93918886D01*
X150865723Y-93970002D01*
X150831134Y-94021766D01*
X150831132Y-94021772D01*
X150819501Y-94080241D01*
X150819500Y-94080253D01*
X150819500Y-95019746D01*
X150819501Y-95019758D01*
X150831132Y-95078227D01*
X150831134Y-95078233D01*
X150865723Y-95129998D01*
X150882332Y-95188886D01*
X150865723Y-95240002D01*
X150831134Y-95291766D01*
X150831132Y-95291772D01*
X150819501Y-95350241D01*
X150819500Y-95350253D01*
X150819500Y-96178263D01*
X150800593Y-96236454D01*
X150751093Y-96272418D01*
X150689907Y-96272418D01*
X150640407Y-96236454D01*
X150638185Y-96233265D01*
X150599554Y-96175451D01*
X150599552Y-96175448D01*
X150584998Y-96165723D01*
X150533233Y-96131134D01*
X150533231Y-96131133D01*
X150533228Y-96131132D01*
X150533227Y-96131132D01*
X150474758Y-96119501D01*
X150474748Y-96119500D01*
X149535252Y-96119500D01*
X149535251Y-96119500D01*
X149535241Y-96119501D01*
X149476772Y-96131132D01*
X149476766Y-96131134D01*
X149425002Y-96165723D01*
X149366114Y-96182332D01*
X149314998Y-96165723D01*
X149263233Y-96131134D01*
X149263231Y-96131133D01*
X149263228Y-96131132D01*
X149263227Y-96131132D01*
X149204758Y-96119501D01*
X149204748Y-96119500D01*
X148265252Y-96119500D01*
X148265251Y-96119500D01*
X148265241Y-96119501D01*
X148206772Y-96131132D01*
X148206766Y-96131134D01*
X148155002Y-96165723D01*
X148096114Y-96182332D01*
X148044998Y-96165723D01*
X147993233Y-96131134D01*
X147993231Y-96131133D01*
X147993228Y-96131132D01*
X147993227Y-96131132D01*
X147934758Y-96119501D01*
X147934748Y-96119500D01*
X146995252Y-96119500D01*
X146995251Y-96119500D01*
X146995241Y-96119501D01*
X146936772Y-96131132D01*
X146936766Y-96131134D01*
X146885002Y-96165723D01*
X146826114Y-96182332D01*
X146774998Y-96165723D01*
X146723233Y-96131134D01*
X146723231Y-96131133D01*
X146723228Y-96131132D01*
X146723227Y-96131132D01*
X146664758Y-96119501D01*
X146664748Y-96119500D01*
X145725252Y-96119500D01*
X145725251Y-96119500D01*
X145725241Y-96119501D01*
X145666772Y-96131132D01*
X145666766Y-96131134D01*
X145615002Y-96165723D01*
X145556114Y-96182332D01*
X145504998Y-96165723D01*
X145453233Y-96131134D01*
X145453231Y-96131133D01*
X145453228Y-96131132D01*
X145453227Y-96131132D01*
X145394758Y-96119501D01*
X145394748Y-96119500D01*
X144455252Y-96119500D01*
X144455251Y-96119500D01*
X144455241Y-96119501D01*
X144396772Y-96131132D01*
X144396766Y-96131134D01*
X144345002Y-96165723D01*
X144286114Y-96182332D01*
X144234998Y-96165723D01*
X144183233Y-96131134D01*
X144183231Y-96131133D01*
X144183228Y-96131132D01*
X144183227Y-96131132D01*
X144124758Y-96119501D01*
X144124748Y-96119500D01*
X143185252Y-96119500D01*
X143185251Y-96119500D01*
X143185241Y-96119501D01*
X143126772Y-96131132D01*
X143126766Y-96131134D01*
X143075002Y-96165723D01*
X143016114Y-96182332D01*
X142964998Y-96165723D01*
X142913233Y-96131134D01*
X142913231Y-96131133D01*
X142913228Y-96131132D01*
X142913227Y-96131132D01*
X142854758Y-96119501D01*
X142854748Y-96119500D01*
X141915252Y-96119500D01*
X141915251Y-96119500D01*
X141915241Y-96119501D01*
X141856772Y-96131132D01*
X141856766Y-96131134D01*
X141805002Y-96165723D01*
X141746114Y-96182332D01*
X141694998Y-96165723D01*
X141643233Y-96131134D01*
X141643231Y-96131133D01*
X141643228Y-96131132D01*
X141643227Y-96131132D01*
X141584758Y-96119501D01*
X141584748Y-96119500D01*
X140645252Y-96119500D01*
X140645251Y-96119500D01*
X140645241Y-96119501D01*
X140586772Y-96131132D01*
X140586766Y-96131134D01*
X140535002Y-96165723D01*
X140476114Y-96182332D01*
X140424998Y-96165723D01*
X140373233Y-96131134D01*
X140373231Y-96131133D01*
X140373228Y-96131132D01*
X140373227Y-96131132D01*
X140314758Y-96119501D01*
X140314748Y-96119500D01*
X139375252Y-96119500D01*
X139375251Y-96119500D01*
X139375241Y-96119501D01*
X139316772Y-96131132D01*
X139316766Y-96131134D01*
X139265002Y-96165723D01*
X139206114Y-96182332D01*
X139154998Y-96165723D01*
X139103233Y-96131134D01*
X139103231Y-96131133D01*
X139103228Y-96131132D01*
X139103227Y-96131132D01*
X139044758Y-96119501D01*
X139044748Y-96119500D01*
X138105252Y-96119500D01*
X138105251Y-96119500D01*
X138105241Y-96119501D01*
X138046772Y-96131132D01*
X138046766Y-96131134D01*
X137995002Y-96165723D01*
X137936114Y-96182332D01*
X137884998Y-96165723D01*
X137833233Y-96131134D01*
X137833231Y-96131133D01*
X137833228Y-96131132D01*
X137833227Y-96131132D01*
X137774758Y-96119501D01*
X137774748Y-96119500D01*
X136835252Y-96119500D01*
X136835251Y-96119500D01*
X136835241Y-96119501D01*
X136776772Y-96131132D01*
X136776766Y-96131134D01*
X136725002Y-96165723D01*
X136666114Y-96182332D01*
X136614998Y-96165723D01*
X136563233Y-96131134D01*
X136563231Y-96131133D01*
X136563228Y-96131132D01*
X136563227Y-96131132D01*
X136504758Y-96119501D01*
X136504748Y-96119500D01*
X135565252Y-96119500D01*
X135565251Y-96119500D01*
X135565241Y-96119501D01*
X135506772Y-96131132D01*
X135506766Y-96131134D01*
X135440451Y-96175445D01*
X135440445Y-96175451D01*
X135401815Y-96233265D01*
X135353765Y-96271144D01*
X135292626Y-96273546D01*
X135241753Y-96239552D01*
X135220576Y-96182149D01*
X135220500Y-96178263D01*
X135220500Y-95350253D01*
X135220498Y-95350241D01*
X135217711Y-95336231D01*
X135208867Y-95291769D01*
X135174274Y-95239999D01*
X135157667Y-95181115D01*
X135174274Y-95130001D01*
X135208867Y-95078231D01*
X135220500Y-95019748D01*
X135220500Y-94080252D01*
X135208867Y-94021769D01*
X135174274Y-93969999D01*
X135157667Y-93911115D01*
X135174274Y-93860001D01*
X135208867Y-93808231D01*
X135220500Y-93749748D01*
X135220500Y-92810252D01*
X135208867Y-92751769D01*
X135174274Y-92699999D01*
X135157667Y-92641115D01*
X135174274Y-92590001D01*
X135208867Y-92538231D01*
X135220500Y-92479748D01*
X135220500Y-91540252D01*
X135208867Y-91481769D01*
X135174274Y-91429999D01*
X135157667Y-91371115D01*
X135174274Y-91320001D01*
X135208867Y-91268231D01*
X135220500Y-91209748D01*
X135220500Y-90270252D01*
X135208867Y-90211769D01*
X135174274Y-90159999D01*
X135157667Y-90101115D01*
X135174274Y-90050001D01*
X135208867Y-89998231D01*
X135220500Y-89939748D01*
X135220500Y-89000252D01*
X135208867Y-88941769D01*
X135174274Y-88889999D01*
X135162189Y-88847149D01*
X140544269Y-88847149D01*
X140610155Y-88889492D01*
X140748109Y-88929999D01*
X140748112Y-88930000D01*
X140891888Y-88930000D01*
X140891890Y-88929999D01*
X141029844Y-88889492D01*
X141029846Y-88889491D01*
X141095728Y-88847149D01*
X141095729Y-88847149D01*
X141944269Y-88847149D01*
X142010155Y-88889492D01*
X142148109Y-88929999D01*
X142148112Y-88930000D01*
X142291888Y-88930000D01*
X142291890Y-88929999D01*
X142429844Y-88889492D01*
X142429846Y-88889491D01*
X142495728Y-88847149D01*
X142495729Y-88847149D01*
X142220000Y-88571421D01*
X141944269Y-88847149D01*
X141095729Y-88847149D01*
X140820000Y-88571421D01*
X140544269Y-88847149D01*
X135162189Y-88847149D01*
X135157667Y-88831115D01*
X135174274Y-88780001D01*
X135208867Y-88728231D01*
X135220500Y-88669748D01*
X135220500Y-88147149D01*
X139844269Y-88147149D01*
X139910155Y-88189492D01*
X140048109Y-88229999D01*
X140048112Y-88230000D01*
X140191888Y-88230000D01*
X140191892Y-88229999D01*
X140202491Y-88226887D01*
X140263651Y-88228633D01*
X140312105Y-88265994D01*
X140329345Y-88324701D01*
X140328377Y-88335964D01*
X140314858Y-88429995D01*
X140314858Y-88430002D01*
X140335319Y-88572314D01*
X140395048Y-88703100D01*
X140399889Y-88708687D01*
X140678578Y-88429999D01*
X140658688Y-88410109D01*
X140720000Y-88410109D01*
X140720000Y-88449891D01*
X140735224Y-88486645D01*
X140763355Y-88514776D01*
X140800109Y-88530000D01*
X140839891Y-88530000D01*
X140876645Y-88514776D01*
X140904776Y-88486645D01*
X140920000Y-88449891D01*
X140920000Y-88429999D01*
X140961421Y-88429999D01*
X141240109Y-88708687D01*
X141244950Y-88703102D01*
X141244951Y-88703100D01*
X141304680Y-88572314D01*
X141325142Y-88430002D01*
X141325142Y-88429997D01*
X141311622Y-88335965D01*
X141322055Y-88275676D01*
X141365933Y-88233034D01*
X141426495Y-88224326D01*
X141437506Y-88226886D01*
X141448109Y-88229999D01*
X141448112Y-88230000D01*
X141591888Y-88230000D01*
X141591892Y-88229999D01*
X141602491Y-88226887D01*
X141663651Y-88228633D01*
X141712105Y-88265994D01*
X141729345Y-88324701D01*
X141728377Y-88335964D01*
X141714858Y-88429995D01*
X141714858Y-88430002D01*
X141735319Y-88572314D01*
X141795048Y-88703100D01*
X141799889Y-88708687D01*
X142078577Y-88429999D01*
X142058687Y-88410109D01*
X142120000Y-88410109D01*
X142120000Y-88449891D01*
X142135224Y-88486645D01*
X142163355Y-88514776D01*
X142200109Y-88530000D01*
X142239891Y-88530000D01*
X142276645Y-88514776D01*
X142304776Y-88486645D01*
X142320000Y-88449891D01*
X142320000Y-88429999D01*
X142361421Y-88429999D01*
X142640109Y-88708687D01*
X142644950Y-88703102D01*
X142644951Y-88703100D01*
X142704680Y-88572314D01*
X142725142Y-88430002D01*
X142725142Y-88429997D01*
X142711622Y-88335965D01*
X142722055Y-88275676D01*
X142765933Y-88233034D01*
X142826495Y-88224326D01*
X142837506Y-88226886D01*
X142848109Y-88229999D01*
X142848112Y-88230000D01*
X142991888Y-88230000D01*
X142991890Y-88229999D01*
X143129844Y-88189492D01*
X143129846Y-88189491D01*
X143195728Y-88147149D01*
X143195729Y-88147149D01*
X142920000Y-87871421D01*
X142670580Y-88120840D01*
X142670577Y-88120841D01*
X142562911Y-88228509D01*
X142361421Y-88429999D01*
X142320000Y-88429999D01*
X142320000Y-88410109D01*
X142304776Y-88373355D01*
X142276645Y-88345224D01*
X142239891Y-88330000D01*
X142200109Y-88330000D01*
X142163355Y-88345224D01*
X142135224Y-88373355D01*
X142120000Y-88410109D01*
X142058687Y-88410109D01*
X141877089Y-88228510D01*
X141877089Y-88228511D01*
X141829220Y-88180642D01*
X141829217Y-88180637D01*
X141520000Y-87871421D01*
X141270580Y-88120840D01*
X141270577Y-88120841D01*
X141162911Y-88228509D01*
X140961421Y-88429999D01*
X140920000Y-88429999D01*
X140920000Y-88410109D01*
X140904776Y-88373355D01*
X140876645Y-88345224D01*
X140839891Y-88330000D01*
X140800109Y-88330000D01*
X140763355Y-88345224D01*
X140735224Y-88373355D01*
X140720000Y-88410109D01*
X140658688Y-88410109D01*
X140477089Y-88228510D01*
X140477089Y-88228511D01*
X140429220Y-88180642D01*
X140429217Y-88180637D01*
X140120000Y-87871421D01*
X139844269Y-88147149D01*
X135220500Y-88147149D01*
X135220500Y-87730252D01*
X135220450Y-87730003D01*
X135220449Y-87729997D01*
X139614858Y-87729997D01*
X139614858Y-87730002D01*
X139635319Y-87872314D01*
X139695048Y-88003100D01*
X139699889Y-88008687D01*
X139978577Y-87729999D01*
X139958687Y-87710109D01*
X140020000Y-87710109D01*
X140020000Y-87749891D01*
X140035224Y-87786645D01*
X140063355Y-87814776D01*
X140100109Y-87830000D01*
X140139891Y-87830000D01*
X140176645Y-87814776D01*
X140204776Y-87786645D01*
X140220000Y-87749891D01*
X140220000Y-87729999D01*
X140261421Y-87729999D01*
X140261421Y-87730000D01*
X140462910Y-87931490D01*
X140570578Y-88039157D01*
X140819999Y-88288577D01*
X141069418Y-88039159D01*
X141069419Y-88039159D01*
X141177089Y-87931490D01*
X141378578Y-87730000D01*
X141378578Y-87729999D01*
X141358688Y-87710109D01*
X141420000Y-87710109D01*
X141420000Y-87749891D01*
X141435224Y-87786645D01*
X141463355Y-87814776D01*
X141500109Y-87830000D01*
X141539891Y-87830000D01*
X141576645Y-87814776D01*
X141604776Y-87786645D01*
X141620000Y-87749891D01*
X141620000Y-87729999D01*
X141661421Y-87729999D01*
X141661421Y-87730000D01*
X141862910Y-87931490D01*
X141970578Y-88039157D01*
X142219999Y-88288577D01*
X142469418Y-88039159D01*
X142469419Y-88039159D01*
X142577089Y-87931490D01*
X142778578Y-87730000D01*
X142778578Y-87729999D01*
X142758688Y-87710109D01*
X142820000Y-87710109D01*
X142820000Y-87749891D01*
X142835224Y-87786645D01*
X142863355Y-87814776D01*
X142900109Y-87830000D01*
X142939891Y-87830000D01*
X142976645Y-87814776D01*
X143004776Y-87786645D01*
X143020000Y-87749891D01*
X143020000Y-87729999D01*
X143061421Y-87729999D01*
X143340109Y-88008687D01*
X143344950Y-88003102D01*
X143344951Y-88003100D01*
X143404680Y-87872314D01*
X143425142Y-87730002D01*
X143425142Y-87729997D01*
X143404680Y-87587685D01*
X143344951Y-87456899D01*
X143340109Y-87451311D01*
X143061421Y-87729999D01*
X143020000Y-87729999D01*
X143020000Y-87710109D01*
X143004776Y-87673355D01*
X142976645Y-87645224D01*
X142939891Y-87630000D01*
X142900109Y-87630000D01*
X142863355Y-87645224D01*
X142835224Y-87673355D01*
X142820000Y-87710109D01*
X142758688Y-87710109D01*
X142577089Y-87528510D01*
X142577089Y-87528511D01*
X142529220Y-87480642D01*
X142529217Y-87480637D01*
X142220000Y-87171421D01*
X141970580Y-87420840D01*
X141970577Y-87420841D01*
X141862911Y-87528509D01*
X141661421Y-87729999D01*
X141620000Y-87729999D01*
X141620000Y-87710109D01*
X141604776Y-87673355D01*
X141576645Y-87645224D01*
X141539891Y-87630000D01*
X141500109Y-87630000D01*
X141463355Y-87645224D01*
X141435224Y-87673355D01*
X141420000Y-87710109D01*
X141358688Y-87710109D01*
X141177089Y-87528510D01*
X141177089Y-87528511D01*
X141129220Y-87480642D01*
X141129217Y-87480637D01*
X140820000Y-87171421D01*
X140570580Y-87420840D01*
X140570577Y-87420841D01*
X140462911Y-87528509D01*
X140261421Y-87729999D01*
X140220000Y-87729999D01*
X140220000Y-87710109D01*
X140204776Y-87673355D01*
X140176645Y-87645224D01*
X140139891Y-87630000D01*
X140100109Y-87630000D01*
X140063355Y-87645224D01*
X140035224Y-87673355D01*
X140020000Y-87710109D01*
X139958687Y-87710109D01*
X139699889Y-87451311D01*
X139695048Y-87456899D01*
X139695046Y-87456902D01*
X139635319Y-87587685D01*
X139614858Y-87729997D01*
X135220449Y-87729997D01*
X135209182Y-87673355D01*
X135208867Y-87671769D01*
X135174274Y-87619999D01*
X135157667Y-87561115D01*
X135174274Y-87510001D01*
X135208867Y-87458231D01*
X135220500Y-87399748D01*
X135220500Y-86747149D01*
X139844269Y-86747149D01*
X139910155Y-86789492D01*
X140048109Y-86829999D01*
X140048112Y-86830000D01*
X140191888Y-86830000D01*
X140191892Y-86829999D01*
X140202491Y-86826887D01*
X140263651Y-86828633D01*
X140312105Y-86865994D01*
X140329345Y-86924701D01*
X140328377Y-86935964D01*
X140314858Y-87029995D01*
X140314858Y-87030003D01*
X140328377Y-87124034D01*
X140317944Y-87184324D01*
X140274065Y-87226966D01*
X140213503Y-87235673D01*
X140202496Y-87233114D01*
X140191891Y-87230000D01*
X140048109Y-87230000D01*
X139910156Y-87270507D01*
X139910151Y-87270509D01*
X139844269Y-87312848D01*
X140119999Y-87588577D01*
X140369418Y-87339159D01*
X140369419Y-87339159D01*
X140477089Y-87231490D01*
X140678578Y-87030000D01*
X140678578Y-87029999D01*
X140658688Y-87010109D01*
X140720000Y-87010109D01*
X140720000Y-87049891D01*
X140735224Y-87086645D01*
X140763355Y-87114776D01*
X140800109Y-87130000D01*
X140839891Y-87130000D01*
X140876645Y-87114776D01*
X140904776Y-87086645D01*
X140920000Y-87049891D01*
X140920000Y-87029999D01*
X140961421Y-87029999D01*
X140961421Y-87030000D01*
X141162910Y-87231490D01*
X141270578Y-87339157D01*
X141519999Y-87588577D01*
X141769418Y-87339159D01*
X141769419Y-87339159D01*
X141877089Y-87231490D01*
X142078578Y-87030000D01*
X142078578Y-87029999D01*
X142058688Y-87010109D01*
X142120000Y-87010109D01*
X142120000Y-87049891D01*
X142135224Y-87086645D01*
X142163355Y-87114776D01*
X142200109Y-87130000D01*
X142239891Y-87130000D01*
X142276645Y-87114776D01*
X142304776Y-87086645D01*
X142320000Y-87049891D01*
X142320000Y-87029999D01*
X142361421Y-87029999D01*
X142361421Y-87030000D01*
X142562910Y-87231490D01*
X142670578Y-87339157D01*
X142919999Y-87588577D01*
X143195728Y-87312848D01*
X143129844Y-87270507D01*
X142991890Y-87230000D01*
X142848112Y-87230000D01*
X142848104Y-87230001D01*
X142837501Y-87233114D01*
X142776341Y-87231364D01*
X142727890Y-87193999D01*
X142710654Y-87135292D01*
X142711622Y-87124033D01*
X142725142Y-87030001D01*
X142725142Y-87029997D01*
X142711622Y-86935965D01*
X142722055Y-86875676D01*
X142765933Y-86833034D01*
X142826495Y-86824326D01*
X142837506Y-86826886D01*
X142848109Y-86829999D01*
X142848112Y-86830000D01*
X142991888Y-86830000D01*
X142991890Y-86829999D01*
X143129844Y-86789492D01*
X143129846Y-86789491D01*
X143195728Y-86747149D01*
X143195729Y-86747149D01*
X142920000Y-86471421D01*
X142670580Y-86720840D01*
X142670577Y-86720841D01*
X142562911Y-86828509D01*
X142361421Y-87029999D01*
X142320000Y-87029999D01*
X142320000Y-87010109D01*
X142304776Y-86973355D01*
X142276645Y-86945224D01*
X142239891Y-86930000D01*
X142200109Y-86930000D01*
X142163355Y-86945224D01*
X142135224Y-86973355D01*
X142120000Y-87010109D01*
X142058688Y-87010109D01*
X141877089Y-86828510D01*
X141877089Y-86828511D01*
X141829220Y-86780642D01*
X141829217Y-86780637D01*
X141520000Y-86471421D01*
X141270580Y-86720840D01*
X141270577Y-86720841D01*
X141162911Y-86828509D01*
X140961421Y-87029999D01*
X140920000Y-87029999D01*
X140920000Y-87010109D01*
X140904776Y-86973355D01*
X140876645Y-86945224D01*
X140839891Y-86930000D01*
X140800109Y-86930000D01*
X140763355Y-86945224D01*
X140735224Y-86973355D01*
X140720000Y-87010109D01*
X140658688Y-87010109D01*
X140477089Y-86828510D01*
X140477089Y-86828511D01*
X140429220Y-86780642D01*
X140429217Y-86780637D01*
X140120000Y-86471421D01*
X139844269Y-86747149D01*
X135220500Y-86747149D01*
X135220500Y-86460252D01*
X135208867Y-86401769D01*
X135174274Y-86349999D01*
X135168633Y-86329997D01*
X139614858Y-86329997D01*
X139614858Y-86330002D01*
X139635319Y-86472314D01*
X139695048Y-86603100D01*
X139699889Y-86608687D01*
X139978577Y-86329999D01*
X139958687Y-86310109D01*
X140020000Y-86310109D01*
X140020000Y-86349891D01*
X140035224Y-86386645D01*
X140063355Y-86414776D01*
X140100109Y-86430000D01*
X140139891Y-86430000D01*
X140176645Y-86414776D01*
X140204776Y-86386645D01*
X140220000Y-86349891D01*
X140220000Y-86329999D01*
X140261421Y-86329999D01*
X140261421Y-86330000D01*
X140462910Y-86531490D01*
X140570578Y-86639157D01*
X140819999Y-86888577D01*
X141069418Y-86639159D01*
X141069419Y-86639159D01*
X141177089Y-86531490D01*
X141378578Y-86330000D01*
X141378578Y-86329999D01*
X141358688Y-86310109D01*
X141420000Y-86310109D01*
X141420000Y-86349891D01*
X141435224Y-86386645D01*
X141463355Y-86414776D01*
X141500109Y-86430000D01*
X141539891Y-86430000D01*
X141576645Y-86414776D01*
X141604776Y-86386645D01*
X141620000Y-86349891D01*
X141620000Y-86329999D01*
X141661421Y-86329999D01*
X141661421Y-86330000D01*
X141862910Y-86531490D01*
X141970578Y-86639157D01*
X142219999Y-86888577D01*
X142469418Y-86639159D01*
X142469419Y-86639159D01*
X142577089Y-86531490D01*
X142778578Y-86330000D01*
X142778578Y-86329999D01*
X142758688Y-86310109D01*
X142820000Y-86310109D01*
X142820000Y-86349891D01*
X142835224Y-86386645D01*
X142863355Y-86414776D01*
X142900109Y-86430000D01*
X142939891Y-86430000D01*
X142976645Y-86414776D01*
X143004776Y-86386645D01*
X143020000Y-86349891D01*
X143020000Y-86329999D01*
X143061421Y-86329999D01*
X143340109Y-86608687D01*
X143344950Y-86603102D01*
X143344951Y-86603100D01*
X143404680Y-86472314D01*
X143425142Y-86330002D01*
X143425142Y-86329997D01*
X143404680Y-86187685D01*
X143344951Y-86056899D01*
X143340109Y-86051311D01*
X143061421Y-86329999D01*
X143020000Y-86329999D01*
X143020000Y-86310109D01*
X143004776Y-86273355D01*
X142976645Y-86245224D01*
X142939891Y-86230000D01*
X142900109Y-86230000D01*
X142863355Y-86245224D01*
X142835224Y-86273355D01*
X142820000Y-86310109D01*
X142758688Y-86310109D01*
X142577089Y-86128510D01*
X142577089Y-86128511D01*
X142529220Y-86080642D01*
X142529217Y-86080637D01*
X142220000Y-85771421D01*
X141970580Y-86020840D01*
X141970577Y-86020841D01*
X141862911Y-86128509D01*
X141661421Y-86329999D01*
X141620000Y-86329999D01*
X141620000Y-86310109D01*
X141604776Y-86273355D01*
X141576645Y-86245224D01*
X141539891Y-86230000D01*
X141500109Y-86230000D01*
X141463355Y-86245224D01*
X141435224Y-86273355D01*
X141420000Y-86310109D01*
X141358688Y-86310109D01*
X141177089Y-86128510D01*
X141177089Y-86128511D01*
X141129220Y-86080642D01*
X141129217Y-86080637D01*
X140820000Y-85771421D01*
X140570580Y-86020840D01*
X140570577Y-86020841D01*
X140462911Y-86128509D01*
X140261421Y-86329999D01*
X140220000Y-86329999D01*
X140220000Y-86310109D01*
X140204776Y-86273355D01*
X140176645Y-86245224D01*
X140139891Y-86230000D01*
X140100109Y-86230000D01*
X140063355Y-86245224D01*
X140035224Y-86273355D01*
X140020000Y-86310109D01*
X139958687Y-86310109D01*
X139699889Y-86051311D01*
X139695048Y-86056899D01*
X139695046Y-86056902D01*
X139635319Y-86187685D01*
X139614858Y-86329997D01*
X135168633Y-86329997D01*
X135157667Y-86291115D01*
X135174274Y-86240001D01*
X135208867Y-86188231D01*
X135220500Y-86129748D01*
X135220500Y-85912848D01*
X139844269Y-85912848D01*
X140119999Y-86188577D01*
X140369418Y-85939159D01*
X140369419Y-85939159D01*
X140477089Y-85831490D01*
X140678578Y-85630000D01*
X140678578Y-85629999D01*
X140658688Y-85610109D01*
X140720000Y-85610109D01*
X140720000Y-85649891D01*
X140735224Y-85686645D01*
X140763355Y-85714776D01*
X140800109Y-85730000D01*
X140839891Y-85730000D01*
X140876645Y-85714776D01*
X140904776Y-85686645D01*
X140920000Y-85649891D01*
X140920000Y-85629999D01*
X140961421Y-85629999D01*
X140961421Y-85630000D01*
X141162910Y-85831490D01*
X141270578Y-85939157D01*
X141519999Y-86188577D01*
X141769418Y-85939159D01*
X141769419Y-85939159D01*
X141877089Y-85831490D01*
X142078578Y-85630000D01*
X142078578Y-85629999D01*
X142058688Y-85610109D01*
X142120000Y-85610109D01*
X142120000Y-85649891D01*
X142135224Y-85686645D01*
X142163355Y-85714776D01*
X142200109Y-85730000D01*
X142239891Y-85730000D01*
X142276645Y-85714776D01*
X142304776Y-85686645D01*
X142320000Y-85649891D01*
X142320000Y-85629999D01*
X142361421Y-85629999D01*
X142361421Y-85630000D01*
X142562910Y-85831490D01*
X142670578Y-85939157D01*
X142919999Y-86188577D01*
X143195728Y-85912848D01*
X143129844Y-85870507D01*
X142991890Y-85830000D01*
X142848112Y-85830000D01*
X142848104Y-85830001D01*
X142837501Y-85833114D01*
X142776341Y-85831364D01*
X142727890Y-85793999D01*
X142710654Y-85735292D01*
X142711622Y-85724033D01*
X142725142Y-85630001D01*
X142725142Y-85629997D01*
X142704680Y-85487685D01*
X142644951Y-85356899D01*
X142640109Y-85351311D01*
X142361421Y-85629999D01*
X142320000Y-85629999D01*
X142320000Y-85610109D01*
X142304776Y-85573355D01*
X142276645Y-85545224D01*
X142239891Y-85530000D01*
X142200109Y-85530000D01*
X142163355Y-85545224D01*
X142135224Y-85573355D01*
X142120000Y-85610109D01*
X142058688Y-85610109D01*
X141799889Y-85351311D01*
X141795048Y-85356899D01*
X141795046Y-85356902D01*
X141735319Y-85487685D01*
X141714858Y-85629997D01*
X141714858Y-85630003D01*
X141728377Y-85724034D01*
X141717944Y-85784324D01*
X141674065Y-85826966D01*
X141613503Y-85835673D01*
X141602496Y-85833114D01*
X141591891Y-85830000D01*
X141448112Y-85830000D01*
X141448104Y-85830001D01*
X141437501Y-85833114D01*
X141376341Y-85831364D01*
X141327890Y-85793999D01*
X141310654Y-85735292D01*
X141311622Y-85724033D01*
X141325142Y-85630001D01*
X141325142Y-85629997D01*
X141304680Y-85487685D01*
X141244951Y-85356899D01*
X141240109Y-85351311D01*
X140961421Y-85629999D01*
X140920000Y-85629999D01*
X140920000Y-85610109D01*
X140904776Y-85573355D01*
X140876645Y-85545224D01*
X140839891Y-85530000D01*
X140800109Y-85530000D01*
X140763355Y-85545224D01*
X140735224Y-85573355D01*
X140720000Y-85610109D01*
X140658688Y-85610109D01*
X140399889Y-85351311D01*
X140395048Y-85356899D01*
X140395046Y-85356902D01*
X140335319Y-85487685D01*
X140314858Y-85629997D01*
X140314858Y-85630003D01*
X140328377Y-85724034D01*
X140317944Y-85784324D01*
X140274065Y-85826966D01*
X140213503Y-85835673D01*
X140202496Y-85833114D01*
X140191891Y-85830000D01*
X140048109Y-85830000D01*
X139910156Y-85870507D01*
X139910151Y-85870509D01*
X139844269Y-85912848D01*
X135220500Y-85912848D01*
X135220500Y-85212848D01*
X140544269Y-85212848D01*
X140819999Y-85488577D01*
X141095728Y-85212848D01*
X141944269Y-85212848D01*
X142219999Y-85488577D01*
X142495728Y-85212848D01*
X142429844Y-85170507D01*
X142291890Y-85130000D01*
X142148109Y-85130000D01*
X142010156Y-85170507D01*
X142010151Y-85170509D01*
X141944269Y-85212848D01*
X141095728Y-85212848D01*
X141029844Y-85170507D01*
X140891890Y-85130000D01*
X140748109Y-85130000D01*
X140610156Y-85170507D01*
X140610151Y-85170509D01*
X140544269Y-85212848D01*
X135220500Y-85212848D01*
X135220500Y-85190252D01*
X135208867Y-85131769D01*
X135174274Y-85079999D01*
X135157667Y-85021115D01*
X135174274Y-84970001D01*
X135208867Y-84918231D01*
X135220500Y-84859748D01*
X135220500Y-83920252D01*
X135208867Y-83861769D01*
X135174274Y-83809999D01*
X135157667Y-83751115D01*
X135174274Y-83700001D01*
X135208867Y-83648231D01*
X135220500Y-83589748D01*
X135220500Y-82650252D01*
X135208867Y-82591769D01*
X135174274Y-82539999D01*
X135157667Y-82481115D01*
X135174274Y-82430001D01*
X135208867Y-82378231D01*
X135220500Y-82319748D01*
X135220500Y-81380252D01*
X135208867Y-81321769D01*
X135174274Y-81269999D01*
X135157667Y-81211115D01*
X135174274Y-81160001D01*
X135208867Y-81108231D01*
X135220500Y-81049748D01*
X135220500Y-80110252D01*
X135208867Y-80051769D01*
X135164552Y-79985448D01*
X135164548Y-79985445D01*
X135098233Y-79941134D01*
X135098231Y-79941133D01*
X135098228Y-79941132D01*
X135098227Y-79941132D01*
X135039758Y-79929501D01*
X135039748Y-79929500D01*
X133500252Y-79929500D01*
X133500251Y-79929500D01*
X133500241Y-79929501D01*
X133441772Y-79941132D01*
X133441766Y-79941134D01*
X133375451Y-79985445D01*
X133375445Y-79985451D01*
X133331134Y-80051766D01*
X133331132Y-80051772D01*
X133319501Y-80110241D01*
X133319500Y-80110253D01*
X133319500Y-80454521D01*
X133300593Y-80512712D01*
X133290504Y-80524525D01*
X131734525Y-82080504D01*
X131680008Y-82108281D01*
X131664521Y-82109500D01*
X131435684Y-82109500D01*
X131419398Y-82111644D01*
X131386825Y-82115932D01*
X131386824Y-82115932D01*
X131279598Y-82165933D01*
X131195933Y-82249598D01*
X131185329Y-82272340D01*
X131143601Y-82317088D01*
X131095605Y-82329500D01*
X130831906Y-82329500D01*
X130755483Y-82349978D01*
X130706548Y-82378231D01*
X130706547Y-82378230D01*
X130686962Y-82389538D01*
X128915489Y-84161011D01*
X128915488Y-84161010D01*
X128859539Y-84216960D01*
X128819980Y-84285478D01*
X128819978Y-84285482D01*
X128799500Y-84361906D01*
X128799500Y-84470251D01*
X128780593Y-84528442D01*
X128745446Y-84558460D01*
X128621781Y-84621471D01*
X128526470Y-84716782D01*
X128465283Y-84836867D01*
X128465281Y-84836874D01*
X128449500Y-84936510D01*
X128449500Y-85503489D01*
X128465281Y-85603125D01*
X128465283Y-85603132D01*
X128526470Y-85723217D01*
X128526472Y-85723220D01*
X128621780Y-85818528D01*
X128621782Y-85818529D01*
X128741867Y-85879716D01*
X128741869Y-85879716D01*
X128741874Y-85879719D01*
X128817541Y-85891703D01*
X128841510Y-85895500D01*
X129349521Y-85895500D01*
X129407712Y-85914407D01*
X129419525Y-85924496D01*
X129970504Y-86475475D01*
X129998281Y-86529992D01*
X129999500Y-86545479D01*
X129999500Y-86914521D01*
X129980593Y-86972712D01*
X129970503Y-86984525D01*
X129926778Y-87028249D01*
X129899487Y-87046486D01*
X129899631Y-87046735D01*
X129895837Y-87048925D01*
X129894672Y-87049704D01*
X129894021Y-87049973D01*
X129825490Y-87089539D01*
X129082989Y-87832040D01*
X129082988Y-87832039D01*
X129027039Y-87887989D01*
X128987480Y-87956507D01*
X128987478Y-87956511D01*
X128967000Y-88032935D01*
X128967000Y-88554464D01*
X128948093Y-88612655D01*
X128898593Y-88648619D01*
X128887317Y-88651561D01*
X128851771Y-88658632D01*
X128842757Y-88662366D01*
X128841723Y-88659869D01*
X128801732Y-88672000D01*
X128769562Y-88672000D01*
X128690438Y-88672000D01*
X128643661Y-88684533D01*
X128614007Y-88692479D01*
X128545493Y-88732036D01*
X128545488Y-88732040D01*
X128379503Y-88898025D01*
X128324987Y-88925802D01*
X128264555Y-88916231D01*
X128221290Y-88872966D01*
X128210500Y-88828021D01*
X128210500Y-77919000D01*
X128229407Y-77860809D01*
X128278907Y-77824845D01*
X128309500Y-77820000D01*
X159110500Y-77820000D01*
X159168691Y-77838907D01*
G37*
%TD.AperFunction*%
%TA.AperFunction,Conductor*%
G36*
X133274388Y-82507322D02*
G01*
X133317653Y-82550585D01*
X133327225Y-82611017D01*
X133326542Y-82614845D01*
X133319500Y-82650246D01*
X133319500Y-83589746D01*
X133319501Y-83589758D01*
X133331132Y-83648227D01*
X133331134Y-83648233D01*
X133365723Y-83699998D01*
X133382332Y-83758886D01*
X133365723Y-83810002D01*
X133331134Y-83861766D01*
X133331132Y-83861772D01*
X133319501Y-83920241D01*
X133319500Y-83920253D01*
X133319500Y-84859746D01*
X133319501Y-84859758D01*
X133331132Y-84918227D01*
X133331134Y-84918233D01*
X133365723Y-84969998D01*
X133382332Y-85028886D01*
X133365723Y-85080002D01*
X133331134Y-85131766D01*
X133331132Y-85131772D01*
X133319501Y-85190241D01*
X133319500Y-85190253D01*
X133319500Y-86129746D01*
X133319501Y-86129758D01*
X133331132Y-86188227D01*
X133331134Y-86188233D01*
X133365723Y-86239998D01*
X133382332Y-86298886D01*
X133365723Y-86350002D01*
X133331134Y-86401766D01*
X133331132Y-86401772D01*
X133319501Y-86460241D01*
X133319500Y-86460253D01*
X133319500Y-87399746D01*
X133319501Y-87399758D01*
X133331132Y-87458227D01*
X133331134Y-87458233D01*
X133365723Y-87509998D01*
X133382332Y-87568886D01*
X133365723Y-87620002D01*
X133331134Y-87671766D01*
X133331132Y-87671772D01*
X133319501Y-87730241D01*
X133319500Y-87730253D01*
X133319500Y-88669746D01*
X133319501Y-88669758D01*
X133331132Y-88728227D01*
X133331134Y-88728233D01*
X133365723Y-88779998D01*
X133382332Y-88838886D01*
X133365723Y-88890002D01*
X133331134Y-88941766D01*
X133331132Y-88941772D01*
X133319501Y-89000241D01*
X133319500Y-89000253D01*
X133319500Y-89939746D01*
X133319501Y-89939758D01*
X133331132Y-89998227D01*
X133331134Y-89998233D01*
X133365723Y-90049998D01*
X133382332Y-90108886D01*
X133365723Y-90160002D01*
X133331134Y-90211766D01*
X133331132Y-90211772D01*
X133319501Y-90270241D01*
X133319500Y-90270253D01*
X133319500Y-91209746D01*
X133319501Y-91209758D01*
X133331132Y-91268227D01*
X133331134Y-91268233D01*
X133365723Y-91319998D01*
X133382332Y-91378886D01*
X133365723Y-91430002D01*
X133331134Y-91481766D01*
X133331132Y-91481772D01*
X133319501Y-91540241D01*
X133319500Y-91540253D01*
X133319500Y-92479746D01*
X133319501Y-92479758D01*
X133331132Y-92538227D01*
X133331134Y-92538233D01*
X133365723Y-92589998D01*
X133382332Y-92648886D01*
X133365723Y-92700002D01*
X133331134Y-92751766D01*
X133331132Y-92751772D01*
X133319501Y-92810241D01*
X133319500Y-92810253D01*
X133319500Y-93465521D01*
X133300593Y-93523712D01*
X133251093Y-93559676D01*
X133189907Y-93559676D01*
X133150496Y-93535525D01*
X131359496Y-91744525D01*
X131331719Y-91690008D01*
X131330500Y-91674521D01*
X131330500Y-91200768D01*
X131342632Y-91160777D01*
X131340134Y-91159743D01*
X131343863Y-91150735D01*
X131343867Y-91150731D01*
X131355500Y-91092248D01*
X131355500Y-90397000D01*
X131374407Y-90338809D01*
X131423907Y-90302845D01*
X131454500Y-90298000D01*
X132149747Y-90298000D01*
X132149748Y-90298000D01*
X132208231Y-90286367D01*
X132274552Y-90242052D01*
X132318867Y-90175731D01*
X132330500Y-90117248D01*
X132330500Y-89827752D01*
X132318867Y-89769269D01*
X132318864Y-89769265D01*
X132315187Y-89760387D01*
X132310386Y-89699390D01*
X132315187Y-89684613D01*
X132318863Y-89675736D01*
X132318867Y-89675731D01*
X132330500Y-89617248D01*
X132330500Y-89327752D01*
X132318867Y-89269269D01*
X132318864Y-89269265D01*
X132315187Y-89260387D01*
X132310386Y-89199390D01*
X132315187Y-89184613D01*
X132318863Y-89175736D01*
X132318867Y-89175731D01*
X132330500Y-89117248D01*
X132330500Y-88827752D01*
X132318867Y-88769269D01*
X132274552Y-88702948D01*
X132274548Y-88702945D01*
X132208233Y-88658634D01*
X132208231Y-88658633D01*
X132208228Y-88658632D01*
X132208227Y-88658632D01*
X132149758Y-88647001D01*
X132149748Y-88647000D01*
X131454500Y-88647000D01*
X131396309Y-88628093D01*
X131360345Y-88578593D01*
X131355500Y-88548000D01*
X131355500Y-88352753D01*
X131355498Y-88352741D01*
X131349920Y-88324701D01*
X131343867Y-88294269D01*
X131343863Y-88294264D01*
X131340134Y-88285257D01*
X131342630Y-88284223D01*
X131330500Y-88244232D01*
X131330500Y-87070437D01*
X131330499Y-87070435D01*
X131325017Y-87049978D01*
X131310021Y-86994011D01*
X131308036Y-86989218D01*
X131300500Y-86951333D01*
X131300500Y-86446510D01*
X131296703Y-86422541D01*
X131284719Y-86346874D01*
X131284716Y-86346869D01*
X131284716Y-86346867D01*
X131223529Y-86226782D01*
X131223528Y-86226780D01*
X131128220Y-86131472D01*
X131128217Y-86131470D01*
X131008132Y-86070283D01*
X131008127Y-86070281D01*
X131008126Y-86070281D01*
X130974913Y-86065020D01*
X130908490Y-86054500D01*
X130908488Y-86054500D01*
X130440479Y-86054500D01*
X130382288Y-86035593D01*
X130370475Y-86025504D01*
X129779496Y-85434525D01*
X129751719Y-85380008D01*
X129750500Y-85364521D01*
X129750500Y-84936510D01*
X129738343Y-84859758D01*
X129734719Y-84836874D01*
X129734716Y-84836869D01*
X129734716Y-84836867D01*
X129673529Y-84716782D01*
X129673528Y-84716780D01*
X129578220Y-84621472D01*
X129518612Y-84591100D01*
X129475348Y-84547835D01*
X129465777Y-84487403D01*
X129493552Y-84432889D01*
X130966946Y-82959496D01*
X131021463Y-82931719D01*
X131036950Y-82930500D01*
X131095605Y-82930500D01*
X131153796Y-82949407D01*
X131185329Y-82987660D01*
X131195933Y-83010401D01*
X131195934Y-83010402D01*
X131195935Y-83010404D01*
X131279596Y-83094065D01*
X131279597Y-83094065D01*
X131279598Y-83094066D01*
X131386824Y-83144067D01*
X131386825Y-83144067D01*
X131386827Y-83144068D01*
X131435684Y-83150500D01*
X131435685Y-83150500D01*
X131784314Y-83150500D01*
X131784316Y-83150500D01*
X131833173Y-83144068D01*
X131940404Y-83094065D01*
X132024065Y-83010404D01*
X132030275Y-82997085D01*
X132072003Y-82952337D01*
X132132064Y-82940662D01*
X132187517Y-82966519D01*
X132209724Y-82997084D01*
X132215935Y-83010404D01*
X132299596Y-83094065D01*
X132299597Y-83094065D01*
X132299598Y-83094066D01*
X132406824Y-83144067D01*
X132406825Y-83144067D01*
X132406827Y-83144068D01*
X132455684Y-83150500D01*
X132455685Y-83150500D01*
X132804314Y-83150500D01*
X132804316Y-83150500D01*
X132853173Y-83144068D01*
X132960404Y-83094065D01*
X133044065Y-83010404D01*
X133094068Y-82903173D01*
X133100500Y-82854316D01*
X133100500Y-82625477D01*
X133119407Y-82567286D01*
X133129489Y-82555480D01*
X133159442Y-82525528D01*
X133213955Y-82497751D01*
X133274388Y-82507322D01*
G37*
%TD.AperFunction*%
%TA.AperFunction,Conductor*%
G36*
X130688691Y-87424407D02*
G01*
X130724655Y-87473907D01*
X130729500Y-87504500D01*
X130729500Y-88244232D01*
X130717369Y-88284223D01*
X130719866Y-88285257D01*
X130716132Y-88294272D01*
X130704501Y-88352741D01*
X130704500Y-88352753D01*
X130704500Y-89067246D01*
X130704501Y-89067258D01*
X130716132Y-89125727D01*
X130716134Y-89125733D01*
X130749542Y-89175731D01*
X130760448Y-89192052D01*
X130826769Y-89236367D01*
X130871231Y-89245211D01*
X130885241Y-89247998D01*
X130885246Y-89247998D01*
X130885252Y-89248000D01*
X130885253Y-89248000D01*
X131155500Y-89248000D01*
X131213691Y-89266907D01*
X131249655Y-89316407D01*
X131254500Y-89347000D01*
X131254500Y-89617246D01*
X131254501Y-89617258D01*
X131266132Y-89675730D01*
X131269814Y-89684619D01*
X131274611Y-89745616D01*
X131269814Y-89760381D01*
X131266132Y-89769269D01*
X131254501Y-89827741D01*
X131254500Y-89827753D01*
X131254500Y-90098000D01*
X131235593Y-90156191D01*
X131186093Y-90192155D01*
X131155500Y-90197000D01*
X130885252Y-90197000D01*
X130885251Y-90197000D01*
X130885241Y-90197001D01*
X130826769Y-90208632D01*
X130817881Y-90212314D01*
X130756884Y-90217111D01*
X130742119Y-90212314D01*
X130733230Y-90208632D01*
X130674758Y-90197001D01*
X130674748Y-90197000D01*
X130385252Y-90197000D01*
X130385251Y-90197000D01*
X130385241Y-90197001D01*
X130326769Y-90208632D01*
X130317881Y-90212314D01*
X130256884Y-90217111D01*
X130242119Y-90212314D01*
X130233230Y-90208632D01*
X130174758Y-90197001D01*
X130174748Y-90197000D01*
X129904500Y-90197000D01*
X129846309Y-90178093D01*
X129810345Y-90128593D01*
X129805500Y-90098000D01*
X129805500Y-89827753D01*
X129805500Y-89827752D01*
X129793867Y-89769269D01*
X129793864Y-89769265D01*
X129790187Y-89760387D01*
X129785386Y-89699390D01*
X129790187Y-89684613D01*
X129793863Y-89675736D01*
X129793867Y-89675731D01*
X129805500Y-89617248D01*
X129805500Y-89327752D01*
X129793867Y-89269269D01*
X129793864Y-89269265D01*
X129790187Y-89260387D01*
X129785386Y-89199390D01*
X129790187Y-89184613D01*
X129793863Y-89175736D01*
X129793867Y-89175731D01*
X129805500Y-89117248D01*
X129805500Y-88827752D01*
X129793867Y-88769269D01*
X129749552Y-88702948D01*
X129749548Y-88702945D01*
X129683233Y-88658634D01*
X129683228Y-88658632D01*
X129647683Y-88651561D01*
X129594300Y-88621663D01*
X129568686Y-88566097D01*
X129568000Y-88554464D01*
X129568000Y-88237978D01*
X129586907Y-88179787D01*
X129596990Y-88167980D01*
X130133222Y-87631747D01*
X130160512Y-87613517D01*
X130160368Y-87613267D01*
X130164192Y-87611058D01*
X130165354Y-87610283D01*
X130165980Y-87610023D01*
X130165989Y-87610021D01*
X130234511Y-87570460D01*
X130290460Y-87514511D01*
X130370475Y-87434496D01*
X130424992Y-87406719D01*
X130440479Y-87405500D01*
X130630500Y-87405500D01*
X130688691Y-87424407D01*
G37*
%TD.AperFunction*%
%TD*%
M02*
