%TF.GenerationSoftware,KiCad,Pcbnew,8.0.8-8.0.8-0~ubuntu24.04.1*%
%TF.CreationDate,2025-08-03T21:14:49-04:00*%
%TF.ProjectId,electronics,656c6563-7472-46f6-9e69-63732e6b6963,rev?*%
%TF.SameCoordinates,Original*%
%TF.FileFunction,Legend,Top*%
%TF.FilePolarity,Positive*%
%FSLAX46Y46*%
G04 Gerber Fmt 4.6, Leading zero omitted, Abs format (unit mm)*
G04 Created by KiCad (PCBNEW 8.0.8-8.0.8-0~ubuntu24.04.1) date 2025-08-03 21:14:49*
%MOMM*%
%LPD*%
G01*
G04 APERTURE LIST*
G04 Aperture macros list*
%AMRoundRect*
0 Rectangle with rounded corners*
0 $1 Rounding radius*
0 $2 $3 $4 $5 $6 $7 $8 $9 X,Y pos of 4 corners*
0 Add a 4 corners polygon primitive as box body*
4,1,4,$2,$3,$4,$5,$6,$7,$8,$9,$2,$3,0*
0 Add four circle primitives for the rounded corners*
1,1,$1+$1,$2,$3*
1,1,$1+$1,$4,$5*
1,1,$1+$1,$6,$7*
1,1,$1+$1,$8,$9*
0 Add four rect primitives between the rounded corners*
20,1,$1+$1,$2,$3,$4,$5,0*
20,1,$1+$1,$4,$5,$6,$7,0*
20,1,$1+$1,$6,$7,$8,$9,0*
20,1,$1+$1,$8,$9,$2,$3,0*%
G04 Aperture macros list end*
%ADD10C,0.150000*%
%ADD11C,0.254000*%
%ADD12C,0.120000*%
%ADD13C,0.100000*%
%ADD14C,0.127000*%
%ADD15C,0.200000*%
%ADD16C,0.650000*%
%ADD17O,1.100000X2.200000*%
%ADD18O,1.100000X1.900000*%
%ADD19RoundRect,0.050000X-0.300000X-0.620000X0.300000X-0.620000X0.300000X0.620000X-0.300000X0.620000X0*%
%ADD20RoundRect,0.050000X-0.150000X-0.620000X0.150000X-0.620000X0.150000X0.620000X-0.150000X0.620000X0*%
%ADD21C,0.600000*%
%ADD22R,3.900000X3.900000*%
%ADD23R,1.500000X0.900000*%
%ADD24R,0.900000X1.500000*%
%ADD25RoundRect,0.250000X0.475000X-0.250000X0.475000X0.250000X-0.475000X0.250000X-0.475000X-0.250000X0*%
%ADD26RoundRect,0.250000X0.250000X0.475000X-0.250000X0.475000X-0.250000X-0.475000X0.250000X-0.475000X0*%
%ADD27RoundRect,0.135000X0.185000X-0.135000X0.185000X0.135000X-0.185000X0.135000X-0.185000X-0.135000X0*%
%ADD28RoundRect,0.225000X-0.250000X0.225000X-0.250000X-0.225000X0.250000X-0.225000X0.250000X0.225000X0*%
%ADD29RoundRect,0.250000X-0.475000X0.250000X-0.475000X-0.250000X0.475000X-0.250000X0.475000X0.250000X0*%
%ADD30R,0.675000X0.250000*%
%ADD31R,0.250000X0.675000*%
%ADD32RoundRect,0.225000X-0.225000X-0.250000X0.225000X-0.250000X0.225000X0.250000X-0.225000X0.250000X0*%
%ADD33RoundRect,0.375000X0.375000X-0.625000X0.375000X0.625000X-0.375000X0.625000X-0.375000X-0.625000X0*%
%ADD34RoundRect,0.500000X1.400000X-0.500000X1.400000X0.500000X-1.400000X0.500000X-1.400000X-0.500000X0*%
%ADD35RoundRect,0.375000X0.625000X0.375000X-0.625000X0.375000X-0.625000X-0.375000X0.625000X-0.375000X0*%
%ADD36RoundRect,0.500000X0.500000X1.400000X-0.500000X1.400000X-0.500000X-1.400000X0.500000X-1.400000X0*%
%ADD37C,2.484000*%
%ADD38RoundRect,0.102000X-0.650000X-1.700000X0.650000X-1.700000X0.650000X1.700000X-0.650000X1.700000X0*%
G04 APERTURE END LIST*
D10*
X173872280Y-114314826D02*
X173872280Y-115342921D01*
X173872280Y-115342921D02*
X173932757Y-115463873D01*
X173932757Y-115463873D02*
X173993233Y-115524350D01*
X173993233Y-115524350D02*
X174114185Y-115584826D01*
X174114185Y-115584826D02*
X174356090Y-115584826D01*
X174356090Y-115584826D02*
X174477042Y-115524350D01*
X174477042Y-115524350D02*
X174537519Y-115463873D01*
X174537519Y-115463873D02*
X174597995Y-115342921D01*
X174597995Y-115342921D02*
X174597995Y-114314826D01*
X175747042Y-114738159D02*
X175747042Y-115584826D01*
X175444661Y-114254350D02*
X175142280Y-115161492D01*
X175142280Y-115161492D02*
X175928471Y-115161492D01*
X165234819Y-111081904D02*
X166044342Y-111081904D01*
X166044342Y-111081904D02*
X166139580Y-111034285D01*
X166139580Y-111034285D02*
X166187200Y-110986666D01*
X166187200Y-110986666D02*
X166234819Y-110891428D01*
X166234819Y-110891428D02*
X166234819Y-110700952D01*
X166234819Y-110700952D02*
X166187200Y-110605714D01*
X166187200Y-110605714D02*
X166139580Y-110558095D01*
X166139580Y-110558095D02*
X166044342Y-110510476D01*
X166044342Y-110510476D02*
X165234819Y-110510476D01*
X166234819Y-109510476D02*
X166234819Y-110081904D01*
X166234819Y-109796190D02*
X165234819Y-109796190D01*
X165234819Y-109796190D02*
X165377676Y-109891428D01*
X165377676Y-109891428D02*
X165472914Y-109986666D01*
X165472914Y-109986666D02*
X165520533Y-110081904D01*
X157049580Y-117576666D02*
X157097200Y-117624285D01*
X157097200Y-117624285D02*
X157144819Y-117767142D01*
X157144819Y-117767142D02*
X157144819Y-117862380D01*
X157144819Y-117862380D02*
X157097200Y-118005237D01*
X157097200Y-118005237D02*
X157001961Y-118100475D01*
X157001961Y-118100475D02*
X156906723Y-118148094D01*
X156906723Y-118148094D02*
X156716247Y-118195713D01*
X156716247Y-118195713D02*
X156573390Y-118195713D01*
X156573390Y-118195713D02*
X156382914Y-118148094D01*
X156382914Y-118148094D02*
X156287676Y-118100475D01*
X156287676Y-118100475D02*
X156192438Y-118005237D01*
X156192438Y-118005237D02*
X156144819Y-117862380D01*
X156144819Y-117862380D02*
X156144819Y-117767142D01*
X156144819Y-117767142D02*
X156192438Y-117624285D01*
X156192438Y-117624285D02*
X156240057Y-117576666D01*
X156240057Y-117195713D02*
X156192438Y-117148094D01*
X156192438Y-117148094D02*
X156144819Y-117052856D01*
X156144819Y-117052856D02*
X156144819Y-116814761D01*
X156144819Y-116814761D02*
X156192438Y-116719523D01*
X156192438Y-116719523D02*
X156240057Y-116671904D01*
X156240057Y-116671904D02*
X156335295Y-116624285D01*
X156335295Y-116624285D02*
X156430533Y-116624285D01*
X156430533Y-116624285D02*
X156573390Y-116671904D01*
X156573390Y-116671904D02*
X157144819Y-117243332D01*
X157144819Y-117243332D02*
X157144819Y-116624285D01*
X169513333Y-114929580D02*
X169465714Y-114977200D01*
X169465714Y-114977200D02*
X169322857Y-115024819D01*
X169322857Y-115024819D02*
X169227619Y-115024819D01*
X169227619Y-115024819D02*
X169084762Y-114977200D01*
X169084762Y-114977200D02*
X168989524Y-114881961D01*
X168989524Y-114881961D02*
X168941905Y-114786723D01*
X168941905Y-114786723D02*
X168894286Y-114596247D01*
X168894286Y-114596247D02*
X168894286Y-114453390D01*
X168894286Y-114453390D02*
X168941905Y-114262914D01*
X168941905Y-114262914D02*
X168989524Y-114167676D01*
X168989524Y-114167676D02*
X169084762Y-114072438D01*
X169084762Y-114072438D02*
X169227619Y-114024819D01*
X169227619Y-114024819D02*
X169322857Y-114024819D01*
X169322857Y-114024819D02*
X169465714Y-114072438D01*
X169465714Y-114072438D02*
X169513333Y-114120057D01*
X170370476Y-114024819D02*
X170180000Y-114024819D01*
X170180000Y-114024819D02*
X170084762Y-114072438D01*
X170084762Y-114072438D02*
X170037143Y-114120057D01*
X170037143Y-114120057D02*
X169941905Y-114262914D01*
X169941905Y-114262914D02*
X169894286Y-114453390D01*
X169894286Y-114453390D02*
X169894286Y-114834342D01*
X169894286Y-114834342D02*
X169941905Y-114929580D01*
X169941905Y-114929580D02*
X169989524Y-114977200D01*
X169989524Y-114977200D02*
X170084762Y-115024819D01*
X170084762Y-115024819D02*
X170275238Y-115024819D01*
X170275238Y-115024819D02*
X170370476Y-114977200D01*
X170370476Y-114977200D02*
X170418095Y-114929580D01*
X170418095Y-114929580D02*
X170465714Y-114834342D01*
X170465714Y-114834342D02*
X170465714Y-114596247D01*
X170465714Y-114596247D02*
X170418095Y-114501009D01*
X170418095Y-114501009D02*
X170370476Y-114453390D01*
X170370476Y-114453390D02*
X170275238Y-114405771D01*
X170275238Y-114405771D02*
X170084762Y-114405771D01*
X170084762Y-114405771D02*
X169989524Y-114453390D01*
X169989524Y-114453390D02*
X169941905Y-114501009D01*
X169941905Y-114501009D02*
X169894286Y-114596247D01*
X157534819Y-93856666D02*
X157058628Y-94189999D01*
X157534819Y-94428094D02*
X156534819Y-94428094D01*
X156534819Y-94428094D02*
X156534819Y-94047142D01*
X156534819Y-94047142D02*
X156582438Y-93951904D01*
X156582438Y-93951904D02*
X156630057Y-93904285D01*
X156630057Y-93904285D02*
X156725295Y-93856666D01*
X156725295Y-93856666D02*
X156868152Y-93856666D01*
X156868152Y-93856666D02*
X156963390Y-93904285D01*
X156963390Y-93904285D02*
X157011009Y-93951904D01*
X157011009Y-93951904D02*
X157058628Y-94047142D01*
X157058628Y-94047142D02*
X157058628Y-94428094D01*
X157534819Y-92904285D02*
X157534819Y-93475713D01*
X157534819Y-93189999D02*
X156534819Y-93189999D01*
X156534819Y-93189999D02*
X156677676Y-93285237D01*
X156677676Y-93285237D02*
X156772914Y-93380475D01*
X156772914Y-93380475D02*
X156820533Y-93475713D01*
X162269580Y-113646666D02*
X162317200Y-113694285D01*
X162317200Y-113694285D02*
X162364819Y-113837142D01*
X162364819Y-113837142D02*
X162364819Y-113932380D01*
X162364819Y-113932380D02*
X162317200Y-114075237D01*
X162317200Y-114075237D02*
X162221961Y-114170475D01*
X162221961Y-114170475D02*
X162126723Y-114218094D01*
X162126723Y-114218094D02*
X161936247Y-114265713D01*
X161936247Y-114265713D02*
X161793390Y-114265713D01*
X161793390Y-114265713D02*
X161602914Y-114218094D01*
X161602914Y-114218094D02*
X161507676Y-114170475D01*
X161507676Y-114170475D02*
X161412438Y-114075237D01*
X161412438Y-114075237D02*
X161364819Y-113932380D01*
X161364819Y-113932380D02*
X161364819Y-113837142D01*
X161364819Y-113837142D02*
X161412438Y-113694285D01*
X161412438Y-113694285D02*
X161460057Y-113646666D01*
X161698152Y-112789523D02*
X162364819Y-112789523D01*
X161317200Y-113027618D02*
X162031485Y-113265713D01*
X162031485Y-113265713D02*
X162031485Y-112646666D01*
X166349580Y-103916666D02*
X166397200Y-103964285D01*
X166397200Y-103964285D02*
X166444819Y-104107142D01*
X166444819Y-104107142D02*
X166444819Y-104202380D01*
X166444819Y-104202380D02*
X166397200Y-104345237D01*
X166397200Y-104345237D02*
X166301961Y-104440475D01*
X166301961Y-104440475D02*
X166206723Y-104488094D01*
X166206723Y-104488094D02*
X166016247Y-104535713D01*
X166016247Y-104535713D02*
X165873390Y-104535713D01*
X165873390Y-104535713D02*
X165682914Y-104488094D01*
X165682914Y-104488094D02*
X165587676Y-104440475D01*
X165587676Y-104440475D02*
X165492438Y-104345237D01*
X165492438Y-104345237D02*
X165444819Y-104202380D01*
X165444819Y-104202380D02*
X165444819Y-104107142D01*
X165444819Y-104107142D02*
X165492438Y-103964285D01*
X165492438Y-103964285D02*
X165540057Y-103916666D01*
X166444819Y-102964285D02*
X166444819Y-103535713D01*
X166444819Y-103249999D02*
X165444819Y-103249999D01*
X165444819Y-103249999D02*
X165587676Y-103345237D01*
X165587676Y-103345237D02*
X165682914Y-103440475D01*
X165682914Y-103440475D02*
X165730533Y-103535713D01*
X160489580Y-103626666D02*
X160537200Y-103674285D01*
X160537200Y-103674285D02*
X160584819Y-103817142D01*
X160584819Y-103817142D02*
X160584819Y-103912380D01*
X160584819Y-103912380D02*
X160537200Y-104055237D01*
X160537200Y-104055237D02*
X160441961Y-104150475D01*
X160441961Y-104150475D02*
X160346723Y-104198094D01*
X160346723Y-104198094D02*
X160156247Y-104245713D01*
X160156247Y-104245713D02*
X160013390Y-104245713D01*
X160013390Y-104245713D02*
X159822914Y-104198094D01*
X159822914Y-104198094D02*
X159727676Y-104150475D01*
X159727676Y-104150475D02*
X159632438Y-104055237D01*
X159632438Y-104055237D02*
X159584819Y-103912380D01*
X159584819Y-103912380D02*
X159584819Y-103817142D01*
X159584819Y-103817142D02*
X159632438Y-103674285D01*
X159632438Y-103674285D02*
X159680057Y-103626666D01*
X159584819Y-103293332D02*
X159584819Y-102626666D01*
X159584819Y-102626666D02*
X160584819Y-103055237D01*
X160723333Y-107399580D02*
X160675714Y-107447200D01*
X160675714Y-107447200D02*
X160532857Y-107494819D01*
X160532857Y-107494819D02*
X160437619Y-107494819D01*
X160437619Y-107494819D02*
X160294762Y-107447200D01*
X160294762Y-107447200D02*
X160199524Y-107351961D01*
X160199524Y-107351961D02*
X160151905Y-107256723D01*
X160151905Y-107256723D02*
X160104286Y-107066247D01*
X160104286Y-107066247D02*
X160104286Y-106923390D01*
X160104286Y-106923390D02*
X160151905Y-106732914D01*
X160151905Y-106732914D02*
X160199524Y-106637676D01*
X160199524Y-106637676D02*
X160294762Y-106542438D01*
X160294762Y-106542438D02*
X160437619Y-106494819D01*
X160437619Y-106494819D02*
X160532857Y-106494819D01*
X160532857Y-106494819D02*
X160675714Y-106542438D01*
X160675714Y-106542438D02*
X160723333Y-106590057D01*
X161056667Y-106494819D02*
X161675714Y-106494819D01*
X161675714Y-106494819D02*
X161342381Y-106875771D01*
X161342381Y-106875771D02*
X161485238Y-106875771D01*
X161485238Y-106875771D02*
X161580476Y-106923390D01*
X161580476Y-106923390D02*
X161628095Y-106971009D01*
X161628095Y-106971009D02*
X161675714Y-107066247D01*
X161675714Y-107066247D02*
X161675714Y-107304342D01*
X161675714Y-107304342D02*
X161628095Y-107399580D01*
X161628095Y-107399580D02*
X161580476Y-107447200D01*
X161580476Y-107447200D02*
X161485238Y-107494819D01*
X161485238Y-107494819D02*
X161199524Y-107494819D01*
X161199524Y-107494819D02*
X161104286Y-107447200D01*
X161104286Y-107447200D02*
X161056667Y-107399580D01*
X157494819Y-97911904D02*
X158304342Y-97911904D01*
X158304342Y-97911904D02*
X158399580Y-97864285D01*
X158399580Y-97864285D02*
X158447200Y-97816666D01*
X158447200Y-97816666D02*
X158494819Y-97721428D01*
X158494819Y-97721428D02*
X158494819Y-97530952D01*
X158494819Y-97530952D02*
X158447200Y-97435714D01*
X158447200Y-97435714D02*
X158399580Y-97388095D01*
X158399580Y-97388095D02*
X158304342Y-97340476D01*
X158304342Y-97340476D02*
X157494819Y-97340476D01*
X157494819Y-96959523D02*
X157494819Y-96340476D01*
X157494819Y-96340476D02*
X157875771Y-96673809D01*
X157875771Y-96673809D02*
X157875771Y-96530952D01*
X157875771Y-96530952D02*
X157923390Y-96435714D01*
X157923390Y-96435714D02*
X157971009Y-96388095D01*
X157971009Y-96388095D02*
X158066247Y-96340476D01*
X158066247Y-96340476D02*
X158304342Y-96340476D01*
X158304342Y-96340476D02*
X158399580Y-96388095D01*
X158399580Y-96388095D02*
X158447200Y-96435714D01*
X158447200Y-96435714D02*
X158494819Y-96530952D01*
X158494819Y-96530952D02*
X158494819Y-96816666D01*
X158494819Y-96816666D02*
X158447200Y-96911904D01*
X158447200Y-96911904D02*
X158399580Y-96959523D01*
X163574819Y-120089404D02*
X164384342Y-120089404D01*
X164384342Y-120089404D02*
X164479580Y-120041785D01*
X164479580Y-120041785D02*
X164527200Y-119994166D01*
X164527200Y-119994166D02*
X164574819Y-119898928D01*
X164574819Y-119898928D02*
X164574819Y-119708452D01*
X164574819Y-119708452D02*
X164527200Y-119613214D01*
X164527200Y-119613214D02*
X164479580Y-119565595D01*
X164479580Y-119565595D02*
X164384342Y-119517976D01*
X164384342Y-119517976D02*
X163574819Y-119517976D01*
X163574819Y-118565595D02*
X163574819Y-119041785D01*
X163574819Y-119041785D02*
X164051009Y-119089404D01*
X164051009Y-119089404D02*
X164003390Y-119041785D01*
X164003390Y-119041785D02*
X163955771Y-118946547D01*
X163955771Y-118946547D02*
X163955771Y-118708452D01*
X163955771Y-118708452D02*
X164003390Y-118613214D01*
X164003390Y-118613214D02*
X164051009Y-118565595D01*
X164051009Y-118565595D02*
X164146247Y-118517976D01*
X164146247Y-118517976D02*
X164384342Y-118517976D01*
X164384342Y-118517976D02*
X164479580Y-118565595D01*
X164479580Y-118565595D02*
X164527200Y-118613214D01*
X164527200Y-118613214D02*
X164574819Y-118708452D01*
X164574819Y-118708452D02*
X164574819Y-118946547D01*
X164574819Y-118946547D02*
X164527200Y-119041785D01*
X164527200Y-119041785D02*
X164479580Y-119089404D01*
X144073519Y-90760314D02*
X144216376Y-90807933D01*
X144216376Y-90807933D02*
X144263995Y-90855552D01*
X144263995Y-90855552D02*
X144311614Y-90950790D01*
X144311614Y-90950790D02*
X144311614Y-91093647D01*
X144311614Y-91093647D02*
X144263995Y-91188885D01*
X144263995Y-91188885D02*
X144216376Y-91236505D01*
X144216376Y-91236505D02*
X144121138Y-91284124D01*
X144121138Y-91284124D02*
X143740186Y-91284124D01*
X143740186Y-91284124D02*
X143740186Y-90284124D01*
X143740186Y-90284124D02*
X144073519Y-90284124D01*
X144073519Y-90284124D02*
X144168757Y-90331743D01*
X144168757Y-90331743D02*
X144216376Y-90379362D01*
X144216376Y-90379362D02*
X144263995Y-90474600D01*
X144263995Y-90474600D02*
X144263995Y-90569838D01*
X144263995Y-90569838D02*
X144216376Y-90665076D01*
X144216376Y-90665076D02*
X144168757Y-90712695D01*
X144168757Y-90712695D02*
X144073519Y-90760314D01*
X144073519Y-90760314D02*
X143740186Y-90760314D01*
X144597329Y-90284124D02*
X145168757Y-90284124D01*
X144883043Y-91284124D02*
X144883043Y-90284124D01*
X146025900Y-91284124D02*
X145454472Y-91284124D01*
X145740186Y-91284124D02*
X145740186Y-90284124D01*
X145740186Y-90284124D02*
X145644948Y-90426981D01*
X145644948Y-90426981D02*
X145549710Y-90522219D01*
X145549710Y-90522219D02*
X145454472Y-90569838D01*
X184786547Y-113486009D02*
X184929404Y-113533628D01*
X184929404Y-113533628D02*
X184977023Y-113581247D01*
X184977023Y-113581247D02*
X185024642Y-113676485D01*
X185024642Y-113676485D02*
X185024642Y-113819342D01*
X185024642Y-113819342D02*
X184977023Y-113914580D01*
X184977023Y-113914580D02*
X184929404Y-113962200D01*
X184929404Y-113962200D02*
X184834166Y-114009819D01*
X184834166Y-114009819D02*
X184453214Y-114009819D01*
X184453214Y-114009819D02*
X184453214Y-113009819D01*
X184453214Y-113009819D02*
X184786547Y-113009819D01*
X184786547Y-113009819D02*
X184881785Y-113057438D01*
X184881785Y-113057438D02*
X184929404Y-113105057D01*
X184929404Y-113105057D02*
X184977023Y-113200295D01*
X184977023Y-113200295D02*
X184977023Y-113295533D01*
X184977023Y-113295533D02*
X184929404Y-113390771D01*
X184929404Y-113390771D02*
X184881785Y-113438390D01*
X184881785Y-113438390D02*
X184786547Y-113486009D01*
X184786547Y-113486009D02*
X184453214Y-113486009D01*
X185357976Y-113009819D02*
X186024642Y-113009819D01*
X186024642Y-113009819D02*
X185357976Y-114009819D01*
X185357976Y-114009819D02*
X186024642Y-114009819D01*
X186929404Y-114009819D02*
X186357976Y-114009819D01*
X186643690Y-114009819D02*
X186643690Y-113009819D01*
X186643690Y-113009819D02*
X186548452Y-113152676D01*
X186548452Y-113152676D02*
X186453214Y-113247914D01*
X186453214Y-113247914D02*
X186357976Y-113295533D01*
D11*
%TO.C,U4*%
X170339900Y-120181600D02*
X170339900Y-118168700D01*
X170339900Y-123890200D02*
X170339900Y-122198700D01*
X179339900Y-120181600D02*
X179339900Y-118168700D01*
X179339900Y-123890200D02*
X170339900Y-123890200D01*
X179339900Y-123890200D02*
X179339900Y-122198700D01*
D12*
%TO.C,U1*%
X167080000Y-92895000D02*
X166580000Y-92895000D01*
X167080000Y-92395000D01*
X167080000Y-92895000D01*
G36*
X167080000Y-92895000D02*
G01*
X166580000Y-92895000D01*
X167080000Y-92395000D01*
X167080000Y-92895000D01*
G37*
X185480000Y-111870000D02*
X185480000Y-110870000D01*
X185480000Y-111870000D02*
X183980000Y-111870000D01*
X185480000Y-86020000D02*
X185480000Y-92220000D01*
X167080000Y-111870000D02*
X168580000Y-111870000D01*
X167080000Y-110870000D02*
X167080000Y-111870000D01*
X167080000Y-86020000D02*
X185480000Y-86020000D01*
X167080000Y-86020000D02*
X167080000Y-92220000D01*
%TO.C,C2*%
X159105000Y-117671252D02*
X159105000Y-117148748D01*
X157635000Y-117671252D02*
X157635000Y-117148748D01*
%TO.C,C6*%
X167071252Y-115325000D02*
X166548748Y-115325000D01*
X167071252Y-113855000D02*
X166548748Y-113855000D01*
%TO.C,R1*%
X158630000Y-93843641D02*
X158630000Y-93536359D01*
X157870000Y-93843641D02*
X157870000Y-93536359D01*
%TO.C,C4*%
X163920000Y-113329420D02*
X163920000Y-113610580D01*
X162900000Y-113329420D02*
X162900000Y-113610580D01*
%TO.C,C1*%
X165025000Y-103278748D02*
X165025000Y-103801252D01*
X163555000Y-103278748D02*
X163555000Y-103801252D01*
%TO.C,C7*%
X162345000Y-103298748D02*
X162345000Y-103821252D01*
X160875000Y-103298748D02*
X160875000Y-103821252D01*
D13*
%TO.C,U2*%
X165152500Y-108190000D02*
X164792500Y-108190000D01*
X164792500Y-107830000D01*
X165152500Y-108190000D01*
G36*
X165152500Y-108190000D02*
G01*
X164792500Y-108190000D01*
X164792500Y-107830000D01*
X165152500Y-108190000D01*
G37*
X164792500Y-111390000D02*
X164572500Y-111390000D01*
X164792500Y-110670000D02*
X164792500Y-111390000D01*
X164792500Y-108390000D02*
X164792500Y-108910000D01*
X162312500Y-111390000D02*
X162092500Y-111390000D01*
X162092500Y-111390000D02*
X162092500Y-110670000D01*
X162092500Y-108190000D02*
X162312500Y-108190000D01*
X162092500Y-108190000D02*
X162092500Y-108910000D01*
D12*
%TO.C,C3*%
X163359420Y-107500000D02*
X163640580Y-107500000D01*
X163359420Y-106480000D02*
X163640580Y-106480000D01*
%TO.C,U3*%
X159230000Y-100280000D02*
X158900000Y-100520000D01*
X158900000Y-100040000D01*
X159230000Y-100280000D01*
G36*
X159230000Y-100280000D02*
G01*
X158900000Y-100520000D01*
X158900000Y-100040000D01*
X159230000Y-100280000D01*
G37*
X165950000Y-99000000D02*
X165950000Y-95240000D01*
X165950000Y-95240000D02*
X164690000Y-95240000D01*
X159130000Y-99000000D02*
X159130000Y-95240000D01*
X159130000Y-95240000D02*
X160390000Y-95240000D01*
%TO.C,U5*%
X167490000Y-122930000D02*
X167010000Y-122930000D01*
X167250000Y-122600000D01*
X167490000Y-122930000D01*
G36*
X167490000Y-122930000D02*
G01*
X167010000Y-122930000D01*
X167250000Y-122600000D01*
X167490000Y-122930000D01*
G37*
X165970000Y-122700000D02*
X162210000Y-122700000D01*
X165970000Y-115880000D02*
X162210000Y-115880000D01*
X162210000Y-122700000D02*
X162210000Y-121440000D01*
X162210000Y-115880000D02*
X162210000Y-117140000D01*
D14*
%TO.C,BT1*%
X148669234Y-122515805D02*
G75*
G02*
X148034234Y-123150805I-635000J0D01*
G01*
X148669234Y-119979105D02*
G75*
G02*
X149048252Y-119486596I509500J0D01*
G01*
X142954234Y-123150805D02*
G75*
G02*
X142319234Y-122515805I-1J634999D01*
G01*
X141940214Y-119486605D02*
G75*
G02*
X149048254Y-119486605I3554020J13417285D01*
G01*
X141940214Y-119486605D02*
G75*
G02*
X142319234Y-119979105I-130464J-492497D01*
G01*
X148669234Y-119979105D02*
X148669234Y-122515805D01*
X142954234Y-123150805D02*
X148034234Y-123150805D01*
X142319234Y-119979105D02*
X142319234Y-122515805D01*
X141244234Y-120758505D02*
X141244234Y-121758505D01*
X140744234Y-121258505D02*
X141744234Y-121258505D01*
X130954234Y-100768505D02*
X131954234Y-100768505D01*
D15*
%TO.C,BZ1*%
X182392500Y-119190000D02*
G75*
G02*
X182192500Y-119190000I-100000J0D01*
G01*
X182192500Y-119190000D02*
G75*
G02*
X182392500Y-119190000I100000J0D01*
G01*
D14*
X192492500Y-123690000D02*
X183492500Y-123690000D01*
X192492500Y-121210000D02*
X192492500Y-123690000D01*
X192492500Y-114690000D02*
X192492500Y-117170000D01*
X183492500Y-123690000D02*
X183492500Y-121210000D01*
X183492500Y-117170000D02*
X183492500Y-114690000D01*
X183492500Y-114690000D02*
X192492500Y-114690000D01*
%TD*%
%LPC*%
D16*
%TO.C,U4*%
X171940000Y-117580000D03*
X177729900Y-117580000D03*
D17*
X170519800Y-117080100D03*
X179159900Y-117080100D03*
D18*
X179159900Y-121260200D03*
X170519800Y-121260200D03*
D19*
X171640000Y-116460100D03*
X172439800Y-116460100D03*
D20*
X173589900Y-116460100D03*
X174589900Y-116460100D03*
X175089800Y-116460100D03*
X176089800Y-116460100D03*
D19*
X178039800Y-116460100D03*
X177239900Y-116460100D03*
D20*
X176589900Y-116460100D03*
X175589900Y-116460100D03*
X174089800Y-116460100D03*
X173089800Y-116460100D03*
%TD*%
D21*
%TO.C,U1*%
X176180000Y-102080000D03*
X176180000Y-100680000D03*
X175480000Y-102780000D03*
X175480000Y-101380000D03*
X175480000Y-99980000D03*
X174780000Y-102080000D03*
D22*
X174780000Y-101380000D03*
D21*
X174780000Y-100680000D03*
X174080000Y-102780000D03*
X174080000Y-101380000D03*
X174080000Y-99980000D03*
X173380000Y-102080000D03*
X173380000Y-100680000D03*
D23*
X185030000Y-93660000D03*
X185030000Y-94930000D03*
X185030000Y-96200000D03*
X185030000Y-97470000D03*
X185030000Y-98740000D03*
X185030000Y-100010000D03*
X185030000Y-101280000D03*
X185030000Y-102550000D03*
X185030000Y-103820000D03*
X185030000Y-105090000D03*
X185030000Y-106360000D03*
X185030000Y-107630000D03*
X185030000Y-108900000D03*
X185030000Y-110170000D03*
D24*
X183265000Y-111420000D03*
X181995000Y-111420000D03*
X180725000Y-111420000D03*
X179455000Y-111420000D03*
X178185000Y-111420000D03*
X176915000Y-111420000D03*
X175645000Y-111420000D03*
X174375000Y-111420000D03*
X173105000Y-111420000D03*
X171835000Y-111420000D03*
X170565000Y-111420000D03*
X169295000Y-111420000D03*
D23*
X167530000Y-110170000D03*
X167530000Y-108900000D03*
X167530000Y-107630000D03*
X167530000Y-106360000D03*
X167530000Y-105090000D03*
X167530000Y-103820000D03*
X167530000Y-102550000D03*
X167530000Y-101280000D03*
X167530000Y-100010000D03*
X167530000Y-98740000D03*
X167530000Y-97470000D03*
X167530000Y-96200000D03*
X167530000Y-94930000D03*
X167530000Y-93660000D03*
%TD*%
D25*
%TO.C,C2*%
X158370000Y-116460000D03*
X158370000Y-118360000D03*
%TD*%
D26*
%TO.C,C6*%
X165860000Y-114590000D03*
X167760000Y-114590000D03*
%TD*%
D27*
%TO.C,R1*%
X158250000Y-93180000D03*
X158250000Y-94200000D03*
%TD*%
D28*
%TO.C,C4*%
X163410000Y-114245000D03*
X163410000Y-112695000D03*
%TD*%
D29*
%TO.C,C1*%
X164290000Y-104490000D03*
X164290000Y-102590000D03*
%TD*%
%TO.C,C7*%
X161610000Y-104510000D03*
X161610000Y-102610000D03*
%TD*%
D30*
%TO.C,U2*%
X164455000Y-109290000D03*
X164455000Y-109790000D03*
X164455000Y-110290000D03*
D31*
X164192500Y-111052500D03*
X163692500Y-111052500D03*
X163192500Y-111052500D03*
X162692500Y-111052500D03*
D30*
X162430000Y-110290000D03*
X162430000Y-109790000D03*
X162430000Y-109290000D03*
D31*
X162692500Y-108527500D03*
X163192500Y-108527500D03*
X163692500Y-108527500D03*
X164192500Y-108527500D03*
%TD*%
D32*
%TO.C,C3*%
X164275000Y-106990000D03*
X162725000Y-106990000D03*
%TD*%
D33*
%TO.C,U3*%
X164840000Y-100300000D03*
D34*
X162540000Y-94000000D03*
D33*
X162540000Y-100300000D03*
X160240000Y-100300000D03*
%TD*%
D35*
%TO.C,U5*%
X167270000Y-116990000D03*
D36*
X160970000Y-119290000D03*
D35*
X167270000Y-119290000D03*
X167270000Y-121590000D03*
%TD*%
D37*
%TO.C,BT1*%
X145494234Y-100768505D03*
X145494234Y-121258505D03*
%TD*%
D38*
%TO.C,BZ1*%
X192342500Y-119190000D03*
X183642500Y-119190000D03*
%TD*%
%LPD*%
M02*
