%TF.GenerationSoftware,KiCad,Pcbnew,8.0.8-8.0.8-0~ubuntu24.04.1*%
%TF.CreationDate,2025-08-03T21:14:49-04:00*%
%TF.ProjectId,electronics,656c6563-7472-46f6-9e69-63732e6b6963,rev?*%
%TF.SameCoordinates,Original*%
%TF.FileFunction,Soldermask,Top*%
%TF.FilePolarity,Negative*%
%FSLAX46Y46*%
G04 Gerber Fmt 4.6, Leading zero omitted, Abs format (unit mm)*
G04 Created by KiCad (PCBNEW 8.0.8-8.0.8-0~ubuntu24.04.1) date 2025-08-03 21:14:49*
%MOMM*%
%LPD*%
G01*
G04 APERTURE LIST*
G04 Aperture macros list*
%AMRoundRect*
0 Rectangle with rounded corners*
0 $1 Rounding radius*
0 $2 $3 $4 $5 $6 $7 $8 $9 X,Y pos of 4 corners*
0 Add a 4 corners polygon primitive as box body*
4,1,4,$2,$3,$4,$5,$6,$7,$8,$9,$2,$3,0*
0 Add four circle primitives for the rounded corners*
1,1,$1+$1,$2,$3*
1,1,$1+$1,$4,$5*
1,1,$1+$1,$6,$7*
1,1,$1+$1,$8,$9*
0 Add four rect primitives between the rounded corners*
20,1,$1+$1,$2,$3,$4,$5,0*
20,1,$1+$1,$4,$5,$6,$7,0*
20,1,$1+$1,$6,$7,$8,$9,0*
20,1,$1+$1,$8,$9,$2,$3,0*%
G04 Aperture macros list end*
%ADD10C,0.650000*%
%ADD11O,1.100000X2.200000*%
%ADD12O,1.100000X1.900000*%
%ADD13RoundRect,0.050000X-0.300000X-0.620000X0.300000X-0.620000X0.300000X0.620000X-0.300000X0.620000X0*%
%ADD14RoundRect,0.050000X-0.150000X-0.620000X0.150000X-0.620000X0.150000X0.620000X-0.150000X0.620000X0*%
%ADD15C,0.600000*%
%ADD16R,3.900000X3.900000*%
%ADD17R,1.500000X0.900000*%
%ADD18R,0.900000X1.500000*%
%ADD19RoundRect,0.250000X0.475000X-0.250000X0.475000X0.250000X-0.475000X0.250000X-0.475000X-0.250000X0*%
%ADD20RoundRect,0.250000X0.250000X0.475000X-0.250000X0.475000X-0.250000X-0.475000X0.250000X-0.475000X0*%
%ADD21RoundRect,0.135000X0.185000X-0.135000X0.185000X0.135000X-0.185000X0.135000X-0.185000X-0.135000X0*%
%ADD22RoundRect,0.225000X-0.250000X0.225000X-0.250000X-0.225000X0.250000X-0.225000X0.250000X0.225000X0*%
%ADD23RoundRect,0.250000X-0.475000X0.250000X-0.475000X-0.250000X0.475000X-0.250000X0.475000X0.250000X0*%
%ADD24R,0.675000X0.250000*%
%ADD25R,0.250000X0.675000*%
%ADD26RoundRect,0.225000X-0.225000X-0.250000X0.225000X-0.250000X0.225000X0.250000X-0.225000X0.250000X0*%
%ADD27RoundRect,0.375000X0.375000X-0.625000X0.375000X0.625000X-0.375000X0.625000X-0.375000X-0.625000X0*%
%ADD28RoundRect,0.500000X1.400000X-0.500000X1.400000X0.500000X-1.400000X0.500000X-1.400000X-0.500000X0*%
%ADD29RoundRect,0.375000X0.625000X0.375000X-0.625000X0.375000X-0.625000X-0.375000X0.625000X-0.375000X0*%
%ADD30RoundRect,0.500000X0.500000X1.400000X-0.500000X1.400000X-0.500000X-1.400000X0.500000X-1.400000X0*%
%ADD31C,2.484000*%
%ADD32RoundRect,0.102000X-0.650000X-1.700000X0.650000X-1.700000X0.650000X1.700000X-0.650000X1.700000X0*%
G04 APERTURE END LIST*
D10*
%TO.C,U4*%
X171940000Y-117580000D03*
X177729900Y-117580000D03*
D11*
X170519800Y-117080100D03*
X179159900Y-117080100D03*
D12*
X179159900Y-121260200D03*
X170519800Y-121260200D03*
D13*
X171640000Y-116460100D03*
X172439800Y-116460100D03*
D14*
X173589900Y-116460100D03*
X174589900Y-116460100D03*
X175089800Y-116460100D03*
X176089800Y-116460100D03*
D13*
X178039800Y-116460100D03*
X177239900Y-116460100D03*
D14*
X176589900Y-116460100D03*
X175589900Y-116460100D03*
X174089800Y-116460100D03*
X173089800Y-116460100D03*
%TD*%
D15*
%TO.C,U1*%
X176180000Y-102080000D03*
X176180000Y-100680000D03*
X175480000Y-102780000D03*
X175480000Y-101380000D03*
X175480000Y-99980000D03*
X174780000Y-102080000D03*
D16*
X174780000Y-101380000D03*
D15*
X174780000Y-100680000D03*
X174080000Y-102780000D03*
X174080000Y-101380000D03*
X174080000Y-99980000D03*
X173380000Y-102080000D03*
X173380000Y-100680000D03*
D17*
X185030000Y-93660000D03*
X185030000Y-94930000D03*
X185030000Y-96200000D03*
X185030000Y-97470000D03*
X185030000Y-98740000D03*
X185030000Y-100010000D03*
X185030000Y-101280000D03*
X185030000Y-102550000D03*
X185030000Y-103820000D03*
X185030000Y-105090000D03*
X185030000Y-106360000D03*
X185030000Y-107630000D03*
X185030000Y-108900000D03*
X185030000Y-110170000D03*
D18*
X183265000Y-111420000D03*
X181995000Y-111420000D03*
X180725000Y-111420000D03*
X179455000Y-111420000D03*
X178185000Y-111420000D03*
X176915000Y-111420000D03*
X175645000Y-111420000D03*
X174375000Y-111420000D03*
X173105000Y-111420000D03*
X171835000Y-111420000D03*
X170565000Y-111420000D03*
X169295000Y-111420000D03*
D17*
X167530000Y-110170000D03*
X167530000Y-108900000D03*
X167530000Y-107630000D03*
X167530000Y-106360000D03*
X167530000Y-105090000D03*
X167530000Y-103820000D03*
X167530000Y-102550000D03*
X167530000Y-101280000D03*
X167530000Y-100010000D03*
X167530000Y-98740000D03*
X167530000Y-97470000D03*
X167530000Y-96200000D03*
X167530000Y-94930000D03*
X167530000Y-93660000D03*
%TD*%
D19*
%TO.C,C2*%
X158370000Y-116460000D03*
X158370000Y-118360000D03*
%TD*%
D20*
%TO.C,C6*%
X165860000Y-114590000D03*
X167760000Y-114590000D03*
%TD*%
D21*
%TO.C,R1*%
X158250000Y-93180000D03*
X158250000Y-94200000D03*
%TD*%
D22*
%TO.C,C4*%
X163410000Y-114245000D03*
X163410000Y-112695000D03*
%TD*%
D23*
%TO.C,C1*%
X164290000Y-104490000D03*
X164290000Y-102590000D03*
%TD*%
%TO.C,C7*%
X161610000Y-104510000D03*
X161610000Y-102610000D03*
%TD*%
D24*
%TO.C,U2*%
X164455000Y-109290000D03*
X164455000Y-109790000D03*
X164455000Y-110290000D03*
D25*
X164192500Y-111052500D03*
X163692500Y-111052500D03*
X163192500Y-111052500D03*
X162692500Y-111052500D03*
D24*
X162430000Y-110290000D03*
X162430000Y-109790000D03*
X162430000Y-109290000D03*
D25*
X162692500Y-108527500D03*
X163192500Y-108527500D03*
X163692500Y-108527500D03*
X164192500Y-108527500D03*
%TD*%
D26*
%TO.C,C3*%
X164275000Y-106990000D03*
X162725000Y-106990000D03*
%TD*%
D27*
%TO.C,U3*%
X164840000Y-100300000D03*
D28*
X162540000Y-94000000D03*
D27*
X162540000Y-100300000D03*
X160240000Y-100300000D03*
%TD*%
D29*
%TO.C,U5*%
X167270000Y-116990000D03*
D30*
X160970000Y-119290000D03*
D29*
X167270000Y-119290000D03*
X167270000Y-121590000D03*
%TD*%
D31*
%TO.C,BT1*%
X145494234Y-100768505D03*
X145494234Y-121258505D03*
%TD*%
D32*
%TO.C,BZ1*%
X192342500Y-119190000D03*
X183642500Y-119190000D03*
%TD*%
M02*
