%TF.GenerationSoftware,KiCad,Pcbnew,8.0.8-8.0.8-0~ubuntu24.04.1*%
%TF.CreationDate,2025-07-29T22:47:29-04:00*%
%TF.ProjectId,electronics,656c6563-7472-46f6-9e69-63732e6b6963,rev?*%
%TF.SameCoordinates,Original*%
%TF.FileFunction,Paste,Top*%
%TF.FilePolarity,Positive*%
%FSLAX46Y46*%
G04 Gerber Fmt 4.6, Leading zero omitted, Abs format (unit mm)*
G04 Created by KiCad (PCBNEW 8.0.8-8.0.8-0~ubuntu24.04.1) date 2025-07-29 22:47:29*
%MOMM*%
%LPD*%
G01*
G04 APERTURE LIST*
G04 Aperture macros list*
%AMRoundRect*
0 Rectangle with rounded corners*
0 $1 Rounding radius*
0 $2 $3 $4 $5 $6 $7 $8 $9 X,Y pos of 4 corners*
0 Add a 4 corners polygon primitive as box body*
4,1,4,$2,$3,$4,$5,$6,$7,$8,$9,$2,$3,0*
0 Add four circle primitives for the rounded corners*
1,1,$1+$1,$2,$3*
1,1,$1+$1,$4,$5*
1,1,$1+$1,$6,$7*
1,1,$1+$1,$8,$9*
0 Add four rect primitives between the rounded corners*
20,1,$1+$1,$2,$3,$4,$5,0*
20,1,$1+$1,$4,$5,$6,$7,0*
20,1,$1+$1,$6,$7,$8,$9,0*
20,1,$1+$1,$8,$9,$2,$3,0*%
G04 Aperture macros list end*
%ADD10R,0.675000X0.250000*%
%ADD11R,0.250000X0.675000*%
%ADD12RoundRect,0.225000X0.225000X0.250000X-0.225000X0.250000X-0.225000X-0.250000X0.225000X-0.250000X0*%
%ADD13RoundRect,0.135000X-0.135000X-0.185000X0.135000X-0.185000X0.135000X0.185000X-0.135000X0.185000X0*%
%ADD14RoundRect,0.150000X-0.150000X-0.425000X0.150000X-0.425000X0.150000X0.425000X-0.150000X0.425000X0*%
%ADD15RoundRect,0.075000X-0.075000X-0.500000X0.075000X-0.500000X0.075000X0.500000X-0.075000X0.500000X0*%
%ADD16RoundRect,0.250000X-0.840000X-0.750000X0.840000X-0.750000X0.840000X0.750000X-0.840000X0.750000X0*%
%ADD17R,0.900000X0.900000*%
%ADD18R,1.500000X0.900000*%
%ADD19R,0.900000X1.500000*%
%ADD20RoundRect,0.225000X-0.225000X-0.250000X0.225000X-0.250000X0.225000X0.250000X-0.225000X0.250000X0*%
G04 APERTURE END LIST*
D10*
%TO.C,U2*%
X131792500Y-90472500D03*
X131792500Y-89972500D03*
X131792500Y-89472500D03*
X131792500Y-88972500D03*
D11*
X131030000Y-88710000D03*
X130530000Y-88710000D03*
X130030000Y-88710000D03*
D10*
X129267500Y-88972500D03*
X129267500Y-89472500D03*
X129267500Y-89972500D03*
X129267500Y-90472500D03*
D11*
X130030000Y-90735000D03*
X130530000Y-90735000D03*
X131030000Y-90735000D03*
%TD*%
D12*
%TO.C,C4*%
X130650000Y-86730000D03*
X129100000Y-86730000D03*
%TD*%
D13*
%TO.C,R1*%
X131610000Y-82630000D03*
X132630000Y-82630000D03*
%TD*%
D14*
%TO.C,J1*%
X139770000Y-102020000D03*
X140570000Y-102020000D03*
D15*
X141720000Y-102020000D03*
X142720000Y-102020000D03*
X143220000Y-102020000D03*
X144220000Y-102020000D03*
D14*
X145370000Y-102020000D03*
X146170000Y-102020000D03*
X146170000Y-102020000D03*
X145370000Y-102020000D03*
D15*
X144720000Y-102020000D03*
X143720000Y-102020000D03*
X142220000Y-102020000D03*
X141220000Y-102020000D03*
D14*
X140570000Y-102020000D03*
X139770000Y-102020000D03*
D16*
X137860000Y-102595000D03*
X137860000Y-106525000D03*
X148080000Y-102595000D03*
X148080000Y-106525000D03*
%TD*%
D17*
%TO.C,U1*%
X140120000Y-85630000D03*
X140120000Y-87030000D03*
X140120000Y-88430000D03*
X141520000Y-85630000D03*
X141520000Y-87030000D03*
X141520000Y-88430000D03*
X142920000Y-85630000D03*
X142920000Y-87030000D03*
X142920000Y-88430000D03*
D18*
X134270000Y-79310000D03*
X134270000Y-80580000D03*
X134270000Y-81850000D03*
X134270000Y-83120000D03*
X134270000Y-84390000D03*
X134270000Y-85660000D03*
X134270000Y-86930000D03*
X134270000Y-88200000D03*
X134270000Y-89470000D03*
X134270000Y-90740000D03*
X134270000Y-92010000D03*
X134270000Y-93280000D03*
X134270000Y-94550000D03*
X134270000Y-95820000D03*
D19*
X136035000Y-97070000D03*
X137305000Y-97070000D03*
X138575000Y-97070000D03*
X139845000Y-97070000D03*
X141115000Y-97070000D03*
X142385000Y-97070000D03*
X143655000Y-97070000D03*
X144925000Y-97070000D03*
X146195000Y-97070000D03*
X147465000Y-97070000D03*
X148735000Y-97070000D03*
X150005000Y-97070000D03*
D18*
X151770000Y-95820000D03*
X151770000Y-94550000D03*
X151770000Y-93280000D03*
X151770000Y-92010000D03*
X151770000Y-90740000D03*
X151770000Y-89470000D03*
X151770000Y-88200000D03*
X151770000Y-86930000D03*
X151770000Y-85660000D03*
X151770000Y-84390000D03*
X151770000Y-83120000D03*
X151770000Y-81850000D03*
X151770000Y-80580000D03*
X151770000Y-79310000D03*
%TD*%
D20*
%TO.C,C3*%
X129100000Y-85220000D03*
X130650000Y-85220000D03*
%TD*%
M02*
