%TF.GenerationSoftware,KiCad,Pcbnew,8.0.8-8.0.8-0~ubuntu24.04.1*%
%TF.CreationDate,2025-07-29T22:47:25-04:00*%
%TF.ProjectId,electronics,656c6563-7472-46f6-9e69-63732e6b6963,rev?*%
%TF.SameCoordinates,Original*%
%TF.FileFunction,Copper,L1,Top*%
%TF.FilePolarity,Positive*%
%FSLAX46Y46*%
G04 Gerber Fmt 4.6, Leading zero omitted, Abs format (unit mm)*
G04 Created by KiCad (PCBNEW 8.0.8-8.0.8-0~ubuntu24.04.1) date 2025-07-29 22:47:25*
%MOMM*%
%LPD*%
G01*
G04 APERTURE LIST*
G04 Aperture macros list*
%AMRoundRect*
0 Rectangle with rounded corners*
0 $1 Rounding radius*
0 $2 $3 $4 $5 $6 $7 $8 $9 X,Y pos of 4 corners*
0 Add a 4 corners polygon primitive as box body*
4,1,4,$2,$3,$4,$5,$6,$7,$8,$9,$2,$3,0*
0 Add four circle primitives for the rounded corners*
1,1,$1+$1,$2,$3*
1,1,$1+$1,$4,$5*
1,1,$1+$1,$6,$7*
1,1,$1+$1,$8,$9*
0 Add four rect primitives between the rounded corners*
20,1,$1+$1,$2,$3,$4,$5,0*
20,1,$1+$1,$4,$5,$6,$7,0*
20,1,$1+$1,$6,$7,$8,$9,0*
20,1,$1+$1,$8,$9,$2,$3,0*%
G04 Aperture macros list end*
%TA.AperFunction,SMDPad,CuDef*%
%ADD10R,0.675000X0.250000*%
%TD*%
%TA.AperFunction,SMDPad,CuDef*%
%ADD11R,0.250000X0.675000*%
%TD*%
%TA.AperFunction,SMDPad,CuDef*%
%ADD12RoundRect,0.225000X0.225000X0.250000X-0.225000X0.250000X-0.225000X-0.250000X0.225000X-0.250000X0*%
%TD*%
%TA.AperFunction,SMDPad,CuDef*%
%ADD13RoundRect,0.135000X-0.135000X-0.185000X0.135000X-0.185000X0.135000X0.185000X-0.135000X0.185000X0*%
%TD*%
%TA.AperFunction,SMDPad,CuDef*%
%ADD14RoundRect,0.150000X-0.150000X-0.425000X0.150000X-0.425000X0.150000X0.425000X-0.150000X0.425000X0*%
%TD*%
%TA.AperFunction,SMDPad,CuDef*%
%ADD15RoundRect,0.075000X-0.075000X-0.500000X0.075000X-0.500000X0.075000X0.500000X-0.075000X0.500000X0*%
%TD*%
%TA.AperFunction,SMDPad,CuDef*%
%ADD16RoundRect,0.250000X-0.840000X-0.750000X0.840000X-0.750000X0.840000X0.750000X-0.840000X0.750000X0*%
%TD*%
%TA.AperFunction,SMDPad,CuDef*%
%ADD17R,1.500000X0.900000*%
%TD*%
%TA.AperFunction,SMDPad,CuDef*%
%ADD18R,0.900000X1.500000*%
%TD*%
%TA.AperFunction,HeatsinkPad*%
%ADD19C,0.600000*%
%TD*%
%TA.AperFunction,SMDPad,CuDef*%
%ADD20R,3.900000X3.900000*%
%TD*%
%TA.AperFunction,SMDPad,CuDef*%
%ADD21RoundRect,0.225000X-0.225000X-0.250000X0.225000X-0.250000X0.225000X0.250000X-0.225000X0.250000X0*%
%TD*%
%TA.AperFunction,ComponentPad*%
%ADD22RoundRect,0.250000X0.625000X-0.350000X0.625000X0.350000X-0.625000X0.350000X-0.625000X-0.350000X0*%
%TD*%
%TA.AperFunction,ComponentPad*%
%ADD23O,1.750000X1.200000*%
%TD*%
%TA.AperFunction,ViaPad*%
%ADD24C,0.600000*%
%TD*%
%TA.AperFunction,Conductor*%
%ADD25C,0.200000*%
%TD*%
G04 APERTURE END LIST*
D10*
%TO.P,U2,1,SDO*%
%TO.N,GND*%
X131792500Y-90472500D03*
%TO.P,U2,2,ASDx*%
%TO.N,unconnected-(U2-ASDx-Pad2)*%
X131792500Y-89972500D03*
%TO.P,U2,3,ASCx*%
%TO.N,unconnected-(U2-ASCx-Pad3)*%
X131792500Y-89472500D03*
%TO.P,U2,4,INT1*%
%TO.N,unconnected-(U2-INT1-Pad4)*%
X131792500Y-88972500D03*
D11*
%TO.P,U2,5,VDDI0*%
%TO.N,+3V3*%
X131030000Y-88710000D03*
%TO.P,U2,6,GNDI0*%
%TO.N,GND*%
X130530000Y-88710000D03*
%TO.P,U2,7,GND*%
X130030000Y-88710000D03*
D10*
%TO.P,U2,8,VDD*%
%TO.N,+3V3*%
X129267500Y-88972500D03*
%TO.P,U2,9,INT2*%
%TO.N,unconnected-(U2-INT2-Pad9)*%
X129267500Y-89472500D03*
%TO.P,U2,10,OCSB*%
%TO.N,unconnected-(U2-OCSB-Pad10)*%
X129267500Y-89972500D03*
%TO.P,U2,11,OSDO*%
%TO.N,unconnected-(U2-OSDO-Pad11)*%
X129267500Y-90472500D03*
D11*
%TO.P,U2,12,CSB*%
%TO.N,+3V3*%
X130030000Y-90735000D03*
%TO.P,U2,13,SCx*%
%TO.N,/SCL*%
X130530000Y-90735000D03*
%TO.P,U2,14,SDx*%
%TO.N,/SDA*%
X131030000Y-90735000D03*
%TD*%
D12*
%TO.P,C4,1*%
%TO.N,+3V3*%
X130650000Y-86730000D03*
%TO.P,C4,2*%
%TO.N,GND*%
X129100000Y-86730000D03*
%TD*%
D13*
%TO.P,R1,1*%
%TO.N,+3V3*%
X131610000Y-82630000D03*
%TO.P,R1,2*%
%TO.N,Net-(U1-EN)*%
X132630000Y-82630000D03*
%TD*%
D14*
%TO.P,J1,A1,GND*%
%TO.N,GND*%
X139770000Y-102020000D03*
%TO.P,J1,A4,VBUS*%
%TO.N,Net-(U5-VI)*%
X140570000Y-102020000D03*
D15*
%TO.P,J1,A5,CC1*%
%TO.N,unconnected-(J1-CC1-PadA5)*%
X141720000Y-102020000D03*
%TO.P,J1,A6,D+*%
%TO.N,/D+*%
X142720000Y-102020000D03*
%TO.P,J1,A7,D-*%
%TO.N,/D-*%
X143220000Y-102020000D03*
%TO.P,J1,A8*%
%TO.N,N/C*%
X144220000Y-102020000D03*
D14*
%TO.P,J1,A9,VBUS*%
%TO.N,Net-(U5-VI)*%
X145370000Y-102020000D03*
%TO.P,J1,A12,GND*%
%TO.N,GND*%
X146170000Y-102020000D03*
%TO.P,J1,B1,GND*%
X146170000Y-102020000D03*
%TO.P,J1,B4,VBUS*%
%TO.N,Net-(U5-VI)*%
X145370000Y-102020000D03*
D15*
%TO.P,J1,B5,CC2*%
%TO.N,unconnected-(J1-CC2-PadB5)*%
X144720000Y-102020000D03*
%TO.P,J1,B6,D+*%
%TO.N,/D+*%
X143720000Y-102020000D03*
%TO.P,J1,B7,D-*%
%TO.N,/D-*%
X142220000Y-102020000D03*
%TO.P,J1,B8*%
%TO.N,N/C*%
X141220000Y-102020000D03*
D14*
%TO.P,J1,B9,VBUS*%
%TO.N,Net-(U5-VI)*%
X140570000Y-102020000D03*
%TO.P,J1,B12,GND*%
%TO.N,GND*%
X139770000Y-102020000D03*
D16*
%TO.P,J1,S1,SHIELD*%
X137860000Y-102595000D03*
X137860000Y-106525000D03*
X148080000Y-102595000D03*
X148080000Y-106525000D03*
%TD*%
D17*
%TO.P,U1,1,GND*%
%TO.N,GND*%
X134270000Y-79310000D03*
%TO.P,U1,2,3V3*%
%TO.N,+3V3*%
X134270000Y-80580000D03*
%TO.P,U1,3,EN*%
%TO.N,Net-(U1-EN)*%
X134270000Y-81850000D03*
%TO.P,U1,4,IO4*%
%TO.N,unconnected-(U1-IO4-Pad4)*%
X134270000Y-83120000D03*
%TO.P,U1,5,IO5*%
%TO.N,unconnected-(U1-IO5-Pad5)*%
X134270000Y-84390000D03*
%TO.P,U1,6,IO6*%
%TO.N,unconnected-(U1-IO6-Pad6)*%
X134270000Y-85660000D03*
%TO.P,U1,7,IO7*%
%TO.N,unconnected-(U1-IO7-Pad7)*%
X134270000Y-86930000D03*
%TO.P,U1,8,IO15*%
%TO.N,unconnected-(U1-IO15-Pad8)*%
X134270000Y-88200000D03*
%TO.P,U1,9,IO16*%
%TO.N,unconnected-(U1-IO16-Pad9)*%
X134270000Y-89470000D03*
%TO.P,U1,10,IO17*%
%TO.N,unconnected-(U1-IO17-Pad10)*%
X134270000Y-90740000D03*
%TO.P,U1,11,IO18*%
%TO.N,unconnected-(U1-IO18-Pad11)*%
X134270000Y-92010000D03*
%TO.P,U1,12,IO8*%
%TO.N,unconnected-(U1-IO8-Pad12)*%
X134270000Y-93280000D03*
%TO.P,U1,13,IO19*%
%TO.N,/SDA*%
X134270000Y-94550000D03*
%TO.P,U1,14,IO20*%
%TO.N,/SCL*%
X134270000Y-95820000D03*
D18*
%TO.P,U1,15,IO3*%
%TO.N,unconnected-(U1-IO3-Pad15)*%
X136035000Y-97070000D03*
%TO.P,U1,16,IO46*%
%TO.N,unconnected-(U1-IO46-Pad16)*%
X137305000Y-97070000D03*
%TO.P,U1,17,IO9*%
%TO.N,unconnected-(U1-IO9-Pad17)*%
X138575000Y-97070000D03*
%TO.P,U1,18,IO10*%
%TO.N,/BZR*%
X139845000Y-97070000D03*
%TO.P,U1,19,IO11*%
%TO.N,/D-*%
X141115000Y-97070000D03*
%TO.P,U1,20,IO12*%
%TO.N,/D+*%
X142385000Y-97070000D03*
%TO.P,U1,21,IO13*%
%TO.N,unconnected-(U1-IO13-Pad21)*%
X143655000Y-97070000D03*
%TO.P,U1,22,IO14*%
%TO.N,unconnected-(U1-IO14-Pad22)*%
X144925000Y-97070000D03*
%TO.P,U1,23,IO21*%
%TO.N,unconnected-(U1-IO21-Pad23)*%
X146195000Y-97070000D03*
%TO.P,U1,24,IO47*%
%TO.N,unconnected-(U1-IO47-Pad24)*%
X147465000Y-97070000D03*
%TO.P,U1,25,IO48*%
%TO.N,unconnected-(U1-IO48-Pad25)*%
X148735000Y-97070000D03*
%TO.P,U1,26,IO45*%
%TO.N,unconnected-(U1-IO45-Pad26)*%
X150005000Y-97070000D03*
D17*
%TO.P,U1,27,IO0*%
%TO.N,unconnected-(U1-IO0-Pad27)*%
X151770000Y-95820000D03*
%TO.P,U1,28,IO35*%
%TO.N,unconnected-(U1-IO35-Pad28)*%
X151770000Y-94550000D03*
%TO.P,U1,29,IO36*%
%TO.N,unconnected-(U1-IO36-Pad29)*%
X151770000Y-93280000D03*
%TO.P,U1,30,IO37*%
%TO.N,unconnected-(U1-IO37-Pad30)*%
X151770000Y-92010000D03*
%TO.P,U1,31,IO38*%
%TO.N,unconnected-(U1-IO38-Pad31)*%
X151770000Y-90740000D03*
%TO.P,U1,32,IO39*%
%TO.N,unconnected-(U1-IO39-Pad32)*%
X151770000Y-89470000D03*
%TO.P,U1,33,IO40*%
%TO.N,unconnected-(U1-IO40-Pad33)*%
X151770000Y-88200000D03*
%TO.P,U1,34,IO41*%
%TO.N,unconnected-(U1-IO41-Pad34)*%
X151770000Y-86930000D03*
%TO.P,U1,35,IO42*%
%TO.N,unconnected-(U1-IO42-Pad35)*%
X151770000Y-85660000D03*
%TO.P,U1,36,RXD0*%
%TO.N,unconnected-(U1-RXD0-Pad36)*%
X151770000Y-84390000D03*
%TO.P,U1,37,TXD0*%
%TO.N,unconnected-(U1-TXD0-Pad37)*%
X151770000Y-83120000D03*
%TO.P,U1,38,IO2*%
%TO.N,unconnected-(U1-IO2-Pad38)*%
X151770000Y-81850000D03*
%TO.P,U1,39,IO1*%
%TO.N,unconnected-(U1-IO1-Pad39)*%
X151770000Y-80580000D03*
%TO.P,U1,40,GND*%
%TO.N,GND*%
X151770000Y-79310000D03*
D19*
%TO.P,U1,41,GND*%
X140120000Y-86330000D03*
X140120000Y-87730000D03*
X140820000Y-85630000D03*
X140820000Y-87030000D03*
X140820000Y-88430000D03*
X141520000Y-86330000D03*
D20*
X141520000Y-87030000D03*
D19*
X141520000Y-87730000D03*
X142220000Y-85630000D03*
X142220000Y-87030000D03*
X142220000Y-88430000D03*
X142920000Y-86330000D03*
X142920000Y-87730000D03*
%TD*%
D21*
%TO.P,C3,1*%
%TO.N,+3V3*%
X129100000Y-85220000D03*
%TO.P,C3,2*%
%TO.N,GND*%
X130650000Y-85220000D03*
%TD*%
D22*
%TO.P,BT1,1,+*%
%TO.N,Net-(BT1-+)*%
X156750000Y-94160000D03*
D23*
%TO.P,BT1,2,-*%
%TO.N,GND*%
X156750000Y-92160000D03*
%TD*%
D24*
%TO.N,GND*%
X130380000Y-83970000D03*
X129740000Y-87910000D03*
%TO.N,/BZR*%
X148910000Y-87130000D03*
%TO.N,+3V3*%
X132431063Y-80605069D03*
%TO.N,Net-(U5-VI)*%
X139550000Y-99990000D03*
%TD*%
D25*
%TO.N,GND*%
X156750000Y-92160000D02*
X154170000Y-94740000D01*
X154170000Y-94740000D02*
X154170000Y-100435000D01*
X154170000Y-100435000D02*
X148080000Y-106525000D01*
X148080000Y-102400000D02*
X148080000Y-102595000D01*
X130380000Y-83970000D02*
X130690000Y-84280000D01*
X130690000Y-84280000D02*
X130690000Y-85180000D01*
X130690000Y-85180000D02*
X130650000Y-85220000D01*
X129740000Y-87910000D02*
X129740000Y-87370000D01*
X129740000Y-87370000D02*
X129100000Y-86730000D01*
X129740000Y-87910000D02*
X130030000Y-88200000D01*
X130030000Y-88200000D02*
X130030000Y-88710000D01*
%TO.N,Net-(U5-VI)*%
X140570000Y-102020000D02*
X140570000Y-102500000D01*
X140570000Y-102500000D02*
X141840000Y-103770000D01*
X141840000Y-103770000D02*
X144230406Y-103770000D01*
X144230406Y-103770000D02*
X145370000Y-102630406D01*
X145370000Y-102630406D02*
X145370000Y-102020000D01*
%TO.N,/BZR*%
X148835000Y-87130000D02*
X148910000Y-87130000D01*
X139845000Y-96120000D02*
X148835000Y-87130000D01*
X139845000Y-97070000D02*
X139845000Y-96120000D01*
%TO.N,+3V3*%
X128310000Y-88015000D02*
X129267500Y-88972500D01*
X131030000Y-87110000D02*
X131030000Y-88710000D01*
X129140000Y-85220000D02*
X130650000Y-86730000D01*
X128310000Y-91330000D02*
X128700000Y-91720000D01*
X128650000Y-85220000D02*
X128310000Y-85560000D01*
X134244931Y-80605069D02*
X134270000Y-80580000D01*
X130650000Y-86730000D02*
X131030000Y-87110000D01*
X132431063Y-80605069D02*
X134244931Y-80605069D01*
X132431063Y-80605069D02*
X129100000Y-83936132D01*
X131610000Y-82630000D02*
X131610000Y-81426132D01*
X130030000Y-91380000D02*
X130030000Y-90735000D01*
X128700000Y-91720000D02*
X129690000Y-91720000D01*
X129100000Y-85220000D02*
X129140000Y-85220000D01*
X129690000Y-91720000D02*
X130030000Y-91380000D01*
X129100000Y-83936132D02*
X129100000Y-85220000D01*
X128310000Y-85560000D02*
X128310000Y-88015000D01*
X128310000Y-88015000D02*
X128310000Y-91330000D01*
X131610000Y-81426132D02*
X132431063Y-80605069D01*
X129100000Y-85220000D02*
X128650000Y-85220000D01*
%TO.N,Net-(U1-EN)*%
X132630000Y-82630000D02*
X133410000Y-81850000D01*
X133410000Y-81850000D02*
X134270000Y-81850000D01*
%TO.N,Net-(U5-VI)*%
X140570000Y-101010000D02*
X139550000Y-99990000D01*
X140570000Y-102020000D02*
X140570000Y-101010000D01*
%TO.N,/D-*%
X143220000Y-102727410D02*
X143220000Y-102020000D01*
X142220000Y-102020000D02*
X142220000Y-101157499D01*
X142220000Y-101157499D02*
X142245000Y-101132499D01*
X141525000Y-99623200D02*
X141525000Y-98605001D01*
X142220000Y-102627410D02*
X142487590Y-102895000D01*
X141525000Y-98605001D02*
X141115000Y-98195001D01*
X142487590Y-102895000D02*
X143052410Y-102895000D01*
X141115000Y-98195001D02*
X141115000Y-97070000D01*
X142245000Y-100343200D02*
X141525000Y-99623200D01*
X142245000Y-101132499D02*
X142245000Y-100343200D01*
X142220000Y-102020000D02*
X142220000Y-102627410D01*
X143052410Y-102895000D02*
X143220000Y-102727410D01*
%TO.N,/D+*%
X142720000Y-102020000D02*
X142720000Y-101412590D01*
X143552410Y-101145000D02*
X143720000Y-101312590D01*
X142987590Y-101145000D02*
X143552410Y-101145000D01*
X141975000Y-99436800D02*
X141975000Y-98605001D01*
X143720000Y-101312590D02*
X143720000Y-102020000D01*
X142695000Y-100156800D02*
X141975000Y-99436800D01*
X141975000Y-98605001D02*
X142385000Y-98195001D01*
X142720000Y-101412590D02*
X142987590Y-101145000D01*
X142720000Y-102020000D02*
X142720000Y-101157499D01*
X142695000Y-101132499D02*
X142695000Y-100156800D01*
X142720000Y-101157499D02*
X142695000Y-101132499D01*
X142385000Y-98195001D02*
X142385000Y-97070000D01*
%TO.N,/SCL*%
X130530000Y-92610000D02*
X133740000Y-95820000D01*
X133740000Y-95820000D02*
X134270000Y-95820000D01*
X130530000Y-90735000D02*
X130530000Y-92610000D01*
%TO.N,/SDA*%
X131030000Y-90735000D02*
X131030000Y-91840000D01*
X131030000Y-91840000D02*
X133740000Y-94550000D01*
X133740000Y-94550000D02*
X134270000Y-94550000D01*
%TD*%
%TA.AperFunction,Conductor*%
%TO.N,GND*%
G36*
X140737506Y-87526886D02*
G01*
X140748109Y-87529999D01*
X140748112Y-87530000D01*
X140891888Y-87530000D01*
X140891892Y-87529999D01*
X140902491Y-87526887D01*
X140963651Y-87528633D01*
X141012105Y-87565994D01*
X141029345Y-87624701D01*
X141028377Y-87635964D01*
X141014858Y-87729995D01*
X141014858Y-87730003D01*
X141028377Y-87824034D01*
X141017944Y-87884324D01*
X140974065Y-87926966D01*
X140913503Y-87935673D01*
X140902496Y-87933114D01*
X140891891Y-87930000D01*
X140748112Y-87930000D01*
X140748104Y-87930001D01*
X140737501Y-87933114D01*
X140676341Y-87931364D01*
X140627890Y-87893999D01*
X140610654Y-87835292D01*
X140611622Y-87824033D01*
X140625142Y-87730001D01*
X140625142Y-87729997D01*
X140611622Y-87635965D01*
X140622055Y-87575676D01*
X140665933Y-87533034D01*
X140726495Y-87524326D01*
X140737506Y-87526886D01*
G37*
%TD.AperFunction*%
%TA.AperFunction,Conductor*%
G36*
X142137506Y-87526886D02*
G01*
X142148109Y-87529999D01*
X142148112Y-87530000D01*
X142291888Y-87530000D01*
X142291892Y-87529999D01*
X142302491Y-87526887D01*
X142363651Y-87528633D01*
X142412105Y-87565994D01*
X142429345Y-87624701D01*
X142428377Y-87635964D01*
X142414858Y-87729995D01*
X142414858Y-87730003D01*
X142428377Y-87824034D01*
X142417944Y-87884324D01*
X142374065Y-87926966D01*
X142313503Y-87935673D01*
X142302496Y-87933114D01*
X142291891Y-87930000D01*
X142148112Y-87930000D01*
X142148104Y-87930001D01*
X142137501Y-87933114D01*
X142076341Y-87931364D01*
X142027890Y-87893999D01*
X142010654Y-87835292D01*
X142011622Y-87824033D01*
X142025142Y-87730001D01*
X142025142Y-87729997D01*
X142011622Y-87635965D01*
X142022055Y-87575676D01*
X142065933Y-87533034D01*
X142126495Y-87524326D01*
X142137506Y-87526886D01*
G37*
%TD.AperFunction*%
%TA.AperFunction,Conductor*%
G36*
X141437506Y-86826886D02*
G01*
X141448109Y-86829999D01*
X141448112Y-86830000D01*
X141591888Y-86830000D01*
X141591892Y-86829999D01*
X141602491Y-86826887D01*
X141663651Y-86828633D01*
X141712105Y-86865994D01*
X141729345Y-86924701D01*
X141728377Y-86935964D01*
X141714858Y-87029995D01*
X141714858Y-87030003D01*
X141728377Y-87124034D01*
X141717944Y-87184324D01*
X141674065Y-87226966D01*
X141613503Y-87235673D01*
X141602496Y-87233114D01*
X141591891Y-87230000D01*
X141448112Y-87230000D01*
X141448104Y-87230001D01*
X141437501Y-87233114D01*
X141376341Y-87231364D01*
X141327890Y-87193999D01*
X141310654Y-87135292D01*
X141311622Y-87124033D01*
X141325142Y-87030001D01*
X141325142Y-87029997D01*
X141311622Y-86935965D01*
X141322055Y-86875676D01*
X141365933Y-86833034D01*
X141426495Y-86824326D01*
X141437506Y-86826886D01*
G37*
%TD.AperFunction*%
%TA.AperFunction,Conductor*%
G36*
X140737506Y-86126886D02*
G01*
X140748109Y-86129999D01*
X140748112Y-86130000D01*
X140891888Y-86130000D01*
X140891892Y-86129999D01*
X140902491Y-86126887D01*
X140963651Y-86128633D01*
X141012105Y-86165994D01*
X141029345Y-86224701D01*
X141028377Y-86235964D01*
X141014858Y-86329995D01*
X141014858Y-86330003D01*
X141028377Y-86424034D01*
X141017944Y-86484324D01*
X140974065Y-86526966D01*
X140913503Y-86535673D01*
X140902496Y-86533114D01*
X140891891Y-86530000D01*
X140748112Y-86530000D01*
X140748104Y-86530001D01*
X140737501Y-86533114D01*
X140676341Y-86531364D01*
X140627890Y-86493999D01*
X140610654Y-86435292D01*
X140611622Y-86424033D01*
X140625142Y-86330001D01*
X140625142Y-86329997D01*
X140611622Y-86235965D01*
X140622055Y-86175676D01*
X140665933Y-86133034D01*
X140726495Y-86124326D01*
X140737506Y-86126886D01*
G37*
%TD.AperFunction*%
%TA.AperFunction,Conductor*%
G36*
X142137506Y-86126886D02*
G01*
X142148109Y-86129999D01*
X142148112Y-86130000D01*
X142291888Y-86130000D01*
X142291892Y-86129999D01*
X142302491Y-86126887D01*
X142363651Y-86128633D01*
X142412105Y-86165994D01*
X142429345Y-86224701D01*
X142428377Y-86235964D01*
X142414858Y-86329995D01*
X142414858Y-86330003D01*
X142428377Y-86424034D01*
X142417944Y-86484324D01*
X142374065Y-86526966D01*
X142313503Y-86535673D01*
X142302496Y-86533114D01*
X142291891Y-86530000D01*
X142148112Y-86530000D01*
X142148104Y-86530001D01*
X142137501Y-86533114D01*
X142076341Y-86531364D01*
X142027890Y-86493999D01*
X142010654Y-86435292D01*
X142011622Y-86424033D01*
X142025142Y-86330001D01*
X142025142Y-86329997D01*
X142011622Y-86235965D01*
X142022055Y-86175676D01*
X142065933Y-86133034D01*
X142126495Y-86124326D01*
X142137506Y-86126886D01*
G37*
%TD.AperFunction*%
%TA.AperFunction,Conductor*%
G36*
X159168691Y-77838907D02*
G01*
X159204655Y-77888407D01*
X159209500Y-77919000D01*
X159209500Y-109320500D01*
X159190593Y-109378691D01*
X159141093Y-109414655D01*
X159110500Y-109419500D01*
X128309500Y-109419500D01*
X128251309Y-109400593D01*
X128215345Y-109351093D01*
X128210500Y-109320500D01*
X128210500Y-91894479D01*
X128229407Y-91836288D01*
X128278907Y-91800324D01*
X128340093Y-91800324D01*
X128379504Y-91824475D01*
X128459540Y-91904511D01*
X128459539Y-91904511D01*
X128515489Y-91960460D01*
X128584007Y-92000019D01*
X128584011Y-92000021D01*
X128660435Y-92020499D01*
X128660437Y-92020500D01*
X128660438Y-92020500D01*
X129729563Y-92020500D01*
X129729563Y-92020499D01*
X129805989Y-92000021D01*
X129874511Y-91960460D01*
X129930460Y-91904511D01*
X130060496Y-91774475D01*
X130115013Y-91746698D01*
X130175445Y-91756269D01*
X130218710Y-91799534D01*
X130229500Y-91844479D01*
X130229500Y-92649564D01*
X130249977Y-92725985D01*
X130249981Y-92725993D01*
X130264861Y-92751768D01*
X130264862Y-92751768D01*
X130281969Y-92781397D01*
X130289540Y-92794511D01*
X133290505Y-95795476D01*
X133318281Y-95849991D01*
X133319500Y-95865478D01*
X133319500Y-96289746D01*
X133319501Y-96289758D01*
X133331132Y-96348227D01*
X133331134Y-96348233D01*
X133373566Y-96411736D01*
X133375448Y-96414552D01*
X133441769Y-96458867D01*
X133486231Y-96467711D01*
X133500241Y-96470498D01*
X133500246Y-96470498D01*
X133500252Y-96470500D01*
X133500253Y-96470500D01*
X135039747Y-96470500D01*
X135039748Y-96470500D01*
X135098231Y-96458867D01*
X135164552Y-96414552D01*
X135203185Y-96356733D01*
X135251235Y-96318855D01*
X135312373Y-96316453D01*
X135363247Y-96350446D01*
X135384424Y-96407850D01*
X135384500Y-96411736D01*
X135384500Y-97839746D01*
X135384501Y-97839758D01*
X135396132Y-97898227D01*
X135396134Y-97898233D01*
X135440445Y-97964548D01*
X135440448Y-97964552D01*
X135506769Y-98008867D01*
X135551231Y-98017711D01*
X135565241Y-98020498D01*
X135565246Y-98020498D01*
X135565252Y-98020500D01*
X135565253Y-98020500D01*
X136504747Y-98020500D01*
X136504748Y-98020500D01*
X136563231Y-98008867D01*
X136615000Y-97974274D01*
X136673885Y-97957667D01*
X136724998Y-97974274D01*
X136776769Y-98008867D01*
X136821231Y-98017711D01*
X136835241Y-98020498D01*
X136835246Y-98020498D01*
X136835252Y-98020500D01*
X136835253Y-98020500D01*
X137774747Y-98020500D01*
X137774748Y-98020500D01*
X137833231Y-98008867D01*
X137885000Y-97974274D01*
X137943885Y-97957667D01*
X137994998Y-97974274D01*
X138046769Y-98008867D01*
X138091231Y-98017711D01*
X138105241Y-98020498D01*
X138105246Y-98020498D01*
X138105252Y-98020500D01*
X138105253Y-98020500D01*
X139044747Y-98020500D01*
X139044748Y-98020500D01*
X139103231Y-98008867D01*
X139155000Y-97974274D01*
X139213885Y-97957667D01*
X139264998Y-97974274D01*
X139316769Y-98008867D01*
X139361231Y-98017711D01*
X139375241Y-98020498D01*
X139375246Y-98020498D01*
X139375252Y-98020500D01*
X139375253Y-98020500D01*
X140314747Y-98020500D01*
X140314748Y-98020500D01*
X140373231Y-98008867D01*
X140425000Y-97974274D01*
X140483885Y-97957667D01*
X140534998Y-97974274D01*
X140586769Y-98008867D01*
X140631231Y-98017711D01*
X140645241Y-98020498D01*
X140645246Y-98020498D01*
X140645252Y-98020500D01*
X140715500Y-98020500D01*
X140773691Y-98039407D01*
X140809655Y-98088907D01*
X140814500Y-98119500D01*
X140814500Y-98234565D01*
X140834978Y-98310989D01*
X140848856Y-98335025D01*
X140865897Y-98364541D01*
X140874540Y-98379512D01*
X141195505Y-98700477D01*
X141223281Y-98754992D01*
X141224500Y-98770479D01*
X141224500Y-99662764D01*
X141244978Y-99739186D01*
X141244979Y-99739189D01*
X141252177Y-99751656D01*
X141252177Y-99751658D01*
X141280203Y-99800199D01*
X141284540Y-99807711D01*
X141915505Y-100438676D01*
X141943281Y-100493191D01*
X141944500Y-100508678D01*
X141944500Y-101011604D01*
X141941126Y-101037228D01*
X141919500Y-101117934D01*
X141919500Y-101145500D01*
X141900593Y-101203691D01*
X141851093Y-101239655D01*
X141820500Y-101244500D01*
X141617870Y-101244500D01*
X141617862Y-101244501D01*
X141537505Y-101260484D01*
X141537501Y-101260486D01*
X141524999Y-101268840D01*
X141466111Y-101285447D01*
X141415001Y-101268840D01*
X141402496Y-101260485D01*
X141402495Y-101260484D01*
X141322134Y-101244500D01*
X141117870Y-101244500D01*
X141117862Y-101244501D01*
X141037505Y-101260484D01*
X141037503Y-101260485D01*
X141024502Y-101269173D01*
X140965614Y-101285782D01*
X140908210Y-101264605D01*
X140874217Y-101213731D01*
X140870500Y-101186858D01*
X140870500Y-100970437D01*
X140870499Y-100970435D01*
X140850021Y-100894011D01*
X140850019Y-100894007D01*
X140810460Y-100825489D01*
X140754511Y-100769539D01*
X140754511Y-100769540D01*
X140080546Y-100095575D01*
X140052769Y-100041058D01*
X140052558Y-100011482D01*
X140055647Y-99990000D01*
X140053101Y-99972293D01*
X140035165Y-99847543D01*
X139991374Y-99751655D01*
X139975377Y-99716627D01*
X139881128Y-99607857D01*
X139881127Y-99607856D01*
X139881126Y-99607855D01*
X139760057Y-99530049D01*
X139760054Y-99530047D01*
X139760053Y-99530047D01*
X139760050Y-99530046D01*
X139621964Y-99489500D01*
X139621961Y-99489500D01*
X139478039Y-99489500D01*
X139478035Y-99489500D01*
X139339949Y-99530046D01*
X139339942Y-99530049D01*
X139218873Y-99607855D01*
X139124622Y-99716628D01*
X139064834Y-99847543D01*
X139044353Y-99989997D01*
X139044353Y-99990002D01*
X139064834Y-100132456D01*
X139124622Y-100263371D01*
X139124623Y-100263373D01*
X139218872Y-100372143D01*
X139218873Y-100372144D01*
X139322396Y-100438674D01*
X139339947Y-100449953D01*
X139446403Y-100481211D01*
X139478035Y-100490499D01*
X139478036Y-100490499D01*
X139478039Y-100490500D01*
X139478041Y-100490500D01*
X139584521Y-100490500D01*
X139642712Y-100509407D01*
X139654525Y-100519496D01*
X140240504Y-101105475D01*
X140268281Y-101159992D01*
X140269500Y-101175479D01*
X140269500Y-101216635D01*
X140250593Y-101274826D01*
X140219889Y-101300612D01*
X140220192Y-101301036D01*
X140214817Y-101304873D01*
X140213982Y-101305574D01*
X140213951Y-101305590D01*
X140213518Y-101305801D01*
X140130801Y-101388518D01*
X140079427Y-101493604D01*
X140069500Y-101561743D01*
X140069500Y-102426046D01*
X140050593Y-102484237D01*
X140001093Y-102520201D01*
X139996123Y-102521673D01*
X139857860Y-102558720D01*
X139726639Y-102634481D01*
X139619481Y-102741639D01*
X139543720Y-102872860D01*
X139543719Y-102872865D01*
X139504500Y-103019234D01*
X139504500Y-103170766D01*
X139525794Y-103250237D01*
X139543720Y-103317139D01*
X139619481Y-103448360D01*
X139619483Y-103448362D01*
X139619485Y-103448365D01*
X139726635Y-103555515D01*
X139726637Y-103555516D01*
X139726639Y-103555518D01*
X139857861Y-103631279D01*
X139857859Y-103631279D01*
X139857863Y-103631280D01*
X139857865Y-103631281D01*
X140004234Y-103670500D01*
X140004236Y-103670500D01*
X140155764Y-103670500D01*
X140155766Y-103670500D01*
X140302135Y-103631281D01*
X140302137Y-103631279D01*
X140302139Y-103631279D01*
X140433360Y-103555518D01*
X140433360Y-103555517D01*
X140433365Y-103555515D01*
X140540515Y-103448365D01*
X140616281Y-103317135D01*
X140644994Y-103209973D01*
X140678317Y-103158662D01*
X140735438Y-103136735D01*
X140794539Y-103152570D01*
X140810624Y-103165595D01*
X141599540Y-103954511D01*
X141599539Y-103954511D01*
X141655489Y-104010460D01*
X141724007Y-104050019D01*
X141724011Y-104050021D01*
X141800435Y-104070499D01*
X141800437Y-104070500D01*
X141800438Y-104070500D01*
X144269969Y-104070500D01*
X144269969Y-104070499D01*
X144346395Y-104050021D01*
X144414917Y-104010460D01*
X144470866Y-103954511D01*
X145156935Y-103268441D01*
X145211450Y-103240666D01*
X145271882Y-103250237D01*
X145315147Y-103293502D01*
X145322563Y-103312821D01*
X145323719Y-103317137D01*
X145323720Y-103317138D01*
X145399481Y-103448360D01*
X145399483Y-103448362D01*
X145399485Y-103448365D01*
X145506635Y-103555515D01*
X145506637Y-103555516D01*
X145506639Y-103555518D01*
X145637861Y-103631279D01*
X145637859Y-103631279D01*
X145637863Y-103631280D01*
X145637865Y-103631281D01*
X145784234Y-103670500D01*
X145784236Y-103670500D01*
X145935764Y-103670500D01*
X145935766Y-103670500D01*
X146082135Y-103631281D01*
X146082137Y-103631279D01*
X146082139Y-103631279D01*
X146213360Y-103555518D01*
X146213360Y-103555517D01*
X146213365Y-103555515D01*
X146320515Y-103448365D01*
X146396281Y-103317135D01*
X146435500Y-103170766D01*
X146435500Y-103019234D01*
X146396281Y-102872865D01*
X146396279Y-102872862D01*
X146396279Y-102872860D01*
X146320518Y-102741639D01*
X146320516Y-102741637D01*
X146320515Y-102741635D01*
X146213365Y-102634485D01*
X146213362Y-102634483D01*
X146213360Y-102634481D01*
X146082138Y-102558720D01*
X146082139Y-102558720D01*
X145943877Y-102521673D01*
X145892562Y-102488349D01*
X145870636Y-102431227D01*
X145870500Y-102426046D01*
X145870500Y-101561743D01*
X145870500Y-101561740D01*
X145860573Y-101493607D01*
X145809198Y-101388517D01*
X145726483Y-101305802D01*
X145700284Y-101292994D01*
X145621395Y-101254427D01*
X145594139Y-101250456D01*
X145553260Y-101244500D01*
X145186740Y-101244500D01*
X145152673Y-101249463D01*
X145118604Y-101254427D01*
X145039714Y-101292994D01*
X144979131Y-101301565D01*
X144941232Y-101286368D01*
X144902498Y-101260487D01*
X144902496Y-101260486D01*
X144902495Y-101260485D01*
X144822133Y-101244500D01*
X144822132Y-101244500D01*
X144617870Y-101244500D01*
X144617862Y-101244501D01*
X144537505Y-101260484D01*
X144537501Y-101260486D01*
X144524999Y-101268840D01*
X144466111Y-101285447D01*
X144415001Y-101268840D01*
X144402496Y-101260485D01*
X144402495Y-101260484D01*
X144322134Y-101244500D01*
X144117870Y-101244500D01*
X144117855Y-101244502D01*
X144106537Y-101246753D01*
X144045777Y-101239557D01*
X144001494Y-101199154D01*
X144000021Y-101196604D01*
X144000021Y-101196601D01*
X143960460Y-101128079D01*
X143937856Y-101105475D01*
X143904512Y-101072130D01*
X143736920Y-100904539D01*
X143718684Y-100894010D01*
X143718684Y-100894011D01*
X143668399Y-100864979D01*
X143668398Y-100864978D01*
X143668397Y-100864978D01*
X143591974Y-100844500D01*
X143591972Y-100844500D01*
X143094500Y-100844500D01*
X143036309Y-100825593D01*
X143000345Y-100776093D01*
X142995500Y-100745500D01*
X142995500Y-100117239D01*
X142995500Y-100117238D01*
X142981015Y-100063179D01*
X142981015Y-100063178D01*
X142981015Y-100063177D01*
X142978820Y-100054989D01*
X142975022Y-100040812D01*
X142975020Y-100040808D01*
X142935463Y-99972293D01*
X142935462Y-99972292D01*
X142935461Y-99972291D01*
X142935460Y-99972289D01*
X142304496Y-99341325D01*
X142276719Y-99286808D01*
X142275500Y-99271321D01*
X142275500Y-98770479D01*
X142294407Y-98712288D01*
X142304490Y-98700481D01*
X142625460Y-98379512D01*
X142625463Y-98379507D01*
X142665020Y-98310993D01*
X142665021Y-98310990D01*
X142665022Y-98310989D01*
X142685500Y-98234563D01*
X142685500Y-98155439D01*
X142685500Y-98119500D01*
X142704407Y-98061309D01*
X142753907Y-98025345D01*
X142784500Y-98020500D01*
X142854747Y-98020500D01*
X142854748Y-98020500D01*
X142913231Y-98008867D01*
X142965000Y-97974274D01*
X143023885Y-97957667D01*
X143074998Y-97974274D01*
X143126769Y-98008867D01*
X143171231Y-98017711D01*
X143185241Y-98020498D01*
X143185246Y-98020498D01*
X143185252Y-98020500D01*
X143185253Y-98020500D01*
X144124747Y-98020500D01*
X144124748Y-98020500D01*
X144183231Y-98008867D01*
X144235000Y-97974274D01*
X144293885Y-97957667D01*
X144344998Y-97974274D01*
X144396769Y-98008867D01*
X144441231Y-98017711D01*
X144455241Y-98020498D01*
X144455246Y-98020498D01*
X144455252Y-98020500D01*
X144455253Y-98020500D01*
X145394747Y-98020500D01*
X145394748Y-98020500D01*
X145453231Y-98008867D01*
X145505000Y-97974274D01*
X145563885Y-97957667D01*
X145614998Y-97974274D01*
X145666769Y-98008867D01*
X145711231Y-98017711D01*
X145725241Y-98020498D01*
X145725246Y-98020498D01*
X145725252Y-98020500D01*
X145725253Y-98020500D01*
X146664747Y-98020500D01*
X146664748Y-98020500D01*
X146723231Y-98008867D01*
X146775000Y-97974274D01*
X146833885Y-97957667D01*
X146884998Y-97974274D01*
X146936769Y-98008867D01*
X146981231Y-98017711D01*
X146995241Y-98020498D01*
X146995246Y-98020498D01*
X146995252Y-98020500D01*
X146995253Y-98020500D01*
X147934747Y-98020500D01*
X147934748Y-98020500D01*
X147993231Y-98008867D01*
X148045000Y-97974274D01*
X148103885Y-97957667D01*
X148154998Y-97974274D01*
X148206769Y-98008867D01*
X148251231Y-98017711D01*
X148265241Y-98020498D01*
X148265246Y-98020498D01*
X148265252Y-98020500D01*
X148265253Y-98020500D01*
X149204747Y-98020500D01*
X149204748Y-98020500D01*
X149263231Y-98008867D01*
X149315000Y-97974274D01*
X149373885Y-97957667D01*
X149424998Y-97974274D01*
X149476769Y-98008867D01*
X149521231Y-98017711D01*
X149535241Y-98020498D01*
X149535246Y-98020498D01*
X149535252Y-98020500D01*
X149535253Y-98020500D01*
X150474747Y-98020500D01*
X150474748Y-98020500D01*
X150533231Y-98008867D01*
X150599552Y-97964552D01*
X150643867Y-97898231D01*
X150655500Y-97839748D01*
X150655500Y-96411736D01*
X150674407Y-96353545D01*
X150723907Y-96317581D01*
X150785093Y-96317581D01*
X150834593Y-96353545D01*
X150836805Y-96356720D01*
X150875448Y-96414552D01*
X150941769Y-96458867D01*
X150986231Y-96467711D01*
X151000241Y-96470498D01*
X151000246Y-96470498D01*
X151000252Y-96470500D01*
X151000253Y-96470500D01*
X152539747Y-96470500D01*
X152539748Y-96470500D01*
X152598231Y-96458867D01*
X152664552Y-96414552D01*
X152708867Y-96348231D01*
X152720500Y-96289748D01*
X152720500Y-95350252D01*
X152708867Y-95291769D01*
X152674274Y-95239999D01*
X152657667Y-95181115D01*
X152674274Y-95130001D01*
X152708867Y-95078231D01*
X152720500Y-95019748D01*
X152720500Y-94080252D01*
X152708867Y-94021769D01*
X152674274Y-93969999D01*
X152657667Y-93911115D01*
X152674274Y-93860001D01*
X152708867Y-93808231D01*
X152719311Y-93755725D01*
X155674500Y-93755725D01*
X155674500Y-94564274D01*
X155677353Y-94594694D01*
X155677355Y-94594703D01*
X155722207Y-94722883D01*
X155802845Y-94832144D01*
X155802847Y-94832146D01*
X155802850Y-94832150D01*
X155802853Y-94832152D01*
X155802855Y-94832154D01*
X155912116Y-94912792D01*
X155912117Y-94912792D01*
X155912118Y-94912793D01*
X156040301Y-94957646D01*
X156070725Y-94960499D01*
X156070727Y-94960500D01*
X156070734Y-94960500D01*
X157429273Y-94960500D01*
X157429273Y-94960499D01*
X157459699Y-94957646D01*
X157587882Y-94912793D01*
X157697150Y-94832150D01*
X157777793Y-94722882D01*
X157822646Y-94594699D01*
X157825499Y-94564273D01*
X157825500Y-94564273D01*
X157825500Y-93755727D01*
X157825499Y-93755725D01*
X157822646Y-93725301D01*
X157777793Y-93597118D01*
X157723617Y-93523712D01*
X157697154Y-93487855D01*
X157697152Y-93487853D01*
X157697150Y-93487850D01*
X157697146Y-93487847D01*
X157697144Y-93487845D01*
X157587883Y-93407207D01*
X157459703Y-93362355D01*
X157459694Y-93362353D01*
X157429274Y-93359500D01*
X157429266Y-93359500D01*
X156070734Y-93359500D01*
X156070725Y-93359500D01*
X156040305Y-93362353D01*
X156040296Y-93362355D01*
X155912116Y-93407207D01*
X155802855Y-93487845D01*
X155802845Y-93487855D01*
X155722207Y-93597116D01*
X155677355Y-93725296D01*
X155677353Y-93725305D01*
X155674500Y-93755725D01*
X152719311Y-93755725D01*
X152720500Y-93749748D01*
X152720500Y-92810252D01*
X152708867Y-92751769D01*
X152674274Y-92699999D01*
X152657667Y-92641115D01*
X152674274Y-92590001D01*
X152708867Y-92538231D01*
X152720500Y-92479748D01*
X152720500Y-92060000D01*
X155679217Y-92060000D01*
X156388566Y-92060000D01*
X156375000Y-92110630D01*
X156375000Y-92209370D01*
X156388566Y-92260000D01*
X155679218Y-92260000D01*
X155705742Y-92393349D01*
X155766048Y-92538940D01*
X155766052Y-92538949D01*
X155853599Y-92669969D01*
X155853602Y-92669973D01*
X155965026Y-92781397D01*
X155965030Y-92781400D01*
X156096050Y-92868947D01*
X156096059Y-92868951D01*
X156241650Y-92929257D01*
X156396204Y-92959999D01*
X156396208Y-92960000D01*
X156649999Y-92960000D01*
X156650000Y-92959999D01*
X156650000Y-92521433D01*
X156700630Y-92535000D01*
X156799370Y-92535000D01*
X156850000Y-92521433D01*
X156850000Y-92959999D01*
X156850001Y-92960000D01*
X157103792Y-92960000D01*
X157103795Y-92959999D01*
X157258349Y-92929257D01*
X157403940Y-92868951D01*
X157403949Y-92868947D01*
X157534969Y-92781400D01*
X157534973Y-92781397D01*
X157646397Y-92669973D01*
X157646400Y-92669969D01*
X157733947Y-92538949D01*
X157733951Y-92538940D01*
X157794257Y-92393349D01*
X157820782Y-92260000D01*
X157111434Y-92260000D01*
X157125000Y-92209370D01*
X157125000Y-92110630D01*
X157111434Y-92060000D01*
X157820782Y-92060000D01*
X157794257Y-91926650D01*
X157733951Y-91781059D01*
X157733947Y-91781050D01*
X157646400Y-91650030D01*
X157646397Y-91650026D01*
X157534973Y-91538602D01*
X157534969Y-91538599D01*
X157403949Y-91451052D01*
X157403940Y-91451048D01*
X157258349Y-91390742D01*
X157103795Y-91360000D01*
X156850001Y-91360000D01*
X156850000Y-91360001D01*
X156850000Y-91798566D01*
X156799370Y-91785000D01*
X156700630Y-91785000D01*
X156650000Y-91798566D01*
X156650000Y-91360001D01*
X156649999Y-91360000D01*
X156396204Y-91360000D01*
X156241650Y-91390742D01*
X156096059Y-91451048D01*
X156096050Y-91451052D01*
X155965030Y-91538599D01*
X155965026Y-91538602D01*
X155853602Y-91650026D01*
X155853599Y-91650030D01*
X155766052Y-91781050D01*
X155766048Y-91781059D01*
X155705742Y-91926650D01*
X155679217Y-92060000D01*
X152720500Y-92060000D01*
X152720500Y-91540252D01*
X152708867Y-91481769D01*
X152674274Y-91429999D01*
X152657667Y-91371115D01*
X152674274Y-91320001D01*
X152708867Y-91268231D01*
X152720500Y-91209748D01*
X152720500Y-90270252D01*
X152720304Y-90269269D01*
X152714891Y-90242054D01*
X152708867Y-90211769D01*
X152674274Y-90159999D01*
X152657667Y-90101115D01*
X152674274Y-90050001D01*
X152708867Y-89998231D01*
X152720500Y-89939748D01*
X152720500Y-89000252D01*
X152708867Y-88941769D01*
X152674274Y-88889999D01*
X152657667Y-88831115D01*
X152674274Y-88780001D01*
X152708867Y-88728231D01*
X152720500Y-88669748D01*
X152720500Y-87730252D01*
X152720450Y-87730003D01*
X152709182Y-87673355D01*
X152708867Y-87671769D01*
X152674274Y-87619999D01*
X152657667Y-87561115D01*
X152674274Y-87510001D01*
X152708867Y-87458231D01*
X152720500Y-87399748D01*
X152720500Y-86460252D01*
X152708867Y-86401769D01*
X152674274Y-86349999D01*
X152657667Y-86291115D01*
X152674274Y-86240001D01*
X152708867Y-86188231D01*
X152720500Y-86129748D01*
X152720500Y-85190252D01*
X152708867Y-85131769D01*
X152674274Y-85079999D01*
X152657667Y-85021115D01*
X152674274Y-84970001D01*
X152708867Y-84918231D01*
X152720500Y-84859748D01*
X152720500Y-83920252D01*
X152708867Y-83861769D01*
X152674274Y-83809999D01*
X152657667Y-83751115D01*
X152674274Y-83700001D01*
X152708867Y-83648231D01*
X152720500Y-83589748D01*
X152720500Y-82650252D01*
X152708867Y-82591769D01*
X152674274Y-82539999D01*
X152657667Y-82481115D01*
X152674274Y-82430001D01*
X152708867Y-82378231D01*
X152720500Y-82319748D01*
X152720500Y-81380252D01*
X152708867Y-81321769D01*
X152674274Y-81269999D01*
X152657667Y-81211115D01*
X152674274Y-81160001D01*
X152708867Y-81108231D01*
X152720500Y-81049748D01*
X152720500Y-80110252D01*
X152708867Y-80051769D01*
X152664552Y-79985448D01*
X152664548Y-79985445D01*
X152598233Y-79941134D01*
X152598231Y-79941133D01*
X152598228Y-79941132D01*
X152598227Y-79941132D01*
X152539758Y-79929501D01*
X152539748Y-79929500D01*
X151000252Y-79929500D01*
X151000251Y-79929500D01*
X151000241Y-79929501D01*
X150941772Y-79941132D01*
X150941766Y-79941134D01*
X150875451Y-79985445D01*
X150875445Y-79985451D01*
X150831134Y-80051766D01*
X150831132Y-80051772D01*
X150819501Y-80110241D01*
X150819500Y-80110253D01*
X150819500Y-81049746D01*
X150819501Y-81049758D01*
X150831132Y-81108227D01*
X150831134Y-81108233D01*
X150865723Y-81159998D01*
X150882332Y-81218886D01*
X150865723Y-81270002D01*
X150831134Y-81321766D01*
X150831132Y-81321772D01*
X150819501Y-81380241D01*
X150819500Y-81380253D01*
X150819500Y-82319746D01*
X150819501Y-82319758D01*
X150831132Y-82378227D01*
X150831134Y-82378233D01*
X150865723Y-82429998D01*
X150882332Y-82488886D01*
X150865723Y-82540002D01*
X150831134Y-82591766D01*
X150831132Y-82591772D01*
X150819501Y-82650241D01*
X150819500Y-82650253D01*
X150819500Y-83589746D01*
X150819501Y-83589758D01*
X150831132Y-83648227D01*
X150831134Y-83648233D01*
X150865723Y-83699998D01*
X150882332Y-83758886D01*
X150865723Y-83810002D01*
X150831134Y-83861766D01*
X150831132Y-83861772D01*
X150819501Y-83920241D01*
X150819500Y-83920253D01*
X150819500Y-84859746D01*
X150819501Y-84859758D01*
X150831132Y-84918227D01*
X150831134Y-84918233D01*
X150865723Y-84969998D01*
X150882332Y-85028886D01*
X150865723Y-85080002D01*
X150831134Y-85131766D01*
X150831132Y-85131772D01*
X150819501Y-85190241D01*
X150819500Y-85190253D01*
X150819500Y-86129746D01*
X150819501Y-86129758D01*
X150831132Y-86188227D01*
X150831134Y-86188233D01*
X150865723Y-86239998D01*
X150882332Y-86298886D01*
X150865723Y-86350002D01*
X150831134Y-86401766D01*
X150831132Y-86401772D01*
X150819501Y-86460241D01*
X150819500Y-86460253D01*
X150819500Y-87399746D01*
X150819501Y-87399758D01*
X150831132Y-87458227D01*
X150831134Y-87458233D01*
X150865723Y-87509998D01*
X150882332Y-87568886D01*
X150865723Y-87620002D01*
X150831134Y-87671766D01*
X150831132Y-87671772D01*
X150819501Y-87730241D01*
X150819500Y-87730253D01*
X150819500Y-88669746D01*
X150819501Y-88669758D01*
X150831132Y-88728227D01*
X150831134Y-88728233D01*
X150865723Y-88779998D01*
X150882332Y-88838886D01*
X150865723Y-88890002D01*
X150831134Y-88941766D01*
X150831132Y-88941772D01*
X150819501Y-89000241D01*
X150819500Y-89000253D01*
X150819500Y-89939746D01*
X150819501Y-89939758D01*
X150831132Y-89998227D01*
X150831134Y-89998233D01*
X150865723Y-90049998D01*
X150882332Y-90108886D01*
X150865723Y-90160002D01*
X150831134Y-90211766D01*
X150831132Y-90211772D01*
X150819501Y-90270241D01*
X150819500Y-90270253D01*
X150819500Y-91209746D01*
X150819501Y-91209758D01*
X150831132Y-91268227D01*
X150831134Y-91268233D01*
X150865723Y-91319998D01*
X150882332Y-91378886D01*
X150865723Y-91430002D01*
X150831134Y-91481766D01*
X150831132Y-91481772D01*
X150819501Y-91540241D01*
X150819500Y-91540253D01*
X150819500Y-92479746D01*
X150819501Y-92479758D01*
X150831132Y-92538227D01*
X150831134Y-92538233D01*
X150865723Y-92589998D01*
X150882332Y-92648886D01*
X150865723Y-92700002D01*
X150831134Y-92751766D01*
X150831132Y-92751772D01*
X150819501Y-92810241D01*
X150819500Y-92810253D01*
X150819500Y-93749746D01*
X150819501Y-93749758D01*
X150831132Y-93808227D01*
X150831134Y-93808233D01*
X150865723Y-93859998D01*
X150882332Y-93918886D01*
X150865723Y-93970002D01*
X150831134Y-94021766D01*
X150831132Y-94021772D01*
X150819501Y-94080241D01*
X150819500Y-94080253D01*
X150819500Y-95019746D01*
X150819501Y-95019758D01*
X150831132Y-95078227D01*
X150831134Y-95078233D01*
X150865723Y-95129998D01*
X150882332Y-95188886D01*
X150865723Y-95240002D01*
X150831134Y-95291766D01*
X150831132Y-95291772D01*
X150819501Y-95350241D01*
X150819500Y-95350253D01*
X150819500Y-96178263D01*
X150800593Y-96236454D01*
X150751093Y-96272418D01*
X150689907Y-96272418D01*
X150640407Y-96236454D01*
X150638185Y-96233265D01*
X150599554Y-96175451D01*
X150599552Y-96175448D01*
X150599548Y-96175445D01*
X150533233Y-96131134D01*
X150533231Y-96131133D01*
X150533228Y-96131132D01*
X150533227Y-96131132D01*
X150474758Y-96119501D01*
X150474748Y-96119500D01*
X149535252Y-96119500D01*
X149535251Y-96119500D01*
X149535241Y-96119501D01*
X149476772Y-96131132D01*
X149476766Y-96131134D01*
X149425002Y-96165723D01*
X149366114Y-96182332D01*
X149314998Y-96165723D01*
X149263233Y-96131134D01*
X149263231Y-96131133D01*
X149263228Y-96131132D01*
X149263227Y-96131132D01*
X149204758Y-96119501D01*
X149204748Y-96119500D01*
X148265252Y-96119500D01*
X148265251Y-96119500D01*
X148265241Y-96119501D01*
X148206772Y-96131132D01*
X148206766Y-96131134D01*
X148155002Y-96165723D01*
X148096114Y-96182332D01*
X148044998Y-96165723D01*
X147993233Y-96131134D01*
X147993231Y-96131133D01*
X147993228Y-96131132D01*
X147993227Y-96131132D01*
X147934758Y-96119501D01*
X147934748Y-96119500D01*
X146995252Y-96119500D01*
X146995251Y-96119500D01*
X146995241Y-96119501D01*
X146936772Y-96131132D01*
X146936766Y-96131134D01*
X146885002Y-96165723D01*
X146826114Y-96182332D01*
X146774998Y-96165723D01*
X146723233Y-96131134D01*
X146723231Y-96131133D01*
X146723228Y-96131132D01*
X146723227Y-96131132D01*
X146664758Y-96119501D01*
X146664748Y-96119500D01*
X145725252Y-96119500D01*
X145725251Y-96119500D01*
X145725241Y-96119501D01*
X145666772Y-96131132D01*
X145666766Y-96131134D01*
X145615002Y-96165723D01*
X145556114Y-96182332D01*
X145504998Y-96165723D01*
X145453233Y-96131134D01*
X145453231Y-96131133D01*
X145453228Y-96131132D01*
X145453227Y-96131132D01*
X145394758Y-96119501D01*
X145394748Y-96119500D01*
X144455252Y-96119500D01*
X144455251Y-96119500D01*
X144455241Y-96119501D01*
X144396772Y-96131132D01*
X144396766Y-96131134D01*
X144345002Y-96165723D01*
X144286114Y-96182332D01*
X144234998Y-96165723D01*
X144183233Y-96131134D01*
X144183231Y-96131133D01*
X144183228Y-96131132D01*
X144183227Y-96131132D01*
X144124758Y-96119501D01*
X144124748Y-96119500D01*
X143185252Y-96119500D01*
X143185251Y-96119500D01*
X143185241Y-96119501D01*
X143126772Y-96131132D01*
X143126766Y-96131134D01*
X143075002Y-96165723D01*
X143016114Y-96182332D01*
X142964998Y-96165723D01*
X142913233Y-96131134D01*
X142913231Y-96131133D01*
X142913228Y-96131132D01*
X142913227Y-96131132D01*
X142854758Y-96119501D01*
X142854748Y-96119500D01*
X141915252Y-96119500D01*
X141915251Y-96119500D01*
X141915241Y-96119501D01*
X141856772Y-96131132D01*
X141856766Y-96131134D01*
X141805002Y-96165723D01*
X141746114Y-96182332D01*
X141694998Y-96165723D01*
X141643233Y-96131134D01*
X141643231Y-96131133D01*
X141643228Y-96131132D01*
X141643227Y-96131132D01*
X141584758Y-96119501D01*
X141584748Y-96119500D01*
X140645252Y-96119500D01*
X140645251Y-96119500D01*
X140645241Y-96119501D01*
X140586772Y-96131132D01*
X140586766Y-96131134D01*
X140535002Y-96165723D01*
X140476114Y-96182332D01*
X140424999Y-96165724D01*
X140424998Y-96165723D01*
X140404957Y-96152332D01*
X140367079Y-96104285D01*
X140364677Y-96043146D01*
X140389954Y-96000016D01*
X148735770Y-87654199D01*
X148790285Y-87626424D01*
X148833666Y-87629215D01*
X148838039Y-87630500D01*
X148838040Y-87630500D01*
X148981959Y-87630500D01*
X148981961Y-87630500D01*
X149120053Y-87589953D01*
X149241128Y-87512143D01*
X149335377Y-87403373D01*
X149395165Y-87272457D01*
X149401992Y-87224971D01*
X149415647Y-87130002D01*
X149415647Y-87129997D01*
X149395165Y-86987543D01*
X149371609Y-86935964D01*
X149335377Y-86856627D01*
X149241128Y-86747857D01*
X149241127Y-86747856D01*
X149241126Y-86747855D01*
X149120057Y-86670049D01*
X149120054Y-86670047D01*
X149120053Y-86670047D01*
X149120050Y-86670046D01*
X148981964Y-86629500D01*
X148981961Y-86629500D01*
X148838039Y-86629500D01*
X148838035Y-86629500D01*
X148699949Y-86670046D01*
X148699942Y-86670049D01*
X148578873Y-86747855D01*
X148484622Y-86856628D01*
X148424834Y-86987543D01*
X148408088Y-87104013D01*
X148381092Y-87158920D01*
X148380100Y-87159927D01*
X139660489Y-95879540D01*
X139660488Y-95879539D01*
X139604539Y-95935489D01*
X139564980Y-96004007D01*
X139564978Y-96004011D01*
X139553694Y-96046124D01*
X139520370Y-96097438D01*
X139463248Y-96119364D01*
X139458068Y-96119500D01*
X139375252Y-96119500D01*
X139375251Y-96119500D01*
X139375241Y-96119501D01*
X139316772Y-96131132D01*
X139316766Y-96131134D01*
X139265002Y-96165723D01*
X139206114Y-96182332D01*
X139154998Y-96165723D01*
X139103233Y-96131134D01*
X139103231Y-96131133D01*
X139103228Y-96131132D01*
X139103227Y-96131132D01*
X139044758Y-96119501D01*
X139044748Y-96119500D01*
X138105252Y-96119500D01*
X138105251Y-96119500D01*
X138105241Y-96119501D01*
X138046772Y-96131132D01*
X138046766Y-96131134D01*
X137995002Y-96165723D01*
X137936114Y-96182332D01*
X137884998Y-96165723D01*
X137833233Y-96131134D01*
X137833231Y-96131133D01*
X137833228Y-96131132D01*
X137833227Y-96131132D01*
X137774758Y-96119501D01*
X137774748Y-96119500D01*
X136835252Y-96119500D01*
X136835251Y-96119500D01*
X136835241Y-96119501D01*
X136776772Y-96131132D01*
X136776766Y-96131134D01*
X136725002Y-96165723D01*
X136666114Y-96182332D01*
X136614998Y-96165723D01*
X136563233Y-96131134D01*
X136563231Y-96131133D01*
X136563228Y-96131132D01*
X136563227Y-96131132D01*
X136504758Y-96119501D01*
X136504748Y-96119500D01*
X135565252Y-96119500D01*
X135565251Y-96119500D01*
X135565241Y-96119501D01*
X135506772Y-96131132D01*
X135506766Y-96131134D01*
X135440451Y-96175445D01*
X135440445Y-96175451D01*
X135401815Y-96233265D01*
X135353765Y-96271144D01*
X135292626Y-96273546D01*
X135241753Y-96239552D01*
X135220576Y-96182149D01*
X135220500Y-96178263D01*
X135220500Y-95350253D01*
X135220498Y-95350241D01*
X135217711Y-95336231D01*
X135208867Y-95291769D01*
X135174274Y-95239999D01*
X135157667Y-95181115D01*
X135174274Y-95130001D01*
X135208867Y-95078231D01*
X135220500Y-95019748D01*
X135220500Y-94080252D01*
X135208867Y-94021769D01*
X135174274Y-93969999D01*
X135157667Y-93911115D01*
X135174274Y-93860001D01*
X135208867Y-93808231D01*
X135220500Y-93749748D01*
X135220500Y-92810252D01*
X135208867Y-92751769D01*
X135174274Y-92699999D01*
X135157667Y-92641115D01*
X135174274Y-92590001D01*
X135208867Y-92538231D01*
X135220500Y-92479748D01*
X135220500Y-91540252D01*
X135208867Y-91481769D01*
X135174274Y-91429999D01*
X135157667Y-91371115D01*
X135174274Y-91320001D01*
X135208867Y-91268231D01*
X135220500Y-91209748D01*
X135220500Y-90270252D01*
X135220304Y-90269269D01*
X135214891Y-90242054D01*
X135208867Y-90211769D01*
X135174274Y-90159999D01*
X135157667Y-90101115D01*
X135174274Y-90050001D01*
X135208867Y-89998231D01*
X135220500Y-89939748D01*
X135220500Y-89000252D01*
X135208867Y-88941769D01*
X135174274Y-88889999D01*
X135162189Y-88847149D01*
X140544269Y-88847149D01*
X140610155Y-88889492D01*
X140748109Y-88929999D01*
X140748112Y-88930000D01*
X140891888Y-88930000D01*
X140891890Y-88929999D01*
X141029844Y-88889492D01*
X141029846Y-88889491D01*
X141095728Y-88847149D01*
X141095729Y-88847149D01*
X141944269Y-88847149D01*
X142010155Y-88889492D01*
X142148109Y-88929999D01*
X142148112Y-88930000D01*
X142291888Y-88930000D01*
X142291890Y-88929999D01*
X142429844Y-88889492D01*
X142429846Y-88889491D01*
X142495728Y-88847149D01*
X142495729Y-88847149D01*
X142220000Y-88571421D01*
X141944269Y-88847149D01*
X141095729Y-88847149D01*
X140820000Y-88571421D01*
X140544269Y-88847149D01*
X135162189Y-88847149D01*
X135157667Y-88831115D01*
X135174274Y-88780001D01*
X135208867Y-88728231D01*
X135220500Y-88669748D01*
X135220500Y-88147149D01*
X139844269Y-88147149D01*
X139910155Y-88189492D01*
X140048109Y-88229999D01*
X140048112Y-88230000D01*
X140191888Y-88230000D01*
X140191892Y-88229999D01*
X140202491Y-88226887D01*
X140263651Y-88228633D01*
X140312105Y-88265994D01*
X140329345Y-88324701D01*
X140328377Y-88335964D01*
X140314858Y-88429995D01*
X140314858Y-88430002D01*
X140335319Y-88572314D01*
X140395048Y-88703100D01*
X140399889Y-88708687D01*
X140678578Y-88429999D01*
X140658688Y-88410109D01*
X140720000Y-88410109D01*
X140720000Y-88449891D01*
X140735224Y-88486645D01*
X140763355Y-88514776D01*
X140800109Y-88530000D01*
X140839891Y-88530000D01*
X140876645Y-88514776D01*
X140904776Y-88486645D01*
X140920000Y-88449891D01*
X140920000Y-88429999D01*
X140961421Y-88429999D01*
X141240109Y-88708687D01*
X141244950Y-88703102D01*
X141244951Y-88703100D01*
X141304680Y-88572314D01*
X141325142Y-88430002D01*
X141325142Y-88429997D01*
X141311622Y-88335965D01*
X141322055Y-88275676D01*
X141365933Y-88233034D01*
X141426495Y-88224326D01*
X141437506Y-88226886D01*
X141448109Y-88229999D01*
X141448112Y-88230000D01*
X141591888Y-88230000D01*
X141591892Y-88229999D01*
X141602491Y-88226887D01*
X141663651Y-88228633D01*
X141712105Y-88265994D01*
X141729345Y-88324701D01*
X141728377Y-88335964D01*
X141714858Y-88429995D01*
X141714858Y-88430002D01*
X141735319Y-88572314D01*
X141795048Y-88703100D01*
X141799889Y-88708687D01*
X142078577Y-88429999D01*
X142058687Y-88410109D01*
X142120000Y-88410109D01*
X142120000Y-88449891D01*
X142135224Y-88486645D01*
X142163355Y-88514776D01*
X142200109Y-88530000D01*
X142239891Y-88530000D01*
X142276645Y-88514776D01*
X142304776Y-88486645D01*
X142320000Y-88449891D01*
X142320000Y-88429999D01*
X142361421Y-88429999D01*
X142640109Y-88708687D01*
X142644950Y-88703102D01*
X142644951Y-88703100D01*
X142704680Y-88572314D01*
X142725142Y-88430002D01*
X142725142Y-88429997D01*
X142711622Y-88335965D01*
X142722055Y-88275676D01*
X142765933Y-88233034D01*
X142826495Y-88224326D01*
X142837506Y-88226886D01*
X142848109Y-88229999D01*
X142848112Y-88230000D01*
X142991888Y-88230000D01*
X142991890Y-88229999D01*
X143129844Y-88189492D01*
X143129846Y-88189491D01*
X143195728Y-88147149D01*
X143195729Y-88147149D01*
X142920000Y-87871421D01*
X142670580Y-88120840D01*
X142670577Y-88120841D01*
X142562911Y-88228509D01*
X142361421Y-88429999D01*
X142320000Y-88429999D01*
X142320000Y-88410109D01*
X142304776Y-88373355D01*
X142276645Y-88345224D01*
X142239891Y-88330000D01*
X142200109Y-88330000D01*
X142163355Y-88345224D01*
X142135224Y-88373355D01*
X142120000Y-88410109D01*
X142058687Y-88410109D01*
X141877089Y-88228510D01*
X141877089Y-88228511D01*
X141829220Y-88180642D01*
X141829217Y-88180637D01*
X141520000Y-87871421D01*
X141270580Y-88120840D01*
X141270577Y-88120841D01*
X141162911Y-88228509D01*
X140961421Y-88429999D01*
X140920000Y-88429999D01*
X140920000Y-88410109D01*
X140904776Y-88373355D01*
X140876645Y-88345224D01*
X140839891Y-88330000D01*
X140800109Y-88330000D01*
X140763355Y-88345224D01*
X140735224Y-88373355D01*
X140720000Y-88410109D01*
X140658688Y-88410109D01*
X140477089Y-88228510D01*
X140477089Y-88228511D01*
X140429220Y-88180642D01*
X140429217Y-88180637D01*
X140120000Y-87871421D01*
X139844269Y-88147149D01*
X135220500Y-88147149D01*
X135220500Y-87730252D01*
X135220450Y-87730003D01*
X135220449Y-87729997D01*
X139614858Y-87729997D01*
X139614858Y-87730002D01*
X139635319Y-87872314D01*
X139695048Y-88003100D01*
X139699889Y-88008687D01*
X139978577Y-87729999D01*
X139958687Y-87710109D01*
X140020000Y-87710109D01*
X140020000Y-87749891D01*
X140035224Y-87786645D01*
X140063355Y-87814776D01*
X140100109Y-87830000D01*
X140139891Y-87830000D01*
X140176645Y-87814776D01*
X140204776Y-87786645D01*
X140220000Y-87749891D01*
X140220000Y-87729999D01*
X140261421Y-87729999D01*
X140261421Y-87730000D01*
X140462910Y-87931490D01*
X140570578Y-88039157D01*
X140819999Y-88288577D01*
X141069418Y-88039159D01*
X141069419Y-88039159D01*
X141177089Y-87931490D01*
X141378578Y-87730000D01*
X141378578Y-87729999D01*
X141358688Y-87710109D01*
X141420000Y-87710109D01*
X141420000Y-87749891D01*
X141435224Y-87786645D01*
X141463355Y-87814776D01*
X141500109Y-87830000D01*
X141539891Y-87830000D01*
X141576645Y-87814776D01*
X141604776Y-87786645D01*
X141620000Y-87749891D01*
X141620000Y-87729999D01*
X141661421Y-87729999D01*
X141661421Y-87730000D01*
X141862910Y-87931490D01*
X141970578Y-88039157D01*
X142219999Y-88288577D01*
X142469418Y-88039159D01*
X142469419Y-88039159D01*
X142577089Y-87931490D01*
X142778578Y-87730000D01*
X142778578Y-87729999D01*
X142758688Y-87710109D01*
X142820000Y-87710109D01*
X142820000Y-87749891D01*
X142835224Y-87786645D01*
X142863355Y-87814776D01*
X142900109Y-87830000D01*
X142939891Y-87830000D01*
X142976645Y-87814776D01*
X143004776Y-87786645D01*
X143020000Y-87749891D01*
X143020000Y-87729999D01*
X143061421Y-87729999D01*
X143340109Y-88008687D01*
X143344950Y-88003102D01*
X143344951Y-88003100D01*
X143404680Y-87872314D01*
X143425142Y-87730002D01*
X143425142Y-87729997D01*
X143404680Y-87587685D01*
X143344951Y-87456899D01*
X143340109Y-87451311D01*
X143061421Y-87729999D01*
X143020000Y-87729999D01*
X143020000Y-87710109D01*
X143004776Y-87673355D01*
X142976645Y-87645224D01*
X142939891Y-87630000D01*
X142900109Y-87630000D01*
X142863355Y-87645224D01*
X142835224Y-87673355D01*
X142820000Y-87710109D01*
X142758688Y-87710109D01*
X142577089Y-87528510D01*
X142577089Y-87528511D01*
X142529220Y-87480642D01*
X142529217Y-87480637D01*
X142220000Y-87171421D01*
X141970580Y-87420840D01*
X141970577Y-87420841D01*
X141862911Y-87528509D01*
X141661421Y-87729999D01*
X141620000Y-87729999D01*
X141620000Y-87710109D01*
X141604776Y-87673355D01*
X141576645Y-87645224D01*
X141539891Y-87630000D01*
X141500109Y-87630000D01*
X141463355Y-87645224D01*
X141435224Y-87673355D01*
X141420000Y-87710109D01*
X141358688Y-87710109D01*
X141177089Y-87528510D01*
X141177089Y-87528511D01*
X141129220Y-87480642D01*
X141129217Y-87480637D01*
X140820000Y-87171421D01*
X140570580Y-87420840D01*
X140570577Y-87420841D01*
X140462911Y-87528509D01*
X140261421Y-87729999D01*
X140220000Y-87729999D01*
X140220000Y-87710109D01*
X140204776Y-87673355D01*
X140176645Y-87645224D01*
X140139891Y-87630000D01*
X140100109Y-87630000D01*
X140063355Y-87645224D01*
X140035224Y-87673355D01*
X140020000Y-87710109D01*
X139958687Y-87710109D01*
X139699889Y-87451311D01*
X139695048Y-87456899D01*
X139695046Y-87456902D01*
X139635319Y-87587685D01*
X139614858Y-87729997D01*
X135220449Y-87729997D01*
X135209182Y-87673355D01*
X135208867Y-87671769D01*
X135174274Y-87619999D01*
X135157667Y-87561115D01*
X135174274Y-87510001D01*
X135208867Y-87458231D01*
X135220500Y-87399748D01*
X135220500Y-86747149D01*
X139844269Y-86747149D01*
X139910155Y-86789492D01*
X140048109Y-86829999D01*
X140048112Y-86830000D01*
X140191888Y-86830000D01*
X140191892Y-86829999D01*
X140202491Y-86826887D01*
X140263651Y-86828633D01*
X140312105Y-86865994D01*
X140329345Y-86924701D01*
X140328377Y-86935964D01*
X140314858Y-87029995D01*
X140314858Y-87030003D01*
X140328377Y-87124034D01*
X140317944Y-87184324D01*
X140274065Y-87226966D01*
X140213503Y-87235673D01*
X140202496Y-87233114D01*
X140191891Y-87230000D01*
X140048109Y-87230000D01*
X139910156Y-87270507D01*
X139910151Y-87270509D01*
X139844269Y-87312848D01*
X140119999Y-87588577D01*
X140369418Y-87339159D01*
X140369419Y-87339159D01*
X140477089Y-87231490D01*
X140678578Y-87030000D01*
X140678578Y-87029999D01*
X140658688Y-87010109D01*
X140720000Y-87010109D01*
X140720000Y-87049891D01*
X140735224Y-87086645D01*
X140763355Y-87114776D01*
X140800109Y-87130000D01*
X140839891Y-87130000D01*
X140876645Y-87114776D01*
X140904776Y-87086645D01*
X140920000Y-87049891D01*
X140920000Y-87029999D01*
X140961421Y-87029999D01*
X140961421Y-87030000D01*
X141162910Y-87231490D01*
X141270578Y-87339157D01*
X141519999Y-87588577D01*
X141769418Y-87339159D01*
X141769419Y-87339159D01*
X141877089Y-87231490D01*
X142078578Y-87030000D01*
X142078578Y-87029999D01*
X142058688Y-87010109D01*
X142120000Y-87010109D01*
X142120000Y-87049891D01*
X142135224Y-87086645D01*
X142163355Y-87114776D01*
X142200109Y-87130000D01*
X142239891Y-87130000D01*
X142276645Y-87114776D01*
X142304776Y-87086645D01*
X142320000Y-87049891D01*
X142320000Y-87029999D01*
X142361421Y-87029999D01*
X142361421Y-87030000D01*
X142562910Y-87231490D01*
X142670578Y-87339157D01*
X142919999Y-87588577D01*
X143195728Y-87312848D01*
X143129844Y-87270507D01*
X142991890Y-87230000D01*
X142848112Y-87230000D01*
X142848104Y-87230001D01*
X142837501Y-87233114D01*
X142776341Y-87231364D01*
X142727890Y-87193999D01*
X142710654Y-87135292D01*
X142711622Y-87124033D01*
X142725142Y-87030001D01*
X142725142Y-87029997D01*
X142711622Y-86935965D01*
X142722055Y-86875676D01*
X142765933Y-86833034D01*
X142826495Y-86824326D01*
X142837506Y-86826886D01*
X142848109Y-86829999D01*
X142848112Y-86830000D01*
X142991888Y-86830000D01*
X142991890Y-86829999D01*
X143129844Y-86789492D01*
X143129846Y-86789491D01*
X143195728Y-86747149D01*
X143195729Y-86747149D01*
X142920000Y-86471421D01*
X142670580Y-86720840D01*
X142670577Y-86720841D01*
X142562911Y-86828509D01*
X142361421Y-87029999D01*
X142320000Y-87029999D01*
X142320000Y-87010109D01*
X142304776Y-86973355D01*
X142276645Y-86945224D01*
X142239891Y-86930000D01*
X142200109Y-86930000D01*
X142163355Y-86945224D01*
X142135224Y-86973355D01*
X142120000Y-87010109D01*
X142058688Y-87010109D01*
X141877089Y-86828510D01*
X141877089Y-86828511D01*
X141829220Y-86780642D01*
X141829217Y-86780637D01*
X141520000Y-86471421D01*
X141270580Y-86720840D01*
X141270577Y-86720841D01*
X141162911Y-86828509D01*
X140961421Y-87029999D01*
X140920000Y-87029999D01*
X140920000Y-87010109D01*
X140904776Y-86973355D01*
X140876645Y-86945224D01*
X140839891Y-86930000D01*
X140800109Y-86930000D01*
X140763355Y-86945224D01*
X140735224Y-86973355D01*
X140720000Y-87010109D01*
X140658688Y-87010109D01*
X140477089Y-86828510D01*
X140477089Y-86828511D01*
X140429220Y-86780642D01*
X140429217Y-86780637D01*
X140120000Y-86471421D01*
X139844269Y-86747149D01*
X135220500Y-86747149D01*
X135220500Y-86460252D01*
X135208867Y-86401769D01*
X135174274Y-86349999D01*
X135168633Y-86329997D01*
X139614858Y-86329997D01*
X139614858Y-86330002D01*
X139635319Y-86472314D01*
X139695048Y-86603100D01*
X139699889Y-86608687D01*
X139978577Y-86329999D01*
X139958687Y-86310109D01*
X140020000Y-86310109D01*
X140020000Y-86349891D01*
X140035224Y-86386645D01*
X140063355Y-86414776D01*
X140100109Y-86430000D01*
X140139891Y-86430000D01*
X140176645Y-86414776D01*
X140204776Y-86386645D01*
X140220000Y-86349891D01*
X140220000Y-86329999D01*
X140261421Y-86329999D01*
X140261421Y-86330000D01*
X140462910Y-86531490D01*
X140570578Y-86639157D01*
X140819999Y-86888577D01*
X141069418Y-86639159D01*
X141069419Y-86639159D01*
X141177089Y-86531490D01*
X141378578Y-86330000D01*
X141378578Y-86329999D01*
X141358688Y-86310109D01*
X141420000Y-86310109D01*
X141420000Y-86349891D01*
X141435224Y-86386645D01*
X141463355Y-86414776D01*
X141500109Y-86430000D01*
X141539891Y-86430000D01*
X141576645Y-86414776D01*
X141604776Y-86386645D01*
X141620000Y-86349891D01*
X141620000Y-86329999D01*
X141661421Y-86329999D01*
X141661421Y-86330000D01*
X141862910Y-86531490D01*
X141970578Y-86639157D01*
X142219999Y-86888577D01*
X142469418Y-86639159D01*
X142469419Y-86639159D01*
X142577089Y-86531490D01*
X142778578Y-86330000D01*
X142778578Y-86329999D01*
X142758688Y-86310109D01*
X142820000Y-86310109D01*
X142820000Y-86349891D01*
X142835224Y-86386645D01*
X142863355Y-86414776D01*
X142900109Y-86430000D01*
X142939891Y-86430000D01*
X142976645Y-86414776D01*
X143004776Y-86386645D01*
X143020000Y-86349891D01*
X143020000Y-86329999D01*
X143061421Y-86329999D01*
X143340109Y-86608687D01*
X143344950Y-86603102D01*
X143344951Y-86603100D01*
X143404680Y-86472314D01*
X143425142Y-86330002D01*
X143425142Y-86329997D01*
X143404680Y-86187685D01*
X143344951Y-86056899D01*
X143340109Y-86051311D01*
X143061421Y-86329999D01*
X143020000Y-86329999D01*
X143020000Y-86310109D01*
X143004776Y-86273355D01*
X142976645Y-86245224D01*
X142939891Y-86230000D01*
X142900109Y-86230000D01*
X142863355Y-86245224D01*
X142835224Y-86273355D01*
X142820000Y-86310109D01*
X142758688Y-86310109D01*
X142577089Y-86128510D01*
X142577089Y-86128511D01*
X142529220Y-86080642D01*
X142529217Y-86080637D01*
X142220000Y-85771421D01*
X141970580Y-86020840D01*
X141970577Y-86020841D01*
X141862911Y-86128509D01*
X141661421Y-86329999D01*
X141620000Y-86329999D01*
X141620000Y-86310109D01*
X141604776Y-86273355D01*
X141576645Y-86245224D01*
X141539891Y-86230000D01*
X141500109Y-86230000D01*
X141463355Y-86245224D01*
X141435224Y-86273355D01*
X141420000Y-86310109D01*
X141358688Y-86310109D01*
X141177089Y-86128510D01*
X141177089Y-86128511D01*
X141129220Y-86080642D01*
X141129217Y-86080637D01*
X140820000Y-85771421D01*
X140570580Y-86020840D01*
X140570577Y-86020841D01*
X140462911Y-86128509D01*
X140261421Y-86329999D01*
X140220000Y-86329999D01*
X140220000Y-86310109D01*
X140204776Y-86273355D01*
X140176645Y-86245224D01*
X140139891Y-86230000D01*
X140100109Y-86230000D01*
X140063355Y-86245224D01*
X140035224Y-86273355D01*
X140020000Y-86310109D01*
X139958687Y-86310109D01*
X139699889Y-86051311D01*
X139695048Y-86056899D01*
X139695046Y-86056902D01*
X139635319Y-86187685D01*
X139614858Y-86329997D01*
X135168633Y-86329997D01*
X135157667Y-86291115D01*
X135174274Y-86240001D01*
X135208867Y-86188231D01*
X135220500Y-86129748D01*
X135220500Y-85912848D01*
X139844269Y-85912848D01*
X140119999Y-86188577D01*
X140369418Y-85939159D01*
X140369419Y-85939159D01*
X140477089Y-85831490D01*
X140678578Y-85630000D01*
X140678578Y-85629999D01*
X140658688Y-85610109D01*
X140720000Y-85610109D01*
X140720000Y-85649891D01*
X140735224Y-85686645D01*
X140763355Y-85714776D01*
X140800109Y-85730000D01*
X140839891Y-85730000D01*
X140876645Y-85714776D01*
X140904776Y-85686645D01*
X140920000Y-85649891D01*
X140920000Y-85629999D01*
X140961421Y-85629999D01*
X140961421Y-85630000D01*
X141162910Y-85831490D01*
X141270578Y-85939157D01*
X141519999Y-86188577D01*
X141769418Y-85939159D01*
X141769419Y-85939159D01*
X141877089Y-85831490D01*
X142078578Y-85630000D01*
X142078578Y-85629999D01*
X142058688Y-85610109D01*
X142120000Y-85610109D01*
X142120000Y-85649891D01*
X142135224Y-85686645D01*
X142163355Y-85714776D01*
X142200109Y-85730000D01*
X142239891Y-85730000D01*
X142276645Y-85714776D01*
X142304776Y-85686645D01*
X142320000Y-85649891D01*
X142320000Y-85629999D01*
X142361421Y-85629999D01*
X142361421Y-85630000D01*
X142562910Y-85831490D01*
X142670578Y-85939157D01*
X142919999Y-86188577D01*
X143195728Y-85912848D01*
X143129844Y-85870507D01*
X142991890Y-85830000D01*
X142848112Y-85830000D01*
X142848104Y-85830001D01*
X142837501Y-85833114D01*
X142776341Y-85831364D01*
X142727890Y-85793999D01*
X142710654Y-85735292D01*
X142711622Y-85724033D01*
X142725142Y-85630001D01*
X142725142Y-85629997D01*
X142704680Y-85487685D01*
X142644951Y-85356899D01*
X142640109Y-85351311D01*
X142361421Y-85629999D01*
X142320000Y-85629999D01*
X142320000Y-85610109D01*
X142304776Y-85573355D01*
X142276645Y-85545224D01*
X142239891Y-85530000D01*
X142200109Y-85530000D01*
X142163355Y-85545224D01*
X142135224Y-85573355D01*
X142120000Y-85610109D01*
X142058688Y-85610109D01*
X141799889Y-85351311D01*
X141795048Y-85356899D01*
X141795046Y-85356902D01*
X141735319Y-85487685D01*
X141714858Y-85629997D01*
X141714858Y-85630003D01*
X141728377Y-85724034D01*
X141717944Y-85784324D01*
X141674065Y-85826966D01*
X141613503Y-85835673D01*
X141602496Y-85833114D01*
X141591891Y-85830000D01*
X141448112Y-85830000D01*
X141448104Y-85830001D01*
X141437501Y-85833114D01*
X141376341Y-85831364D01*
X141327890Y-85793999D01*
X141310654Y-85735292D01*
X141311622Y-85724033D01*
X141325142Y-85630001D01*
X141325142Y-85629997D01*
X141304680Y-85487685D01*
X141244951Y-85356899D01*
X141240109Y-85351311D01*
X140961421Y-85629999D01*
X140920000Y-85629999D01*
X140920000Y-85610109D01*
X140904776Y-85573355D01*
X140876645Y-85545224D01*
X140839891Y-85530000D01*
X140800109Y-85530000D01*
X140763355Y-85545224D01*
X140735224Y-85573355D01*
X140720000Y-85610109D01*
X140658688Y-85610109D01*
X140399889Y-85351311D01*
X140395048Y-85356899D01*
X140395046Y-85356902D01*
X140335319Y-85487685D01*
X140314858Y-85629997D01*
X140314858Y-85630003D01*
X140328377Y-85724034D01*
X140317944Y-85784324D01*
X140274065Y-85826966D01*
X140213503Y-85835673D01*
X140202496Y-85833114D01*
X140191891Y-85830000D01*
X140048109Y-85830000D01*
X139910156Y-85870507D01*
X139910151Y-85870509D01*
X139844269Y-85912848D01*
X135220500Y-85912848D01*
X135220500Y-85212848D01*
X140544269Y-85212848D01*
X140819999Y-85488577D01*
X141095728Y-85212848D01*
X141944269Y-85212848D01*
X142219999Y-85488577D01*
X142495728Y-85212848D01*
X142429844Y-85170507D01*
X142291890Y-85130000D01*
X142148109Y-85130000D01*
X142010156Y-85170507D01*
X142010151Y-85170509D01*
X141944269Y-85212848D01*
X141095728Y-85212848D01*
X141029844Y-85170507D01*
X140891890Y-85130000D01*
X140748109Y-85130000D01*
X140610156Y-85170507D01*
X140610151Y-85170509D01*
X140544269Y-85212848D01*
X135220500Y-85212848D01*
X135220500Y-85190252D01*
X135208867Y-85131769D01*
X135174274Y-85079999D01*
X135157667Y-85021115D01*
X135174274Y-84970001D01*
X135208867Y-84918231D01*
X135220500Y-84859748D01*
X135220500Y-83920252D01*
X135208867Y-83861769D01*
X135174274Y-83809999D01*
X135157667Y-83751115D01*
X135174274Y-83700001D01*
X135208867Y-83648231D01*
X135220500Y-83589748D01*
X135220500Y-82650252D01*
X135208867Y-82591769D01*
X135174274Y-82539999D01*
X135157667Y-82481115D01*
X135174274Y-82430001D01*
X135208867Y-82378231D01*
X135220500Y-82319748D01*
X135220500Y-81380252D01*
X135208867Y-81321769D01*
X135174274Y-81269999D01*
X135157667Y-81211115D01*
X135174274Y-81160001D01*
X135208867Y-81108231D01*
X135220500Y-81049748D01*
X135220500Y-80110252D01*
X135208867Y-80051769D01*
X135164552Y-79985448D01*
X135164548Y-79985445D01*
X135098233Y-79941134D01*
X135098231Y-79941133D01*
X135098228Y-79941132D01*
X135098227Y-79941132D01*
X135039758Y-79929501D01*
X135039748Y-79929500D01*
X133500252Y-79929500D01*
X133500251Y-79929500D01*
X133500241Y-79929501D01*
X133441772Y-79941132D01*
X133441766Y-79941134D01*
X133375451Y-79985445D01*
X133375445Y-79985451D01*
X133331134Y-80051766D01*
X133331132Y-80051772D01*
X133319501Y-80110241D01*
X133319500Y-80110253D01*
X133319500Y-80205569D01*
X133300593Y-80263760D01*
X133251093Y-80299724D01*
X133220500Y-80304569D01*
X132878146Y-80304569D01*
X132819955Y-80285662D01*
X132803327Y-80270400D01*
X132762191Y-80222926D01*
X132729245Y-80201753D01*
X132641120Y-80145118D01*
X132641117Y-80145116D01*
X132641116Y-80145116D01*
X132641113Y-80145115D01*
X132503027Y-80104569D01*
X132503024Y-80104569D01*
X132359102Y-80104569D01*
X132359098Y-80104569D01*
X132221012Y-80145115D01*
X132221005Y-80145118D01*
X132099936Y-80222924D01*
X132005685Y-80331697D01*
X131945897Y-80462612D01*
X131925416Y-80605066D01*
X131925416Y-80605072D01*
X131928504Y-80626551D01*
X131918070Y-80686840D01*
X131900516Y-80710643D01*
X128915489Y-83695672D01*
X128915488Y-83695671D01*
X128859539Y-83751621D01*
X128819980Y-83820139D01*
X128819978Y-83820143D01*
X128799500Y-83896567D01*
X128799500Y-84470251D01*
X128780593Y-84528442D01*
X128745446Y-84558460D01*
X128621781Y-84621471D01*
X128526470Y-84716782D01*
X128465283Y-84836867D01*
X128465281Y-84836874D01*
X128449500Y-84936510D01*
X128449500Y-84954521D01*
X128430593Y-85012712D01*
X128420504Y-85024525D01*
X128379504Y-85065525D01*
X128324987Y-85093302D01*
X128264555Y-85083731D01*
X128221290Y-85040466D01*
X128210500Y-84995521D01*
X128210500Y-77919000D01*
X128229407Y-77860809D01*
X128278907Y-77824845D01*
X128309500Y-77820000D01*
X159110500Y-77820000D01*
X159168691Y-77838907D01*
G37*
%TD.AperFunction*%
%TA.AperFunction,Conductor*%
G36*
X131085445Y-82472400D02*
G01*
X131128710Y-82515665D01*
X131139500Y-82560610D01*
X131139500Y-82854314D01*
X131145932Y-82903174D01*
X131145932Y-82903175D01*
X131195933Y-83010401D01*
X131195934Y-83010402D01*
X131195935Y-83010404D01*
X131279596Y-83094065D01*
X131279597Y-83094065D01*
X131279598Y-83094066D01*
X131386824Y-83144067D01*
X131386825Y-83144067D01*
X131386827Y-83144068D01*
X131435684Y-83150500D01*
X131435685Y-83150500D01*
X131784314Y-83150500D01*
X131784316Y-83150500D01*
X131833173Y-83144068D01*
X131940404Y-83094065D01*
X132024065Y-83010404D01*
X132030275Y-82997085D01*
X132072003Y-82952337D01*
X132132064Y-82940662D01*
X132187517Y-82966519D01*
X132209724Y-82997084D01*
X132215935Y-83010404D01*
X132299596Y-83094065D01*
X132299597Y-83094065D01*
X132299598Y-83094066D01*
X132406824Y-83144067D01*
X132406825Y-83144067D01*
X132406827Y-83144068D01*
X132455684Y-83150500D01*
X132455685Y-83150500D01*
X132804314Y-83150500D01*
X132804316Y-83150500D01*
X132853173Y-83144068D01*
X132960404Y-83094065D01*
X133044065Y-83010404D01*
X133094068Y-82903173D01*
X133100500Y-82854316D01*
X133100500Y-82625477D01*
X133119407Y-82567286D01*
X133129489Y-82555480D01*
X133159442Y-82525528D01*
X133213955Y-82497751D01*
X133274388Y-82507322D01*
X133317653Y-82550585D01*
X133327225Y-82611017D01*
X133326542Y-82614845D01*
X133319500Y-82650246D01*
X133319500Y-83589746D01*
X133319501Y-83589758D01*
X133331132Y-83648227D01*
X133331134Y-83648233D01*
X133365723Y-83699998D01*
X133382332Y-83758886D01*
X133365723Y-83810002D01*
X133331134Y-83861766D01*
X133331132Y-83861772D01*
X133319501Y-83920241D01*
X133319500Y-83920253D01*
X133319500Y-84859746D01*
X133319501Y-84859758D01*
X133331132Y-84918227D01*
X133331134Y-84918233D01*
X133365723Y-84969998D01*
X133382332Y-85028886D01*
X133365723Y-85080002D01*
X133331134Y-85131766D01*
X133331132Y-85131772D01*
X133319501Y-85190241D01*
X133319500Y-85190253D01*
X133319500Y-86129746D01*
X133319501Y-86129758D01*
X133331132Y-86188227D01*
X133331134Y-86188233D01*
X133365723Y-86239998D01*
X133382332Y-86298886D01*
X133365723Y-86350002D01*
X133331134Y-86401766D01*
X133331132Y-86401772D01*
X133319501Y-86460241D01*
X133319500Y-86460253D01*
X133319500Y-87399746D01*
X133319501Y-87399758D01*
X133331132Y-87458227D01*
X133331134Y-87458233D01*
X133365723Y-87509998D01*
X133382332Y-87568886D01*
X133365723Y-87620002D01*
X133331134Y-87671766D01*
X133331132Y-87671772D01*
X133319501Y-87730241D01*
X133319500Y-87730253D01*
X133319500Y-88669746D01*
X133319501Y-88669758D01*
X133331132Y-88728227D01*
X133331134Y-88728233D01*
X133365723Y-88779998D01*
X133382332Y-88838886D01*
X133365723Y-88890002D01*
X133331134Y-88941766D01*
X133331132Y-88941772D01*
X133319501Y-89000241D01*
X133319500Y-89000253D01*
X133319500Y-89939746D01*
X133319501Y-89939758D01*
X133331132Y-89998227D01*
X133331134Y-89998233D01*
X133365723Y-90049998D01*
X133382332Y-90108886D01*
X133365723Y-90160002D01*
X133331134Y-90211766D01*
X133331132Y-90211772D01*
X133319501Y-90270241D01*
X133319500Y-90270253D01*
X133319500Y-91209746D01*
X133319501Y-91209758D01*
X133331132Y-91268227D01*
X133331134Y-91268233D01*
X133365723Y-91319998D01*
X133382332Y-91378886D01*
X133365723Y-91430002D01*
X133331134Y-91481766D01*
X133331132Y-91481772D01*
X133319501Y-91540241D01*
X133319500Y-91540253D01*
X133319500Y-92479746D01*
X133319501Y-92479758D01*
X133331132Y-92538227D01*
X133331134Y-92538233D01*
X133365723Y-92589998D01*
X133382332Y-92648886D01*
X133365723Y-92700002D01*
X133331134Y-92751766D01*
X133331132Y-92751772D01*
X133319501Y-92810241D01*
X133319500Y-92810253D01*
X133319500Y-93465521D01*
X133300593Y-93523712D01*
X133251093Y-93559676D01*
X133189907Y-93559676D01*
X133150496Y-93535525D01*
X131359496Y-91744525D01*
X131331719Y-91690008D01*
X131330500Y-91674521D01*
X131330500Y-91200768D01*
X131342632Y-91160777D01*
X131340134Y-91159743D01*
X131343863Y-91150735D01*
X131343867Y-91150731D01*
X131355500Y-91092248D01*
X131355500Y-90397000D01*
X131374407Y-90338809D01*
X131423907Y-90302845D01*
X131454500Y-90298000D01*
X132149747Y-90298000D01*
X132149748Y-90298000D01*
X132208231Y-90286367D01*
X132274552Y-90242052D01*
X132318867Y-90175731D01*
X132330500Y-90117248D01*
X132330500Y-89827752D01*
X132318867Y-89769269D01*
X132318864Y-89769265D01*
X132315187Y-89760387D01*
X132310386Y-89699390D01*
X132315187Y-89684613D01*
X132318863Y-89675736D01*
X132318867Y-89675731D01*
X132330500Y-89617248D01*
X132330500Y-89327752D01*
X132318867Y-89269269D01*
X132318864Y-89269265D01*
X132315187Y-89260387D01*
X132310386Y-89199390D01*
X132315187Y-89184613D01*
X132318863Y-89175736D01*
X132318867Y-89175731D01*
X132330500Y-89117248D01*
X132330500Y-88827752D01*
X132318867Y-88769269D01*
X132274552Y-88702948D01*
X132229499Y-88672844D01*
X132208233Y-88658634D01*
X132208231Y-88658633D01*
X132208228Y-88658632D01*
X132208227Y-88658632D01*
X132149758Y-88647001D01*
X132149748Y-88647000D01*
X131454500Y-88647000D01*
X131396309Y-88628093D01*
X131360345Y-88578593D01*
X131355500Y-88548000D01*
X131355500Y-88352753D01*
X131355498Y-88352741D01*
X131349920Y-88324701D01*
X131343867Y-88294269D01*
X131343863Y-88294264D01*
X131340134Y-88285257D01*
X131342630Y-88284223D01*
X131330500Y-88244232D01*
X131330500Y-87070437D01*
X131330499Y-87070435D01*
X131314334Y-87010109D01*
X131310021Y-86994011D01*
X131308036Y-86989218D01*
X131300500Y-86951333D01*
X131300500Y-86446510D01*
X131296703Y-86422541D01*
X131284719Y-86346874D01*
X131284716Y-86346869D01*
X131284716Y-86346867D01*
X131223529Y-86226782D01*
X131223528Y-86226780D01*
X131128220Y-86131472D01*
X131128217Y-86131470D01*
X131008132Y-86070283D01*
X131008127Y-86070281D01*
X131008126Y-86070281D01*
X130974913Y-86065020D01*
X130908490Y-86054500D01*
X130908488Y-86054500D01*
X130440479Y-86054500D01*
X130382288Y-86035593D01*
X130370475Y-86025504D01*
X129779496Y-85434525D01*
X129751719Y-85380008D01*
X129750500Y-85364521D01*
X129750500Y-84936510D01*
X129738343Y-84859758D01*
X129734719Y-84836874D01*
X129734716Y-84836869D01*
X129734716Y-84836867D01*
X129673529Y-84716782D01*
X129673528Y-84716780D01*
X129578220Y-84621472D01*
X129575844Y-84620261D01*
X129454554Y-84558460D01*
X129411290Y-84515195D01*
X129400500Y-84470251D01*
X129400500Y-84101610D01*
X129419407Y-84043419D01*
X129429490Y-84031612D01*
X130970496Y-82490605D01*
X131025013Y-82462829D01*
X131085445Y-82472400D01*
G37*
%TD.AperFunction*%
%TA.AperFunction,Conductor*%
G36*
X128738214Y-85879139D02*
G01*
X128740093Y-85879139D01*
X128740096Y-85879140D01*
X128741865Y-85879714D01*
X128741874Y-85879719D01*
X128813044Y-85890991D01*
X128841510Y-85895500D01*
X129349521Y-85895500D01*
X129407712Y-85914407D01*
X129419525Y-85924496D01*
X129970504Y-86475475D01*
X129998281Y-86529992D01*
X129999500Y-86545479D01*
X129999500Y-87013489D01*
X130015281Y-87113125D01*
X130015283Y-87113132D01*
X130076418Y-87233114D01*
X130076472Y-87233220D01*
X130171780Y-87328528D01*
X130171782Y-87328529D01*
X130291867Y-87389716D01*
X130291869Y-87389716D01*
X130291874Y-87389719D01*
X130367541Y-87401703D01*
X130391510Y-87405500D01*
X130391512Y-87405500D01*
X130630500Y-87405500D01*
X130688691Y-87424407D01*
X130724655Y-87473907D01*
X130729500Y-87504500D01*
X130729500Y-88244232D01*
X130717369Y-88284223D01*
X130719866Y-88285257D01*
X130716132Y-88294272D01*
X130704501Y-88352741D01*
X130704500Y-88352753D01*
X130704500Y-89067246D01*
X130704501Y-89067258D01*
X130716132Y-89125727D01*
X130716134Y-89125733D01*
X130749542Y-89175731D01*
X130760448Y-89192052D01*
X130826769Y-89236367D01*
X130871231Y-89245211D01*
X130885241Y-89247998D01*
X130885246Y-89247998D01*
X130885252Y-89248000D01*
X130885253Y-89248000D01*
X131155500Y-89248000D01*
X131213691Y-89266907D01*
X131249655Y-89316407D01*
X131254500Y-89347000D01*
X131254500Y-89617246D01*
X131254501Y-89617258D01*
X131266132Y-89675730D01*
X131269814Y-89684619D01*
X131274611Y-89745616D01*
X131269814Y-89760381D01*
X131266132Y-89769269D01*
X131254501Y-89827741D01*
X131254500Y-89827753D01*
X131254500Y-90098000D01*
X131235593Y-90156191D01*
X131186093Y-90192155D01*
X131155500Y-90197000D01*
X130885252Y-90197000D01*
X130885251Y-90197000D01*
X130885241Y-90197001D01*
X130826769Y-90208632D01*
X130817881Y-90212314D01*
X130756884Y-90217111D01*
X130742119Y-90212314D01*
X130733230Y-90208632D01*
X130674758Y-90197001D01*
X130674748Y-90197000D01*
X130385252Y-90197000D01*
X130385251Y-90197000D01*
X130385241Y-90197001D01*
X130326769Y-90208632D01*
X130317881Y-90212314D01*
X130256884Y-90217111D01*
X130242119Y-90212314D01*
X130233230Y-90208632D01*
X130174758Y-90197001D01*
X130174748Y-90197000D01*
X129904500Y-90197000D01*
X129846309Y-90178093D01*
X129810345Y-90128593D01*
X129805500Y-90098000D01*
X129805500Y-89827753D01*
X129805500Y-89827752D01*
X129793867Y-89769269D01*
X129793864Y-89769265D01*
X129790187Y-89760387D01*
X129785386Y-89699390D01*
X129790187Y-89684613D01*
X129793863Y-89675736D01*
X129793867Y-89675731D01*
X129805500Y-89617248D01*
X129805500Y-89327752D01*
X129793867Y-89269269D01*
X129793864Y-89269265D01*
X129790187Y-89260387D01*
X129785386Y-89199390D01*
X129790187Y-89184613D01*
X129793863Y-89175736D01*
X129793867Y-89175731D01*
X129805500Y-89117248D01*
X129805500Y-88827752D01*
X129793867Y-88769269D01*
X129749552Y-88702948D01*
X129704499Y-88672844D01*
X129683233Y-88658634D01*
X129683231Y-88658633D01*
X129683228Y-88658632D01*
X129683227Y-88658632D01*
X129624758Y-88647001D01*
X129624748Y-88647000D01*
X129624747Y-88647000D01*
X129407979Y-88647000D01*
X129349788Y-88628093D01*
X129337975Y-88618004D01*
X128639496Y-87919525D01*
X128611719Y-87865008D01*
X128610500Y-87849521D01*
X128610500Y-85973294D01*
X128629407Y-85915103D01*
X128678907Y-85879139D01*
X128734079Y-85879139D01*
X128734180Y-85878500D01*
X128738214Y-85879139D01*
G37*
%TD.AperFunction*%
%TD*%
M02*
