%TF.GenerationSoftware,KiCad,Pcbnew,8.0.8-8.0.8-0~ubuntu24.04.1*%
%TF.CreationDate,2025-07-21T15:44:26-04:00*%
%TF.ProjectId,electronics,656c6563-7472-46f6-9e69-63732e6b6963,rev?*%
%TF.SameCoordinates,Original*%
%TF.FileFunction,Copper,L2,Bot*%
%TF.FilePolarity,Positive*%
%FSLAX46Y46*%
G04 Gerber Fmt 4.6, Leading zero omitted, Abs format (unit mm)*
G04 Created by KiCad (PCBNEW 8.0.8-8.0.8-0~ubuntu24.04.1) date 2025-07-21 15:44:26*
%MOMM*%
%LPD*%
G01*
G04 APERTURE LIST*
G04 Aperture macros list*
%AMRoundRect*
0 Rectangle with rounded corners*
0 $1 Rounding radius*
0 $2 $3 $4 $5 $6 $7 $8 $9 X,Y pos of 4 corners*
0 Add a 4 corners polygon primitive as box body*
4,1,4,$2,$3,$4,$5,$6,$7,$8,$9,$2,$3,0*
0 Add four circle primitives for the rounded corners*
1,1,$1+$1,$2,$3*
1,1,$1+$1,$4,$5*
1,1,$1+$1,$6,$7*
1,1,$1+$1,$8,$9*
0 Add four rect primitives between the rounded corners*
20,1,$1+$1,$2,$3,$4,$5,0*
20,1,$1+$1,$4,$5,$6,$7,0*
20,1,$1+$1,$6,$7,$8,$9,0*
20,1,$1+$1,$8,$9,$2,$3,0*%
G04 Aperture macros list end*
%TA.AperFunction,ComponentPad*%
%ADD10R,2.000000X2.000000*%
%TD*%
%TA.AperFunction,ComponentPad*%
%ADD11C,2.000000*%
%TD*%
%TA.AperFunction,ComponentPad*%
%ADD12RoundRect,0.250000X-0.625000X0.350000X-0.625000X-0.350000X0.625000X-0.350000X0.625000X0.350000X0*%
%TD*%
%TA.AperFunction,ComponentPad*%
%ADD13O,1.750000X1.200000*%
%TD*%
%TA.AperFunction,HeatsinkPad*%
%ADD14C,0.600000*%
%TD*%
%TA.AperFunction,ViaPad*%
%ADD15C,0.600000*%
%TD*%
%TA.AperFunction,Conductor*%
%ADD16C,0.200000*%
%TD*%
G04 APERTURE END LIST*
D10*
%TO.P,BZ1,1,+*%
%TO.N,/BZR*%
X146110000Y-128770000D03*
D11*
%TO.P,BZ1,2,-*%
%TO.N,GND*%
X156110000Y-128770000D03*
%TD*%
D12*
%TO.P,BT1,1,+*%
%TO.N,Net-(BT1-+)*%
X163325000Y-113825000D03*
D13*
%TO.P,BT1,2,-*%
%TO.N,GND*%
X163325000Y-115825000D03*
%TD*%
D14*
%TO.P,U1,41,GND*%
%TO.N,GND*%
X148500000Y-94275000D03*
X148500000Y-95675000D03*
X149200000Y-93575000D03*
X149200000Y-94975000D03*
X149200000Y-96375000D03*
X149900000Y-94275000D03*
X149900000Y-95675000D03*
X150600000Y-93575000D03*
X150600000Y-94975000D03*
X150600000Y-96375000D03*
X151300000Y-94275000D03*
X151300000Y-95675000D03*
%TD*%
D15*
%TO.N,GND*%
X158310000Y-108170000D03*
X156132721Y-108184049D03*
X160874514Y-115866905D03*
%TO.N,+3V3*%
X151875000Y-106325000D03*
X146075000Y-102650000D03*
%TO.N,/BZR*%
X150765000Y-106500000D03*
X139525000Y-117875000D03*
%TD*%
D16*
%TO.N,GND*%
X156132721Y-108184049D02*
X158295951Y-108184049D01*
X158295951Y-108184049D02*
X158310000Y-108170000D01*
X160950000Y-115825000D02*
X160900000Y-115875000D01*
X163325000Y-115825000D02*
X160950000Y-115825000D01*
%TO.N,+3V3*%
X148200000Y-102650000D02*
X151875000Y-106325000D01*
X146075000Y-102650000D02*
X148200000Y-102650000D01*
%TO.N,/BZR*%
X150765000Y-106500000D02*
X150765000Y-107060000D01*
X150765000Y-107060000D02*
X149650000Y-108175000D01*
X149650000Y-108175000D02*
X142550000Y-108175000D01*
X142550000Y-108175000D02*
X139525000Y-111200000D01*
X139525000Y-111200000D02*
X139525000Y-117875000D01*
%TD*%
M02*
