%TF.GenerationSoftware,KiCad,Pcbnew,8.0.8-8.0.8-0~ubuntu24.04.1*%
%TF.CreationDate,2025-07-29T22:47:35-04:00*%
%TF.ProjectId,electronics,656c6563-7472-46f6-9e69-63732e6b6963,rev?*%
%TF.SameCoordinates,Original*%
%TF.FileFunction,Legend,Top*%
%TF.FilePolarity,Positive*%
%FSLAX46Y46*%
G04 Gerber Fmt 4.6, Leading zero omitted, Abs format (unit mm)*
G04 Created by KiCad (PCBNEW 8.0.8-8.0.8-0~ubuntu24.04.1) date 2025-07-29 22:47:35*
%MOMM*%
%LPD*%
G01*
G04 APERTURE LIST*
%ADD10C,0.150000*%
%ADD11C,0.100000*%
%ADD12C,0.120000*%
G04 APERTURE END LIST*
D10*
X129768095Y-91677319D02*
X129768095Y-92486842D01*
X129768095Y-92486842D02*
X129815714Y-92582080D01*
X129815714Y-92582080D02*
X129863333Y-92629700D01*
X129863333Y-92629700D02*
X129958571Y-92677319D01*
X129958571Y-92677319D02*
X130149047Y-92677319D01*
X130149047Y-92677319D02*
X130244285Y-92629700D01*
X130244285Y-92629700D02*
X130291904Y-92582080D01*
X130291904Y-92582080D02*
X130339523Y-92486842D01*
X130339523Y-92486842D02*
X130339523Y-91677319D01*
X130768095Y-91772557D02*
X130815714Y-91724938D01*
X130815714Y-91724938D02*
X130910952Y-91677319D01*
X130910952Y-91677319D02*
X131149047Y-91677319D01*
X131149047Y-91677319D02*
X131244285Y-91724938D01*
X131244285Y-91724938D02*
X131291904Y-91772557D01*
X131291904Y-91772557D02*
X131339523Y-91867795D01*
X131339523Y-91867795D02*
X131339523Y-91963033D01*
X131339523Y-91963033D02*
X131291904Y-92105890D01*
X131291904Y-92105890D02*
X130720476Y-92677319D01*
X130720476Y-92677319D02*
X131339523Y-92677319D01*
X132133333Y-87019580D02*
X132085714Y-87067200D01*
X132085714Y-87067200D02*
X131942857Y-87114819D01*
X131942857Y-87114819D02*
X131847619Y-87114819D01*
X131847619Y-87114819D02*
X131704762Y-87067200D01*
X131704762Y-87067200D02*
X131609524Y-86971961D01*
X131609524Y-86971961D02*
X131561905Y-86876723D01*
X131561905Y-86876723D02*
X131514286Y-86686247D01*
X131514286Y-86686247D02*
X131514286Y-86543390D01*
X131514286Y-86543390D02*
X131561905Y-86352914D01*
X131561905Y-86352914D02*
X131609524Y-86257676D01*
X131609524Y-86257676D02*
X131704762Y-86162438D01*
X131704762Y-86162438D02*
X131847619Y-86114819D01*
X131847619Y-86114819D02*
X131942857Y-86114819D01*
X131942857Y-86114819D02*
X132085714Y-86162438D01*
X132085714Y-86162438D02*
X132133333Y-86210057D01*
X132990476Y-86448152D02*
X132990476Y-87114819D01*
X132752381Y-86067200D02*
X132514286Y-86781485D01*
X132514286Y-86781485D02*
X133133333Y-86781485D01*
X131983333Y-84254819D02*
X131650000Y-83778628D01*
X131411905Y-84254819D02*
X131411905Y-83254819D01*
X131411905Y-83254819D02*
X131792857Y-83254819D01*
X131792857Y-83254819D02*
X131888095Y-83302438D01*
X131888095Y-83302438D02*
X131935714Y-83350057D01*
X131935714Y-83350057D02*
X131983333Y-83445295D01*
X131983333Y-83445295D02*
X131983333Y-83588152D01*
X131983333Y-83588152D02*
X131935714Y-83683390D01*
X131935714Y-83683390D02*
X131888095Y-83731009D01*
X131888095Y-83731009D02*
X131792857Y-83778628D01*
X131792857Y-83778628D02*
X131411905Y-83778628D01*
X132935714Y-84254819D02*
X132364286Y-84254819D01*
X132650000Y-84254819D02*
X132650000Y-83254819D01*
X132650000Y-83254819D02*
X132554762Y-83397676D01*
X132554762Y-83397676D02*
X132459524Y-83492914D01*
X132459524Y-83492914D02*
X132364286Y-83540533D01*
X142636666Y-105154819D02*
X142636666Y-105869104D01*
X142636666Y-105869104D02*
X142589047Y-106011961D01*
X142589047Y-106011961D02*
X142493809Y-106107200D01*
X142493809Y-106107200D02*
X142350952Y-106154819D01*
X142350952Y-106154819D02*
X142255714Y-106154819D01*
X143636666Y-106154819D02*
X143065238Y-106154819D01*
X143350952Y-106154819D02*
X143350952Y-105154819D01*
X143350952Y-105154819D02*
X143255714Y-105297676D01*
X143255714Y-105297676D02*
X143160476Y-105392914D01*
X143160476Y-105392914D02*
X143065238Y-105440533D01*
X131974819Y-96731904D02*
X132784342Y-96731904D01*
X132784342Y-96731904D02*
X132879580Y-96684285D01*
X132879580Y-96684285D02*
X132927200Y-96636666D01*
X132927200Y-96636666D02*
X132974819Y-96541428D01*
X132974819Y-96541428D02*
X132974819Y-96350952D01*
X132974819Y-96350952D02*
X132927200Y-96255714D01*
X132927200Y-96255714D02*
X132879580Y-96208095D01*
X132879580Y-96208095D02*
X132784342Y-96160476D01*
X132784342Y-96160476D02*
X131974819Y-96160476D01*
X132974819Y-95160476D02*
X132974819Y-95731904D01*
X132974819Y-95446190D02*
X131974819Y-95446190D01*
X131974819Y-95446190D02*
X132117676Y-95541428D01*
X132117676Y-95541428D02*
X132212914Y-95636666D01*
X132212914Y-95636666D02*
X132260533Y-95731904D01*
X132128333Y-85589580D02*
X132080714Y-85637200D01*
X132080714Y-85637200D02*
X131937857Y-85684819D01*
X131937857Y-85684819D02*
X131842619Y-85684819D01*
X131842619Y-85684819D02*
X131699762Y-85637200D01*
X131699762Y-85637200D02*
X131604524Y-85541961D01*
X131604524Y-85541961D02*
X131556905Y-85446723D01*
X131556905Y-85446723D02*
X131509286Y-85256247D01*
X131509286Y-85256247D02*
X131509286Y-85113390D01*
X131509286Y-85113390D02*
X131556905Y-84922914D01*
X131556905Y-84922914D02*
X131604524Y-84827676D01*
X131604524Y-84827676D02*
X131699762Y-84732438D01*
X131699762Y-84732438D02*
X131842619Y-84684819D01*
X131842619Y-84684819D02*
X131937857Y-84684819D01*
X131937857Y-84684819D02*
X132080714Y-84732438D01*
X132080714Y-84732438D02*
X132128333Y-84780057D01*
X132461667Y-84684819D02*
X133080714Y-84684819D01*
X133080714Y-84684819D02*
X132747381Y-85065771D01*
X132747381Y-85065771D02*
X132890238Y-85065771D01*
X132890238Y-85065771D02*
X132985476Y-85113390D01*
X132985476Y-85113390D02*
X133033095Y-85161009D01*
X133033095Y-85161009D02*
X133080714Y-85256247D01*
X133080714Y-85256247D02*
X133080714Y-85494342D01*
X133080714Y-85494342D02*
X133033095Y-85589580D01*
X133033095Y-85589580D02*
X132985476Y-85637200D01*
X132985476Y-85637200D02*
X132890238Y-85684819D01*
X132890238Y-85684819D02*
X132604524Y-85684819D01*
X132604524Y-85684819D02*
X132509286Y-85637200D01*
X132509286Y-85637200D02*
X132461667Y-85589580D01*
D11*
%TO.C,U2*%
X128930000Y-88372500D02*
X129650000Y-88372500D01*
X128930000Y-88592500D02*
X128930000Y-88372500D01*
X128930000Y-91072500D02*
X128930000Y-90852500D01*
X129650000Y-91072500D02*
X128930000Y-91072500D01*
X131930000Y-91072500D02*
X131410000Y-91072500D01*
X132130000Y-88372500D02*
X131410000Y-88372500D01*
X132130000Y-88372500D02*
X132130000Y-88592500D01*
X132130000Y-91432500D02*
X132130000Y-91072500D01*
X132490000Y-91072500D01*
X132130000Y-91432500D01*
G36*
X132130000Y-91432500D02*
G01*
X132130000Y-91072500D01*
X132490000Y-91072500D01*
X132130000Y-91432500D01*
G37*
D12*
%TO.C,C4*%
X130015580Y-86220000D02*
X129734420Y-86220000D01*
X130015580Y-87240000D02*
X129734420Y-87240000D01*
%TO.C,R1*%
X131966359Y-82250000D02*
X132273641Y-82250000D01*
X131966359Y-83010000D02*
X132273641Y-83010000D01*
%TO.C,J1*%
X138390000Y-105265000D02*
X138390000Y-103855000D01*
X139210000Y-101185000D02*
X139210000Y-101335000D01*
X140010000Y-101185000D02*
X139210000Y-101185000D01*
X147550000Y-105265000D02*
X147550000Y-103855000D01*
%TO.C,U1*%
X133820000Y-71670000D02*
X133820000Y-77870000D01*
X133820000Y-71670000D02*
X152220000Y-71670000D01*
X133820000Y-96520000D02*
X133820000Y-97520000D01*
X133820000Y-97520000D02*
X135320000Y-97520000D01*
X152220000Y-71670000D02*
X152220000Y-77870000D01*
X152220000Y-97520000D02*
X150720000Y-97520000D01*
X152220000Y-97520000D02*
X152220000Y-96520000D01*
X133820000Y-78545000D02*
X133320000Y-78545000D01*
X133820000Y-78045000D01*
X133820000Y-78545000D01*
G36*
X133820000Y-78545000D02*
G01*
X133320000Y-78545000D01*
X133820000Y-78045000D01*
X133820000Y-78545000D01*
G37*
%TO.C,C3*%
X129734420Y-84710000D02*
X130015580Y-84710000D01*
X129734420Y-85730000D02*
X130015580Y-85730000D01*
%TD*%
M02*
