%TF.GenerationSoftware,KiCad,Pcbnew,8.0.8-8.0.8-0~ubuntu24.04.1*%
%TF.CreationDate,2025-07-29T22:47:38-04:00*%
%TF.ProjectId,electronics,656c6563-7472-46f6-9e69-63732e6b6963,rev?*%
%TF.SameCoordinates,Original*%
%TF.FileFunction,Legend,Bot*%
%TF.FilePolarity,Positive*%
%FSLAX46Y46*%
G04 Gerber Fmt 4.6, Leading zero omitted, Abs format (unit mm)*
G04 Created by KiCad (PCBNEW 8.0.8-8.0.8-0~ubuntu24.04.1) date 2025-07-29 22:47:38*
%MOMM*%
%LPD*%
G01*
G04 APERTURE LIST*
%ADD10C,0.150000*%
%ADD11C,0.200000*%
%ADD12C,0.127000*%
%ADD13C,0.120000*%
G04 APERTURE END LIST*
D10*
X153591009Y-82649047D02*
X153638628Y-82791904D01*
X153638628Y-82791904D02*
X153686247Y-82839523D01*
X153686247Y-82839523D02*
X153781485Y-82887142D01*
X153781485Y-82887142D02*
X153924342Y-82887142D01*
X153924342Y-82887142D02*
X154019580Y-82839523D01*
X154019580Y-82839523D02*
X154067200Y-82791904D01*
X154067200Y-82791904D02*
X154114819Y-82696666D01*
X154114819Y-82696666D02*
X154114819Y-82315714D01*
X154114819Y-82315714D02*
X153114819Y-82315714D01*
X153114819Y-82315714D02*
X153114819Y-82649047D01*
X153114819Y-82649047D02*
X153162438Y-82744285D01*
X153162438Y-82744285D02*
X153210057Y-82791904D01*
X153210057Y-82791904D02*
X153305295Y-82839523D01*
X153305295Y-82839523D02*
X153400533Y-82839523D01*
X153400533Y-82839523D02*
X153495771Y-82791904D01*
X153495771Y-82791904D02*
X153543390Y-82744285D01*
X153543390Y-82744285D02*
X153591009Y-82649047D01*
X153591009Y-82649047D02*
X153591009Y-82315714D01*
X153114819Y-83220476D02*
X153114819Y-83887142D01*
X153114819Y-83887142D02*
X154114819Y-83220476D01*
X154114819Y-83220476D02*
X154114819Y-83887142D01*
X154114819Y-84791904D02*
X154114819Y-84220476D01*
X154114819Y-84506190D02*
X153114819Y-84506190D01*
X153114819Y-84506190D02*
X153257676Y-84410952D01*
X153257676Y-84410952D02*
X153352914Y-84315714D01*
X153352914Y-84315714D02*
X153400533Y-84220476D01*
X154034819Y-104058095D02*
X154844342Y-104058095D01*
X154844342Y-104058095D02*
X154939580Y-104105714D01*
X154939580Y-104105714D02*
X154987200Y-104153333D01*
X154987200Y-104153333D02*
X155034819Y-104248571D01*
X155034819Y-104248571D02*
X155034819Y-104439047D01*
X155034819Y-104439047D02*
X154987200Y-104534285D01*
X154987200Y-104534285D02*
X154939580Y-104581904D01*
X154939580Y-104581904D02*
X154844342Y-104629523D01*
X154844342Y-104629523D02*
X154034819Y-104629523D01*
X154034819Y-105010476D02*
X154034819Y-105629523D01*
X154034819Y-105629523D02*
X154415771Y-105296190D01*
X154415771Y-105296190D02*
X154415771Y-105439047D01*
X154415771Y-105439047D02*
X154463390Y-105534285D01*
X154463390Y-105534285D02*
X154511009Y-105581904D01*
X154511009Y-105581904D02*
X154606247Y-105629523D01*
X154606247Y-105629523D02*
X154844342Y-105629523D01*
X154844342Y-105629523D02*
X154939580Y-105581904D01*
X154939580Y-105581904D02*
X154987200Y-105534285D01*
X154987200Y-105534285D02*
X155034819Y-105439047D01*
X155034819Y-105439047D02*
X155034819Y-105153333D01*
X155034819Y-105153333D02*
X154987200Y-105058095D01*
X154987200Y-105058095D02*
X154939580Y-105010476D01*
X152471009Y-92644285D02*
X152518628Y-92787142D01*
X152518628Y-92787142D02*
X152566247Y-92834761D01*
X152566247Y-92834761D02*
X152661485Y-92882380D01*
X152661485Y-92882380D02*
X152804342Y-92882380D01*
X152804342Y-92882380D02*
X152899580Y-92834761D01*
X152899580Y-92834761D02*
X152947200Y-92787142D01*
X152947200Y-92787142D02*
X152994819Y-92691904D01*
X152994819Y-92691904D02*
X152994819Y-92310952D01*
X152994819Y-92310952D02*
X151994819Y-92310952D01*
X151994819Y-92310952D02*
X151994819Y-92644285D01*
X151994819Y-92644285D02*
X152042438Y-92739523D01*
X152042438Y-92739523D02*
X152090057Y-92787142D01*
X152090057Y-92787142D02*
X152185295Y-92834761D01*
X152185295Y-92834761D02*
X152280533Y-92834761D01*
X152280533Y-92834761D02*
X152375771Y-92787142D01*
X152375771Y-92787142D02*
X152423390Y-92739523D01*
X152423390Y-92739523D02*
X152471009Y-92644285D01*
X152471009Y-92644285D02*
X152471009Y-92310952D01*
X151994819Y-93168095D02*
X151994819Y-93739523D01*
X152994819Y-93453809D02*
X151994819Y-93453809D01*
X152994819Y-94596666D02*
X152994819Y-94025238D01*
X152994819Y-94310952D02*
X151994819Y-94310952D01*
X151994819Y-94310952D02*
X152137676Y-94215714D01*
X152137676Y-94215714D02*
X152232914Y-94120476D01*
X152232914Y-94120476D02*
X152280533Y-94025238D01*
X130536666Y-98389580D02*
X130584285Y-98437200D01*
X130584285Y-98437200D02*
X130727142Y-98484819D01*
X130727142Y-98484819D02*
X130822380Y-98484819D01*
X130822380Y-98484819D02*
X130965237Y-98437200D01*
X130965237Y-98437200D02*
X131060475Y-98341961D01*
X131060475Y-98341961D02*
X131108094Y-98246723D01*
X131108094Y-98246723D02*
X131155713Y-98056247D01*
X131155713Y-98056247D02*
X131155713Y-97913390D01*
X131155713Y-97913390D02*
X131108094Y-97722914D01*
X131108094Y-97722914D02*
X131060475Y-97627676D01*
X131060475Y-97627676D02*
X130965237Y-97532438D01*
X130965237Y-97532438D02*
X130822380Y-97484819D01*
X130822380Y-97484819D02*
X130727142Y-97484819D01*
X130727142Y-97484819D02*
X130584285Y-97532438D01*
X130584285Y-97532438D02*
X130536666Y-97580057D01*
X130203332Y-97484819D02*
X129536666Y-97484819D01*
X129536666Y-97484819D02*
X129965237Y-98484819D01*
X153166666Y-97889580D02*
X153214285Y-97937200D01*
X153214285Y-97937200D02*
X153357142Y-97984819D01*
X153357142Y-97984819D02*
X153452380Y-97984819D01*
X153452380Y-97984819D02*
X153595237Y-97937200D01*
X153595237Y-97937200D02*
X153690475Y-97841961D01*
X153690475Y-97841961D02*
X153738094Y-97746723D01*
X153738094Y-97746723D02*
X153785713Y-97556247D01*
X153785713Y-97556247D02*
X153785713Y-97413390D01*
X153785713Y-97413390D02*
X153738094Y-97222914D01*
X153738094Y-97222914D02*
X153690475Y-97127676D01*
X153690475Y-97127676D02*
X153595237Y-97032438D01*
X153595237Y-97032438D02*
X153452380Y-96984819D01*
X153452380Y-96984819D02*
X153357142Y-96984819D01*
X153357142Y-96984819D02*
X153214285Y-97032438D01*
X153214285Y-97032438D02*
X153166666Y-97080057D01*
X152785713Y-97080057D02*
X152738094Y-97032438D01*
X152738094Y-97032438D02*
X152642856Y-96984819D01*
X152642856Y-96984819D02*
X152404761Y-96984819D01*
X152404761Y-96984819D02*
X152309523Y-97032438D01*
X152309523Y-97032438D02*
X152261904Y-97080057D01*
X152261904Y-97080057D02*
X152214285Y-97175295D01*
X152214285Y-97175295D02*
X152214285Y-97270533D01*
X152214285Y-97270533D02*
X152261904Y-97413390D01*
X152261904Y-97413390D02*
X152833332Y-97984819D01*
X152833332Y-97984819D02*
X152214285Y-97984819D01*
X131464819Y-104148095D02*
X132274342Y-104148095D01*
X132274342Y-104148095D02*
X132369580Y-104195714D01*
X132369580Y-104195714D02*
X132417200Y-104243333D01*
X132417200Y-104243333D02*
X132464819Y-104338571D01*
X132464819Y-104338571D02*
X132464819Y-104529047D01*
X132464819Y-104529047D02*
X132417200Y-104624285D01*
X132417200Y-104624285D02*
X132369580Y-104671904D01*
X132369580Y-104671904D02*
X132274342Y-104719523D01*
X132274342Y-104719523D02*
X131464819Y-104719523D01*
X131464819Y-105671904D02*
X131464819Y-105195714D01*
X131464819Y-105195714D02*
X131941009Y-105148095D01*
X131941009Y-105148095D02*
X131893390Y-105195714D01*
X131893390Y-105195714D02*
X131845771Y-105290952D01*
X131845771Y-105290952D02*
X131845771Y-105529047D01*
X131845771Y-105529047D02*
X131893390Y-105624285D01*
X131893390Y-105624285D02*
X131941009Y-105671904D01*
X131941009Y-105671904D02*
X132036247Y-105719523D01*
X132036247Y-105719523D02*
X132274342Y-105719523D01*
X132274342Y-105719523D02*
X132369580Y-105671904D01*
X132369580Y-105671904D02*
X132417200Y-105624285D01*
X132417200Y-105624285D02*
X132464819Y-105529047D01*
X132464819Y-105529047D02*
X132464819Y-105290952D01*
X132464819Y-105290952D02*
X132417200Y-105195714D01*
X132417200Y-105195714D02*
X132369580Y-105148095D01*
X134126666Y-98449580D02*
X134174285Y-98497200D01*
X134174285Y-98497200D02*
X134317142Y-98544819D01*
X134317142Y-98544819D02*
X134412380Y-98544819D01*
X134412380Y-98544819D02*
X134555237Y-98497200D01*
X134555237Y-98497200D02*
X134650475Y-98401961D01*
X134650475Y-98401961D02*
X134698094Y-98306723D01*
X134698094Y-98306723D02*
X134745713Y-98116247D01*
X134745713Y-98116247D02*
X134745713Y-97973390D01*
X134745713Y-97973390D02*
X134698094Y-97782914D01*
X134698094Y-97782914D02*
X134650475Y-97687676D01*
X134650475Y-97687676D02*
X134555237Y-97592438D01*
X134555237Y-97592438D02*
X134412380Y-97544819D01*
X134412380Y-97544819D02*
X134317142Y-97544819D01*
X134317142Y-97544819D02*
X134174285Y-97592438D01*
X134174285Y-97592438D02*
X134126666Y-97640057D01*
X133269523Y-97544819D02*
X133459999Y-97544819D01*
X133459999Y-97544819D02*
X133555237Y-97592438D01*
X133555237Y-97592438D02*
X133602856Y-97640057D01*
X133602856Y-97640057D02*
X133698094Y-97782914D01*
X133698094Y-97782914D02*
X133745713Y-97973390D01*
X133745713Y-97973390D02*
X133745713Y-98354342D01*
X133745713Y-98354342D02*
X133698094Y-98449580D01*
X133698094Y-98449580D02*
X133650475Y-98497200D01*
X133650475Y-98497200D02*
X133555237Y-98544819D01*
X133555237Y-98544819D02*
X133364761Y-98544819D01*
X133364761Y-98544819D02*
X133269523Y-98497200D01*
X133269523Y-98497200D02*
X133221904Y-98449580D01*
X133221904Y-98449580D02*
X133174285Y-98354342D01*
X133174285Y-98354342D02*
X133174285Y-98116247D01*
X133174285Y-98116247D02*
X133221904Y-98021009D01*
X133221904Y-98021009D02*
X133269523Y-97973390D01*
X133269523Y-97973390D02*
X133364761Y-97925771D01*
X133364761Y-97925771D02*
X133555237Y-97925771D01*
X133555237Y-97925771D02*
X133650475Y-97973390D01*
X133650475Y-97973390D02*
X133698094Y-98021009D01*
X133698094Y-98021009D02*
X133745713Y-98116247D01*
X156311666Y-98039580D02*
X156359285Y-98087200D01*
X156359285Y-98087200D02*
X156502142Y-98134819D01*
X156502142Y-98134819D02*
X156597380Y-98134819D01*
X156597380Y-98134819D02*
X156740237Y-98087200D01*
X156740237Y-98087200D02*
X156835475Y-97991961D01*
X156835475Y-97991961D02*
X156883094Y-97896723D01*
X156883094Y-97896723D02*
X156930713Y-97706247D01*
X156930713Y-97706247D02*
X156930713Y-97563390D01*
X156930713Y-97563390D02*
X156883094Y-97372914D01*
X156883094Y-97372914D02*
X156835475Y-97277676D01*
X156835475Y-97277676D02*
X156740237Y-97182438D01*
X156740237Y-97182438D02*
X156597380Y-97134819D01*
X156597380Y-97134819D02*
X156502142Y-97134819D01*
X156502142Y-97134819D02*
X156359285Y-97182438D01*
X156359285Y-97182438D02*
X156311666Y-97230057D01*
X155359285Y-98134819D02*
X155930713Y-98134819D01*
X155644999Y-98134819D02*
X155644999Y-97134819D01*
X155644999Y-97134819D02*
X155740237Y-97277676D01*
X155740237Y-97277676D02*
X155835475Y-97372914D01*
X155835475Y-97372914D02*
X155930713Y-97420533D01*
D11*
%TO.C,BZ1*%
X148060000Y-83530000D02*
G75*
G02*
X147860000Y-83530000I-100000J0D01*
G01*
X147860000Y-83530000D02*
G75*
G02*
X148060000Y-83530000I100000J0D01*
G01*
D12*
X149160000Y-79030000D02*
X158160000Y-79030000D01*
X158160000Y-79030000D02*
X158160000Y-81510000D01*
X158160000Y-85550000D02*
X158160000Y-88030000D01*
X149160000Y-81510000D02*
X149160000Y-79030000D01*
X149160000Y-88030000D02*
X149160000Y-85550000D01*
X158160000Y-88030000D02*
X149160000Y-88030000D01*
D13*
%TO.C,U3*%
X151170000Y-106730000D02*
X151170000Y-102970000D01*
X152430000Y-106730000D02*
X151170000Y-106730000D01*
X156730000Y-106730000D02*
X157990000Y-106730000D01*
X157990000Y-106730000D02*
X157990000Y-102970000D01*
X151270000Y-101690000D02*
X150940000Y-101930000D01*
X150940000Y-101450000D01*
X151270000Y-101690000D01*
G36*
X151270000Y-101690000D02*
G01*
X150940000Y-101930000D01*
X150940000Y-101450000D01*
X151270000Y-101690000D01*
G37*
%TO.C,BT1*%
X153840000Y-90100000D02*
X153840000Y-96220000D01*
X153840000Y-96220000D02*
X158560000Y-96220000D01*
X154450000Y-90710000D02*
X154450000Y-95610000D01*
X154450000Y-93060000D02*
X154950000Y-93060000D01*
X154450000Y-95610000D02*
X157950000Y-95610000D01*
X154950000Y-93060000D02*
X154950000Y-93260000D01*
X154950000Y-93160000D02*
X154450000Y-93160000D01*
X154950000Y-93260000D02*
X154450000Y-93260000D01*
X155950000Y-90710000D02*
X155950000Y-90100000D01*
X155950000Y-95610000D02*
X155950000Y-96220000D01*
X157250000Y-90710000D02*
X157250000Y-90100000D01*
X157250000Y-95610000D02*
X157250000Y-96220000D01*
X157610000Y-96520000D02*
X158860000Y-96520000D01*
X157950000Y-90710000D02*
X154450000Y-90710000D01*
X157950000Y-92660000D02*
X157950000Y-90710000D01*
X157950000Y-93660000D02*
X158560000Y-93660000D01*
X157950000Y-95610000D02*
X157950000Y-93660000D01*
X158560000Y-90100000D02*
X153840000Y-90100000D01*
X158560000Y-92660000D02*
X157950000Y-92660000D01*
X158560000Y-94760000D02*
X158760000Y-94760000D01*
X158560000Y-96220000D02*
X158560000Y-90100000D01*
X158660000Y-94760000D02*
X158660000Y-94460000D01*
X158760000Y-94460000D02*
X158560000Y-94460000D01*
X158760000Y-94760000D02*
X158760000Y-94460000D01*
X158860000Y-96520000D02*
X158860000Y-95270000D01*
%TO.C,C7*%
X130229420Y-98950000D02*
X130510580Y-98950000D01*
X130229420Y-99970000D02*
X130510580Y-99970000D01*
%TO.C,C2*%
X153140580Y-98590000D02*
X152859420Y-98590000D01*
X153140580Y-99610000D02*
X152859420Y-99610000D01*
%TO.C,U5*%
X128640000Y-106920000D02*
X128640000Y-103160000D01*
X129900000Y-106920000D02*
X128640000Y-106920000D01*
X134200000Y-106920000D02*
X135460000Y-106920000D01*
X135460000Y-106920000D02*
X135460000Y-103160000D01*
X128740000Y-101880000D02*
X128410000Y-102120000D01*
X128410000Y-101640000D01*
X128740000Y-101880000D01*
G36*
X128740000Y-101880000D02*
G01*
X128410000Y-102120000D01*
X128410000Y-101640000D01*
X128740000Y-101880000D01*
G37*
%TO.C,C6*%
X133819420Y-99010000D02*
X134100580Y-99010000D01*
X133819420Y-100030000D02*
X134100580Y-100030000D01*
%TO.C,C1*%
X156004420Y-98600000D02*
X156285580Y-98600000D01*
X156004420Y-99620000D02*
X156285580Y-99620000D01*
%TD*%
M02*
