%TF.GenerationSoftware,KiCad,Pcbnew,8.0.8-8.0.8-0~ubuntu24.04.1*%
%TF.CreationDate,2025-07-21T15:44:38-04:00*%
%TF.ProjectId,electronics,656c6563-7472-46f6-9e69-63732e6b6963,rev?*%
%TF.SameCoordinates,Original*%
%TF.FileFunction,Legend,Bot*%
%TF.FilePolarity,Positive*%
%FSLAX46Y46*%
G04 Gerber Fmt 4.6, Leading zero omitted, Abs format (unit mm)*
G04 Created by KiCad (PCBNEW 8.0.8-8.0.8-0~ubuntu24.04.1) date 2025-07-21 15:44:38*
%MOMM*%
%LPD*%
G01*
G04 APERTURE LIST*
%ADD10C,0.150000*%
%ADD11C,0.120000*%
G04 APERTURE END LIST*
D10*
X160256009Y-116089285D02*
X160303628Y-116232142D01*
X160303628Y-116232142D02*
X160351247Y-116279761D01*
X160351247Y-116279761D02*
X160446485Y-116327380D01*
X160446485Y-116327380D02*
X160589342Y-116327380D01*
X160589342Y-116327380D02*
X160684580Y-116279761D01*
X160684580Y-116279761D02*
X160732200Y-116232142D01*
X160732200Y-116232142D02*
X160779819Y-116136904D01*
X160779819Y-116136904D02*
X160779819Y-115755952D01*
X160779819Y-115755952D02*
X159779819Y-115755952D01*
X159779819Y-115755952D02*
X159779819Y-116089285D01*
X159779819Y-116089285D02*
X159827438Y-116184523D01*
X159827438Y-116184523D02*
X159875057Y-116232142D01*
X159875057Y-116232142D02*
X159970295Y-116279761D01*
X159970295Y-116279761D02*
X160065533Y-116279761D01*
X160065533Y-116279761D02*
X160160771Y-116232142D01*
X160160771Y-116232142D02*
X160208390Y-116184523D01*
X160208390Y-116184523D02*
X160256009Y-116089285D01*
X160256009Y-116089285D02*
X160256009Y-115755952D01*
X159779819Y-116613095D02*
X159779819Y-117184523D01*
X160779819Y-116898809D02*
X159779819Y-116898809D01*
X160779819Y-118041666D02*
X160779819Y-117470238D01*
X160779819Y-117755952D02*
X159779819Y-117755952D01*
X159779819Y-117755952D02*
X159922676Y-117660714D01*
X159922676Y-117660714D02*
X160017914Y-117565476D01*
X160017914Y-117565476D02*
X160065533Y-117470238D01*
D11*
%TO.C,BT1*%
X161515000Y-113225000D02*
X161315000Y-113225000D01*
X165625000Y-117275000D02*
X165625000Y-112375000D01*
X162125000Y-117275000D02*
X165625000Y-117275000D01*
X164125000Y-112375000D02*
X164125000Y-111765000D01*
X165625000Y-114925000D02*
X165125000Y-114925000D01*
X162125000Y-114325000D02*
X161515000Y-114325000D01*
X165625000Y-112375000D02*
X162125000Y-112375000D01*
X161315000Y-113525000D02*
X161515000Y-113525000D01*
X166235000Y-111765000D02*
X161515000Y-111765000D01*
X161515000Y-111765000D02*
X161515000Y-117885000D01*
X162125000Y-112375000D02*
X162125000Y-114325000D01*
X164125000Y-117275000D02*
X164125000Y-117885000D01*
X162125000Y-115325000D02*
X162125000Y-117275000D01*
X162825000Y-112375000D02*
X162825000Y-111765000D01*
X165125000Y-114825000D02*
X165625000Y-114825000D01*
X165125000Y-114925000D02*
X165125000Y-114725000D01*
X161515000Y-117885000D02*
X166235000Y-117885000D01*
X161415000Y-113225000D02*
X161415000Y-113525000D01*
X161515000Y-115325000D02*
X162125000Y-115325000D01*
X162465000Y-111465000D02*
X161215000Y-111465000D01*
X161215000Y-111465000D02*
X161215000Y-112715000D01*
X166235000Y-117885000D02*
X166235000Y-111765000D01*
X162825000Y-117275000D02*
X162825000Y-117885000D01*
X161315000Y-113225000D02*
X161315000Y-113525000D01*
X165125000Y-114725000D02*
X165625000Y-114725000D01*
%TD*%
M02*
