%TF.GenerationSoftware,KiCad,Pcbnew,8.0.8-8.0.8-0~ubuntu24.04.1*%
%TF.CreationDate,2025-07-30T22:16:22-04:00*%
%TF.ProjectId,electronics,656c6563-7472-46f6-9e69-63732e6b6963,rev?*%
%TF.SameCoordinates,Original*%
%TF.FileFunction,Legend,Bot*%
%TF.FilePolarity,Positive*%
%FSLAX46Y46*%
G04 Gerber Fmt 4.6, Leading zero omitted, Abs format (unit mm)*
G04 Created by KiCad (PCBNEW 8.0.8-8.0.8-0~ubuntu24.04.1) date 2025-07-30 22:16:22*
%MOMM*%
%LPD*%
G01*
G04 APERTURE LIST*
G04 Aperture macros list*
%AMRoundRect*
0 Rectangle with rounded corners*
0 $1 Rounding radius*
0 $2 $3 $4 $5 $6 $7 $8 $9 X,Y pos of 4 corners*
0 Add a 4 corners polygon primitive as box body*
4,1,4,$2,$3,$4,$5,$6,$7,$8,$9,$2,$3,0*
0 Add four circle primitives for the rounded corners*
1,1,$1+$1,$2,$3*
1,1,$1+$1,$4,$5*
1,1,$1+$1,$6,$7*
1,1,$1+$1,$8,$9*
0 Add four rect primitives between the rounded corners*
20,1,$1+$1,$2,$3,$4,$5,0*
20,1,$1+$1,$4,$5,$6,$7,0*
20,1,$1+$1,$6,$7,$8,$9,0*
20,1,$1+$1,$8,$9,$2,$3,0*%
G04 Aperture macros list end*
%ADD10C,0.150000*%
%ADD11C,0.120000*%
%ADD12C,0.127000*%
%ADD13C,0.200000*%
%ADD14RoundRect,0.250000X0.250000X0.475000X-0.250000X0.475000X-0.250000X-0.475000X0.250000X-0.475000X0*%
%ADD15RoundRect,0.250000X-0.250000X-0.475000X0.250000X-0.475000X0.250000X0.475000X-0.250000X0.475000X0*%
%ADD16C,0.650000*%
%ADD17RoundRect,0.375000X-0.375000X0.625000X-0.375000X-0.625000X0.375000X-0.625000X0.375000X0.625000X0*%
%ADD18RoundRect,0.500000X-1.400000X0.500000X-1.400000X-0.500000X1.400000X-0.500000X1.400000X0.500000X0*%
%ADD19RoundRect,0.250000X0.625000X-0.350000X0.625000X0.350000X-0.625000X0.350000X-0.625000X-0.350000X0*%
%ADD20O,1.750000X1.200000*%
%ADD21RoundRect,0.102000X-0.650000X-1.700000X0.650000X-1.700000X0.650000X1.700000X-0.650000X1.700000X0*%
G04 APERTURE END LIST*
D10*
X130536666Y-98139580D02*
X130584285Y-98187200D01*
X130584285Y-98187200D02*
X130727142Y-98234819D01*
X130727142Y-98234819D02*
X130822380Y-98234819D01*
X130822380Y-98234819D02*
X130965237Y-98187200D01*
X130965237Y-98187200D02*
X131060475Y-98091961D01*
X131060475Y-98091961D02*
X131108094Y-97996723D01*
X131108094Y-97996723D02*
X131155713Y-97806247D01*
X131155713Y-97806247D02*
X131155713Y-97663390D01*
X131155713Y-97663390D02*
X131108094Y-97472914D01*
X131108094Y-97472914D02*
X131060475Y-97377676D01*
X131060475Y-97377676D02*
X130965237Y-97282438D01*
X130965237Y-97282438D02*
X130822380Y-97234819D01*
X130822380Y-97234819D02*
X130727142Y-97234819D01*
X130727142Y-97234819D02*
X130584285Y-97282438D01*
X130584285Y-97282438D02*
X130536666Y-97330057D01*
X130203332Y-97234819D02*
X129536666Y-97234819D01*
X129536666Y-97234819D02*
X129965237Y-98234819D01*
X134126666Y-98199580D02*
X134174285Y-98247200D01*
X134174285Y-98247200D02*
X134317142Y-98294819D01*
X134317142Y-98294819D02*
X134412380Y-98294819D01*
X134412380Y-98294819D02*
X134555237Y-98247200D01*
X134555237Y-98247200D02*
X134650475Y-98151961D01*
X134650475Y-98151961D02*
X134698094Y-98056723D01*
X134698094Y-98056723D02*
X134745713Y-97866247D01*
X134745713Y-97866247D02*
X134745713Y-97723390D01*
X134745713Y-97723390D02*
X134698094Y-97532914D01*
X134698094Y-97532914D02*
X134650475Y-97437676D01*
X134650475Y-97437676D02*
X134555237Y-97342438D01*
X134555237Y-97342438D02*
X134412380Y-97294819D01*
X134412380Y-97294819D02*
X134317142Y-97294819D01*
X134317142Y-97294819D02*
X134174285Y-97342438D01*
X134174285Y-97342438D02*
X134126666Y-97390057D01*
X133269523Y-97294819D02*
X133459999Y-97294819D01*
X133459999Y-97294819D02*
X133555237Y-97342438D01*
X133555237Y-97342438D02*
X133602856Y-97390057D01*
X133602856Y-97390057D02*
X133698094Y-97532914D01*
X133698094Y-97532914D02*
X133745713Y-97723390D01*
X133745713Y-97723390D02*
X133745713Y-98104342D01*
X133745713Y-98104342D02*
X133698094Y-98199580D01*
X133698094Y-98199580D02*
X133650475Y-98247200D01*
X133650475Y-98247200D02*
X133555237Y-98294819D01*
X133555237Y-98294819D02*
X133364761Y-98294819D01*
X133364761Y-98294819D02*
X133269523Y-98247200D01*
X133269523Y-98247200D02*
X133221904Y-98199580D01*
X133221904Y-98199580D02*
X133174285Y-98104342D01*
X133174285Y-98104342D02*
X133174285Y-97866247D01*
X133174285Y-97866247D02*
X133221904Y-97771009D01*
X133221904Y-97771009D02*
X133269523Y-97723390D01*
X133269523Y-97723390D02*
X133364761Y-97675771D01*
X133364761Y-97675771D02*
X133555237Y-97675771D01*
X133555237Y-97675771D02*
X133650475Y-97723390D01*
X133650475Y-97723390D02*
X133698094Y-97771009D01*
X133698094Y-97771009D02*
X133745713Y-97866247D01*
X153166666Y-101139580D02*
X153214285Y-101187200D01*
X153214285Y-101187200D02*
X153357142Y-101234819D01*
X153357142Y-101234819D02*
X153452380Y-101234819D01*
X153452380Y-101234819D02*
X153595237Y-101187200D01*
X153595237Y-101187200D02*
X153690475Y-101091961D01*
X153690475Y-101091961D02*
X153738094Y-100996723D01*
X153738094Y-100996723D02*
X153785713Y-100806247D01*
X153785713Y-100806247D02*
X153785713Y-100663390D01*
X153785713Y-100663390D02*
X153738094Y-100472914D01*
X153738094Y-100472914D02*
X153690475Y-100377676D01*
X153690475Y-100377676D02*
X153595237Y-100282438D01*
X153595237Y-100282438D02*
X153452380Y-100234819D01*
X153452380Y-100234819D02*
X153357142Y-100234819D01*
X153357142Y-100234819D02*
X153214285Y-100282438D01*
X153214285Y-100282438D02*
X153166666Y-100330057D01*
X152785713Y-100330057D02*
X152738094Y-100282438D01*
X152738094Y-100282438D02*
X152642856Y-100234819D01*
X152642856Y-100234819D02*
X152404761Y-100234819D01*
X152404761Y-100234819D02*
X152309523Y-100282438D01*
X152309523Y-100282438D02*
X152261904Y-100330057D01*
X152261904Y-100330057D02*
X152214285Y-100425295D01*
X152214285Y-100425295D02*
X152214285Y-100520533D01*
X152214285Y-100520533D02*
X152261904Y-100663390D01*
X152261904Y-100663390D02*
X152833332Y-101234819D01*
X152833332Y-101234819D02*
X152214285Y-101234819D01*
X156311666Y-97789580D02*
X156359285Y-97837200D01*
X156359285Y-97837200D02*
X156502142Y-97884819D01*
X156502142Y-97884819D02*
X156597380Y-97884819D01*
X156597380Y-97884819D02*
X156740237Y-97837200D01*
X156740237Y-97837200D02*
X156835475Y-97741961D01*
X156835475Y-97741961D02*
X156883094Y-97646723D01*
X156883094Y-97646723D02*
X156930713Y-97456247D01*
X156930713Y-97456247D02*
X156930713Y-97313390D01*
X156930713Y-97313390D02*
X156883094Y-97122914D01*
X156883094Y-97122914D02*
X156835475Y-97027676D01*
X156835475Y-97027676D02*
X156740237Y-96932438D01*
X156740237Y-96932438D02*
X156597380Y-96884819D01*
X156597380Y-96884819D02*
X156502142Y-96884819D01*
X156502142Y-96884819D02*
X156359285Y-96932438D01*
X156359285Y-96932438D02*
X156311666Y-96980057D01*
X155359285Y-97884819D02*
X155930713Y-97884819D01*
X155644999Y-97884819D02*
X155644999Y-96884819D01*
X155644999Y-96884819D02*
X155740237Y-97027676D01*
X155740237Y-97027676D02*
X155835475Y-97122914D01*
X155835475Y-97122914D02*
X155930713Y-97170533D01*
X154034819Y-104058095D02*
X154844342Y-104058095D01*
X154844342Y-104058095D02*
X154939580Y-104105714D01*
X154939580Y-104105714D02*
X154987200Y-104153333D01*
X154987200Y-104153333D02*
X155034819Y-104248571D01*
X155034819Y-104248571D02*
X155034819Y-104439047D01*
X155034819Y-104439047D02*
X154987200Y-104534285D01*
X154987200Y-104534285D02*
X154939580Y-104581904D01*
X154939580Y-104581904D02*
X154844342Y-104629523D01*
X154844342Y-104629523D02*
X154034819Y-104629523D01*
X154034819Y-105010476D02*
X154034819Y-105629523D01*
X154034819Y-105629523D02*
X154415771Y-105296190D01*
X154415771Y-105296190D02*
X154415771Y-105439047D01*
X154415771Y-105439047D02*
X154463390Y-105534285D01*
X154463390Y-105534285D02*
X154511009Y-105581904D01*
X154511009Y-105581904D02*
X154606247Y-105629523D01*
X154606247Y-105629523D02*
X154844342Y-105629523D01*
X154844342Y-105629523D02*
X154939580Y-105581904D01*
X154939580Y-105581904D02*
X154987200Y-105534285D01*
X154987200Y-105534285D02*
X155034819Y-105439047D01*
X155034819Y-105439047D02*
X155034819Y-105153333D01*
X155034819Y-105153333D02*
X154987200Y-105058095D01*
X154987200Y-105058095D02*
X154939580Y-105010476D01*
X152471009Y-92644285D02*
X152518628Y-92787142D01*
X152518628Y-92787142D02*
X152566247Y-92834761D01*
X152566247Y-92834761D02*
X152661485Y-92882380D01*
X152661485Y-92882380D02*
X152804342Y-92882380D01*
X152804342Y-92882380D02*
X152899580Y-92834761D01*
X152899580Y-92834761D02*
X152947200Y-92787142D01*
X152947200Y-92787142D02*
X152994819Y-92691904D01*
X152994819Y-92691904D02*
X152994819Y-92310952D01*
X152994819Y-92310952D02*
X151994819Y-92310952D01*
X151994819Y-92310952D02*
X151994819Y-92644285D01*
X151994819Y-92644285D02*
X152042438Y-92739523D01*
X152042438Y-92739523D02*
X152090057Y-92787142D01*
X152090057Y-92787142D02*
X152185295Y-92834761D01*
X152185295Y-92834761D02*
X152280533Y-92834761D01*
X152280533Y-92834761D02*
X152375771Y-92787142D01*
X152375771Y-92787142D02*
X152423390Y-92739523D01*
X152423390Y-92739523D02*
X152471009Y-92644285D01*
X152471009Y-92644285D02*
X152471009Y-92310952D01*
X151994819Y-93168095D02*
X151994819Y-93739523D01*
X152994819Y-93453809D02*
X151994819Y-93453809D01*
X152994819Y-94596666D02*
X152994819Y-94025238D01*
X152994819Y-94310952D02*
X151994819Y-94310952D01*
X151994819Y-94310952D02*
X152137676Y-94215714D01*
X152137676Y-94215714D02*
X152232914Y-94120476D01*
X152232914Y-94120476D02*
X152280533Y-94025238D01*
X153591009Y-82649047D02*
X153638628Y-82791904D01*
X153638628Y-82791904D02*
X153686247Y-82839523D01*
X153686247Y-82839523D02*
X153781485Y-82887142D01*
X153781485Y-82887142D02*
X153924342Y-82887142D01*
X153924342Y-82887142D02*
X154019580Y-82839523D01*
X154019580Y-82839523D02*
X154067200Y-82791904D01*
X154067200Y-82791904D02*
X154114819Y-82696666D01*
X154114819Y-82696666D02*
X154114819Y-82315714D01*
X154114819Y-82315714D02*
X153114819Y-82315714D01*
X153114819Y-82315714D02*
X153114819Y-82649047D01*
X153114819Y-82649047D02*
X153162438Y-82744285D01*
X153162438Y-82744285D02*
X153210057Y-82791904D01*
X153210057Y-82791904D02*
X153305295Y-82839523D01*
X153305295Y-82839523D02*
X153400533Y-82839523D01*
X153400533Y-82839523D02*
X153495771Y-82791904D01*
X153495771Y-82791904D02*
X153543390Y-82744285D01*
X153543390Y-82744285D02*
X153591009Y-82649047D01*
X153591009Y-82649047D02*
X153591009Y-82315714D01*
X153114819Y-83220476D02*
X153114819Y-83887142D01*
X153114819Y-83887142D02*
X154114819Y-83220476D01*
X154114819Y-83220476D02*
X154114819Y-83887142D01*
X154114819Y-84791904D02*
X154114819Y-84220476D01*
X154114819Y-84506190D02*
X153114819Y-84506190D01*
X153114819Y-84506190D02*
X153257676Y-84410952D01*
X153257676Y-84410952D02*
X153352914Y-84315714D01*
X153352914Y-84315714D02*
X153400533Y-84220476D01*
X131464819Y-104148095D02*
X132274342Y-104148095D01*
X132274342Y-104148095D02*
X132369580Y-104195714D01*
X132369580Y-104195714D02*
X132417200Y-104243333D01*
X132417200Y-104243333D02*
X132464819Y-104338571D01*
X132464819Y-104338571D02*
X132464819Y-104529047D01*
X132464819Y-104529047D02*
X132417200Y-104624285D01*
X132417200Y-104624285D02*
X132369580Y-104671904D01*
X132369580Y-104671904D02*
X132274342Y-104719523D01*
X132274342Y-104719523D02*
X131464819Y-104719523D01*
X131464819Y-105671904D02*
X131464819Y-105195714D01*
X131464819Y-105195714D02*
X131941009Y-105148095D01*
X131941009Y-105148095D02*
X131893390Y-105195714D01*
X131893390Y-105195714D02*
X131845771Y-105290952D01*
X131845771Y-105290952D02*
X131845771Y-105529047D01*
X131845771Y-105529047D02*
X131893390Y-105624285D01*
X131893390Y-105624285D02*
X131941009Y-105671904D01*
X131941009Y-105671904D02*
X132036247Y-105719523D01*
X132036247Y-105719523D02*
X132274342Y-105719523D01*
X132274342Y-105719523D02*
X132369580Y-105671904D01*
X132369580Y-105671904D02*
X132417200Y-105624285D01*
X132417200Y-105624285D02*
X132464819Y-105529047D01*
X132464819Y-105529047D02*
X132464819Y-105290952D01*
X132464819Y-105290952D02*
X132417200Y-105195714D01*
X132417200Y-105195714D02*
X132369580Y-105148095D01*
D11*
%TO.C,C7*%
X130108748Y-100195000D02*
X130631252Y-100195000D01*
X130108748Y-98725000D02*
X130631252Y-98725000D01*
%TO.C,C6*%
X133698748Y-100255000D02*
X134221252Y-100255000D01*
X133698748Y-98785000D02*
X134221252Y-98785000D01*
%TO.C,C2*%
X153261252Y-98365000D02*
X152738748Y-98365000D01*
X153261252Y-99835000D02*
X152738748Y-99835000D01*
%TO.C,C1*%
X155883748Y-99845000D02*
X156406252Y-99845000D01*
X155883748Y-98375000D02*
X156406252Y-98375000D01*
%TO.C,U3*%
X151170000Y-106730000D02*
X151170000Y-102970000D01*
X152430000Y-106730000D02*
X151170000Y-106730000D01*
X156730000Y-106730000D02*
X157990000Y-106730000D01*
X157990000Y-106730000D02*
X157990000Y-102970000D01*
X151270000Y-101690000D02*
X150940000Y-101930000D01*
X150940000Y-101450000D01*
X151270000Y-101690000D01*
G36*
X151270000Y-101690000D02*
G01*
X150940000Y-101930000D01*
X150940000Y-101450000D01*
X151270000Y-101690000D01*
G37*
%TO.C,BT1*%
X153840000Y-90100000D02*
X153840000Y-96220000D01*
X153840000Y-96220000D02*
X158560000Y-96220000D01*
X154450000Y-90710000D02*
X154450000Y-95610000D01*
X154450000Y-93060000D02*
X154950000Y-93060000D01*
X154450000Y-95610000D02*
X157950000Y-95610000D01*
X154950000Y-93060000D02*
X154950000Y-93260000D01*
X154950000Y-93160000D02*
X154450000Y-93160000D01*
X154950000Y-93260000D02*
X154450000Y-93260000D01*
X155950000Y-90710000D02*
X155950000Y-90100000D01*
X155950000Y-95610000D02*
X155950000Y-96220000D01*
X157250000Y-90710000D02*
X157250000Y-90100000D01*
X157250000Y-95610000D02*
X157250000Y-96220000D01*
X157610000Y-96520000D02*
X158860000Y-96520000D01*
X157950000Y-90710000D02*
X154450000Y-90710000D01*
X157950000Y-92660000D02*
X157950000Y-90710000D01*
X157950000Y-93660000D02*
X158560000Y-93660000D01*
X157950000Y-95610000D02*
X157950000Y-93660000D01*
X158560000Y-90100000D02*
X153840000Y-90100000D01*
X158560000Y-92660000D02*
X157950000Y-92660000D01*
X158560000Y-94760000D02*
X158760000Y-94760000D01*
X158560000Y-96220000D02*
X158560000Y-90100000D01*
X158660000Y-94760000D02*
X158660000Y-94460000D01*
X158760000Y-94460000D02*
X158560000Y-94460000D01*
X158760000Y-94760000D02*
X158760000Y-94460000D01*
X158860000Y-96520000D02*
X158860000Y-95270000D01*
D12*
%TO.C,BZ1*%
X149160000Y-79030000D02*
X158160000Y-79030000D01*
X149160000Y-81510000D02*
X149160000Y-79030000D01*
X149160000Y-88030000D02*
X149160000Y-85550000D01*
X158160000Y-79030000D02*
X158160000Y-81510000D01*
X158160000Y-85550000D02*
X158160000Y-88030000D01*
X158160000Y-88030000D02*
X149160000Y-88030000D01*
D13*
X148060000Y-83530000D02*
G75*
G02*
X147860000Y-83530000I-100000J0D01*
G01*
X147860000Y-83530000D02*
G75*
G02*
X148060000Y-83530000I100000J0D01*
G01*
D11*
%TO.C,U5*%
X128640000Y-106920000D02*
X128640000Y-103160000D01*
X129900000Y-106920000D02*
X128640000Y-106920000D01*
X134200000Y-106920000D02*
X135460000Y-106920000D01*
X135460000Y-106920000D02*
X135460000Y-103160000D01*
X128740000Y-101880000D02*
X128410000Y-102120000D01*
X128410000Y-101640000D01*
X128740000Y-101880000D01*
G36*
X128740000Y-101880000D02*
G01*
X128410000Y-102120000D01*
X128410000Y-101640000D01*
X128740000Y-101880000D01*
G37*
%TD*%
%LPC*%
D14*
%TO.C,C7*%
X131320000Y-99460000D03*
X129420000Y-99460000D03*
%TD*%
%TO.C,C6*%
X134910000Y-99520000D03*
X133010000Y-99520000D03*
%TD*%
D15*
%TO.C,C2*%
X152050000Y-99100000D03*
X153950000Y-99100000D03*
%TD*%
D14*
%TO.C,C1*%
X157095000Y-99110000D03*
X155195000Y-99110000D03*
%TD*%
D16*
%TO.C,J1*%
X140080000Y-103095000D03*
X145860000Y-103095000D03*
%TD*%
D17*
%TO.C,U3*%
X152280000Y-101670000D03*
X154580000Y-101670000D03*
D18*
X154580000Y-107970000D03*
D17*
X156880000Y-101670000D03*
%TD*%
D19*
%TO.C,BT1*%
X156750000Y-94160000D03*
D20*
X156750000Y-92160000D03*
%TD*%
D21*
%TO.C,BZ1*%
X149310000Y-83530000D03*
X158010000Y-83530000D03*
%TD*%
D17*
%TO.C,U5*%
X129750000Y-101860000D03*
X132050000Y-101860000D03*
D18*
X132050000Y-108160000D03*
D17*
X134350000Y-101860000D03*
%TD*%
%LPD*%
M02*
