%TF.GenerationSoftware,KiCad,Pcbnew,8.0.8-8.0.8-0~ubuntu24.04.1*%
%TF.CreationDate,2025-07-30T22:16:22-04:00*%
%TF.ProjectId,electronics,656c6563-7472-46f6-9e69-63732e6b6963,rev?*%
%TF.SameCoordinates,Original*%
%TF.FileFunction,Copper,L2,Bot*%
%TF.FilePolarity,Positive*%
%FSLAX46Y46*%
G04 Gerber Fmt 4.6, Leading zero omitted, Abs format (unit mm)*
G04 Created by KiCad (PCBNEW 8.0.8-8.0.8-0~ubuntu24.04.1) date 2025-07-30 22:16:22*
%MOMM*%
%LPD*%
G01*
G04 APERTURE LIST*
G04 Aperture macros list*
%AMRoundRect*
0 Rectangle with rounded corners*
0 $1 Rounding radius*
0 $2 $3 $4 $5 $6 $7 $8 $9 X,Y pos of 4 corners*
0 Add a 4 corners polygon primitive as box body*
4,1,4,$2,$3,$4,$5,$6,$7,$8,$9,$2,$3,0*
0 Add four circle primitives for the rounded corners*
1,1,$1+$1,$2,$3*
1,1,$1+$1,$4,$5*
1,1,$1+$1,$6,$7*
1,1,$1+$1,$8,$9*
0 Add four rect primitives between the rounded corners*
20,1,$1+$1,$2,$3,$4,$5,0*
20,1,$1+$1,$4,$5,$6,$7,0*
20,1,$1+$1,$6,$7,$8,$9,0*
20,1,$1+$1,$8,$9,$2,$3,0*%
G04 Aperture macros list end*
%TA.AperFunction,SMDPad,CuDef*%
%ADD10RoundRect,0.250000X0.250000X0.475000X-0.250000X0.475000X-0.250000X-0.475000X0.250000X-0.475000X0*%
%TD*%
%TA.AperFunction,SMDPad,CuDef*%
%ADD11RoundRect,0.250000X-0.250000X-0.475000X0.250000X-0.475000X0.250000X0.475000X-0.250000X0.475000X0*%
%TD*%
%TA.AperFunction,HeatsinkPad*%
%ADD12C,0.600000*%
%TD*%
%TA.AperFunction,SMDPad,CuDef*%
%ADD13RoundRect,0.375000X-0.375000X0.625000X-0.375000X-0.625000X0.375000X-0.625000X0.375000X0.625000X0*%
%TD*%
%TA.AperFunction,SMDPad,CuDef*%
%ADD14RoundRect,0.500000X-1.400000X0.500000X-1.400000X-0.500000X1.400000X-0.500000X1.400000X0.500000X0*%
%TD*%
%TA.AperFunction,ComponentPad*%
%ADD15RoundRect,0.250000X0.625000X-0.350000X0.625000X0.350000X-0.625000X0.350000X-0.625000X-0.350000X0*%
%TD*%
%TA.AperFunction,ComponentPad*%
%ADD16O,1.750000X1.200000*%
%TD*%
%TA.AperFunction,SMDPad,CuDef*%
%ADD17R,1.300000X3.400000*%
%TD*%
%TA.AperFunction,ViaPad*%
%ADD18C,0.600000*%
%TD*%
%TA.AperFunction,Conductor*%
%ADD19C,0.200000*%
%TD*%
G04 APERTURE END LIST*
D10*
%TO.P,C7,1*%
%TO.N,+3V3*%
X131320000Y-99460000D03*
%TO.P,C7,2*%
%TO.N,GND*%
X129420000Y-99460000D03*
%TD*%
%TO.P,C6,1*%
%TO.N,Net-(U5-VI)*%
X134910000Y-99520000D03*
%TO.P,C6,2*%
%TO.N,GND*%
X133010000Y-99520000D03*
%TD*%
D11*
%TO.P,C2,1*%
%TO.N,+3V3*%
X152050000Y-99100000D03*
%TO.P,C2,2*%
%TO.N,GND*%
X153950000Y-99100000D03*
%TD*%
D10*
%TO.P,C1,1*%
%TO.N,Net-(BT1-+)*%
X157095000Y-99110000D03*
%TO.P,C1,2*%
%TO.N,GND*%
X155195000Y-99110000D03*
%TD*%
D12*
%TO.P,U1,41,GND*%
%TO.N,GND*%
X140120000Y-86330000D03*
X140120000Y-87730000D03*
X140820000Y-85630000D03*
X140820000Y-87030000D03*
X140820000Y-88430000D03*
X141520000Y-86330000D03*
X141520000Y-87730000D03*
X142220000Y-85630000D03*
X142220000Y-87030000D03*
X142220000Y-88430000D03*
X142920000Y-86330000D03*
X142920000Y-87730000D03*
%TD*%
D13*
%TO.P,U3,1,GND*%
%TO.N,GND*%
X152280000Y-101670000D03*
%TO.P,U3,2,VO*%
%TO.N,+3V3*%
X154580000Y-101670000D03*
D14*
X154580000Y-107970000D03*
D13*
%TO.P,U3,3,VI*%
%TO.N,Net-(BT1-+)*%
X156880000Y-101670000D03*
%TD*%
D15*
%TO.P,BT1,1,+*%
%TO.N,Net-(BT1-+)*%
X156750000Y-94160000D03*
D16*
%TO.P,BT1,2,-*%
%TO.N,GND*%
X156750000Y-92160000D03*
%TD*%
D17*
%TO.P,BZ1,1,+*%
%TO.N,/BZR*%
X149310000Y-83530000D03*
%TO.P,BZ1,2,-*%
%TO.N,GND*%
X158010000Y-83530000D03*
%TD*%
D13*
%TO.P,U5,1,GND*%
%TO.N,GND*%
X129750000Y-101860000D03*
%TO.P,U5,2,VO*%
%TO.N,+3V3*%
X132050000Y-101860000D03*
D14*
X132050000Y-108160000D03*
D13*
%TO.P,U5,3,VI*%
%TO.N,Net-(U5-VI)*%
X134350000Y-101860000D03*
%TD*%
D18*
%TO.N,GND*%
X129740000Y-87910000D03*
X130380000Y-83970000D03*
%TO.N,/BZR*%
X148910000Y-87130000D03*
%TO.N,+3V3*%
X132431063Y-80605069D03*
%TO.N,Net-(U5-VI)*%
X139550000Y-99990000D03*
%TD*%
D19*
%TO.N,Net-(U5-VI)*%
X134910000Y-99520000D02*
X134910000Y-101300000D01*
X134910000Y-101300000D02*
X134350000Y-101860000D01*
%TO.N,+3V3*%
X131320000Y-99460000D02*
X131320000Y-92200000D01*
%TO.N,Net-(BT1-+)*%
X156920000Y-94330000D02*
X156920000Y-101630000D01*
X156920000Y-101630000D02*
X156880000Y-101670000D01*
X156750000Y-94160000D02*
X156920000Y-94330000D01*
%TO.N,GND*%
X129740000Y-87710000D02*
X129600000Y-87570000D01*
X158010000Y-83530000D02*
X158010000Y-90900000D01*
X129600000Y-87570000D02*
X129600000Y-84750000D01*
X129110000Y-88540000D02*
X129110000Y-98975000D01*
X129740000Y-87910000D02*
X129740000Y-87710000D01*
X158010000Y-90900000D02*
X156750000Y-92160000D01*
X129110000Y-98975000D02*
X129595000Y-99460000D01*
X129600000Y-84750000D02*
X130380000Y-83970000D01*
X129740000Y-87910000D02*
X129110000Y-88540000D01*
%TO.N,/BZR*%
X148910000Y-87130000D02*
X149310000Y-86730000D01*
X149310000Y-86730000D02*
X149310000Y-83530000D01*
%TO.N,+3V3*%
X132050000Y-101860000D02*
X132050000Y-100190000D01*
X154580000Y-101670000D02*
X152225000Y-99315000D01*
X132050000Y-108160000D02*
X132050000Y-101860000D01*
X132050000Y-100190000D02*
X131320000Y-99460000D01*
X152225000Y-99315000D02*
X152225000Y-99100000D01*
X152225000Y-99100000D02*
X145325000Y-92200000D01*
X145325000Y-92200000D02*
X131320000Y-92200000D01*
X154580000Y-107970000D02*
X154580000Y-101670000D01*
X131320000Y-81740000D02*
X132450000Y-80610000D01*
X131320000Y-92200000D02*
X131320000Y-81740000D01*
%TO.N,Net-(U5-VI)*%
X139080000Y-99520000D02*
X134910000Y-99520000D01*
X139550000Y-99990000D02*
X139080000Y-99520000D01*
%TD*%
%TA.AperFunction,Conductor*%
%TO.N,GND*%
G36*
X159168691Y-77838907D02*
G01*
X159204655Y-77888407D01*
X159209500Y-77919000D01*
X159209500Y-109320500D01*
X159190593Y-109378691D01*
X159141093Y-109414655D01*
X159110500Y-109419500D01*
X133902811Y-109419500D01*
X133844620Y-109400593D01*
X133808656Y-109351093D01*
X133808656Y-109289907D01*
X133844620Y-109240407D01*
X133851595Y-109235778D01*
X133854440Y-109234057D01*
X133885185Y-109215472D01*
X134005472Y-109095185D01*
X134093478Y-108949606D01*
X134144086Y-108787196D01*
X134150500Y-108716616D01*
X134150500Y-107603384D01*
X134144086Y-107532804D01*
X134093478Y-107370394D01*
X134005472Y-107224815D01*
X133885185Y-107104528D01*
X133847777Y-107081914D01*
X133739607Y-107016522D01*
X133739605Y-107016521D01*
X133577194Y-106965913D01*
X133506620Y-106959500D01*
X133506616Y-106959500D01*
X132449500Y-106959500D01*
X132391309Y-106940593D01*
X132355345Y-106891093D01*
X132350500Y-106860500D01*
X132350500Y-103159500D01*
X132369407Y-103101309D01*
X132418907Y-103065345D01*
X132449500Y-103060500D01*
X132462719Y-103060500D01*
X132462720Y-103060500D01*
X132575236Y-103045687D01*
X132715233Y-102987698D01*
X132835451Y-102895451D01*
X132927698Y-102775233D01*
X132985687Y-102635236D01*
X133000500Y-102522720D01*
X133000500Y-101197280D01*
X133000500Y-101197279D01*
X133399500Y-101197279D01*
X133399500Y-102522720D01*
X133414213Y-102634481D01*
X133414313Y-102635236D01*
X133472302Y-102775233D01*
X133564549Y-102895451D01*
X133684767Y-102987698D01*
X133824764Y-103045687D01*
X133937280Y-103060500D01*
X133937281Y-103060500D01*
X134762719Y-103060500D01*
X134762720Y-103060500D01*
X134875236Y-103045687D01*
X134939099Y-103019234D01*
X139504500Y-103019234D01*
X139504500Y-103170766D01*
X139539086Y-103299847D01*
X139543720Y-103317139D01*
X139619481Y-103448360D01*
X139619483Y-103448362D01*
X139619485Y-103448365D01*
X139726635Y-103555515D01*
X139726637Y-103555516D01*
X139726639Y-103555518D01*
X139857861Y-103631279D01*
X139857859Y-103631279D01*
X139857863Y-103631280D01*
X139857865Y-103631281D01*
X140004234Y-103670500D01*
X140004236Y-103670500D01*
X140155764Y-103670500D01*
X140155766Y-103670500D01*
X140302135Y-103631281D01*
X140302137Y-103631279D01*
X140302139Y-103631279D01*
X140433360Y-103555518D01*
X140433360Y-103555517D01*
X140433365Y-103555515D01*
X140540515Y-103448365D01*
X140616281Y-103317135D01*
X140655500Y-103170766D01*
X140655500Y-103019234D01*
X145284500Y-103019234D01*
X145284500Y-103170766D01*
X145319086Y-103299847D01*
X145323720Y-103317139D01*
X145399481Y-103448360D01*
X145399483Y-103448362D01*
X145399485Y-103448365D01*
X145506635Y-103555515D01*
X145506637Y-103555516D01*
X145506639Y-103555518D01*
X145637861Y-103631279D01*
X145637859Y-103631279D01*
X145637863Y-103631280D01*
X145637865Y-103631281D01*
X145784234Y-103670500D01*
X145784236Y-103670500D01*
X145935764Y-103670500D01*
X145935766Y-103670500D01*
X146082135Y-103631281D01*
X146082137Y-103631279D01*
X146082139Y-103631279D01*
X146213360Y-103555518D01*
X146213360Y-103555517D01*
X146213365Y-103555515D01*
X146320515Y-103448365D01*
X146396281Y-103317135D01*
X146435500Y-103170766D01*
X146435500Y-103019234D01*
X146396281Y-102872865D01*
X146396279Y-102872862D01*
X146396279Y-102872860D01*
X146320518Y-102741639D01*
X146320516Y-102741637D01*
X146320515Y-102741635D01*
X146213365Y-102634485D01*
X146213362Y-102634483D01*
X146213360Y-102634481D01*
X146082138Y-102558720D01*
X146082140Y-102558720D01*
X146025347Y-102543503D01*
X145935766Y-102519500D01*
X145784234Y-102519500D01*
X145694652Y-102543503D01*
X145637860Y-102558720D01*
X145506639Y-102634481D01*
X145399481Y-102741639D01*
X145323720Y-102872860D01*
X145317668Y-102895448D01*
X145284500Y-103019234D01*
X140655500Y-103019234D01*
X140616281Y-102872865D01*
X140616279Y-102872862D01*
X140616279Y-102872860D01*
X140540518Y-102741639D01*
X140540516Y-102741637D01*
X140540515Y-102741635D01*
X140433365Y-102634485D01*
X140433362Y-102634483D01*
X140433360Y-102634481D01*
X140302138Y-102558720D01*
X140302140Y-102558720D01*
X140245347Y-102543503D01*
X140155766Y-102519500D01*
X140004234Y-102519500D01*
X139914652Y-102543503D01*
X139857860Y-102558720D01*
X139726639Y-102634481D01*
X139619481Y-102741639D01*
X139543720Y-102872860D01*
X139537668Y-102895448D01*
X139504500Y-103019234D01*
X134939099Y-103019234D01*
X135015233Y-102987698D01*
X135135451Y-102895451D01*
X135227698Y-102775233D01*
X135285687Y-102635236D01*
X135300500Y-102522720D01*
X135300500Y-101197280D01*
X135285687Y-101084764D01*
X135227698Y-100944767D01*
X135224456Y-100939152D01*
X135226947Y-100937713D01*
X135210533Y-100891298D01*
X135210500Y-100888748D01*
X135210500Y-100162255D01*
X135229407Y-100104064D01*
X135239490Y-100092257D01*
X135308528Y-100023220D01*
X135369719Y-99903126D01*
X135369719Y-99903119D01*
X135372126Y-99895718D01*
X135373567Y-99896186D01*
X135397351Y-99849501D01*
X135451866Y-99821720D01*
X135467359Y-99820500D01*
X138914521Y-99820500D01*
X138972712Y-99839407D01*
X138984525Y-99849496D01*
X139019453Y-99884424D01*
X139047230Y-99938941D01*
X139047441Y-99968514D01*
X139044354Y-99989997D01*
X139044353Y-99990002D01*
X139064834Y-100132456D01*
X139124622Y-100263371D01*
X139124623Y-100263373D01*
X139204433Y-100355479D01*
X139218873Y-100372144D01*
X139339942Y-100449950D01*
X139339947Y-100449953D01*
X139406519Y-100469500D01*
X139478035Y-100490499D01*
X139478036Y-100490499D01*
X139478039Y-100490500D01*
X139478041Y-100490500D01*
X139621959Y-100490500D01*
X139621961Y-100490500D01*
X139760053Y-100449953D01*
X139881128Y-100372143D01*
X139975377Y-100263373D01*
X140035165Y-100132457D01*
X140055647Y-99990000D01*
X140051796Y-99963217D01*
X140035165Y-99847543D01*
X140022815Y-99820500D01*
X139975377Y-99716627D01*
X139881128Y-99607857D01*
X139881127Y-99607856D01*
X139881126Y-99607855D01*
X139760057Y-99530049D01*
X139760054Y-99530047D01*
X139760053Y-99530047D01*
X139760050Y-99530046D01*
X139621964Y-99489500D01*
X139621961Y-99489500D01*
X139515479Y-99489500D01*
X139457288Y-99470593D01*
X139445476Y-99460504D01*
X139264511Y-99279540D01*
X139257404Y-99275437D01*
X139257403Y-99275436D01*
X139195987Y-99239978D01*
X139119564Y-99219500D01*
X139119562Y-99219500D01*
X135467359Y-99219500D01*
X135409168Y-99200593D01*
X135373204Y-99151093D01*
X135369995Y-99137724D01*
X135369719Y-99136878D01*
X135369719Y-99136874D01*
X135308528Y-99016780D01*
X135213220Y-98921472D01*
X135213217Y-98921470D01*
X135093132Y-98860283D01*
X135093127Y-98860281D01*
X135093126Y-98860281D01*
X135059913Y-98855020D01*
X134993490Y-98844500D01*
X134993488Y-98844500D01*
X134476512Y-98844500D01*
X134476510Y-98844500D01*
X134376874Y-98860281D01*
X134376867Y-98860283D01*
X134256782Y-98921470D01*
X134161470Y-99016782D01*
X134100283Y-99136867D01*
X134100281Y-99136874D01*
X134084500Y-99236510D01*
X134084500Y-99803489D01*
X134086292Y-99814802D01*
X134093410Y-99859747D01*
X134100281Y-99903125D01*
X134100283Y-99903132D01*
X134161470Y-100023217D01*
X134161472Y-100023220D01*
X134256780Y-100118528D01*
X134256782Y-100118529D01*
X134376867Y-100179716D01*
X134376869Y-100179716D01*
X134376874Y-100179719D01*
X134452541Y-100191703D01*
X134476510Y-100195500D01*
X134476512Y-100195500D01*
X134510500Y-100195500D01*
X134568691Y-100214407D01*
X134604655Y-100263907D01*
X134609500Y-100294500D01*
X134609500Y-100560500D01*
X134590593Y-100618691D01*
X134541093Y-100654655D01*
X134510500Y-100659500D01*
X133937279Y-100659500D01*
X133824767Y-100674312D01*
X133824761Y-100674314D01*
X133684768Y-100732301D01*
X133564551Y-100824547D01*
X133564547Y-100824551D01*
X133472301Y-100944768D01*
X133414314Y-101084761D01*
X133414312Y-101084767D01*
X133399500Y-101197279D01*
X133000500Y-101197279D01*
X132985687Y-101084764D01*
X132927698Y-100944767D01*
X132835451Y-100824549D01*
X132715233Y-100732302D01*
X132575236Y-100674313D01*
X132575234Y-100674312D01*
X132575232Y-100674312D01*
X132462720Y-100659500D01*
X132449500Y-100659500D01*
X132391309Y-100640593D01*
X132355345Y-100591093D01*
X132350500Y-100560500D01*
X132350500Y-100150437D01*
X132350499Y-100150435D01*
X132349934Y-100148328D01*
X132330021Y-100074011D01*
X132290460Y-100005489D01*
X132274968Y-99989997D01*
X132234511Y-99949539D01*
X132234511Y-99949540D01*
X131824496Y-99539525D01*
X131796719Y-99485008D01*
X131795500Y-99469521D01*
X131795500Y-99176510D01*
X131791474Y-99151093D01*
X131779719Y-99076874D01*
X131779716Y-99076869D01*
X131779716Y-99076867D01*
X131718529Y-98956782D01*
X131718528Y-98956780D01*
X131718526Y-98956778D01*
X131649496Y-98887747D01*
X131621719Y-98833230D01*
X131620500Y-98817744D01*
X131620500Y-92599500D01*
X131639407Y-92541309D01*
X131688907Y-92505345D01*
X131719500Y-92500500D01*
X145159521Y-92500500D01*
X145217712Y-92519407D01*
X145229525Y-92529496D01*
X151545504Y-98845475D01*
X151573281Y-98899992D01*
X151574500Y-98915479D01*
X151574500Y-99383489D01*
X151590281Y-99483125D01*
X151590283Y-99483132D01*
X151651470Y-99603217D01*
X151651472Y-99603220D01*
X151746780Y-99698528D01*
X151746782Y-99698529D01*
X151866867Y-99759716D01*
X151866869Y-99759716D01*
X151866874Y-99759719D01*
X151942541Y-99771703D01*
X151966510Y-99775500D01*
X151966512Y-99775500D01*
X152219521Y-99775500D01*
X152277712Y-99794407D01*
X152289525Y-99804496D01*
X153600504Y-101115475D01*
X153628281Y-101169992D01*
X153629500Y-101185479D01*
X153629500Y-102332720D01*
X153644313Y-102445236D01*
X153702302Y-102585233D01*
X153794549Y-102705451D01*
X153914767Y-102797698D01*
X154054764Y-102855687D01*
X154167280Y-102870500D01*
X154180500Y-102870500D01*
X154238691Y-102889407D01*
X154274655Y-102938907D01*
X154279500Y-102969500D01*
X154279500Y-106670500D01*
X154260593Y-106728691D01*
X154211093Y-106764655D01*
X154180500Y-106769500D01*
X153123379Y-106769500D01*
X153052805Y-106775913D01*
X152890394Y-106826521D01*
X152890392Y-106826522D01*
X152744816Y-106914527D01*
X152624527Y-107034816D01*
X152536522Y-107180392D01*
X152536521Y-107180394D01*
X152485913Y-107342805D01*
X152479500Y-107413379D01*
X152479500Y-108526620D01*
X152485913Y-108597194D01*
X152536521Y-108759605D01*
X152536522Y-108759607D01*
X152601914Y-108867777D01*
X152624528Y-108905185D01*
X152744815Y-109025472D01*
X152852986Y-109090864D01*
X152860130Y-109095183D01*
X152890394Y-109113478D01*
X153052804Y-109164086D01*
X153123384Y-109170500D01*
X153123389Y-109170500D01*
X156036611Y-109170500D01*
X156036616Y-109170500D01*
X156107196Y-109164086D01*
X156269606Y-109113478D01*
X156415185Y-109025472D01*
X156535472Y-108905185D01*
X156623478Y-108759606D01*
X156674086Y-108597196D01*
X156680500Y-108526616D01*
X156680500Y-107413384D01*
X156674086Y-107342804D01*
X156623478Y-107180394D01*
X156535472Y-107034815D01*
X156415185Y-106914528D01*
X156376419Y-106891093D01*
X156269607Y-106826522D01*
X156269605Y-106826521D01*
X156107194Y-106775913D01*
X156036620Y-106769500D01*
X156036616Y-106769500D01*
X154979500Y-106769500D01*
X154921309Y-106750593D01*
X154885345Y-106701093D01*
X154880500Y-106670500D01*
X154880500Y-102969500D01*
X154899407Y-102911309D01*
X154948907Y-102875345D01*
X154979500Y-102870500D01*
X154992719Y-102870500D01*
X154992720Y-102870500D01*
X155105236Y-102855687D01*
X155245233Y-102797698D01*
X155365451Y-102705451D01*
X155457698Y-102585233D01*
X155515687Y-102445236D01*
X155530500Y-102332720D01*
X155530500Y-101007280D01*
X155515687Y-100894764D01*
X155457698Y-100754767D01*
X155365451Y-100634549D01*
X155245233Y-100542302D01*
X155105236Y-100484313D01*
X155105234Y-100484312D01*
X155105232Y-100484312D01*
X154992720Y-100469500D01*
X154167280Y-100469500D01*
X154167279Y-100469500D01*
X154054767Y-100484312D01*
X154054764Y-100484312D01*
X154054764Y-100484313D01*
X153949370Y-100527969D01*
X153888373Y-100532770D01*
X153841480Y-100506509D01*
X152889696Y-99554725D01*
X152861919Y-99500208D01*
X152861919Y-99469233D01*
X152875500Y-99383489D01*
X152875500Y-98816510D01*
X152863966Y-98743691D01*
X152859719Y-98716874D01*
X152859716Y-98716869D01*
X152859716Y-98716867D01*
X152798529Y-98596782D01*
X152798528Y-98596780D01*
X152703220Y-98501472D01*
X152703217Y-98501470D01*
X152583132Y-98440283D01*
X152583127Y-98440281D01*
X152583126Y-98440281D01*
X152549913Y-98435020D01*
X152483490Y-98424500D01*
X152483488Y-98424500D01*
X152015479Y-98424500D01*
X151957288Y-98405593D01*
X151945475Y-98395504D01*
X151910222Y-98360251D01*
X147305696Y-93755725D01*
X155674500Y-93755725D01*
X155674500Y-94564274D01*
X155677353Y-94594694D01*
X155677355Y-94594703D01*
X155722207Y-94722883D01*
X155802845Y-94832144D01*
X155802847Y-94832146D01*
X155802850Y-94832150D01*
X155802853Y-94832152D01*
X155802855Y-94832154D01*
X155912116Y-94912792D01*
X155912117Y-94912792D01*
X155912118Y-94912793D01*
X156040301Y-94957646D01*
X156070725Y-94960499D01*
X156070727Y-94960500D01*
X156070734Y-94960500D01*
X156520500Y-94960500D01*
X156578691Y-94979407D01*
X156614655Y-95028907D01*
X156619500Y-95059500D01*
X156619500Y-98360251D01*
X156600593Y-98418442D01*
X156565446Y-98448460D01*
X156441781Y-98511471D01*
X156346470Y-98606782D01*
X156285283Y-98726867D01*
X156285281Y-98726874D01*
X156269500Y-98826510D01*
X156269500Y-99393489D01*
X156285281Y-99493125D01*
X156285283Y-99493132D01*
X156343738Y-99607855D01*
X156346472Y-99613220D01*
X156441780Y-99708528D01*
X156561874Y-99769719D01*
X156561878Y-99769719D01*
X156565445Y-99771537D01*
X156608709Y-99814802D01*
X156619500Y-99859747D01*
X156619500Y-100370500D01*
X156600593Y-100428691D01*
X156551093Y-100464655D01*
X156520500Y-100469500D01*
X156467279Y-100469500D01*
X156354767Y-100484312D01*
X156354761Y-100484314D01*
X156214768Y-100542301D01*
X156094551Y-100634547D01*
X156094547Y-100634551D01*
X156002301Y-100754768D01*
X155944314Y-100894761D01*
X155944312Y-100894767D01*
X155929500Y-101007279D01*
X155929500Y-101007280D01*
X155929500Y-102332720D01*
X155944313Y-102445236D01*
X156002302Y-102585233D01*
X156094549Y-102705451D01*
X156214767Y-102797698D01*
X156354764Y-102855687D01*
X156467280Y-102870500D01*
X156467281Y-102870500D01*
X157292719Y-102870500D01*
X157292720Y-102870500D01*
X157405236Y-102855687D01*
X157545233Y-102797698D01*
X157665451Y-102705451D01*
X157757698Y-102585233D01*
X157815687Y-102445236D01*
X157830500Y-102332720D01*
X157830500Y-101007280D01*
X157815687Y-100894764D01*
X157757698Y-100754767D01*
X157665451Y-100634549D01*
X157545233Y-100542302D01*
X157405236Y-100484313D01*
X157405235Y-100484312D01*
X157405233Y-100484312D01*
X157306577Y-100471324D01*
X157251353Y-100444983D01*
X157222158Y-100391212D01*
X157220500Y-100373171D01*
X157220500Y-99859747D01*
X157239407Y-99801556D01*
X157274555Y-99771537D01*
X157278121Y-99769719D01*
X157278126Y-99769719D01*
X157398220Y-99708528D01*
X157493528Y-99613220D01*
X157554719Y-99493126D01*
X157570500Y-99393488D01*
X157570500Y-98826512D01*
X157554719Y-98726874D01*
X157554716Y-98726869D01*
X157554716Y-98726867D01*
X157493529Y-98606782D01*
X157493528Y-98606780D01*
X157398220Y-98511472D01*
X157378590Y-98501470D01*
X157274554Y-98448460D01*
X157231290Y-98405195D01*
X157220500Y-98360251D01*
X157220500Y-95059500D01*
X157239407Y-95001309D01*
X157288907Y-94965345D01*
X157319500Y-94960500D01*
X157429273Y-94960500D01*
X157429273Y-94960499D01*
X157459699Y-94957646D01*
X157587882Y-94912793D01*
X157697150Y-94832150D01*
X157777793Y-94722882D01*
X157822646Y-94594699D01*
X157825499Y-94564273D01*
X157825500Y-94564273D01*
X157825500Y-93755727D01*
X157825499Y-93755725D01*
X157822646Y-93725305D01*
X157822646Y-93725301D01*
X157777793Y-93597118D01*
X157697150Y-93487850D01*
X157697146Y-93487847D01*
X157697144Y-93487845D01*
X157587883Y-93407207D01*
X157459703Y-93362355D01*
X157459694Y-93362353D01*
X157429274Y-93359500D01*
X157429266Y-93359500D01*
X156070734Y-93359500D01*
X156070725Y-93359500D01*
X156040305Y-93362353D01*
X156040296Y-93362355D01*
X155912116Y-93407207D01*
X155802855Y-93487845D01*
X155802845Y-93487855D01*
X155722207Y-93597116D01*
X155677355Y-93725296D01*
X155677353Y-93725305D01*
X155674500Y-93755725D01*
X147305696Y-93755725D01*
X145609971Y-92060000D01*
X155679217Y-92060000D01*
X156388566Y-92060000D01*
X156375000Y-92110630D01*
X156375000Y-92209370D01*
X156388566Y-92260000D01*
X155679218Y-92260000D01*
X155705742Y-92393349D01*
X155766048Y-92538940D01*
X155766052Y-92538949D01*
X155853599Y-92669969D01*
X155853602Y-92669973D01*
X155965026Y-92781397D01*
X155965030Y-92781400D01*
X156096050Y-92868947D01*
X156096059Y-92868951D01*
X156241650Y-92929257D01*
X156396204Y-92959999D01*
X156396208Y-92960000D01*
X156649999Y-92960000D01*
X156650000Y-92959999D01*
X156650000Y-92521433D01*
X156700630Y-92535000D01*
X156799370Y-92535000D01*
X156850000Y-92521433D01*
X156850000Y-92959999D01*
X156850001Y-92960000D01*
X157103792Y-92960000D01*
X157103795Y-92959999D01*
X157258349Y-92929257D01*
X157403940Y-92868951D01*
X157403949Y-92868947D01*
X157534969Y-92781400D01*
X157534973Y-92781397D01*
X157646397Y-92669973D01*
X157646400Y-92669969D01*
X157733947Y-92538949D01*
X157733951Y-92538940D01*
X157794257Y-92393349D01*
X157820782Y-92260000D01*
X157111434Y-92260000D01*
X157125000Y-92209370D01*
X157125000Y-92110630D01*
X157111434Y-92060000D01*
X157820782Y-92060000D01*
X157794257Y-91926650D01*
X157733951Y-91781059D01*
X157733947Y-91781050D01*
X157646400Y-91650030D01*
X157646397Y-91650026D01*
X157534973Y-91538602D01*
X157534969Y-91538599D01*
X157403949Y-91451052D01*
X157403940Y-91451048D01*
X157258349Y-91390742D01*
X157103795Y-91360000D01*
X156850001Y-91360000D01*
X156850000Y-91360001D01*
X156850000Y-91798566D01*
X156799370Y-91785000D01*
X156700630Y-91785000D01*
X156650000Y-91798566D01*
X156650000Y-91360001D01*
X156649999Y-91360000D01*
X156396204Y-91360000D01*
X156241650Y-91390742D01*
X156096059Y-91451048D01*
X156096050Y-91451052D01*
X155965030Y-91538599D01*
X155965026Y-91538602D01*
X155853602Y-91650026D01*
X155853599Y-91650030D01*
X155766052Y-91781050D01*
X155766048Y-91781059D01*
X155705742Y-91926650D01*
X155679217Y-92060000D01*
X145609971Y-92060000D01*
X145509511Y-91959540D01*
X145509508Y-91959538D01*
X145440992Y-91919980D01*
X145440988Y-91919978D01*
X145364564Y-91899500D01*
X145364562Y-91899500D01*
X131719500Y-91899500D01*
X131661309Y-91880593D01*
X131625345Y-91831093D01*
X131620500Y-91800500D01*
X131620500Y-88847149D01*
X140544269Y-88847149D01*
X140610155Y-88889492D01*
X140748109Y-88929999D01*
X140748112Y-88930000D01*
X140891888Y-88930000D01*
X140891890Y-88929999D01*
X141029844Y-88889492D01*
X141029846Y-88889491D01*
X141095728Y-88847149D01*
X141095729Y-88847149D01*
X141944269Y-88847149D01*
X142010155Y-88889492D01*
X142148109Y-88929999D01*
X142148112Y-88930000D01*
X142291888Y-88930000D01*
X142291890Y-88929999D01*
X142429844Y-88889492D01*
X142429846Y-88889491D01*
X142495728Y-88847149D01*
X142495729Y-88847149D01*
X142220000Y-88571421D01*
X141944269Y-88847149D01*
X141095729Y-88847149D01*
X140820000Y-88571421D01*
X140544269Y-88847149D01*
X131620500Y-88847149D01*
X131620500Y-88147149D01*
X139844269Y-88147149D01*
X139910155Y-88189492D01*
X140048109Y-88229999D01*
X140048112Y-88230000D01*
X140191888Y-88230000D01*
X140191892Y-88229999D01*
X140202491Y-88226887D01*
X140263651Y-88228633D01*
X140312105Y-88265994D01*
X140329345Y-88324701D01*
X140328377Y-88335964D01*
X140314858Y-88429995D01*
X140314858Y-88430002D01*
X140335319Y-88572314D01*
X140395048Y-88703100D01*
X140399889Y-88708687D01*
X140678577Y-88429999D01*
X140658687Y-88410109D01*
X140720000Y-88410109D01*
X140720000Y-88449891D01*
X140735224Y-88486645D01*
X140763355Y-88514776D01*
X140800109Y-88530000D01*
X140839891Y-88530000D01*
X140876645Y-88514776D01*
X140904776Y-88486645D01*
X140920000Y-88449891D01*
X140920000Y-88429999D01*
X140961421Y-88429999D01*
X141240109Y-88708687D01*
X141244950Y-88703102D01*
X141244951Y-88703100D01*
X141304680Y-88572314D01*
X141325142Y-88430002D01*
X141325142Y-88429997D01*
X141311622Y-88335965D01*
X141322055Y-88275676D01*
X141365933Y-88233034D01*
X141426495Y-88224326D01*
X141437506Y-88226886D01*
X141448109Y-88229999D01*
X141448112Y-88230000D01*
X141591888Y-88230000D01*
X141591892Y-88229999D01*
X141602491Y-88226887D01*
X141663651Y-88228633D01*
X141712105Y-88265994D01*
X141729345Y-88324701D01*
X141728377Y-88335964D01*
X141714858Y-88429995D01*
X141714858Y-88430002D01*
X141735319Y-88572314D01*
X141795048Y-88703100D01*
X141799889Y-88708687D01*
X142078577Y-88429999D01*
X142058687Y-88410109D01*
X142120000Y-88410109D01*
X142120000Y-88449891D01*
X142135224Y-88486645D01*
X142163355Y-88514776D01*
X142200109Y-88530000D01*
X142239891Y-88530000D01*
X142276645Y-88514776D01*
X142304776Y-88486645D01*
X142320000Y-88449891D01*
X142320000Y-88429999D01*
X142361421Y-88429999D01*
X142640109Y-88708687D01*
X142644950Y-88703102D01*
X142644951Y-88703100D01*
X142704680Y-88572314D01*
X142725142Y-88430002D01*
X142725142Y-88429997D01*
X142711622Y-88335965D01*
X142722055Y-88275676D01*
X142765933Y-88233034D01*
X142826495Y-88224326D01*
X142837506Y-88226886D01*
X142848109Y-88229999D01*
X142848112Y-88230000D01*
X142991888Y-88230000D01*
X142991890Y-88229999D01*
X143129844Y-88189492D01*
X143129846Y-88189491D01*
X143195728Y-88147149D01*
X143195729Y-88147149D01*
X142920000Y-87871421D01*
X142670580Y-88120840D01*
X142670577Y-88120841D01*
X142562911Y-88228509D01*
X142361421Y-88429999D01*
X142320000Y-88429999D01*
X142320000Y-88410109D01*
X142304776Y-88373355D01*
X142276645Y-88345224D01*
X142239891Y-88330000D01*
X142200109Y-88330000D01*
X142163355Y-88345224D01*
X142135224Y-88373355D01*
X142120000Y-88410109D01*
X142058687Y-88410109D01*
X141877089Y-88228510D01*
X141877089Y-88228511D01*
X141829220Y-88180642D01*
X141829217Y-88180637D01*
X141520000Y-87871421D01*
X141270580Y-88120840D01*
X141270577Y-88120841D01*
X141162911Y-88228509D01*
X140961421Y-88429999D01*
X140920000Y-88429999D01*
X140920000Y-88410109D01*
X140904776Y-88373355D01*
X140876645Y-88345224D01*
X140839891Y-88330000D01*
X140800109Y-88330000D01*
X140763355Y-88345224D01*
X140735224Y-88373355D01*
X140720000Y-88410109D01*
X140658687Y-88410109D01*
X140477089Y-88228510D01*
X140477089Y-88228511D01*
X140429220Y-88180642D01*
X140429217Y-88180637D01*
X140120000Y-87871421D01*
X139844269Y-88147149D01*
X131620500Y-88147149D01*
X131620500Y-87729997D01*
X139614858Y-87729997D01*
X139614858Y-87730002D01*
X139635319Y-87872314D01*
X139695048Y-88003100D01*
X139699889Y-88008687D01*
X139978578Y-87729999D01*
X139958688Y-87710109D01*
X140020000Y-87710109D01*
X140020000Y-87749891D01*
X140035224Y-87786645D01*
X140063355Y-87814776D01*
X140100109Y-87830000D01*
X140139891Y-87830000D01*
X140176645Y-87814776D01*
X140204776Y-87786645D01*
X140220000Y-87749891D01*
X140220000Y-87729999D01*
X140261421Y-87729999D01*
X140261421Y-87730000D01*
X140462910Y-87931490D01*
X140570578Y-88039157D01*
X140819999Y-88288577D01*
X141069418Y-88039159D01*
X141069419Y-88039159D01*
X141177089Y-87931490D01*
X141378578Y-87730000D01*
X141378578Y-87729999D01*
X141358688Y-87710109D01*
X141420000Y-87710109D01*
X141420000Y-87749891D01*
X141435224Y-87786645D01*
X141463355Y-87814776D01*
X141500109Y-87830000D01*
X141539891Y-87830000D01*
X141576645Y-87814776D01*
X141604776Y-87786645D01*
X141620000Y-87749891D01*
X141620000Y-87729999D01*
X141661421Y-87729999D01*
X141661421Y-87730000D01*
X141862910Y-87931490D01*
X141970578Y-88039157D01*
X142219999Y-88288577D01*
X142469418Y-88039159D01*
X142469419Y-88039159D01*
X142577089Y-87931490D01*
X142778578Y-87730000D01*
X142778578Y-87729999D01*
X142758688Y-87710109D01*
X142820000Y-87710109D01*
X142820000Y-87749891D01*
X142835224Y-87786645D01*
X142863355Y-87814776D01*
X142900109Y-87830000D01*
X142939891Y-87830000D01*
X142976645Y-87814776D01*
X143004776Y-87786645D01*
X143020000Y-87749891D01*
X143020000Y-87729999D01*
X143061421Y-87729999D01*
X143340109Y-88008687D01*
X143344950Y-88003102D01*
X143344951Y-88003100D01*
X143404680Y-87872314D01*
X143425142Y-87730002D01*
X143425142Y-87729997D01*
X143404680Y-87587685D01*
X143344951Y-87456899D01*
X143340109Y-87451311D01*
X143061421Y-87729999D01*
X143020000Y-87729999D01*
X143020000Y-87710109D01*
X143004776Y-87673355D01*
X142976645Y-87645224D01*
X142939891Y-87630000D01*
X142900109Y-87630000D01*
X142863355Y-87645224D01*
X142835224Y-87673355D01*
X142820000Y-87710109D01*
X142758688Y-87710109D01*
X142577089Y-87528510D01*
X142577089Y-87528511D01*
X142529220Y-87480642D01*
X142529217Y-87480637D01*
X142220000Y-87171421D01*
X141970580Y-87420840D01*
X141970577Y-87420841D01*
X141862911Y-87528509D01*
X141661421Y-87729999D01*
X141620000Y-87729999D01*
X141620000Y-87710109D01*
X141604776Y-87673355D01*
X141576645Y-87645224D01*
X141539891Y-87630000D01*
X141500109Y-87630000D01*
X141463355Y-87645224D01*
X141435224Y-87673355D01*
X141420000Y-87710109D01*
X141358688Y-87710109D01*
X141177089Y-87528510D01*
X141177089Y-87528511D01*
X141129220Y-87480642D01*
X141129217Y-87480637D01*
X140820000Y-87171421D01*
X140570580Y-87420840D01*
X140570577Y-87420841D01*
X140462911Y-87528509D01*
X140261421Y-87729999D01*
X140220000Y-87729999D01*
X140220000Y-87710109D01*
X140204776Y-87673355D01*
X140176645Y-87645224D01*
X140139891Y-87630000D01*
X140100109Y-87630000D01*
X140063355Y-87645224D01*
X140035224Y-87673355D01*
X140020000Y-87710109D01*
X139958688Y-87710109D01*
X139699889Y-87451311D01*
X139695048Y-87456899D01*
X139695046Y-87456902D01*
X139635319Y-87587685D01*
X139614858Y-87729997D01*
X131620500Y-87729997D01*
X131620500Y-86747149D01*
X139844269Y-86747149D01*
X139910155Y-86789492D01*
X140048109Y-86829999D01*
X140048112Y-86830000D01*
X140191888Y-86830000D01*
X140191892Y-86829999D01*
X140202491Y-86826887D01*
X140263651Y-86828633D01*
X140312105Y-86865994D01*
X140329345Y-86924701D01*
X140328377Y-86935964D01*
X140314858Y-87029995D01*
X140314858Y-87030003D01*
X140328377Y-87124034D01*
X140317944Y-87184324D01*
X140274065Y-87226966D01*
X140213503Y-87235673D01*
X140202496Y-87233114D01*
X140191891Y-87230000D01*
X140048109Y-87230000D01*
X139910156Y-87270507D01*
X139910151Y-87270509D01*
X139844269Y-87312848D01*
X140119999Y-87588577D01*
X140369418Y-87339159D01*
X140369419Y-87339159D01*
X140477089Y-87231490D01*
X140678578Y-87030000D01*
X140678578Y-87029999D01*
X140658688Y-87010109D01*
X140720000Y-87010109D01*
X140720000Y-87049891D01*
X140735224Y-87086645D01*
X140763355Y-87114776D01*
X140800109Y-87130000D01*
X140839891Y-87130000D01*
X140876645Y-87114776D01*
X140904776Y-87086645D01*
X140920000Y-87049891D01*
X140920000Y-87029999D01*
X140961421Y-87029999D01*
X140961421Y-87030000D01*
X141162910Y-87231490D01*
X141270578Y-87339157D01*
X141519999Y-87588577D01*
X141769418Y-87339159D01*
X141769419Y-87339159D01*
X141877089Y-87231490D01*
X142078578Y-87030000D01*
X142078578Y-87029999D01*
X142058688Y-87010109D01*
X142120000Y-87010109D01*
X142120000Y-87049891D01*
X142135224Y-87086645D01*
X142163355Y-87114776D01*
X142200109Y-87130000D01*
X142239891Y-87130000D01*
X142276645Y-87114776D01*
X142304776Y-87086645D01*
X142320000Y-87049891D01*
X142320000Y-87029999D01*
X142361421Y-87029999D01*
X142361421Y-87030000D01*
X142562910Y-87231490D01*
X142670578Y-87339157D01*
X142919999Y-87588577D01*
X143195728Y-87312848D01*
X143129844Y-87270507D01*
X142991890Y-87230000D01*
X142848112Y-87230000D01*
X142848104Y-87230001D01*
X142837501Y-87233114D01*
X142776341Y-87231364D01*
X142727890Y-87193999D01*
X142710654Y-87135292D01*
X142711109Y-87129997D01*
X148404353Y-87129997D01*
X148404353Y-87130002D01*
X148424834Y-87272456D01*
X148443281Y-87312848D01*
X148484623Y-87403373D01*
X148578872Y-87512143D01*
X148578873Y-87512144D01*
X148696418Y-87587685D01*
X148699947Y-87589953D01*
X148806403Y-87621211D01*
X148838035Y-87630499D01*
X148838036Y-87630499D01*
X148838039Y-87630500D01*
X148838041Y-87630500D01*
X148981959Y-87630500D01*
X148981961Y-87630500D01*
X149120053Y-87589953D01*
X149241128Y-87512143D01*
X149335377Y-87403373D01*
X149395165Y-87272457D01*
X149401992Y-87224971D01*
X149415647Y-87130002D01*
X149415647Y-87130000D01*
X149412558Y-87108518D01*
X149422990Y-87048228D01*
X149440547Y-87024423D01*
X149477427Y-86987543D01*
X149550460Y-86914511D01*
X149583879Y-86856627D01*
X149590021Y-86845989D01*
X149610500Y-86769562D01*
X149610500Y-85529500D01*
X149629407Y-85471309D01*
X149678907Y-85435345D01*
X149709500Y-85430500D01*
X149979747Y-85430500D01*
X149979748Y-85430500D01*
X150038231Y-85418867D01*
X150104552Y-85374552D01*
X150148867Y-85308231D01*
X150160500Y-85249748D01*
X150160500Y-81810252D01*
X150148867Y-81751769D01*
X150104552Y-81685448D01*
X150104548Y-81685445D01*
X150038233Y-81641134D01*
X150038231Y-81641133D01*
X150038228Y-81641132D01*
X150038227Y-81641132D01*
X149979758Y-81629501D01*
X149979748Y-81629500D01*
X148640252Y-81629500D01*
X148640251Y-81629500D01*
X148640241Y-81629501D01*
X148581772Y-81641132D01*
X148581766Y-81641134D01*
X148515451Y-81685445D01*
X148515445Y-81685451D01*
X148471134Y-81751766D01*
X148471132Y-81751772D01*
X148459501Y-81810241D01*
X148459500Y-81810253D01*
X148459500Y-85249746D01*
X148459501Y-85249758D01*
X148471132Y-85308227D01*
X148471134Y-85308233D01*
X148503652Y-85356899D01*
X148515448Y-85374552D01*
X148581769Y-85418867D01*
X148626231Y-85427711D01*
X148640241Y-85430498D01*
X148640246Y-85430498D01*
X148640252Y-85430500D01*
X148910500Y-85430500D01*
X148968691Y-85449407D01*
X149004655Y-85498907D01*
X149009500Y-85529500D01*
X149009500Y-86530500D01*
X148990593Y-86588691D01*
X148941093Y-86624655D01*
X148910500Y-86629500D01*
X148838035Y-86629500D01*
X148699949Y-86670046D01*
X148699942Y-86670049D01*
X148578873Y-86747855D01*
X148484622Y-86856628D01*
X148424834Y-86987543D01*
X148404353Y-87129997D01*
X142711109Y-87129997D01*
X142711622Y-87124033D01*
X142725142Y-87030001D01*
X142725142Y-87029997D01*
X142711622Y-86935965D01*
X142722055Y-86875676D01*
X142765933Y-86833034D01*
X142826495Y-86824326D01*
X142837506Y-86826886D01*
X142848109Y-86829999D01*
X142848112Y-86830000D01*
X142991888Y-86830000D01*
X142991890Y-86829999D01*
X143129844Y-86789492D01*
X143129846Y-86789491D01*
X143195728Y-86747149D01*
X143195729Y-86747149D01*
X142920000Y-86471421D01*
X142670580Y-86720840D01*
X142670577Y-86720841D01*
X142562911Y-86828509D01*
X142361421Y-87029999D01*
X142320000Y-87029999D01*
X142320000Y-87010109D01*
X142304776Y-86973355D01*
X142276645Y-86945224D01*
X142239891Y-86930000D01*
X142200109Y-86930000D01*
X142163355Y-86945224D01*
X142135224Y-86973355D01*
X142120000Y-87010109D01*
X142058688Y-87010109D01*
X141877089Y-86828510D01*
X141877089Y-86828511D01*
X141829220Y-86780642D01*
X141829217Y-86780637D01*
X141520000Y-86471421D01*
X141270580Y-86720840D01*
X141270577Y-86720841D01*
X141162911Y-86828509D01*
X140961421Y-87029999D01*
X140920000Y-87029999D01*
X140920000Y-87010109D01*
X140904776Y-86973355D01*
X140876645Y-86945224D01*
X140839891Y-86930000D01*
X140800109Y-86930000D01*
X140763355Y-86945224D01*
X140735224Y-86973355D01*
X140720000Y-87010109D01*
X140658688Y-87010109D01*
X140477089Y-86828510D01*
X140477089Y-86828511D01*
X140429220Y-86780642D01*
X140429217Y-86780637D01*
X140120000Y-86471421D01*
X139844269Y-86747149D01*
X131620500Y-86747149D01*
X131620500Y-86329997D01*
X139614858Y-86329997D01*
X139614858Y-86330002D01*
X139635319Y-86472314D01*
X139695048Y-86603100D01*
X139699889Y-86608687D01*
X139978578Y-86329999D01*
X139958688Y-86310109D01*
X140020000Y-86310109D01*
X140020000Y-86349891D01*
X140035224Y-86386645D01*
X140063355Y-86414776D01*
X140100109Y-86430000D01*
X140139891Y-86430000D01*
X140176645Y-86414776D01*
X140204776Y-86386645D01*
X140220000Y-86349891D01*
X140220000Y-86329999D01*
X140261421Y-86329999D01*
X140261421Y-86330000D01*
X140462910Y-86531490D01*
X140570578Y-86639157D01*
X140819999Y-86888577D01*
X141069418Y-86639159D01*
X141069419Y-86639159D01*
X141177089Y-86531490D01*
X141378578Y-86330000D01*
X141378578Y-86329999D01*
X141358688Y-86310109D01*
X141420000Y-86310109D01*
X141420000Y-86349891D01*
X141435224Y-86386645D01*
X141463355Y-86414776D01*
X141500109Y-86430000D01*
X141539891Y-86430000D01*
X141576645Y-86414776D01*
X141604776Y-86386645D01*
X141620000Y-86349891D01*
X141620000Y-86329999D01*
X141661421Y-86329999D01*
X141661421Y-86330000D01*
X141862910Y-86531490D01*
X141970578Y-86639157D01*
X142219999Y-86888577D01*
X142469418Y-86639159D01*
X142469419Y-86639159D01*
X142577089Y-86531490D01*
X142778578Y-86330000D01*
X142778578Y-86329999D01*
X142758688Y-86310109D01*
X142820000Y-86310109D01*
X142820000Y-86349891D01*
X142835224Y-86386645D01*
X142863355Y-86414776D01*
X142900109Y-86430000D01*
X142939891Y-86430000D01*
X142976645Y-86414776D01*
X143004776Y-86386645D01*
X143020000Y-86349891D01*
X143020000Y-86329999D01*
X143061421Y-86329999D01*
X143340109Y-86608687D01*
X143344950Y-86603102D01*
X143344951Y-86603100D01*
X143404680Y-86472314D01*
X143425142Y-86330002D01*
X143425142Y-86329997D01*
X143404680Y-86187685D01*
X143344951Y-86056899D01*
X143340109Y-86051311D01*
X143061421Y-86329999D01*
X143020000Y-86329999D01*
X143020000Y-86310109D01*
X143004776Y-86273355D01*
X142976645Y-86245224D01*
X142939891Y-86230000D01*
X142900109Y-86230000D01*
X142863355Y-86245224D01*
X142835224Y-86273355D01*
X142820000Y-86310109D01*
X142758688Y-86310109D01*
X142577089Y-86128510D01*
X142577089Y-86128511D01*
X142529220Y-86080642D01*
X142529217Y-86080637D01*
X142220000Y-85771421D01*
X141970580Y-86020840D01*
X141970577Y-86020841D01*
X141862911Y-86128509D01*
X141661421Y-86329999D01*
X141620000Y-86329999D01*
X141620000Y-86310109D01*
X141604776Y-86273355D01*
X141576645Y-86245224D01*
X141539891Y-86230000D01*
X141500109Y-86230000D01*
X141463355Y-86245224D01*
X141435224Y-86273355D01*
X141420000Y-86310109D01*
X141358688Y-86310109D01*
X141177089Y-86128510D01*
X141177089Y-86128511D01*
X141129220Y-86080642D01*
X141129217Y-86080637D01*
X140820000Y-85771421D01*
X140570580Y-86020840D01*
X140570577Y-86020841D01*
X140462911Y-86128509D01*
X140261421Y-86329999D01*
X140220000Y-86329999D01*
X140220000Y-86310109D01*
X140204776Y-86273355D01*
X140176645Y-86245224D01*
X140139891Y-86230000D01*
X140100109Y-86230000D01*
X140063355Y-86245224D01*
X140035224Y-86273355D01*
X140020000Y-86310109D01*
X139958688Y-86310109D01*
X139699889Y-86051311D01*
X139695048Y-86056899D01*
X139695046Y-86056902D01*
X139635319Y-86187685D01*
X139614858Y-86329997D01*
X131620500Y-86329997D01*
X131620500Y-85912848D01*
X139844269Y-85912848D01*
X140119999Y-86188577D01*
X140369418Y-85939159D01*
X140369419Y-85939159D01*
X140477089Y-85831490D01*
X140678578Y-85630000D01*
X140678578Y-85629999D01*
X140658688Y-85610109D01*
X140720000Y-85610109D01*
X140720000Y-85649891D01*
X140735224Y-85686645D01*
X140763355Y-85714776D01*
X140800109Y-85730000D01*
X140839891Y-85730000D01*
X140876645Y-85714776D01*
X140904776Y-85686645D01*
X140920000Y-85649891D01*
X140920000Y-85629999D01*
X140961421Y-85629999D01*
X140961421Y-85630000D01*
X141162910Y-85831490D01*
X141270578Y-85939157D01*
X141519999Y-86188577D01*
X141769418Y-85939159D01*
X141769419Y-85939159D01*
X141877089Y-85831490D01*
X142078578Y-85630000D01*
X142078578Y-85629999D01*
X142058688Y-85610109D01*
X142120000Y-85610109D01*
X142120000Y-85649891D01*
X142135224Y-85686645D01*
X142163355Y-85714776D01*
X142200109Y-85730000D01*
X142239891Y-85730000D01*
X142276645Y-85714776D01*
X142304776Y-85686645D01*
X142320000Y-85649891D01*
X142320000Y-85629999D01*
X142361421Y-85629999D01*
X142361421Y-85630000D01*
X142562910Y-85831490D01*
X142670578Y-85939157D01*
X142919999Y-86188577D01*
X143195728Y-85912848D01*
X143129844Y-85870507D01*
X142991890Y-85830000D01*
X142848112Y-85830000D01*
X142848104Y-85830001D01*
X142837501Y-85833114D01*
X142776341Y-85831364D01*
X142727890Y-85793999D01*
X142710654Y-85735292D01*
X142711622Y-85724033D01*
X142725142Y-85630001D01*
X142725142Y-85629997D01*
X142704680Y-85487685D01*
X142644951Y-85356899D01*
X142640109Y-85351311D01*
X142361421Y-85629999D01*
X142320000Y-85629999D01*
X142320000Y-85610109D01*
X142304776Y-85573355D01*
X142276645Y-85545224D01*
X142239891Y-85530000D01*
X142200109Y-85530000D01*
X142163355Y-85545224D01*
X142135224Y-85573355D01*
X142120000Y-85610109D01*
X142058688Y-85610109D01*
X141799889Y-85351311D01*
X141795048Y-85356899D01*
X141795046Y-85356902D01*
X141735319Y-85487685D01*
X141714858Y-85629997D01*
X141714858Y-85630003D01*
X141728377Y-85724034D01*
X141717944Y-85784324D01*
X141674065Y-85826966D01*
X141613503Y-85835673D01*
X141602496Y-85833114D01*
X141591891Y-85830000D01*
X141448112Y-85830000D01*
X141448104Y-85830001D01*
X141437501Y-85833114D01*
X141376341Y-85831364D01*
X141327890Y-85793999D01*
X141310654Y-85735292D01*
X141311622Y-85724033D01*
X141325142Y-85630001D01*
X141325142Y-85629997D01*
X141304680Y-85487685D01*
X141244951Y-85356899D01*
X141240109Y-85351311D01*
X140961421Y-85629999D01*
X140920000Y-85629999D01*
X140920000Y-85610109D01*
X140904776Y-85573355D01*
X140876645Y-85545224D01*
X140839891Y-85530000D01*
X140800109Y-85530000D01*
X140763355Y-85545224D01*
X140735224Y-85573355D01*
X140720000Y-85610109D01*
X140658688Y-85610109D01*
X140399889Y-85351311D01*
X140395048Y-85356899D01*
X140395046Y-85356902D01*
X140335319Y-85487685D01*
X140314858Y-85629997D01*
X140314858Y-85630003D01*
X140328377Y-85724034D01*
X140317944Y-85784324D01*
X140274065Y-85826966D01*
X140213503Y-85835673D01*
X140202496Y-85833114D01*
X140191891Y-85830000D01*
X140048109Y-85830000D01*
X139910156Y-85870507D01*
X139910151Y-85870509D01*
X139844269Y-85912848D01*
X131620500Y-85912848D01*
X131620500Y-85212848D01*
X140544269Y-85212848D01*
X140819999Y-85488577D01*
X141095728Y-85212848D01*
X141944269Y-85212848D01*
X142219999Y-85488577D01*
X142495728Y-85212848D01*
X142429844Y-85170507D01*
X142291890Y-85130000D01*
X142148109Y-85130000D01*
X142010156Y-85170507D01*
X142010151Y-85170509D01*
X141944269Y-85212848D01*
X141095728Y-85212848D01*
X141029844Y-85170507D01*
X140891890Y-85130000D01*
X140748109Y-85130000D01*
X140610156Y-85170507D01*
X140610151Y-85170509D01*
X140544269Y-85212848D01*
X131620500Y-85212848D01*
X131620500Y-81905479D01*
X131639407Y-81847288D01*
X131649496Y-81835475D01*
X132350406Y-81134565D01*
X132404923Y-81106788D01*
X132420410Y-81105569D01*
X132503022Y-81105569D01*
X132503024Y-81105569D01*
X132641116Y-81065022D01*
X132762191Y-80987212D01*
X132856440Y-80878442D01*
X132916228Y-80747526D01*
X132936710Y-80605069D01*
X132916228Y-80462612D01*
X132856440Y-80331696D01*
X132762191Y-80222926D01*
X132762190Y-80222925D01*
X132762189Y-80222924D01*
X132641120Y-80145118D01*
X132641117Y-80145116D01*
X132641116Y-80145116D01*
X132641113Y-80145115D01*
X132503027Y-80104569D01*
X132503024Y-80104569D01*
X132359102Y-80104569D01*
X132359098Y-80104569D01*
X132221012Y-80145115D01*
X132221005Y-80145118D01*
X132099936Y-80222924D01*
X132005685Y-80331697D01*
X131945897Y-80462612D01*
X131925416Y-80605066D01*
X131925416Y-80605072D01*
X131931504Y-80647419D01*
X131921070Y-80707708D01*
X131903516Y-80731510D01*
X131135489Y-81499539D01*
X131079539Y-81555489D01*
X131039980Y-81624007D01*
X131039978Y-81624011D01*
X131019500Y-81700435D01*
X131019500Y-98685500D01*
X131000593Y-98743691D01*
X130951093Y-98779655D01*
X130920500Y-98784500D01*
X130886510Y-98784500D01*
X130786874Y-98800281D01*
X130786867Y-98800283D01*
X130666782Y-98861470D01*
X130571470Y-98956782D01*
X130510283Y-99076867D01*
X130510281Y-99076874D01*
X130494500Y-99176510D01*
X130494500Y-99743489D01*
X130498942Y-99771537D01*
X130506697Y-99820500D01*
X130510281Y-99843125D01*
X130510283Y-99843132D01*
X130571470Y-99963217D01*
X130571472Y-99963220D01*
X130666780Y-100058528D01*
X130666782Y-100058529D01*
X130786867Y-100119716D01*
X130786869Y-100119716D01*
X130786874Y-100119719D01*
X130862541Y-100131703D01*
X130886510Y-100135500D01*
X130886512Y-100135500D01*
X131403490Y-100135500D01*
X131422707Y-100132456D01*
X131497868Y-100120551D01*
X131558297Y-100130122D01*
X131583357Y-100148328D01*
X131720504Y-100285475D01*
X131748281Y-100339992D01*
X131749500Y-100355479D01*
X131749500Y-100560500D01*
X131730593Y-100618691D01*
X131681093Y-100654655D01*
X131650500Y-100659500D01*
X131637279Y-100659500D01*
X131524767Y-100674312D01*
X131524761Y-100674314D01*
X131384768Y-100732301D01*
X131264551Y-100824547D01*
X131264547Y-100824551D01*
X131172301Y-100944768D01*
X131114314Y-101084761D01*
X131114312Y-101084767D01*
X131099500Y-101197279D01*
X131099500Y-102522720D01*
X131114213Y-102634481D01*
X131114313Y-102635236D01*
X131172302Y-102775233D01*
X131264549Y-102895451D01*
X131384767Y-102987698D01*
X131524764Y-103045687D01*
X131637280Y-103060500D01*
X131650500Y-103060500D01*
X131708691Y-103079407D01*
X131744655Y-103128907D01*
X131749500Y-103159500D01*
X131749500Y-106860500D01*
X131730593Y-106918691D01*
X131681093Y-106954655D01*
X131650500Y-106959500D01*
X130593379Y-106959500D01*
X130522805Y-106965913D01*
X130360394Y-107016521D01*
X130360392Y-107016522D01*
X130214816Y-107104527D01*
X130094527Y-107224816D01*
X130006522Y-107370392D01*
X130006521Y-107370394D01*
X129955913Y-107532805D01*
X129949500Y-107603379D01*
X129949500Y-108716620D01*
X129955913Y-108787194D01*
X130006521Y-108949605D01*
X130006522Y-108949607D01*
X130052385Y-109025472D01*
X130094528Y-109095185D01*
X130214815Y-109215472D01*
X130214817Y-109215473D01*
X130214818Y-109215474D01*
X130248405Y-109235778D01*
X130288422Y-109282062D01*
X130293592Y-109343029D01*
X130261938Y-109395390D01*
X130205553Y-109419146D01*
X130197189Y-109419500D01*
X128309500Y-109419500D01*
X128251309Y-109400593D01*
X128215345Y-109351093D01*
X128210500Y-109320500D01*
X128210500Y-77919000D01*
X128229407Y-77860809D01*
X128278907Y-77824845D01*
X128309500Y-77820000D01*
X159110500Y-77820000D01*
X159168691Y-77838907D01*
G37*
%TD.AperFunction*%
%TD*%
M02*
